<?xml version="1.0"?>
<!DOCTYPE svg PUBLIC "-//W3C//DTD SVG 1.1//EN" "http://www.w3.org/Graphics/SVG/1.1/DTD/svg11.dtd">
<svg width="191.73201592097382mm" height="112.77340370617709mm" viewBox="0 0 191.73201592097382 112.77340370617709" xmlns="http://www.w3.org/2000/svg" version="1.1">
<g id="Sketch" transform="translate(-404.217081,56.608045) scale(1,-1)">
<path id="Sketch_w0000"  d="M 410.9844214407997 54.72831899775378 L 532.4263714999956 54.72831899775378 A 15.2692 15.2692 0 0 1 549.34 54.4631L 589.4445627888981 54.46306333269905 A 4.01265 4.01265 0 0 0 593.446 50.4504L 593.4457611357415 48.41789328806448 A 31.0375 31.0375 0 0 1 593.987 7.8114L 594.0693708176302 6.088140590697726 A 1.80308 1.80308 0 0 0 592.266 4.28428L 579.2884370917459 4.2842848336633 A 2.81593 2.81593 0 0 1 576.473 1.46836L 576.4725089310608 -34.32972633417277 A 2.7704 2.7704 0 0 1 577.24 -36.2436L 587.9505909906532 -47.45349490128161 A 1.90944 1.90944 0 0 0 588.479 -48.8004L 588.4663099446051 -49.69086603342085 A 4.66258 4.66258 0 0 0 583.804 -54.2856L 420.38537164740393 -54.28563341585519 A 5.22406 5.22406 0 0 0 416.193 -52.1781A 26.0034 26.0034 0 0 0 413.531 -25.5997A 2.19816 2.19816 0 0 1 413.531 -23.7298A 19.0343 19.0343 0 0 0 414.786 -5.28724A 1.46186 1.46186 0 0 1 414.682 -3.55576L 406.09680618922454 6.733964459740345 L 406.09680618922454 49.84070374617865 A 4.88762 4.88762 0 0 0 410.984 54.7283" stroke="#000000" stroke-width="0.35 px" style="stroke-width:0.35;stroke-miterlimit:4;stroke-dasharray:none;stroke-linecap:square;fill:none;fill-opacity:1;fill-rule: evenodd"/>
<title>b'Sketch'</title>
</g>
</svg>