<?xml version="1.0"?>
<!DOCTYPE svg PUBLIC "-//W3C//DTD SVG 1.1//EN" "http://www.w3.org/Graphics/SVG/1.1/DTD/svg11.dtd">
<svg width="192.96259632000005mm" height="112.36570406722704mm" viewBox="0 0 192.96259632000005 112.36570406722704" xmlns="http://www.w3.org/2000/svg" version="1.1">
<g id="Sketch001" transform="translate(-403.654108,56.119657) scale(1,-1)">
<path id="Sketch001_w0000"  d="M 405.545898 54.227867 L 416.615356 54.227867 L 422.951813 31.058157 L 422.951813 54.16386 L 431.208435 54.03585100000001 L 431.208435 3.856154 L 421.99176 3.856154 L 414.055176 33.298325 L 414.055176 3.856154 L 405.545898 3.810920000000003 L 405.545898 54.227867 " stroke="#000000" stroke-width="0.35 px" style="stroke-width:0.35;stroke-miterlimit:4;stroke-dasharray:none;stroke-linecap:square;fill:none;fill-opacity:1;fill-rule: evenodd"/>
<path id="Sketch001_w0001"  d="M 438.87149 54.183952 L 461.310211 54.183952 L 461.310211 45.590408 L 448.135345 45.590408 L 448.135345 34.519779 L 458.68222 34.519779 L 458.68222 25.686029 L 448.12851 25.686029 L 448.12851 12.552539 L 461.183838 12.552539 L 461.183838 3.8750549999999997 L 438.87149 3.875054999999998 L 438.87149 54.183952 " stroke="#000000" stroke-width="0.35 px" style="stroke-width:0.35;stroke-miterlimit:4;stroke-dasharray:none;stroke-linecap:square;fill:none;fill-opacity:1;fill-rule: evenodd"/>
<path id="Sketch001_w0002"  d="M 465.561646 53.985577 L 465.561646 45.542618 L 473.535553 45.542618 L 473.535553 3.718704 L 482.760284 3.718704 L 482.760284 45.542618 L 490.968719 45.542618 L 490.968719 53.985577 L 465.561646 53.985577 " stroke="#000000" stroke-width="0.35 px" style="stroke-width:0.35;stroke-miterlimit:4;stroke-dasharray:none;stroke-linecap:square;fill:none;fill-opacity:1;fill-rule: evenodd"/>
<path id="Sketch001_w0003"  d="M 496.409546 54.207252000000004 L 496.409546 3.718266 L 505.868774 3.718266 L 505.868774 25.060188 L 515.484375 25.060188 L 515.484375 33.737675 L 505.790619 33.737675 L 505.790619 45.542183 L 518.298706 45.542183 L 518.298706 54.207252000000004 L 496.409546 54.207252000000004 " stroke="#000000" stroke-width="0.35 px" style="stroke-width:0.35;stroke-miterlimit:4;stroke-dasharray:none;stroke-linecap:square;fill:none;fill-opacity:1;fill-rule: evenodd"/>
<path id="Sketch001_w0004"  d="M 523.843323 54.21076600000001 L 523.843323 3.711039999999999 L 545.604981 3.71104 L 545.604981 12.543692 L 532.9960329999999 12.543692 L 532.9960329999999 54.21076600000001 L 523.843323 54.21076600000001 " stroke="#000000" stroke-width="0.35 px" style="stroke-width:0.35;stroke-miterlimit:4;stroke-dasharray:none;stroke-linecap:square;fill:none;fill-opacity:1;fill-rule: evenodd"/>
<path id="Sketch001_w0005"  d="M 551.265747 54.082401 L 551.265747 3.774687 L 560.354431 3.774687 L 560.354431 54.082401 L 551.265747 54.082401 " stroke="#000000" stroke-width="0.35 px" style="stroke-width:0.35;stroke-miterlimit:4;stroke-dasharray:none;stroke-linecap:square;fill:none;fill-opacity:1;fill-rule: evenodd"/>
<path id="Sketch001_w0006"  d="M 575.779541 54.146408 L 566.178833 54.146408 L 574.89624 29.696815 L 565.730835 3.902695999999999 L 574.563477 3.902695999999999 L 579.824585 18.816011 L 584.996216 3.774687 L 594.724914 3.774687 L 585.585022 29.568806 L 594.3408820000001 54.210411 L 585.50824 54.210411 L 580.592651 40.449612 L 575.779541 54.146408 " stroke="#000000" stroke-width="0.35 px" style="stroke-width:0.35;stroke-miterlimit:4;stroke-dasharray:none;stroke-linecap:square;fill:none;fill-opacity:1;fill-rule: evenodd"/>
<path id="Sketch001_w0007"  d="M 565.987793 -3.2548710000000014 L 575.3964850000001 -3.2548710000000014 L 575.3964850000001 -44.729931 L 588.005432 -44.729931 L 588.005432 -53.562584 L 565.987793 -53.562584 L 565.987793 -3.2548710000000014 " stroke="#000000" stroke-width="0.35 px" style="stroke-width:0.35;stroke-miterlimit:4;stroke-dasharray:none;stroke-linecap:square;fill:none;fill-opacity:1;fill-rule: evenodd"/>
<path id="Sketch001_w0008"  d="M 538.721802 -3.318871 L 538.721802 -53.562584 L 560.739441 -53.562584 L 560.739441 -45.049953 L 547.874451 -45.049953 L 547.874451 -3.3188710000000006 L 538.721802 -3.318871 " stroke="#000000" stroke-width="0.35 px" style="stroke-width:0.35;stroke-miterlimit:4;stroke-dasharray:none;stroke-linecap:square;fill:none;fill-opacity:1;fill-rule: evenodd"/>
<path id="Sketch001_w0009"  d="M 521.858643 -3.322287 L 521.858643 -53.373985 L 531.075317 -53.373985 L 531.075317 -3.3222870000000015 L 521.858643 -3.322287 " stroke="#000000" stroke-width="0.35 px" style="stroke-width:0.35;stroke-miterlimit:4;stroke-dasharray:none;stroke-linecap:square;fill:none;fill-opacity:1;fill-rule: evenodd"/>
<path id="Sketch001_w0010"  d="M 489.143921 -3.195276 L 489.143921 -53.502995 L 498.360596 -53.502995 L 498.360596 -31.741386 L 504.953094 -31.741386 L 504.953094 -53.438992 L 514.169739 -53.438992 L 514.169739 -3.131273 L 504.953094 -3.131273 L 504.953094 -23.036743 L 498.2966 -23.036743 L 498.2966 -3.131273 L 489.143921 -3.195276 " stroke="#000000" stroke-width="0.35 px" style="stroke-width:0.35;stroke-miterlimit:4;stroke-dasharray:none;stroke-linecap:square;fill:none;fill-opacity:1;fill-rule: evenodd"/>
<path id="Sketch001_w0011"  d="M 458.7509866057176 -13.078852203057087 L 458.7509866057176 -44.500575566952335 A 12.2064 12.2064 0 0 1 482.541 -45.2303L 482.5405390450029 -33.86493 L 473.8135823435167 -33.86493 L 473.8135823435167 -42.85584140176521 A 2.96468 2.96468 0 0 0 467.941 -43.2309L 467.9413995609346 -14.095753458885127 A 2.92925 2.92925 0 0 0 473.794 -13.9212L 473.79415520671864 -21.168789 L 482.9612428425813 -21.168789 L 482.9612428425813 -13.404966293228181 A 12.1622 12.1622 0 0 1 458.751 -13.0789" stroke="#000000" stroke-width="0.35 px" style="stroke-width:0.35;stroke-miterlimit:4;stroke-dasharray:none;stroke-linecap:square;fill:none;fill-opacity:1;fill-rule: evenodd"/>
<path id="Sketch001_w0012"  d="M 411.5130829394049 -34.150823608080984 L 411.5130829394049 -46.65702119480553 A 8.61771 8.61771 0 0 1 420.596 -54.239A 8.01171 8.01171 0 0 1 427.238 -51.4102L 427.883148 -53.558823 L 437.08609 -53.558823 L 436.158539 -50.136482 L 436.15853900000013 -31.68748823276798 L 438.417816 -31.68748823276798 L 438.417816 -23.09731083154921 L 436.19097900000014 -23.09731083154921 L 436.19097900000014 -17.591908000000068 L 426.8789968662067 -17.591908000000068 L 426.8789968662067 -23.033305831549193 L 423.48672364504836 -23.033305831549193 A 2.67256 2.67256 0 0 0 421.072 -20.2759L 421.07197786833166 -14.19115644757702 A 2.68085 2.68085 0 0 0 424.319 -11.8134L 433.535492 -11.8134473163536 L 433.535492 -3.29965861165115 L 421.4590780057238 -3.29965861165115 A 10.4084 10.4084 0 0 1 412.104 -13.7869L 412.1036019106772 -19.71781102133454 L 412.1036019106772 -13.78685601691725 M 412.1036019106772 -19.71781102133454 A 7.9434 7.9434 0 0 1 416.253 -27.01A 7.86764 7.86764 0 0 1 411.513 -34.3077L 411.51308293940474 -42.91246631503388 M 420.5962717356152 -54.238964987098456 L 419.54422978025195 -54.23896498709845 M 436.19097900000014 -17.591908000000032 L 436.19097900000014 -23.09731083154921 M 421.4590780057238 -3.29965861165115 L 433.49258399999997 -3.29965861165115 " stroke="#000000" stroke-width="0.35 px" style="stroke-width:0.35;stroke-miterlimit:4;stroke-dasharray:none;stroke-linecap:square;fill:none;fill-opacity:1;fill-rule: evenodd"/>
<path id="Sketch001_w0013"  d="M 420.95045156018307 -42.86217538421515 L 420.95045156018307 -34.74350039781104 A 3.31845 3.31845 0 0 0 423.276 -31.8053L 426.8474465293451 -31.80529385813425 L 426.8474465293451 -42.566330454129115 A 2.95456 2.95456 0 0 0 420.95 -42.8622" stroke="#000000" stroke-width="0.35 px" style="stroke-width:0.35;stroke-miterlimit:4;stroke-dasharray:none;stroke-linecap:square;fill:none;fill-opacity:1;fill-rule: evenodd"/>
<title>b'SketchLetters'</title>
</g>
</svg>