999
FreeCAD v0.20 29177 (Git)
  0
SECTION
  2
HEADER
  9
$ACADVER
  1
AC1014
  9
$ACADMAINTVER
 70
     9
  9
$DWGCODEPAGE
  3
ANSI_1252
  9
$TEXTSTYLE
  7
STANDARD
  9
$DIMSTYLE
  2
STANDARD
  9
$DIMTXSTY
  7
STANDARD
  9
$CMLSTYLE
  2
STANDARD
  9
$LUNITS
 70
2
  9
$INSUNITS
 70
4
  9
$PEXTMAX
 10
50
 20
50
 30
50
  9
$PEXTMIN
 10
0
 20
0
 30
0
  9
$HANDSEED
  5
FFFF
  0
ENDSEC
  0
SECTION
  2
CLASSES
  0
CLASS
  1
ACDBDICTIONARYWDFLT
  2
AcDbDictionaryWithDefault
  3
ObjectDBX Classes
 90
        0
280
     0
281
     0
  0
CLASS
  1
XRECORD
  2
AcDbXrecord
  3
ObjectDBX Classes
 90
        0
280
     0
281
     0
  0
CLASS
  1
LWPOLYLINE
  2
AcDbPolyline
  3
ObjectDBX Classes
 90
        0
280
     0
281
     1
  0
ENDSEC
  0
SECTION
  2
TABLES
  0
TABLE
  2
VPORT
  5
20
330
0
100
AcDbSymbolTable
 70
     1
  0
VPORT
  5
21
330
20
100
AcDbSymbolTableRecord
100
AcDbViewportTableRecord
  2
*ACTIVE
 70
     0
  0
ENDTAB
  0
TABLE
  2
LTYPE
  5
22
330
0
100
AcDbSymbolTable
 70
     1
  0
LTYPE
  5
23
330
21
100
AcDbSymbolTableRecord
100
AcDbLinetypeTableRecord
  2
BYBLOCK
 70
     0
  3

 72
    65
 73
     0
 40
0.0
  0
LTYPE
  5
24
330
21
100
AcDbSymbolTableRecord
100
AcDbLinetypeTableRecord
  2
BYLAYER
 70
     0
  3

 72
    65
 73
     0
 40
0.0
  0
LTYPE
  5
25
330
21
100
AcDbSymbolTableRecord
100
AcDbLinetypeTableRecord
  2
CONTINUOUS
 70
     0
  3
Solid line
 72
    65
 73
     0
 40
0.0
  0
ENDTAB
  0
TABLE
  2
LAYER
  5
A90
330
0
100
AcDbSymbolTable
 70
3
  0
LAYER
  5
A91
330
A90
100
AcDbSymbolTableRecord
100
AcDbLayerTableRecord
  2
0
 70
   0
 62
   7
  6
CONTINUOUS
  0
LAYER
  5
A92
330
A90
100
AcDbSymbolTableRecord
100
AcDbLayerTableRecord
  2
none
 70
    0
 62
    7
  6
CONTINUOUS
  0
LAYER
  5
A93
330
A90
100
AcDbSymbolTableRecord
100
AcDbLayerTableRecord
  2
Sketch001
 70
    0
 62
    7
  6
CONTINUOUS
  0
ENDTAB
  0
TABLE
  2
STYLE
  5
70
330
0
100
AcDbSymbolTable
 70
     2
  0
STYLE
  5
71
330
70
100
AcDbSymbolTableRecord
100
AcDbTextStyleTableRecord
  2
STANDARD
 70
     0
 40
0.0
 41
1.0
 50
0.0
 71
     0
 42
2.5
  3
arial.ttf
  4

  0
STYLE
  5
72
330
70
100
AcDbSymbolTableRecord
100
AcDbTextStyleTableRecord
  2
ANNOTATIVE
 70
     0
 40
0.0
 41
1.0
 50
0.0
 71
     0
 42
2.5
  3
arial.ttf
  4

  0
ENDTAB
  0
TABLE
  2
VIEW
  5
73
330
0
100
AcDbSymbolTable
 70
     0
  0
ENDTAB
  0
TABLE
  2
UCS
  5
74
330
0
100
AcDbSymbolTable
 70
     0
  0
ENDTAB
  0
TABLE
  2
APPID
  5
75
330
0
100
AcDbSymbolTable
 70
     2
  0
APPID
  5
76
330
75
100
AcDbSymbolTableRecord
100
AcDbRegAppTableRecord
  2
ACAD
 70
     0
  0
APPID
  5
77
330
75
100
AcDbSymbolTableRecord
100
AcDbRegAppTableRecord
  2
ACADANNOTATIVE
 70
     0
  0
ENDTAB
  0
TABLE
  2
DIMSTYLE
  5
78
330
0
100
AcDbSymbolTable
 70
     2
  0
DIMSTYLE
105
79
330
78
100
AcDbSymbolTableRecord
100
AcDbDimStyleTableRecord
  2
STANDARD
 70
     0
  3

  4

  5

  6

  7

 40
0.0
 41
2.5
 42
0.625
 43
3.75
 44
1.25
 45
0.0
 46
0.0
 47
0.0
 48
0.0
140
2.5
141
2.5
142
0.0
143
0.03937007874016
144
1.0
145
0.0
146
1.0
147
0.625
 71
     0
 72
     0
 73
     0
 74
     0
 75
     0
 76
     0
 77
     1
 78
     8
170
     0
171
     3
172
     1
173
     0
174
     0
175
     0
176
     0
177
     0
178
     0
270
     2
271
     2
272
     2
273
     2
274
     3
340
71
275
     0
280
     0
281
     0
282
     0
283
     0
284
     8
285
     0
286
     0
287
     3
288
     0
  0
ENDTAB
  0
TABLE
  2
BLOCK_RECORD
  5
A01
330
0
100
AcDbSymbolTable
  70
5
  0
BLOCK_RECORD
  5
A02
330
A01
100
AcDbSymbolTableRecord
100
AcDbBlockTableRecord
  2
*MODEL_SPACE
  0
BLOCK_RECORD
  5
A03
330
A01
100
AcDbSymbolTableRecord
100
AcDbBlockTableRecord
  2
*PAPER_SPACE
  0
ENDTAB
  0
ENDSEC
  0
SECTION
  2
BLOCKS
  0
BLOCK
  5
A04
330
A02
100
AcDbEntity
  8
0
100
AcDbBlockBegin
  2
*MODEL_SPACE
 70
   0
 10
0
 20
0
 30
0
  3
*MODEL_SPACE
  1
 
  0
ENDBLK
  5
A05
330
A02
100
AcDbEntity
  8
0
100
AcDbBlockEnd
  0
BLOCK
  5
A06
330
A03
100
AcDbEntity
 67
1
  8
0
100
AcDbBlockBegin
  2
*PAPER_SPACE
 70
   0
 10
0
 20
0
 30
0
  3
*PAPER_SPACE
  1
 
  0
ENDBLK
  5
A07
330
A03
100
AcDbEntity
 67
    1
  8
0
100
AcDbBlockEnd
  0
ENDSEC
  0
SECTION
  2
ENTITIES
  0
LINE
  5
A08
330
A02
100
AcDbEntity
  8
Sketch001
100
AcDbLine
 10
405.546
 20
54.2279
 30
0
 11
416.615
 21
54.2279
 31
0
  0
LINE
  5
A09
330
A02
100
AcDbEntity
  8
Sketch001
100
AcDbLine
 10
422.952
 20
31.0582
 30
0
 11
416.615
 21
54.2279
 31
0
  0
LINE
  5
A0A
330
A02
100
AcDbEntity
  8
Sketch001
100
AcDbLine
 10
422.952
 20
54.1639
 30
0
 11
422.952
 21
31.0582
 31
0
  0
LINE
  5
A0B
330
A02
100
AcDbEntity
  8
Sketch001
100
AcDbLine
 10
431.208
 20
54.0359
 30
0
 11
422.952
 21
54.1639
 31
0
  0
LINE
  5
A0C
330
A02
100
AcDbEntity
  8
Sketch001
100
AcDbLine
 10
431.208
 20
3.85615
 30
0
 11
431.208
 21
54.0359
 31
0
  0
LINE
  5
A0D
330
A02
100
AcDbEntity
  8
Sketch001
100
AcDbLine
 10
421.992
 20
3.85615
 30
0
 11
431.208
 21
3.85615
 31
0
  0
LINE
  5
A0E
330
A02
100
AcDbEntity
  8
Sketch001
100
AcDbLine
 10
414.055
 20
33.2983
 30
0
 11
421.992
 21
3.85615
 31
0
  0
LINE
  5
A0F
330
A02
100
AcDbEntity
  8
Sketch001
100
AcDbLine
 10
414.055
 20
3.85615
 30
0
 11
414.055
 21
33.2983
 31
0
  0
LINE
  5
A10
330
A02
100
AcDbEntity
  8
Sketch001
100
AcDbLine
 10
405.546
 20
3.81092
 30
0
 11
414.055
 21
3.85615
 31
0
  0
LINE
  5
A11
330
A02
100
AcDbEntity
  8
Sketch001
100
AcDbLine
 10
405.546
 20
54.2279
 30
0
 11
405.546
 21
3.81092
 31
0
  0
LINE
  5
A12
330
A02
100
AcDbEntity
  8
Sketch001
100
AcDbLine
 10
438.871
 20
54.184
 30
0
 11
461.31
 21
54.184
 31
0
  0
LINE
  5
A13
330
A02
100
AcDbEntity
  8
Sketch001
100
AcDbLine
 10
461.31
 20
45.5904
 30
0
 11
461.31
 21
54.184
 31
0
  0
LINE
  5
A14
330
A02
100
AcDbEntity
  8
Sketch001
100
AcDbLine
 10
461.31
 20
45.5904
 30
0
 11
448.135
 21
45.5904
 31
0
  0
LINE
  5
A15
330
A02
100
AcDbEntity
  8
Sketch001
100
AcDbLine
 10
448.135
 20
34.5198
 30
0
 11
448.135
 21
45.5904
 31
0
  0
LINE
  5
A16
330
A02
100
AcDbEntity
  8
Sketch001
100
AcDbLine
 10
458.682
 20
34.5198
 30
0
 11
448.135
 21
34.5198
 31
0
  0
LINE
  5
A17
330
A02
100
AcDbEntity
  8
Sketch001
100
AcDbLine
 10
458.682
 20
34.5198
 30
0
 11
458.682
 21
25.686
 31
0
  0
LINE
  5
A18
330
A02
100
AcDbEntity
  8
Sketch001
100
AcDbLine
 10
448.129
 20
25.686
 30
0
 11
458.682
 21
25.686
 31
0
  0
LINE
  5
A19
330
A02
100
AcDbEntity
  8
Sketch001
100
AcDbLine
 10
448.129
 20
12.5525
 30
0
 11
448.129
 21
25.686
 31
0
  0
LINE
  5
A1A
330
A02
100
AcDbEntity
  8
Sketch001
100
AcDbLine
 10
461.184
 20
12.5525
 30
0
 11
448.129
 21
12.5525
 31
0
  0
LINE
  5
A1B
330
A02
100
AcDbEntity
  8
Sketch001
100
AcDbLine
 10
461.184
 20
12.5525
 30
0
 11
461.184
 21
3.87505
 31
0
  0
LINE
  5
A1C
330
A02
100
AcDbEntity
  8
Sketch001
100
AcDbLine
 10
461.184
 20
3.87505
 30
0
 11
438.871
 21
3.87505
 31
0
  0
LINE
  5
A1D
330
A02
100
AcDbEntity
  8
Sketch001
100
AcDbLine
 10
438.871
 20
54.184
 30
0
 11
438.871
 21
3.87505
 31
0
  0
LINE
  5
A1E
330
A02
100
AcDbEntity
  8
Sketch001
100
AcDbLine
 10
465.562
 20
53.9856
 30
0
 11
465.562
 21
45.5426
 31
0
  0
LINE
  5
A1F
330
A02
100
AcDbEntity
  8
Sketch001
100
AcDbLine
 10
473.536
 20
45.5426
 30
0
 11
465.562
 21
45.5426
 31
0
  0
LINE
  5
A20
330
A02
100
AcDbEntity
  8
Sketch001
100
AcDbLine
 10
473.536
 20
3.7187
 30
0
 11
473.536
 21
45.5426
 31
0
  0
LINE
  5
A21
330
A02
100
AcDbEntity
  8
Sketch001
100
AcDbLine
 10
482.76
 20
3.7187
 30
0
 11
473.536
 21
3.7187
 31
0
  0
LINE
  5
A22
330
A02
100
AcDbEntity
  8
Sketch001
100
AcDbLine
 10
482.76
 20
3.7187
 30
0
 11
482.76
 21
45.5426
 31
0
  0
LINE
  5
A23
330
A02
100
AcDbEntity
  8
Sketch001
100
AcDbLine
 10
490.969
 20
45.5426
 30
0
 11
482.76
 21
45.5426
 31
0
  0
LINE
  5
A24
330
A02
100
AcDbEntity
  8
Sketch001
100
AcDbLine
 10
490.969
 20
45.5426
 30
0
 11
490.969
 21
53.9856
 31
0
  0
LINE
  5
A25
330
A02
100
AcDbEntity
  8
Sketch001
100
AcDbLine
 10
490.969
 20
53.9856
 30
0
 11
465.562
 21
53.9856
 31
0
  0
LINE
  5
A26
330
A02
100
AcDbEntity
  8
Sketch001
100
AcDbLine
 10
496.41
 20
54.2073
 30
0
 11
496.41
 21
3.71827
 31
0
  0
LINE
  5
A27
330
A02
100
AcDbEntity
  8
Sketch001
100
AcDbLine
 10
496.41
 20
3.71827
 30
0
 11
505.869
 21
3.71827
 31
0
  0
LINE
  5
A28
330
A02
100
AcDbEntity
  8
Sketch001
100
AcDbLine
 10
505.869
 20
3.71827
 30
0
 11
505.869
 21
25.0602
 31
0
  0
LINE
  5
A29
330
A02
100
AcDbEntity
  8
Sketch001
100
AcDbLine
 10
505.869
 20
25.0602
 30
0
 11
515.484
 21
25.0602
 31
0
  0
LINE
  5
A2A
330
A02
100
AcDbEntity
  8
Sketch001
100
AcDbLine
 10
515.484
 20
25.0602
 30
0
 11
515.484
 21
33.7377
 31
0
  0
LINE
  5
A2B
330
A02
100
AcDbEntity
  8
Sketch001
100
AcDbLine
 10
515.484
 20
33.7377
 30
0
 11
505.791
 21
33.7377
 31
0
  0
LINE
  5
A2C
330
A02
100
AcDbEntity
  8
Sketch001
100
AcDbLine
 10
505.791
 20
33.7377
 30
0
 11
505.791
 21
45.5422
 31
0
  0
LINE
  5
A2D
330
A02
100
AcDbEntity
  8
Sketch001
100
AcDbLine
 10
505.791
 20
45.5422
 30
0
 11
518.299
 21
45.5422
 31
0
  0
LINE
  5
A2E
330
A02
100
AcDbEntity
  8
Sketch001
100
AcDbLine
 10
518.299
 20
45.5422
 30
0
 11
518.299
 21
54.2073
 31
0
  0
LINE
  5
A2F
330
A02
100
AcDbEntity
  8
Sketch001
100
AcDbLine
 10
518.299
 20
54.2073
 30
0
 11
496.41
 21
54.2073
 31
0
  0
LINE
  5
A30
330
A02
100
AcDbEntity
  8
Sketch001
100
AcDbLine
 10
523.843
 20
54.2108
 30
0
 11
523.843
 21
3.71104
 31
0
  0
LINE
  5
A31
330
A02
100
AcDbEntity
  8
Sketch001
100
AcDbLine
 10
545.605
 20
3.71104
 30
0
 11
523.843
 21
3.71104
 31
0
  0
LINE
  5
A32
330
A02
100
AcDbEntity
  8
Sketch001
100
AcDbLine
 10
545.605
 20
3.71104
 30
0
 11
545.605
 21
12.5437
 31
0
  0
LINE
  5
A33
330
A02
100
AcDbEntity
  8
Sketch001
100
AcDbLine
 10
545.605
 20
12.5437
 30
0
 11
532.996
 21
12.5437
 31
0
  0
LINE
  5
A34
330
A02
100
AcDbEntity
  8
Sketch001
100
AcDbLine
 10
532.996
 20
12.5437
 30
0
 11
532.996
 21
54.2108
 31
0
  0
LINE
  5
A35
330
A02
100
AcDbEntity
  8
Sketch001
100
AcDbLine
 10
532.996
 20
54.2108
 30
0
 11
523.843
 21
54.2108
 31
0
  0
LINE
  5
A36
330
A02
100
AcDbEntity
  8
Sketch001
100
AcDbLine
 10
551.266
 20
54.0824
 30
0
 11
551.266
 21
3.77469
 31
0
  0
LINE
  5
A37
330
A02
100
AcDbEntity
  8
Sketch001
100
AcDbLine
 10
560.354
 20
3.77469
 30
0
 11
551.266
 21
3.77469
 31
0
  0
LINE
  5
A38
330
A02
100
AcDbEntity
  8
Sketch001
100
AcDbLine
 10
560.354
 20
3.77469
 30
0
 11
560.354
 21
54.0824
 31
0
  0
LINE
  5
A39
330
A02
100
AcDbEntity
  8
Sketch001
100
AcDbLine
 10
560.354
 20
54.0824
 30
0
 11
551.266
 21
54.0824
 31
0
  0
LINE
  5
A3A
330
A02
100
AcDbEntity
  8
Sketch001
100
AcDbLine
 10
575.78
 20
54.1464
 30
0
 11
566.179
 21
54.1464
 31
0
  0
LINE
  5
A3B
330
A02
100
AcDbEntity
  8
Sketch001
100
AcDbLine
 10
566.179
 20
54.1464
 30
0
 11
574.896
 21
29.6968
 31
0
  0
LINE
  5
A3C
330
A02
100
AcDbEntity
  8
Sketch001
100
AcDbLine
 10
565.731
 20
3.9027
 30
0
 11
574.896
 21
29.6968
 31
0
  0
LINE
  5
A3D
330
A02
100
AcDbEntity
  8
Sketch001
100
AcDbLine
 10
565.731
 20
3.9027
 30
0
 11
574.563
 21
3.9027
 31
0
  0
LINE
  5
A3E
330
A02
100
AcDbEntity
  8
Sketch001
100
AcDbLine
 10
579.825
 20
18.816
 30
0
 11
574.563
 21
3.9027
 31
0
  0
LINE
  5
A3F
330
A02
100
AcDbEntity
  8
Sketch001
100
AcDbLine
 10
579.825
 20
18.816
 30
0
 11
584.996
 21
3.77469
 31
0
  0
LINE
  5
A40
330
A02
100
AcDbEntity
  8
Sketch001
100
AcDbLine
 10
584.996
 20
3.77469
 30
0
 11
594.725
 21
3.77469
 31
0
  0
LINE
  5
A41
330
A02
100
AcDbEntity
  8
Sketch001
100
AcDbLine
 10
585.585
 20
29.5688
 30
0
 11
594.725
 21
3.77469
 31
0
  0
LINE
  5
A42
330
A02
100
AcDbEntity
  8
Sketch001
100
AcDbLine
 10
594.341
 20
54.2104
 30
0
 11
585.585
 21
29.5688
 31
0
  0
LINE
  5
A43
330
A02
100
AcDbEntity
  8
Sketch001
100
AcDbLine
 10
594.341
 20
54.2104
 30
0
 11
585.508
 21
54.2104
 31
0
  0
LINE
  5
A44
330
A02
100
AcDbEntity
  8
Sketch001
100
AcDbLine
 10
580.593
 20
40.4496
 30
0
 11
585.508
 21
54.2104
 31
0
  0
LINE
  5
A45
330
A02
100
AcDbEntity
  8
Sketch001
100
AcDbLine
 10
575.78
 20
54.1464
 30
0
 11
580.593
 21
40.4496
 31
0
  0
LINE
  5
A46
330
A02
100
AcDbEntity
  8
Sketch001
100
AcDbLine
 10
565.988
 20
-3.25487
 30
0
 11
575.396
 21
-3.25487
 31
0
  0
LINE
  5
A47
330
A02
100
AcDbEntity
  8
Sketch001
100
AcDbLine
 10
575.396
 20
-3.25487
 30
0
 11
575.396
 21
-44.7299
 31
0
  0
LINE
  5
A48
330
A02
100
AcDbEntity
  8
Sketch001
100
AcDbLine
 10
575.396
 20
-44.7299
 30
0
 11
588.005
 21
-44.7299
 31
0
  0
LINE
  5
A49
330
A02
100
AcDbEntity
  8
Sketch001
100
AcDbLine
 10
588.005
 20
-44.7299
 30
0
 11
588.005
 21
-53.5626
 31
0
  0
LINE
  5
A4A
330
A02
100
AcDbEntity
  8
Sketch001
100
AcDbLine
 10
588.005
 20
-53.5626
 30
0
 11
565.988
 21
-53.5626
 31
0
  0
LINE
  5
A4B
330
A02
100
AcDbEntity
  8
Sketch001
100
AcDbLine
 10
565.988
 20
-53.5626
 30
0
 11
565.988
 21
-3.25487
 31
0
  0
LINE
  5
A4C
330
A02
100
AcDbEntity
  8
Sketch001
100
AcDbLine
 10
538.722
 20
-3.31887
 30
0
 11
538.722
 21
-53.5626
 31
0
  0
LINE
  5
A4D
330
A02
100
AcDbEntity
  8
Sketch001
100
AcDbLine
 10
538.722
 20
-53.5626
 30
0
 11
560.739
 21
-53.5626
 31
0
  0
LINE
  5
A4E
330
A02
100
AcDbEntity
  8
Sketch001
100
AcDbLine
 10
560.739
 20
-53.5626
 30
0
 11
560.739
 21
-45.05
 31
0
  0
LINE
  5
A4F
330
A02
100
AcDbEntity
  8
Sketch001
100
AcDbLine
 10
560.739
 20
-45.05
 30
0
 11
547.874
 21
-45.05
 31
0
  0
LINE
  5
A50
330
A02
100
AcDbEntity
  8
Sketch001
100
AcDbLine
 10
547.874
 20
-45.05
 30
0
 11
547.874
 21
-3.31887
 31
0
  0
LINE
  5
A51
330
A02
100
AcDbEntity
  8
Sketch001
100
AcDbLine
 10
547.874
 20
-3.31887
 30
0
 11
538.722
 21
-3.31887
 31
0
  0
LINE
  5
A52
330
A02
100
AcDbEntity
  8
Sketch001
100
AcDbLine
 10
521.859
 20
-3.32229
 30
0
 11
521.859
 21
-53.374
 31
0
  0
LINE
  5
A53
330
A02
100
AcDbEntity
  8
Sketch001
100
AcDbLine
 10
521.859
 20
-53.374
 30
0
 11
531.075
 21
-53.374
 31
0
  0
LINE
  5
A54
330
A02
100
AcDbEntity
  8
Sketch001
100
AcDbLine
 10
531.075
 20
-53.374
 30
0
 11
531.075
 21
-3.32229
 31
0
  0
LINE
  5
A55
330
A02
100
AcDbEntity
  8
Sketch001
100
AcDbLine
 10
531.075
 20
-3.32229
 30
0
 11
521.859
 21
-3.32229
 31
0
  0
LINE
  5
A56
330
A02
100
AcDbEntity
  8
Sketch001
100
AcDbLine
 10
489.144
 20
-3.19528
 30
0
 11
489.144
 21
-53.503
 31
0
  0
LINE
  5
A57
330
A02
100
AcDbEntity
  8
Sketch001
100
AcDbLine
 10
489.144
 20
-53.503
 30
0
 11
498.361
 21
-53.503
 31
0
  0
LINE
  5
A58
330
A02
100
AcDbEntity
  8
Sketch001
100
AcDbLine
 10
498.361
 20
-53.503
 30
0
 11
498.361
 21
-31.7414
 31
0
  0
LINE
  5
A59
330
A02
100
AcDbEntity
  8
Sketch001
100
AcDbLine
 10
498.361
 20
-31.7414
 30
0
 11
504.953
 21
-31.7414
 31
0
  0
LINE
  5
A5A
330
A02
100
AcDbEntity
  8
Sketch001
100
AcDbLine
 10
504.953
 20
-31.7414
 30
0
 11
504.953
 21
-53.439
 31
0
  0
LINE
  5
A5B
330
A02
100
AcDbEntity
  8
Sketch001
100
AcDbLine
 10
504.953
 20
-53.439
 30
0
 11
514.17
 21
-53.439
 31
0
  0
LINE
  5
A5C
330
A02
100
AcDbEntity
  8
Sketch001
100
AcDbLine
 10
514.17
 20
-53.439
 30
0
 11
514.17
 21
-3.13127
 31
0
  0
LINE
  5
A5D
330
A02
100
AcDbEntity
  8
Sketch001
100
AcDbLine
 10
514.17
 20
-3.13127
 30
0
 11
504.953
 21
-3.13127
 31
0
  0
LINE
  5
A5E
330
A02
100
AcDbEntity
  8
Sketch001
100
AcDbLine
 10
504.953
 20
-3.13127
 30
0
 11
504.953
 21
-23.0367
 31
0
  0
LINE
  5
A5F
330
A02
100
AcDbEntity
  8
Sketch001
100
AcDbLine
 10
504.953
 20
-23.0367
 30
0
 11
498.297
 21
-23.0367
 31
0
  0
LINE
  5
A60
330
A02
100
AcDbEntity
  8
Sketch001
100
AcDbLine
 10
498.297
 20
-23.0367
 30
0
 11
498.297
 21
-3.13127
 31
0
  0
LINE
  5
A61
330
A02
100
AcDbEntity
  8
Sketch001
100
AcDbLine
 10
489.144
 20
-3.19528
 30
0
 11
498.297
 21
-3.13127
 31
0
  0
LINE
  5
A62
330
A02
100
AcDbEntity
  8
Sketch001
100
AcDbLine
 10
482.961
 20
-21.1688
 30
0
 11
482.961
 21
-13.405
 31
0
  0
LINE
  5
A63
330
A02
100
AcDbEntity
  8
Sketch001
100
AcDbLine
 10
482.961
 20
-21.1688
 30
0
 11
473.794
 21
-21.1688
 31
0
  0
LINE
  5
A64
330
A02
100
AcDbEntity
  8
Sketch001
100
AcDbLine
 10
473.794
 20
-21.1688
 30
0
 11
473.794
 21
-13.9212
 31
0
  0
ARC
  5
A65
330
A02
100
AcDbEntity
  8
Sketch001
100
AcDbCircle
 10
470.871
 20
-14.1044
 30
0
 40
2.92925
100
AcDbArc
 50
3.58428
 51
179.832
  0
LINE
  5
A66
330
A02
100
AcDbEntity
  8
Sketch001
100
AcDbLine
 10
467.941
 20
-14.0958
 30
0
 11
467.941
 21
-43.2309
 31
0
  0
ARC
  5
A67
330
A02
100
AcDbEntity
  8
Sketch001
100
AcDbCircle
 10
470.854
 20
-42.6787
 30
0
 40
2.96468
100
AcDbArc
 50
-169.265
 51
-3.42618
  0
LINE
  5
A68
330
A02
100
AcDbEntity
  8
Sketch001
100
AcDbLine
 10
473.814
 20
-42.8558
 30
0
 11
473.814
 21
-33.8649
 31
0
  0
LINE
  5
A69
330
A02
100
AcDbEntity
  8
Sketch001
100
AcDbLine
 10
473.814
 20
-33.8649
 30
0
 11
482.541
 21
-33.8649
 31
0
  0
LINE
  5
A6A
330
A02
100
AcDbEntity
  8
Sketch001
100
AcDbLine
 10
482.541
 20
-33.8649
 30
0
 11
482.541
 21
-45.2303
 31
0
  0
ARC
  5
A6B
330
A02
100
AcDbEntity
  8
Sketch001
100
AcDbCircle
 10
470.729
 20
-42.1506
 30
0
 40
12.2064
100
AcDbArc
 50
-168.9
 51
-14.614
  0
LINE
  5
A6C
330
A02
100
AcDbEntity
  8
Sketch001
100
AcDbLine
 10
458.751
 20
-13.0789
 30
0
 11
458.751
 21
-44.5006
 31
0
  0
ARC
  5
A6D
330
A02
100
AcDbEntity
  8
Sketch001
100
AcDbCircle
 10
470.84
 20
-14.4077
 30
0
 40
12.1622
100
AcDbArc
 50
4.7293
 51
173.727
  0
ARC
  5
A6E
330
A02
100
AcDbEntity
  8
Sketch001
100
AcDbCircle
 10
422.511
 20
-13.6547
 30
0
 40
10.4084
100
AcDbArc
 50
95.8012
 51
-179.273
  0
LINE
  5
A6F
330
A02
100
AcDbEntity
  8
Sketch001
100
AcDbLine
 10
412.104
 20
-19.7178
 30
0
 11
412.104
 21
-13.7869
 31
0
  0
LINE
  5
A70
330
A02
100
AcDbEntity
  8
Sketch001
100
AcDbLine
 10
412.104
 20
-13.7869
 30
0
 11
412.104
 21
-19.7178
 31
0
  0
ARC
  5
A71
330
A02
100
AcDbEntity
  8
Sketch001
100
AcDbCircle
 10
420.041
 20
-20.028
 30
0
 40
7.9434
100
AcDbArc
 50
177.762
 51
-118.482
  0
ARC
  5
A72
330
A02
100
AcDbEntity
  8
Sketch001
100
AcDbCircle
 10
419.38
 20
-34.2293
 30
0
 40
7.86764
100
AcDbArc
 50
113.423
 51
-179.429
  0
LINE
  5
A73
330
A02
100
AcDbEntity
  8
Sketch001
100
AcDbLine
 10
411.513
 20
-34.3077
 30
0
 11
411.513
 21
-42.9125
 31
0
  0
LINE
  5
A74
330
A02
100
AcDbEntity
  8
Sketch001
100
AcDbLine
 10
411.513
 20
-46.657
 30
0
 11
411.513
 21
-34.1508
 31
0
  0
ARC
  5
A75
330
A02
100
AcDbEntity
  8
Sketch001
100
AcDbCircle
 10
420.07
 20
-45.6373
 30
0
 40
8.61771
100
AcDbArc
 50
-173.205
 51
-86.5005
  0
LINE
  5
A76
330
A02
100
AcDbEntity
  8
Sketch001
100
AcDbLine
 10
420.596
 20
-54.239
 30
0
 11
419.544
 21
-54.239
 31
0
  0
ARC
  5
A77
330
A02
100
AcDbEntity
  8
Sketch001
100
AcDbCircle
 10
421.114
 20
-46.244
 30
0
 40
8.01171
100
AcDbArc
 50
-93.705
 51
-40.1526
  0
LINE
  5
A78
330
A02
100
AcDbEntity
  8
Sketch001
100
AcDbLine
 10
427.238
 20
-51.4102
 30
0
 11
427.883
 21
-53.5588
 31
0
  0
LINE
  5
A79
330
A02
100
AcDbEntity
  8
Sketch001
100
AcDbLine
 10
427.883
 20
-53.5588
 30
0
 11
437.086
 21
-53.5588
 31
0
  0
LINE
  5
A7A
330
A02
100
AcDbEntity
  8
Sketch001
100
AcDbLine
 10
437.086
 20
-53.5588
 30
0
 11
436.159
 21
-50.1365
 31
0
  0
LINE
  5
A7B
330
A02
100
AcDbEntity
  8
Sketch001
100
AcDbLine
 10
436.159
 20
-31.6875
 30
0
 11
436.159
 21
-50.1365
 31
0
  0
LINE
  5
A7C
330
A02
100
AcDbEntity
  8
Sketch001
100
AcDbLine
 10
436.159
 20
-31.6875
 30
0
 11
438.418
 21
-31.6875
 31
0
  0
LINE
  5
A7D
330
A02
100
AcDbEntity
  8
Sketch001
100
AcDbLine
 10
438.418
 20
-31.6875
 30
0
 11
438.418
 21
-23.0973
 31
0
  0
LINE
  5
A7E
330
A02
100
AcDbEntity
  8
Sketch001
100
AcDbLine
 10
438.418
 20
-23.0973
 30
0
 11
436.191
 21
-23.0973
 31
0
  0
LINE
  5
A7F
330
A02
100
AcDbEntity
  8
Sketch001
100
AcDbLine
 10
436.191
 20
-17.5919
 30
0
 11
436.191
 21
-23.0973
 31
0
  0
LINE
  5
A80
330
A02
100
AcDbEntity
  8
Sketch001
100
AcDbLine
 10
436.191
 20
-17.5919
 30
0
 11
436.191
 21
-23.0973
 31
0
  0
LINE
  5
A81
330
A02
100
AcDbEntity
  8
Sketch001
100
AcDbLine
 10
426.879
 20
-17.5919
 30
0
 11
436.191
 21
-17.5919
 31
0
  0
LINE
  5
A82
330
A02
100
AcDbEntity
  8
Sketch001
100
AcDbLine
 10
426.879
 20
-23.0333
 30
0
 11
426.879
 21
-17.5919
 31
0
  0
LINE
  5
A83
330
A02
100
AcDbEntity
  8
Sketch001
100
AcDbLine
 10
426.879
 20
-23.0333
 30
0
 11
423.487
 21
-23.0333
 31
0
  0
ARC
  5
A84
330
A02
100
AcDbEntity
  8
Sketch001
100
AcDbCircle
 10
423.743
 20
-20.373
 30
0
 40
2.67256
100
AcDbArc
 50
177.917
 51
-95.4976
  0
LINE
  5
A85
330
A02
100
AcDbEntity
  8
Sketch001
100
AcDbLine
 10
421.072
 20
-20.2759
 30
0
 11
421.072
 21
-14.1912
 31
0
  0
ARC
  5
A86
330
A02
100
AcDbEntity
  8
Sketch001
100
AcDbCircle
 10
423.742
 20
-14.4315
 30
0
 40
2.68085
100
AcDbArc
 50
77.5709
 51
174.857
  0
LINE
  5
A87
330
A02
100
AcDbEntity
  8
Sketch001
100
AcDbLine
 10
433.535
 20
-11.8134
 30
0
 11
424.319
 21
-11.8134
 31
0
  0
LINE
  5
A88
330
A02
100
AcDbEntity
  8
Sketch001
100
AcDbLine
 10
433.535
 20
-3.29966
 30
0
 11
433.535
 21
-11.8134
 31
0
  0
LINE
  5
A89
330
A02
100
AcDbEntity
  8
Sketch001
100
AcDbLine
 10
421.459
 20
-3.29966
 30
0
 11
433.535
 21
-3.29966
 31
0
  0
LINE
  5
A8A
330
A02
100
AcDbEntity
  8
Sketch001
100
AcDbLine
 10
421.459
 20
-3.29966
 30
0
 11
433.493
 21
-3.29966
 31
0
  0
LINE
  5
A8B
330
A02
100
AcDbEntity
  8
Sketch001
100
AcDbLine
 10
420.95
 20
-42.8622
 30
0
 11
420.95
 21
-34.7435
 31
0
  0
ARC
  5
A8C
330
A02
100
AcDbEntity
  8
Sketch001
100
AcDbCircle
 10
424.261
 20
-34.9743
 30
0
 40
3.31845
100
AcDbArc
 50
107.261
 51
176.012
  0
LINE
  5
A8D
330
A02
100
AcDbEntity
  8
Sketch001
100
AcDbLine
 10
423.276
 20
-31.8053
 30
0
 11
426.847
 21
-31.8053
 31
0
  0
LINE
  5
A8E
330
A02
100
AcDbEntity
  8
Sketch001
100
AcDbLine
 10
426.847
 20
-42.5663
 30
0
 11
426.847
 21
-31.8053
 31
0
  0
ARC
  5
A8F
330
A02
100
AcDbEntity
  8
Sketch001
100
AcDbCircle
 10
423.893
 20
-42.5966
 30
0
 40
2.95456
100
AcDbArc
 50
-174.842
 51
0.586062
  0
ENDSEC
  0
SECTION
  2
OBJECTS
  0
DICTIONARY
  5
F000
330
0
100
AcDbDictionary
  3
ACAD_GROUP
350
F001
  0
DICTIONARY
  5
F001
330
F000
100
AcDbDictionary
  0
ENDSEC
  0
EOF