G04 #@! TF.GenerationSoftware,KiCad,Pcbnew,(6.0.6)*
G04 #@! TF.CreationDate,2023-02-02T00:20:54-07:00*
G04 #@! TF.ProjectId,Netflix and Chill LEDs,4e657466-6c69-4782-9061-6e6420436869,1*
G04 #@! TF.SameCoordinates,Original*
G04 #@! TF.FileFunction,AssemblyDrawing,Top*
%FSLAX46Y46*%
G04 Gerber Fmt 4.6, Leading zero omitted, Abs format (unit mm)*
G04 Created by KiCad (PCBNEW (6.0.6)) date 2023-02-02 00:20:54*
%MOMM*%
%LPD*%
G01*
G04 APERTURE LIST*
%ADD10C,0.150000*%
%ADD11C,0.060000*%
%ADD12C,0.100000*%
G04 APERTURE END LIST*
D10*
X81778571Y-119861904D02*
X81778571Y-119061904D01*
X81969047Y-119061904D01*
X82083333Y-119100000D01*
X82159523Y-119176190D01*
X82197619Y-119252380D01*
X82235714Y-119404761D01*
X82235714Y-119519047D01*
X82197619Y-119671428D01*
X82159523Y-119747619D01*
X82083333Y-119823809D01*
X81969047Y-119861904D01*
X81778571Y-119861904D01*
X82921428Y-119328571D02*
X82921428Y-119861904D01*
X82730952Y-119023809D02*
X82540476Y-119595238D01*
X83035714Y-119595238D01*
X83683333Y-119328571D02*
X83683333Y-119861904D01*
X83492857Y-119023809D02*
X83302380Y-119595238D01*
X83797619Y-119595238D01*
D11*
X128992857Y-127392857D02*
X128973809Y-127411904D01*
X128916666Y-127430952D01*
X128878571Y-127430952D01*
X128821428Y-127411904D01*
X128783333Y-127373809D01*
X128764285Y-127335714D01*
X128745238Y-127259523D01*
X128745238Y-127202380D01*
X128764285Y-127126190D01*
X128783333Y-127088095D01*
X128821428Y-127050000D01*
X128878571Y-127030952D01*
X128916666Y-127030952D01*
X128973809Y-127050000D01*
X128992857Y-127069047D01*
X129354761Y-127030952D02*
X129164285Y-127030952D01*
X129145238Y-127221428D01*
X129164285Y-127202380D01*
X129202380Y-127183333D01*
X129297619Y-127183333D01*
X129335714Y-127202380D01*
X129354761Y-127221428D01*
X129373809Y-127259523D01*
X129373809Y-127354761D01*
X129354761Y-127392857D01*
X129335714Y-127411904D01*
X129297619Y-127430952D01*
X129202380Y-127430952D01*
X129164285Y-127411904D01*
X129145238Y-127392857D01*
X129754761Y-127430952D02*
X129526190Y-127430952D01*
X129640476Y-127430952D02*
X129640476Y-127030952D01*
X129602380Y-127088095D01*
X129564285Y-127126190D01*
X129526190Y-127145238D01*
X82492857Y-115892857D02*
X82473809Y-115911904D01*
X82416666Y-115930952D01*
X82378571Y-115930952D01*
X82321428Y-115911904D01*
X82283333Y-115873809D01*
X82264285Y-115835714D01*
X82245238Y-115759523D01*
X82245238Y-115702380D01*
X82264285Y-115626190D01*
X82283333Y-115588095D01*
X82321428Y-115550000D01*
X82378571Y-115530952D01*
X82416666Y-115530952D01*
X82473809Y-115550000D01*
X82492857Y-115569047D01*
X82835714Y-115664285D02*
X82835714Y-115930952D01*
X82740476Y-115511904D02*
X82645238Y-115797619D01*
X82892857Y-115797619D01*
X83216666Y-115664285D02*
X83216666Y-115930952D01*
X83121428Y-115511904D02*
X83026190Y-115797619D01*
X83273809Y-115797619D01*
X230742857Y-58892857D02*
X230723809Y-58911904D01*
X230666666Y-58930952D01*
X230628571Y-58930952D01*
X230571428Y-58911904D01*
X230533333Y-58873809D01*
X230514285Y-58835714D01*
X230495238Y-58759523D01*
X230495238Y-58702380D01*
X230514285Y-58626190D01*
X230533333Y-58588095D01*
X230571428Y-58550000D01*
X230628571Y-58530952D01*
X230666666Y-58530952D01*
X230723809Y-58550000D01*
X230742857Y-58569047D01*
X230895238Y-58569047D02*
X230914285Y-58550000D01*
X230952380Y-58530952D01*
X231047619Y-58530952D01*
X231085714Y-58550000D01*
X231104761Y-58569047D01*
X231123809Y-58607142D01*
X231123809Y-58645238D01*
X231104761Y-58702380D01*
X230876190Y-58930952D01*
X231123809Y-58930952D01*
X231276190Y-58569047D02*
X231295238Y-58550000D01*
X231333333Y-58530952D01*
X231428571Y-58530952D01*
X231466666Y-58550000D01*
X231485714Y-58569047D01*
X231504761Y-58607142D01*
X231504761Y-58645238D01*
X231485714Y-58702380D01*
X231257142Y-58930952D01*
X231504761Y-58930952D01*
D10*
X150778571Y-84361904D02*
X150778571Y-83561904D01*
X150969047Y-83561904D01*
X151083333Y-83600000D01*
X151159523Y-83676190D01*
X151197619Y-83752380D01*
X151235714Y-83904761D01*
X151235714Y-84019047D01*
X151197619Y-84171428D01*
X151159523Y-84247619D01*
X151083333Y-84323809D01*
X150969047Y-84361904D01*
X150778571Y-84361904D01*
X151540476Y-83638095D02*
X151578571Y-83600000D01*
X151654761Y-83561904D01*
X151845238Y-83561904D01*
X151921428Y-83600000D01*
X151959523Y-83638095D01*
X151997619Y-83714285D01*
X151997619Y-83790476D01*
X151959523Y-83904761D01*
X151502380Y-84361904D01*
X151997619Y-84361904D01*
X152454761Y-83904761D02*
X152378571Y-83866666D01*
X152340476Y-83828571D01*
X152302380Y-83752380D01*
X152302380Y-83714285D01*
X152340476Y-83638095D01*
X152378571Y-83600000D01*
X152454761Y-83561904D01*
X152607142Y-83561904D01*
X152683333Y-83600000D01*
X152721428Y-83638095D01*
X152759523Y-83714285D01*
X152759523Y-83752380D01*
X152721428Y-83828571D01*
X152683333Y-83866666D01*
X152607142Y-83904761D01*
X152454761Y-83904761D01*
X152378571Y-83942857D01*
X152340476Y-83980952D01*
X152302380Y-84057142D01*
X152302380Y-84209523D01*
X152340476Y-84285714D01*
X152378571Y-84323809D01*
X152454761Y-84361904D01*
X152607142Y-84361904D01*
X152683333Y-84323809D01*
X152721428Y-84285714D01*
X152759523Y-84209523D01*
X152759523Y-84057142D01*
X152721428Y-83980952D01*
X152683333Y-83942857D01*
X152607142Y-83904761D01*
X106028571Y-84361904D02*
X106028571Y-83561904D01*
X106219047Y-83561904D01*
X106333333Y-83600000D01*
X106409523Y-83676190D01*
X106447619Y-83752380D01*
X106485714Y-83904761D01*
X106485714Y-84019047D01*
X106447619Y-84171428D01*
X106409523Y-84247619D01*
X106333333Y-84323809D01*
X106219047Y-84361904D01*
X106028571Y-84361904D01*
X106790476Y-83638095D02*
X106828571Y-83600000D01*
X106904761Y-83561904D01*
X107095238Y-83561904D01*
X107171428Y-83600000D01*
X107209523Y-83638095D01*
X107247619Y-83714285D01*
X107247619Y-83790476D01*
X107209523Y-83904761D01*
X106752380Y-84361904D01*
X107247619Y-84361904D01*
X107933333Y-83561904D02*
X107780952Y-83561904D01*
X107704761Y-83600000D01*
X107666666Y-83638095D01*
X107590476Y-83752380D01*
X107552380Y-83904761D01*
X107552380Y-84209523D01*
X107590476Y-84285714D01*
X107628571Y-84323809D01*
X107704761Y-84361904D01*
X107857142Y-84361904D01*
X107933333Y-84323809D01*
X107971428Y-84285714D01*
X108009523Y-84209523D01*
X108009523Y-84019047D01*
X107971428Y-83942857D01*
X107933333Y-83904761D01*
X107857142Y-83866666D01*
X107704761Y-83866666D01*
X107628571Y-83904761D01*
X107590476Y-83942857D01*
X107552380Y-84019047D01*
X66278571Y-135861904D02*
X66278571Y-135061904D01*
X66469047Y-135061904D01*
X66583333Y-135100000D01*
X66659523Y-135176190D01*
X66697619Y-135252380D01*
X66735714Y-135404761D01*
X66735714Y-135519047D01*
X66697619Y-135671428D01*
X66659523Y-135747619D01*
X66583333Y-135823809D01*
X66469047Y-135861904D01*
X66278571Y-135861904D01*
X67459523Y-135061904D02*
X67078571Y-135061904D01*
X67040476Y-135442857D01*
X67078571Y-135404761D01*
X67154761Y-135366666D01*
X67345238Y-135366666D01*
X67421428Y-135404761D01*
X67459523Y-135442857D01*
X67497619Y-135519047D01*
X67497619Y-135709523D01*
X67459523Y-135785714D01*
X67421428Y-135823809D01*
X67345238Y-135861904D01*
X67154761Y-135861904D01*
X67078571Y-135823809D01*
X67040476Y-135785714D01*
X67802380Y-135138095D02*
X67840476Y-135100000D01*
X67916666Y-135061904D01*
X68107142Y-135061904D01*
X68183333Y-135100000D01*
X68221428Y-135138095D01*
X68259523Y-135214285D01*
X68259523Y-135290476D01*
X68221428Y-135404761D01*
X67764285Y-135861904D01*
X68259523Y-135861904D01*
D11*
X104992857Y-58892857D02*
X104973809Y-58911904D01*
X104916666Y-58930952D01*
X104878571Y-58930952D01*
X104821428Y-58911904D01*
X104783333Y-58873809D01*
X104764285Y-58835714D01*
X104745238Y-58759523D01*
X104745238Y-58702380D01*
X104764285Y-58626190D01*
X104783333Y-58588095D01*
X104821428Y-58550000D01*
X104878571Y-58530952D01*
X104916666Y-58530952D01*
X104973809Y-58550000D01*
X104992857Y-58569047D01*
X105373809Y-58930952D02*
X105145238Y-58930952D01*
X105259523Y-58930952D02*
X105259523Y-58530952D01*
X105221428Y-58588095D01*
X105183333Y-58626190D01*
X105145238Y-58645238D01*
X105716666Y-58530952D02*
X105640476Y-58530952D01*
X105602380Y-58550000D01*
X105583333Y-58569047D01*
X105545238Y-58626190D01*
X105526190Y-58702380D01*
X105526190Y-58854761D01*
X105545238Y-58892857D01*
X105564285Y-58911904D01*
X105602380Y-58930952D01*
X105678571Y-58930952D01*
X105716666Y-58911904D01*
X105735714Y-58892857D01*
X105754761Y-58854761D01*
X105754761Y-58759523D01*
X105735714Y-58721428D01*
X105716666Y-58702380D01*
X105678571Y-58683333D01*
X105602380Y-58683333D01*
X105564285Y-58702380D01*
X105545238Y-58721428D01*
X105526190Y-58759523D01*
D10*
X178909523Y-42861904D02*
X178909523Y-42061904D01*
X179100000Y-42061904D01*
X179214285Y-42100000D01*
X179290476Y-42176190D01*
X179328571Y-42252380D01*
X179366666Y-42404761D01*
X179366666Y-42519047D01*
X179328571Y-42671428D01*
X179290476Y-42747619D01*
X179214285Y-42823809D01*
X179100000Y-42861904D01*
X178909523Y-42861904D01*
X179747619Y-42861904D02*
X179900000Y-42861904D01*
X179976190Y-42823809D01*
X180014285Y-42785714D01*
X180090476Y-42671428D01*
X180128571Y-42519047D01*
X180128571Y-42214285D01*
X180090476Y-42138095D01*
X180052380Y-42100000D01*
X179976190Y-42061904D01*
X179823809Y-42061904D01*
X179747619Y-42100000D01*
X179709523Y-42138095D01*
X179671428Y-42214285D01*
X179671428Y-42404761D01*
X179709523Y-42480952D01*
X179747619Y-42519047D01*
X179823809Y-42557142D01*
X179976190Y-42557142D01*
X180052380Y-42519047D01*
X180090476Y-42480952D01*
X180128571Y-42404761D01*
D11*
X94242857Y-58892857D02*
X94223809Y-58911904D01*
X94166666Y-58930952D01*
X94128571Y-58930952D01*
X94071428Y-58911904D01*
X94033333Y-58873809D01*
X94014285Y-58835714D01*
X93995238Y-58759523D01*
X93995238Y-58702380D01*
X94014285Y-58626190D01*
X94033333Y-58588095D01*
X94071428Y-58550000D01*
X94128571Y-58530952D01*
X94166666Y-58530952D01*
X94223809Y-58550000D01*
X94242857Y-58569047D01*
X94623809Y-58930952D02*
X94395238Y-58930952D01*
X94509523Y-58930952D02*
X94509523Y-58530952D01*
X94471428Y-58588095D01*
X94433333Y-58626190D01*
X94395238Y-58645238D01*
X94985714Y-58530952D02*
X94795238Y-58530952D01*
X94776190Y-58721428D01*
X94795238Y-58702380D01*
X94833333Y-58683333D01*
X94928571Y-58683333D01*
X94966666Y-58702380D01*
X94985714Y-58721428D01*
X95004761Y-58759523D01*
X95004761Y-58854761D01*
X94985714Y-58892857D01*
X94966666Y-58911904D01*
X94928571Y-58930952D01*
X94833333Y-58930952D01*
X94795238Y-58911904D01*
X94776190Y-58892857D01*
X81992857Y-137892857D02*
X81973809Y-137911904D01*
X81916666Y-137930952D01*
X81878571Y-137930952D01*
X81821428Y-137911904D01*
X81783333Y-137873809D01*
X81764285Y-137835714D01*
X81745238Y-137759523D01*
X81745238Y-137702380D01*
X81764285Y-137626190D01*
X81783333Y-137588095D01*
X81821428Y-137550000D01*
X81878571Y-137530952D01*
X81916666Y-137530952D01*
X81973809Y-137550000D01*
X81992857Y-137569047D01*
X82354761Y-137530952D02*
X82164285Y-137530952D01*
X82145238Y-137721428D01*
X82164285Y-137702380D01*
X82202380Y-137683333D01*
X82297619Y-137683333D01*
X82335714Y-137702380D01*
X82354761Y-137721428D01*
X82373809Y-137759523D01*
X82373809Y-137854761D01*
X82354761Y-137892857D01*
X82335714Y-137911904D01*
X82297619Y-137930952D01*
X82202380Y-137930952D01*
X82164285Y-137911904D01*
X82145238Y-137892857D01*
X82507142Y-137530952D02*
X82754761Y-137530952D01*
X82621428Y-137683333D01*
X82678571Y-137683333D01*
X82716666Y-137702380D01*
X82735714Y-137721428D01*
X82754761Y-137759523D01*
X82754761Y-137854761D01*
X82735714Y-137892857D01*
X82716666Y-137911904D01*
X82678571Y-137930952D01*
X82564285Y-137930952D01*
X82526190Y-137911904D01*
X82507142Y-137892857D01*
D10*
X128278571Y-108861904D02*
X128278571Y-108061904D01*
X128469047Y-108061904D01*
X128583333Y-108100000D01*
X128659523Y-108176190D01*
X128697619Y-108252380D01*
X128735714Y-108404761D01*
X128735714Y-108519047D01*
X128697619Y-108671428D01*
X128659523Y-108747619D01*
X128583333Y-108823809D01*
X128469047Y-108861904D01*
X128278571Y-108861904D01*
X129421428Y-108328571D02*
X129421428Y-108861904D01*
X129230952Y-108023809D02*
X129040476Y-108595238D01*
X129535714Y-108595238D01*
X129802380Y-108138095D02*
X129840476Y-108100000D01*
X129916666Y-108061904D01*
X130107142Y-108061904D01*
X130183333Y-108100000D01*
X130221428Y-108138095D01*
X130259523Y-108214285D01*
X130259523Y-108290476D01*
X130221428Y-108404761D01*
X129764285Y-108861904D01*
X130259523Y-108861904D01*
X77028571Y-62861904D02*
X77028571Y-62061904D01*
X77219047Y-62061904D01*
X77333333Y-62100000D01*
X77409523Y-62176190D01*
X77447619Y-62252380D01*
X77485714Y-62404761D01*
X77485714Y-62519047D01*
X77447619Y-62671428D01*
X77409523Y-62747619D01*
X77333333Y-62823809D01*
X77219047Y-62861904D01*
X77028571Y-62861904D01*
X78247619Y-62861904D02*
X77790476Y-62861904D01*
X78019047Y-62861904D02*
X78019047Y-62061904D01*
X77942857Y-62176190D01*
X77866666Y-62252380D01*
X77790476Y-62290476D01*
X78933333Y-62328571D02*
X78933333Y-62861904D01*
X78742857Y-62023809D02*
X78552380Y-62595238D01*
X79047619Y-62595238D01*
D11*
X176992857Y-96392857D02*
X176973809Y-96411904D01*
X176916666Y-96430952D01*
X176878571Y-96430952D01*
X176821428Y-96411904D01*
X176783333Y-96373809D01*
X176764285Y-96335714D01*
X176745238Y-96259523D01*
X176745238Y-96202380D01*
X176764285Y-96126190D01*
X176783333Y-96088095D01*
X176821428Y-96050000D01*
X176878571Y-96030952D01*
X176916666Y-96030952D01*
X176973809Y-96050000D01*
X176992857Y-96069047D01*
X177126190Y-96030952D02*
X177373809Y-96030952D01*
X177240476Y-96183333D01*
X177297619Y-96183333D01*
X177335714Y-96202380D01*
X177354761Y-96221428D01*
X177373809Y-96259523D01*
X177373809Y-96354761D01*
X177354761Y-96392857D01*
X177335714Y-96411904D01*
X177297619Y-96430952D01*
X177183333Y-96430952D01*
X177145238Y-96411904D01*
X177126190Y-96392857D01*
X177602380Y-96202380D02*
X177564285Y-96183333D01*
X177545238Y-96164285D01*
X177526190Y-96126190D01*
X177526190Y-96107142D01*
X177545238Y-96069047D01*
X177564285Y-96050000D01*
X177602380Y-96030952D01*
X177678571Y-96030952D01*
X177716666Y-96050000D01*
X177735714Y-96069047D01*
X177754761Y-96107142D01*
X177754761Y-96126190D01*
X177735714Y-96164285D01*
X177716666Y-96183333D01*
X177678571Y-96202380D01*
X177602380Y-96202380D01*
X177564285Y-96221428D01*
X177545238Y-96240476D01*
X177526190Y-96278571D01*
X177526190Y-96354761D01*
X177545238Y-96392857D01*
X177564285Y-96411904D01*
X177602380Y-96430952D01*
X177678571Y-96430952D01*
X177716666Y-96411904D01*
X177735714Y-96392857D01*
X177754761Y-96354761D01*
X177754761Y-96278571D01*
X177735714Y-96240476D01*
X177716666Y-96221428D01*
X177678571Y-96202380D01*
D10*
X151159523Y-42861904D02*
X151159523Y-42061904D01*
X151350000Y-42061904D01*
X151464285Y-42100000D01*
X151540476Y-42176190D01*
X151578571Y-42252380D01*
X151616666Y-42404761D01*
X151616666Y-42519047D01*
X151578571Y-42671428D01*
X151540476Y-42747619D01*
X151464285Y-42823809D01*
X151350000Y-42861904D01*
X151159523Y-42861904D01*
X151883333Y-42061904D02*
X152416666Y-42061904D01*
X152073809Y-42861904D01*
D11*
X176992857Y-115892857D02*
X176973809Y-115911904D01*
X176916666Y-115930952D01*
X176878571Y-115930952D01*
X176821428Y-115911904D01*
X176783333Y-115873809D01*
X176764285Y-115835714D01*
X176745238Y-115759523D01*
X176745238Y-115702380D01*
X176764285Y-115626190D01*
X176783333Y-115588095D01*
X176821428Y-115550000D01*
X176878571Y-115530952D01*
X176916666Y-115530952D01*
X176973809Y-115550000D01*
X176992857Y-115569047D01*
X177335714Y-115664285D02*
X177335714Y-115930952D01*
X177240476Y-115511904D02*
X177145238Y-115797619D01*
X177392857Y-115797619D01*
X177602380Y-115702380D02*
X177564285Y-115683333D01*
X177545238Y-115664285D01*
X177526190Y-115626190D01*
X177526190Y-115607142D01*
X177545238Y-115569047D01*
X177564285Y-115550000D01*
X177602380Y-115530952D01*
X177678571Y-115530952D01*
X177716666Y-115550000D01*
X177735714Y-115569047D01*
X177754761Y-115607142D01*
X177754761Y-115626190D01*
X177735714Y-115664285D01*
X177716666Y-115683333D01*
X177678571Y-115702380D01*
X177602380Y-115702380D01*
X177564285Y-115721428D01*
X177545238Y-115740476D01*
X177526190Y-115778571D01*
X177526190Y-115854761D01*
X177545238Y-115892857D01*
X177564285Y-115911904D01*
X177602380Y-115930952D01*
X177678571Y-115930952D01*
X177716666Y-115911904D01*
X177735714Y-115892857D01*
X177754761Y-115854761D01*
X177754761Y-115778571D01*
X177735714Y-115740476D01*
X177716666Y-115721428D01*
X177678571Y-115702380D01*
D10*
X59528571Y-62861904D02*
X59528571Y-62061904D01*
X59719047Y-62061904D01*
X59833333Y-62100000D01*
X59909523Y-62176190D01*
X59947619Y-62252380D01*
X59985714Y-62404761D01*
X59985714Y-62519047D01*
X59947619Y-62671428D01*
X59909523Y-62747619D01*
X59833333Y-62823809D01*
X59719047Y-62861904D01*
X59528571Y-62861904D01*
X60747619Y-62861904D02*
X60290476Y-62861904D01*
X60519047Y-62861904D02*
X60519047Y-62061904D01*
X60442857Y-62176190D01*
X60366666Y-62252380D01*
X60290476Y-62290476D01*
X61014285Y-62061904D02*
X61509523Y-62061904D01*
X61242857Y-62366666D01*
X61357142Y-62366666D01*
X61433333Y-62404761D01*
X61471428Y-62442857D01*
X61509523Y-62519047D01*
X61509523Y-62709523D01*
X61471428Y-62785714D01*
X61433333Y-62823809D01*
X61357142Y-62861904D01*
X61128571Y-62861904D01*
X61052380Y-62823809D01*
X61014285Y-62785714D01*
X143778571Y-141861904D02*
X143778571Y-141061904D01*
X143969047Y-141061904D01*
X144083333Y-141100000D01*
X144159523Y-141176190D01*
X144197619Y-141252380D01*
X144235714Y-141404761D01*
X144235714Y-141519047D01*
X144197619Y-141671428D01*
X144159523Y-141747619D01*
X144083333Y-141823809D01*
X143969047Y-141861904D01*
X143778571Y-141861904D01*
X144959523Y-141061904D02*
X144578571Y-141061904D01*
X144540476Y-141442857D01*
X144578571Y-141404761D01*
X144654761Y-141366666D01*
X144845238Y-141366666D01*
X144921428Y-141404761D01*
X144959523Y-141442857D01*
X144997619Y-141519047D01*
X144997619Y-141709523D01*
X144959523Y-141785714D01*
X144921428Y-141823809D01*
X144845238Y-141861904D01*
X144654761Y-141861904D01*
X144578571Y-141823809D01*
X144540476Y-141785714D01*
X145721428Y-141061904D02*
X145340476Y-141061904D01*
X145302380Y-141442857D01*
X145340476Y-141404761D01*
X145416666Y-141366666D01*
X145607142Y-141366666D01*
X145683333Y-141404761D01*
X145721428Y-141442857D01*
X145759523Y-141519047D01*
X145759523Y-141709523D01*
X145721428Y-141785714D01*
X145683333Y-141823809D01*
X145607142Y-141861904D01*
X145416666Y-141861904D01*
X145340476Y-141823809D01*
X145302380Y-141785714D01*
X104278571Y-62861904D02*
X104278571Y-62061904D01*
X104469047Y-62061904D01*
X104583333Y-62100000D01*
X104659523Y-62176190D01*
X104697619Y-62252380D01*
X104735714Y-62404761D01*
X104735714Y-62519047D01*
X104697619Y-62671428D01*
X104659523Y-62747619D01*
X104583333Y-62823809D01*
X104469047Y-62861904D01*
X104278571Y-62861904D01*
X105497619Y-62861904D02*
X105040476Y-62861904D01*
X105269047Y-62861904D02*
X105269047Y-62061904D01*
X105192857Y-62176190D01*
X105116666Y-62252380D01*
X105040476Y-62290476D01*
X106183333Y-62061904D02*
X106030952Y-62061904D01*
X105954761Y-62100000D01*
X105916666Y-62138095D01*
X105840476Y-62252380D01*
X105802380Y-62404761D01*
X105802380Y-62709523D01*
X105840476Y-62785714D01*
X105878571Y-62823809D01*
X105954761Y-62861904D01*
X106107142Y-62861904D01*
X106183333Y-62823809D01*
X106221428Y-62785714D01*
X106259523Y-62709523D01*
X106259523Y-62519047D01*
X106221428Y-62442857D01*
X106183333Y-62404761D01*
X106107142Y-62366666D01*
X105954761Y-62366666D01*
X105878571Y-62404761D01*
X105840476Y-62442857D01*
X105802380Y-62519047D01*
X205778571Y-84361904D02*
X205778571Y-83561904D01*
X205969047Y-83561904D01*
X206083333Y-83600000D01*
X206159523Y-83676190D01*
X206197619Y-83752380D01*
X206235714Y-83904761D01*
X206235714Y-84019047D01*
X206197619Y-84171428D01*
X206159523Y-84247619D01*
X206083333Y-84323809D01*
X205969047Y-84361904D01*
X205778571Y-84361904D01*
X206502380Y-83561904D02*
X206997619Y-83561904D01*
X206730952Y-83866666D01*
X206845238Y-83866666D01*
X206921428Y-83904761D01*
X206959523Y-83942857D01*
X206997619Y-84019047D01*
X206997619Y-84209523D01*
X206959523Y-84285714D01*
X206921428Y-84323809D01*
X206845238Y-84361904D01*
X206616666Y-84361904D01*
X206540476Y-84323809D01*
X206502380Y-84285714D01*
X207759523Y-84361904D02*
X207302380Y-84361904D01*
X207530952Y-84361904D02*
X207530952Y-83561904D01*
X207454761Y-83676190D01*
X207378571Y-83752380D01*
X207302380Y-83790476D01*
D11*
X94433333Y-38892857D02*
X94414285Y-38911904D01*
X94357142Y-38930952D01*
X94319047Y-38930952D01*
X94261904Y-38911904D01*
X94223809Y-38873809D01*
X94204761Y-38835714D01*
X94185714Y-38759523D01*
X94185714Y-38702380D01*
X94204761Y-38626190D01*
X94223809Y-38588095D01*
X94261904Y-38550000D01*
X94319047Y-38530952D01*
X94357142Y-38530952D01*
X94414285Y-38550000D01*
X94433333Y-38569047D01*
X94566666Y-38530952D02*
X94814285Y-38530952D01*
X94680952Y-38683333D01*
X94738095Y-38683333D01*
X94776190Y-38702380D01*
X94795238Y-38721428D01*
X94814285Y-38759523D01*
X94814285Y-38854761D01*
X94795238Y-38892857D01*
X94776190Y-38911904D01*
X94738095Y-38930952D01*
X94623809Y-38930952D01*
X94585714Y-38911904D01*
X94566666Y-38892857D01*
D10*
X59528571Y-84361904D02*
X59528571Y-83561904D01*
X59719047Y-83561904D01*
X59833333Y-83600000D01*
X59909523Y-83676190D01*
X59947619Y-83752380D01*
X59985714Y-83904761D01*
X59985714Y-84019047D01*
X59947619Y-84171428D01*
X59909523Y-84247619D01*
X59833333Y-84323809D01*
X59719047Y-84361904D01*
X59528571Y-84361904D01*
X60290476Y-83638095D02*
X60328571Y-83600000D01*
X60404761Y-83561904D01*
X60595238Y-83561904D01*
X60671428Y-83600000D01*
X60709523Y-83638095D01*
X60747619Y-83714285D01*
X60747619Y-83790476D01*
X60709523Y-83904761D01*
X60252380Y-84361904D01*
X60747619Y-84361904D01*
X61014285Y-83561904D02*
X61509523Y-83561904D01*
X61242857Y-83866666D01*
X61357142Y-83866666D01*
X61433333Y-83904761D01*
X61471428Y-83942857D01*
X61509523Y-84019047D01*
X61509523Y-84209523D01*
X61471428Y-84285714D01*
X61433333Y-84323809D01*
X61357142Y-84361904D01*
X61128571Y-84361904D01*
X61052380Y-84323809D01*
X61014285Y-84285714D01*
D11*
X128742857Y-80392857D02*
X128723809Y-80411904D01*
X128666666Y-80430952D01*
X128628571Y-80430952D01*
X128571428Y-80411904D01*
X128533333Y-80373809D01*
X128514285Y-80335714D01*
X128495238Y-80259523D01*
X128495238Y-80202380D01*
X128514285Y-80126190D01*
X128533333Y-80088095D01*
X128571428Y-80050000D01*
X128628571Y-80030952D01*
X128666666Y-80030952D01*
X128723809Y-80050000D01*
X128742857Y-80069047D01*
X128895238Y-80069047D02*
X128914285Y-80050000D01*
X128952380Y-80030952D01*
X129047619Y-80030952D01*
X129085714Y-80050000D01*
X129104761Y-80069047D01*
X129123809Y-80107142D01*
X129123809Y-80145238D01*
X129104761Y-80202380D01*
X128876190Y-80430952D01*
X129123809Y-80430952D01*
X129257142Y-80030952D02*
X129523809Y-80030952D01*
X129352380Y-80430952D01*
X106933333Y-38892857D02*
X106914285Y-38911904D01*
X106857142Y-38930952D01*
X106819047Y-38930952D01*
X106761904Y-38911904D01*
X106723809Y-38873809D01*
X106704761Y-38835714D01*
X106685714Y-38759523D01*
X106685714Y-38702380D01*
X106704761Y-38626190D01*
X106723809Y-38588095D01*
X106761904Y-38550000D01*
X106819047Y-38530952D01*
X106857142Y-38530952D01*
X106914285Y-38550000D01*
X106933333Y-38569047D01*
X107276190Y-38664285D02*
X107276190Y-38930952D01*
X107180952Y-38511904D02*
X107085714Y-38797619D01*
X107333333Y-38797619D01*
X151492857Y-58892857D02*
X151473809Y-58911904D01*
X151416666Y-58930952D01*
X151378571Y-58930952D01*
X151321428Y-58911904D01*
X151283333Y-58873809D01*
X151264285Y-58835714D01*
X151245238Y-58759523D01*
X151245238Y-58702380D01*
X151264285Y-58626190D01*
X151283333Y-58588095D01*
X151321428Y-58550000D01*
X151378571Y-58530952D01*
X151416666Y-58530952D01*
X151473809Y-58550000D01*
X151492857Y-58569047D01*
X151873809Y-58930952D02*
X151645238Y-58930952D01*
X151759523Y-58930952D02*
X151759523Y-58530952D01*
X151721428Y-58588095D01*
X151683333Y-58626190D01*
X151645238Y-58645238D01*
X152102380Y-58702380D02*
X152064285Y-58683333D01*
X152045238Y-58664285D01*
X152026190Y-58626190D01*
X152026190Y-58607142D01*
X152045238Y-58569047D01*
X152064285Y-58550000D01*
X152102380Y-58530952D01*
X152178571Y-58530952D01*
X152216666Y-58550000D01*
X152235714Y-58569047D01*
X152254761Y-58607142D01*
X152254761Y-58626190D01*
X152235714Y-58664285D01*
X152216666Y-58683333D01*
X152178571Y-58702380D01*
X152102380Y-58702380D01*
X152064285Y-58721428D01*
X152045238Y-58740476D01*
X152026190Y-58778571D01*
X152026190Y-58854761D01*
X152045238Y-58892857D01*
X152064285Y-58911904D01*
X152102380Y-58930952D01*
X152178571Y-58930952D01*
X152216666Y-58911904D01*
X152235714Y-58892857D01*
X152254761Y-58854761D01*
X152254761Y-58778571D01*
X152235714Y-58740476D01*
X152216666Y-58721428D01*
X152178571Y-58702380D01*
X159992857Y-137892857D02*
X159973809Y-137911904D01*
X159916666Y-137930952D01*
X159878571Y-137930952D01*
X159821428Y-137911904D01*
X159783333Y-137873809D01*
X159764285Y-137835714D01*
X159745238Y-137759523D01*
X159745238Y-137702380D01*
X159764285Y-137626190D01*
X159783333Y-137588095D01*
X159821428Y-137550000D01*
X159878571Y-137530952D01*
X159916666Y-137530952D01*
X159973809Y-137550000D01*
X159992857Y-137569047D01*
X160354761Y-137530952D02*
X160164285Y-137530952D01*
X160145238Y-137721428D01*
X160164285Y-137702380D01*
X160202380Y-137683333D01*
X160297619Y-137683333D01*
X160335714Y-137702380D01*
X160354761Y-137721428D01*
X160373809Y-137759523D01*
X160373809Y-137854761D01*
X160354761Y-137892857D01*
X160335714Y-137911904D01*
X160297619Y-137930952D01*
X160202380Y-137930952D01*
X160164285Y-137911904D01*
X160145238Y-137892857D01*
X160716666Y-137530952D02*
X160640476Y-137530952D01*
X160602380Y-137550000D01*
X160583333Y-137569047D01*
X160545238Y-137626190D01*
X160526190Y-137702380D01*
X160526190Y-137854761D01*
X160545238Y-137892857D01*
X160564285Y-137911904D01*
X160602380Y-137930952D01*
X160678571Y-137930952D01*
X160716666Y-137911904D01*
X160735714Y-137892857D01*
X160754761Y-137854761D01*
X160754761Y-137759523D01*
X160735714Y-137721428D01*
X160716666Y-137702380D01*
X160678571Y-137683333D01*
X160602380Y-137683333D01*
X160564285Y-137702380D01*
X160545238Y-137721428D01*
X160526190Y-137759523D01*
X222742857Y-38892857D02*
X222723809Y-38911904D01*
X222666666Y-38930952D01*
X222628571Y-38930952D01*
X222571428Y-38911904D01*
X222533333Y-38873809D01*
X222514285Y-38835714D01*
X222495238Y-38759523D01*
X222495238Y-38702380D01*
X222514285Y-38626190D01*
X222533333Y-38588095D01*
X222571428Y-38550000D01*
X222628571Y-38530952D01*
X222666666Y-38530952D01*
X222723809Y-38550000D01*
X222742857Y-38569047D01*
X223123809Y-38930952D02*
X222895238Y-38930952D01*
X223009523Y-38930952D02*
X223009523Y-38530952D01*
X222971428Y-38588095D01*
X222933333Y-38626190D01*
X222895238Y-38645238D01*
X223504761Y-38930952D02*
X223276190Y-38930952D01*
X223390476Y-38930952D02*
X223390476Y-38530952D01*
X223352380Y-38588095D01*
X223314285Y-38626190D01*
X223276190Y-38645238D01*
X222242857Y-80392857D02*
X222223809Y-80411904D01*
X222166666Y-80430952D01*
X222128571Y-80430952D01*
X222071428Y-80411904D01*
X222033333Y-80373809D01*
X222014285Y-80335714D01*
X221995238Y-80259523D01*
X221995238Y-80202380D01*
X222014285Y-80126190D01*
X222033333Y-80088095D01*
X222071428Y-80050000D01*
X222128571Y-80030952D01*
X222166666Y-80030952D01*
X222223809Y-80050000D01*
X222242857Y-80069047D01*
X222376190Y-80030952D02*
X222623809Y-80030952D01*
X222490476Y-80183333D01*
X222547619Y-80183333D01*
X222585714Y-80202380D01*
X222604761Y-80221428D01*
X222623809Y-80259523D01*
X222623809Y-80354761D01*
X222604761Y-80392857D01*
X222585714Y-80411904D01*
X222547619Y-80430952D01*
X222433333Y-80430952D01*
X222395238Y-80411904D01*
X222376190Y-80392857D01*
X222776190Y-80069047D02*
X222795238Y-80050000D01*
X222833333Y-80030952D01*
X222928571Y-80030952D01*
X222966666Y-80050000D01*
X222985714Y-80069047D01*
X223004761Y-80107142D01*
X223004761Y-80145238D01*
X222985714Y-80202380D01*
X222757142Y-80430952D01*
X223004761Y-80430952D01*
D10*
X77409523Y-42861904D02*
X77409523Y-42061904D01*
X77600000Y-42061904D01*
X77714285Y-42100000D01*
X77790476Y-42176190D01*
X77828571Y-42252380D01*
X77866666Y-42404761D01*
X77866666Y-42519047D01*
X77828571Y-42671428D01*
X77790476Y-42747619D01*
X77714285Y-42823809D01*
X77600000Y-42861904D01*
X77409523Y-42861904D01*
X78171428Y-42138095D02*
X78209523Y-42100000D01*
X78285714Y-42061904D01*
X78476190Y-42061904D01*
X78552380Y-42100000D01*
X78590476Y-42138095D01*
X78628571Y-42214285D01*
X78628571Y-42290476D01*
X78590476Y-42404761D01*
X78133333Y-42861904D01*
X78628571Y-42861904D01*
X128278571Y-131361904D02*
X128278571Y-130561904D01*
X128469047Y-130561904D01*
X128583333Y-130600000D01*
X128659523Y-130676190D01*
X128697619Y-130752380D01*
X128735714Y-130904761D01*
X128735714Y-131019047D01*
X128697619Y-131171428D01*
X128659523Y-131247619D01*
X128583333Y-131323809D01*
X128469047Y-131361904D01*
X128278571Y-131361904D01*
X129459523Y-130561904D02*
X129078571Y-130561904D01*
X129040476Y-130942857D01*
X129078571Y-130904761D01*
X129154761Y-130866666D01*
X129345238Y-130866666D01*
X129421428Y-130904761D01*
X129459523Y-130942857D01*
X129497619Y-131019047D01*
X129497619Y-131209523D01*
X129459523Y-131285714D01*
X129421428Y-131323809D01*
X129345238Y-131361904D01*
X129154761Y-131361904D01*
X129078571Y-131323809D01*
X129040476Y-131285714D01*
X130259523Y-131361904D02*
X129802380Y-131361904D01*
X130030952Y-131361904D02*
X130030952Y-130561904D01*
X129954761Y-130676190D01*
X129878571Y-130752380D01*
X129802380Y-130790476D01*
D11*
X128992857Y-104892857D02*
X128973809Y-104911904D01*
X128916666Y-104930952D01*
X128878571Y-104930952D01*
X128821428Y-104911904D01*
X128783333Y-104873809D01*
X128764285Y-104835714D01*
X128745238Y-104759523D01*
X128745238Y-104702380D01*
X128764285Y-104626190D01*
X128783333Y-104588095D01*
X128821428Y-104550000D01*
X128878571Y-104530952D01*
X128916666Y-104530952D01*
X128973809Y-104550000D01*
X128992857Y-104569047D01*
X129335714Y-104664285D02*
X129335714Y-104930952D01*
X129240476Y-104511904D02*
X129145238Y-104797619D01*
X129392857Y-104797619D01*
X129526190Y-104569047D02*
X129545238Y-104550000D01*
X129583333Y-104530952D01*
X129678571Y-104530952D01*
X129716666Y-104550000D01*
X129735714Y-104569047D01*
X129754761Y-104607142D01*
X129754761Y-104645238D01*
X129735714Y-104702380D01*
X129507142Y-104930952D01*
X129754761Y-104930952D01*
X137183333Y-38892857D02*
X137164285Y-38911904D01*
X137107142Y-38930952D01*
X137069047Y-38930952D01*
X137011904Y-38911904D01*
X136973809Y-38873809D01*
X136954761Y-38835714D01*
X136935714Y-38759523D01*
X136935714Y-38702380D01*
X136954761Y-38626190D01*
X136973809Y-38588095D01*
X137011904Y-38550000D01*
X137069047Y-38530952D01*
X137107142Y-38530952D01*
X137164285Y-38550000D01*
X137183333Y-38569047D01*
X137526190Y-38530952D02*
X137450000Y-38530952D01*
X137411904Y-38550000D01*
X137392857Y-38569047D01*
X137354761Y-38626190D01*
X137335714Y-38702380D01*
X137335714Y-38854761D01*
X137354761Y-38892857D01*
X137373809Y-38911904D01*
X137411904Y-38930952D01*
X137488095Y-38930952D01*
X137526190Y-38911904D01*
X137545238Y-38892857D01*
X137564285Y-38854761D01*
X137564285Y-38759523D01*
X137545238Y-38721428D01*
X137526190Y-38702380D01*
X137488095Y-38683333D01*
X137411904Y-38683333D01*
X137373809Y-38702380D01*
X137354761Y-38721428D01*
X137335714Y-38759523D01*
D10*
X150778571Y-62861904D02*
X150778571Y-62061904D01*
X150969047Y-62061904D01*
X151083333Y-62100000D01*
X151159523Y-62176190D01*
X151197619Y-62252380D01*
X151235714Y-62404761D01*
X151235714Y-62519047D01*
X151197619Y-62671428D01*
X151159523Y-62747619D01*
X151083333Y-62823809D01*
X150969047Y-62861904D01*
X150778571Y-62861904D01*
X151997619Y-62861904D02*
X151540476Y-62861904D01*
X151769047Y-62861904D02*
X151769047Y-62061904D01*
X151692857Y-62176190D01*
X151616666Y-62252380D01*
X151540476Y-62290476D01*
X152454761Y-62404761D02*
X152378571Y-62366666D01*
X152340476Y-62328571D01*
X152302380Y-62252380D01*
X152302380Y-62214285D01*
X152340476Y-62138095D01*
X152378571Y-62100000D01*
X152454761Y-62061904D01*
X152607142Y-62061904D01*
X152683333Y-62100000D01*
X152721428Y-62138095D01*
X152759523Y-62214285D01*
X152759523Y-62252380D01*
X152721428Y-62328571D01*
X152683333Y-62366666D01*
X152607142Y-62404761D01*
X152454761Y-62404761D01*
X152378571Y-62442857D01*
X152340476Y-62480952D01*
X152302380Y-62557142D01*
X152302380Y-62709523D01*
X152340476Y-62785714D01*
X152378571Y-62823809D01*
X152454761Y-62861904D01*
X152607142Y-62861904D01*
X152683333Y-62823809D01*
X152721428Y-62785714D01*
X152759523Y-62709523D01*
X152759523Y-62557142D01*
X152721428Y-62480952D01*
X152683333Y-62442857D01*
X152607142Y-62404761D01*
X113278571Y-119861904D02*
X113278571Y-119061904D01*
X113469047Y-119061904D01*
X113583333Y-119100000D01*
X113659523Y-119176190D01*
X113697619Y-119252380D01*
X113735714Y-119404761D01*
X113735714Y-119519047D01*
X113697619Y-119671428D01*
X113659523Y-119747619D01*
X113583333Y-119823809D01*
X113469047Y-119861904D01*
X113278571Y-119861904D01*
X114421428Y-119328571D02*
X114421428Y-119861904D01*
X114230952Y-119023809D02*
X114040476Y-119595238D01*
X114535714Y-119595238D01*
X115221428Y-119061904D02*
X114840476Y-119061904D01*
X114802380Y-119442857D01*
X114840476Y-119404761D01*
X114916666Y-119366666D01*
X115107142Y-119366666D01*
X115183333Y-119404761D01*
X115221428Y-119442857D01*
X115259523Y-119519047D01*
X115259523Y-119709523D01*
X115221428Y-119785714D01*
X115183333Y-119823809D01*
X115107142Y-119861904D01*
X114916666Y-119861904D01*
X114840476Y-119823809D01*
X114802380Y-119785714D01*
X233028571Y-141861904D02*
X233028571Y-141061904D01*
X233219047Y-141061904D01*
X233333333Y-141100000D01*
X233409523Y-141176190D01*
X233447619Y-141252380D01*
X233485714Y-141404761D01*
X233485714Y-141519047D01*
X233447619Y-141671428D01*
X233409523Y-141747619D01*
X233333333Y-141823809D01*
X233219047Y-141861904D01*
X233028571Y-141861904D01*
X234171428Y-141061904D02*
X234019047Y-141061904D01*
X233942857Y-141100000D01*
X233904761Y-141138095D01*
X233828571Y-141252380D01*
X233790476Y-141404761D01*
X233790476Y-141709523D01*
X233828571Y-141785714D01*
X233866666Y-141823809D01*
X233942857Y-141861904D01*
X234095238Y-141861904D01*
X234171428Y-141823809D01*
X234209523Y-141785714D01*
X234247619Y-141709523D01*
X234247619Y-141519047D01*
X234209523Y-141442857D01*
X234171428Y-141404761D01*
X234095238Y-141366666D01*
X233942857Y-141366666D01*
X233866666Y-141404761D01*
X233828571Y-141442857D01*
X233790476Y-141519047D01*
X235009523Y-141861904D02*
X234552380Y-141861904D01*
X234780952Y-141861904D02*
X234780952Y-141061904D01*
X234704761Y-141176190D01*
X234628571Y-141252380D01*
X234552380Y-141290476D01*
X76028571Y-84361904D02*
X76028571Y-83561904D01*
X76219047Y-83561904D01*
X76333333Y-83600000D01*
X76409523Y-83676190D01*
X76447619Y-83752380D01*
X76485714Y-83904761D01*
X76485714Y-84019047D01*
X76447619Y-84171428D01*
X76409523Y-84247619D01*
X76333333Y-84323809D01*
X76219047Y-84361904D01*
X76028571Y-84361904D01*
X76790476Y-83638095D02*
X76828571Y-83600000D01*
X76904761Y-83561904D01*
X77095238Y-83561904D01*
X77171428Y-83600000D01*
X77209523Y-83638095D01*
X77247619Y-83714285D01*
X77247619Y-83790476D01*
X77209523Y-83904761D01*
X76752380Y-84361904D01*
X77247619Y-84361904D01*
X77933333Y-83828571D02*
X77933333Y-84361904D01*
X77742857Y-83523809D02*
X77552380Y-84095238D01*
X78047619Y-84095238D01*
X220778571Y-119861904D02*
X220778571Y-119061904D01*
X220969047Y-119061904D01*
X221083333Y-119100000D01*
X221159523Y-119176190D01*
X221197619Y-119252380D01*
X221235714Y-119404761D01*
X221235714Y-119519047D01*
X221197619Y-119671428D01*
X221159523Y-119747619D01*
X221083333Y-119823809D01*
X220969047Y-119861904D01*
X220778571Y-119861904D01*
X221959523Y-119061904D02*
X221578571Y-119061904D01*
X221540476Y-119442857D01*
X221578571Y-119404761D01*
X221654761Y-119366666D01*
X221845238Y-119366666D01*
X221921428Y-119404761D01*
X221959523Y-119442857D01*
X221997619Y-119519047D01*
X221997619Y-119709523D01*
X221959523Y-119785714D01*
X221921428Y-119823809D01*
X221845238Y-119861904D01*
X221654761Y-119861904D01*
X221578571Y-119823809D01*
X221540476Y-119785714D01*
X222492857Y-119061904D02*
X222569047Y-119061904D01*
X222645238Y-119100000D01*
X222683333Y-119138095D01*
X222721428Y-119214285D01*
X222759523Y-119366666D01*
X222759523Y-119557142D01*
X222721428Y-119709523D01*
X222683333Y-119785714D01*
X222645238Y-119823809D01*
X222569047Y-119861904D01*
X222492857Y-119861904D01*
X222416666Y-119823809D01*
X222378571Y-119785714D01*
X222340476Y-119709523D01*
X222302380Y-119557142D01*
X222302380Y-119366666D01*
X222340476Y-119214285D01*
X222378571Y-119138095D01*
X222416666Y-119100000D01*
X222492857Y-119061904D01*
D11*
X179242857Y-58892857D02*
X179223809Y-58911904D01*
X179166666Y-58930952D01*
X179128571Y-58930952D01*
X179071428Y-58911904D01*
X179033333Y-58873809D01*
X179014285Y-58835714D01*
X178995238Y-58759523D01*
X178995238Y-58702380D01*
X179014285Y-58626190D01*
X179033333Y-58588095D01*
X179071428Y-58550000D01*
X179128571Y-58530952D01*
X179166666Y-58530952D01*
X179223809Y-58550000D01*
X179242857Y-58569047D01*
X179395238Y-58569047D02*
X179414285Y-58550000D01*
X179452380Y-58530952D01*
X179547619Y-58530952D01*
X179585714Y-58550000D01*
X179604761Y-58569047D01*
X179623809Y-58607142D01*
X179623809Y-58645238D01*
X179604761Y-58702380D01*
X179376190Y-58930952D01*
X179623809Y-58930952D01*
X179871428Y-58530952D02*
X179909523Y-58530952D01*
X179947619Y-58550000D01*
X179966666Y-58569047D01*
X179985714Y-58607142D01*
X180004761Y-58683333D01*
X180004761Y-58778571D01*
X179985714Y-58854761D01*
X179966666Y-58892857D01*
X179947619Y-58911904D01*
X179909523Y-58930952D01*
X179871428Y-58930952D01*
X179833333Y-58911904D01*
X179814285Y-58892857D01*
X179795238Y-58854761D01*
X179776190Y-58778571D01*
X179776190Y-58683333D01*
X179795238Y-58607142D01*
X179814285Y-58569047D01*
X179833333Y-58550000D01*
X179871428Y-58530952D01*
D10*
X116778571Y-100361904D02*
X116778571Y-99561904D01*
X116969047Y-99561904D01*
X117083333Y-99600000D01*
X117159523Y-99676190D01*
X117197619Y-99752380D01*
X117235714Y-99904761D01*
X117235714Y-100019047D01*
X117197619Y-100171428D01*
X117159523Y-100247619D01*
X117083333Y-100323809D01*
X116969047Y-100361904D01*
X116778571Y-100361904D01*
X117502380Y-99561904D02*
X117997619Y-99561904D01*
X117730952Y-99866666D01*
X117845238Y-99866666D01*
X117921428Y-99904761D01*
X117959523Y-99942857D01*
X117997619Y-100019047D01*
X117997619Y-100209523D01*
X117959523Y-100285714D01*
X117921428Y-100323809D01*
X117845238Y-100361904D01*
X117616666Y-100361904D01*
X117540476Y-100323809D01*
X117502380Y-100285714D01*
X118721428Y-99561904D02*
X118340476Y-99561904D01*
X118302380Y-99942857D01*
X118340476Y-99904761D01*
X118416666Y-99866666D01*
X118607142Y-99866666D01*
X118683333Y-99904761D01*
X118721428Y-99942857D01*
X118759523Y-100019047D01*
X118759523Y-100209523D01*
X118721428Y-100285714D01*
X118683333Y-100323809D01*
X118607142Y-100361904D01*
X118416666Y-100361904D01*
X118340476Y-100323809D01*
X118302380Y-100285714D01*
X136659523Y-42861904D02*
X136659523Y-42061904D01*
X136850000Y-42061904D01*
X136964285Y-42100000D01*
X137040476Y-42176190D01*
X137078571Y-42252380D01*
X137116666Y-42404761D01*
X137116666Y-42519047D01*
X137078571Y-42671428D01*
X137040476Y-42747619D01*
X136964285Y-42823809D01*
X136850000Y-42861904D01*
X136659523Y-42861904D01*
X137802380Y-42061904D02*
X137650000Y-42061904D01*
X137573809Y-42100000D01*
X137535714Y-42138095D01*
X137459523Y-42252380D01*
X137421428Y-42404761D01*
X137421428Y-42709523D01*
X137459523Y-42785714D01*
X137497619Y-42823809D01*
X137573809Y-42861904D01*
X137726190Y-42861904D01*
X137802380Y-42823809D01*
X137840476Y-42785714D01*
X137878571Y-42709523D01*
X137878571Y-42519047D01*
X137840476Y-42442857D01*
X137802380Y-42404761D01*
X137726190Y-42366666D01*
X137573809Y-42366666D01*
X137497619Y-42404761D01*
X137459523Y-42442857D01*
X137421428Y-42519047D01*
D11*
X66992857Y-131892857D02*
X66973809Y-131911904D01*
X66916666Y-131930952D01*
X66878571Y-131930952D01*
X66821428Y-131911904D01*
X66783333Y-131873809D01*
X66764285Y-131835714D01*
X66745238Y-131759523D01*
X66745238Y-131702380D01*
X66764285Y-131626190D01*
X66783333Y-131588095D01*
X66821428Y-131550000D01*
X66878571Y-131530952D01*
X66916666Y-131530952D01*
X66973809Y-131550000D01*
X66992857Y-131569047D01*
X67354761Y-131530952D02*
X67164285Y-131530952D01*
X67145238Y-131721428D01*
X67164285Y-131702380D01*
X67202380Y-131683333D01*
X67297619Y-131683333D01*
X67335714Y-131702380D01*
X67354761Y-131721428D01*
X67373809Y-131759523D01*
X67373809Y-131854761D01*
X67354761Y-131892857D01*
X67335714Y-131911904D01*
X67297619Y-131930952D01*
X67202380Y-131930952D01*
X67164285Y-131911904D01*
X67145238Y-131892857D01*
X67526190Y-131569047D02*
X67545238Y-131550000D01*
X67583333Y-131530952D01*
X67678571Y-131530952D01*
X67716666Y-131550000D01*
X67735714Y-131569047D01*
X67754761Y-131607142D01*
X67754761Y-131645238D01*
X67735714Y-131702380D01*
X67507142Y-131930952D01*
X67754761Y-131930952D01*
X144492857Y-137892857D02*
X144473809Y-137911904D01*
X144416666Y-137930952D01*
X144378571Y-137930952D01*
X144321428Y-137911904D01*
X144283333Y-137873809D01*
X144264285Y-137835714D01*
X144245238Y-137759523D01*
X144245238Y-137702380D01*
X144264285Y-137626190D01*
X144283333Y-137588095D01*
X144321428Y-137550000D01*
X144378571Y-137530952D01*
X144416666Y-137530952D01*
X144473809Y-137550000D01*
X144492857Y-137569047D01*
X144854761Y-137530952D02*
X144664285Y-137530952D01*
X144645238Y-137721428D01*
X144664285Y-137702380D01*
X144702380Y-137683333D01*
X144797619Y-137683333D01*
X144835714Y-137702380D01*
X144854761Y-137721428D01*
X144873809Y-137759523D01*
X144873809Y-137854761D01*
X144854761Y-137892857D01*
X144835714Y-137911904D01*
X144797619Y-137930952D01*
X144702380Y-137930952D01*
X144664285Y-137911904D01*
X144645238Y-137892857D01*
X145235714Y-137530952D02*
X145045238Y-137530952D01*
X145026190Y-137721428D01*
X145045238Y-137702380D01*
X145083333Y-137683333D01*
X145178571Y-137683333D01*
X145216666Y-137702380D01*
X145235714Y-137721428D01*
X145254761Y-137759523D01*
X145254761Y-137854761D01*
X145235714Y-137892857D01*
X145216666Y-137911904D01*
X145178571Y-137930952D01*
X145083333Y-137930952D01*
X145045238Y-137911904D01*
X145026190Y-137892857D01*
D10*
X176278571Y-119861904D02*
X176278571Y-119061904D01*
X176469047Y-119061904D01*
X176583333Y-119100000D01*
X176659523Y-119176190D01*
X176697619Y-119252380D01*
X176735714Y-119404761D01*
X176735714Y-119519047D01*
X176697619Y-119671428D01*
X176659523Y-119747619D01*
X176583333Y-119823809D01*
X176469047Y-119861904D01*
X176278571Y-119861904D01*
X177421428Y-119328571D02*
X177421428Y-119861904D01*
X177230952Y-119023809D02*
X177040476Y-119595238D01*
X177535714Y-119595238D01*
X177954761Y-119404761D02*
X177878571Y-119366666D01*
X177840476Y-119328571D01*
X177802380Y-119252380D01*
X177802380Y-119214285D01*
X177840476Y-119138095D01*
X177878571Y-119100000D01*
X177954761Y-119061904D01*
X178107142Y-119061904D01*
X178183333Y-119100000D01*
X178221428Y-119138095D01*
X178259523Y-119214285D01*
X178259523Y-119252380D01*
X178221428Y-119328571D01*
X178183333Y-119366666D01*
X178107142Y-119404761D01*
X177954761Y-119404761D01*
X177878571Y-119442857D01*
X177840476Y-119480952D01*
X177802380Y-119557142D01*
X177802380Y-119709523D01*
X177840476Y-119785714D01*
X177878571Y-119823809D01*
X177954761Y-119861904D01*
X178107142Y-119861904D01*
X178183333Y-119823809D01*
X178221428Y-119785714D01*
X178259523Y-119709523D01*
X178259523Y-119557142D01*
X178221428Y-119480952D01*
X178183333Y-119442857D01*
X178107142Y-119404761D01*
D11*
X159992857Y-96392857D02*
X159973809Y-96411904D01*
X159916666Y-96430952D01*
X159878571Y-96430952D01*
X159821428Y-96411904D01*
X159783333Y-96373809D01*
X159764285Y-96335714D01*
X159745238Y-96259523D01*
X159745238Y-96202380D01*
X159764285Y-96126190D01*
X159783333Y-96088095D01*
X159821428Y-96050000D01*
X159878571Y-96030952D01*
X159916666Y-96030952D01*
X159973809Y-96050000D01*
X159992857Y-96069047D01*
X160126190Y-96030952D02*
X160373809Y-96030952D01*
X160240476Y-96183333D01*
X160297619Y-96183333D01*
X160335714Y-96202380D01*
X160354761Y-96221428D01*
X160373809Y-96259523D01*
X160373809Y-96354761D01*
X160354761Y-96392857D01*
X160335714Y-96411904D01*
X160297619Y-96430952D01*
X160183333Y-96430952D01*
X160145238Y-96411904D01*
X160126190Y-96392857D01*
X160507142Y-96030952D02*
X160773809Y-96030952D01*
X160602380Y-96430952D01*
X76742857Y-80392857D02*
X76723809Y-80411904D01*
X76666666Y-80430952D01*
X76628571Y-80430952D01*
X76571428Y-80411904D01*
X76533333Y-80373809D01*
X76514285Y-80335714D01*
X76495238Y-80259523D01*
X76495238Y-80202380D01*
X76514285Y-80126190D01*
X76533333Y-80088095D01*
X76571428Y-80050000D01*
X76628571Y-80030952D01*
X76666666Y-80030952D01*
X76723809Y-80050000D01*
X76742857Y-80069047D01*
X76895238Y-80069047D02*
X76914285Y-80050000D01*
X76952380Y-80030952D01*
X77047619Y-80030952D01*
X77085714Y-80050000D01*
X77104761Y-80069047D01*
X77123809Y-80107142D01*
X77123809Y-80145238D01*
X77104761Y-80202380D01*
X76876190Y-80430952D01*
X77123809Y-80430952D01*
X77466666Y-80164285D02*
X77466666Y-80430952D01*
X77371428Y-80011904D02*
X77276190Y-80297619D01*
X77523809Y-80297619D01*
X206492857Y-58892857D02*
X206473809Y-58911904D01*
X206416666Y-58930952D01*
X206378571Y-58930952D01*
X206321428Y-58911904D01*
X206283333Y-58873809D01*
X206264285Y-58835714D01*
X206245238Y-58759523D01*
X206245238Y-58702380D01*
X206264285Y-58626190D01*
X206283333Y-58588095D01*
X206321428Y-58550000D01*
X206378571Y-58530952D01*
X206416666Y-58530952D01*
X206473809Y-58550000D01*
X206492857Y-58569047D01*
X206645238Y-58569047D02*
X206664285Y-58550000D01*
X206702380Y-58530952D01*
X206797619Y-58530952D01*
X206835714Y-58550000D01*
X206854761Y-58569047D01*
X206873809Y-58607142D01*
X206873809Y-58645238D01*
X206854761Y-58702380D01*
X206626190Y-58930952D01*
X206873809Y-58930952D01*
X207254761Y-58930952D02*
X207026190Y-58930952D01*
X207140476Y-58930952D02*
X207140476Y-58530952D01*
X207102380Y-58588095D01*
X207064285Y-58626190D01*
X207026190Y-58645238D01*
D10*
X191028571Y-84361904D02*
X191028571Y-83561904D01*
X191219047Y-83561904D01*
X191333333Y-83600000D01*
X191409523Y-83676190D01*
X191447619Y-83752380D01*
X191485714Y-83904761D01*
X191485714Y-84019047D01*
X191447619Y-84171428D01*
X191409523Y-84247619D01*
X191333333Y-84323809D01*
X191219047Y-84361904D01*
X191028571Y-84361904D01*
X191752380Y-83561904D02*
X192247619Y-83561904D01*
X191980952Y-83866666D01*
X192095238Y-83866666D01*
X192171428Y-83904761D01*
X192209523Y-83942857D01*
X192247619Y-84019047D01*
X192247619Y-84209523D01*
X192209523Y-84285714D01*
X192171428Y-84323809D01*
X192095238Y-84361904D01*
X191866666Y-84361904D01*
X191790476Y-84323809D01*
X191752380Y-84285714D01*
X192742857Y-83561904D02*
X192819047Y-83561904D01*
X192895238Y-83600000D01*
X192933333Y-83638095D01*
X192971428Y-83714285D01*
X193009523Y-83866666D01*
X193009523Y-84057142D01*
X192971428Y-84209523D01*
X192933333Y-84285714D01*
X192895238Y-84323809D01*
X192819047Y-84361904D01*
X192742857Y-84361904D01*
X192666666Y-84323809D01*
X192628571Y-84285714D01*
X192590476Y-84209523D01*
X192552380Y-84057142D01*
X192552380Y-83866666D01*
X192590476Y-83714285D01*
X192628571Y-83638095D01*
X192666666Y-83600000D01*
X192742857Y-83561904D01*
D11*
X71242857Y-115892857D02*
X71223809Y-115911904D01*
X71166666Y-115930952D01*
X71128571Y-115930952D01*
X71071428Y-115911904D01*
X71033333Y-115873809D01*
X71014285Y-115835714D01*
X70995238Y-115759523D01*
X70995238Y-115702380D01*
X71014285Y-115626190D01*
X71033333Y-115588095D01*
X71071428Y-115550000D01*
X71128571Y-115530952D01*
X71166666Y-115530952D01*
X71223809Y-115550000D01*
X71242857Y-115569047D01*
X71585714Y-115664285D02*
X71585714Y-115930952D01*
X71490476Y-115511904D02*
X71395238Y-115797619D01*
X71642857Y-115797619D01*
X71757142Y-115530952D02*
X72004761Y-115530952D01*
X71871428Y-115683333D01*
X71928571Y-115683333D01*
X71966666Y-115702380D01*
X71985714Y-115721428D01*
X72004761Y-115759523D01*
X72004761Y-115854761D01*
X71985714Y-115892857D01*
X71966666Y-115911904D01*
X71928571Y-115930952D01*
X71814285Y-115930952D01*
X71776190Y-115911904D01*
X71757142Y-115892857D01*
X206742857Y-137892857D02*
X206723809Y-137911904D01*
X206666666Y-137930952D01*
X206628571Y-137930952D01*
X206571428Y-137911904D01*
X206533333Y-137873809D01*
X206514285Y-137835714D01*
X206495238Y-137759523D01*
X206495238Y-137702380D01*
X206514285Y-137626190D01*
X206533333Y-137588095D01*
X206571428Y-137550000D01*
X206628571Y-137530952D01*
X206666666Y-137530952D01*
X206723809Y-137550000D01*
X206742857Y-137569047D01*
X207104761Y-137530952D02*
X206914285Y-137530952D01*
X206895238Y-137721428D01*
X206914285Y-137702380D01*
X206952380Y-137683333D01*
X207047619Y-137683333D01*
X207085714Y-137702380D01*
X207104761Y-137721428D01*
X207123809Y-137759523D01*
X207123809Y-137854761D01*
X207104761Y-137892857D01*
X207085714Y-137911904D01*
X207047619Y-137930952D01*
X206952380Y-137930952D01*
X206914285Y-137911904D01*
X206895238Y-137892857D01*
X207314285Y-137930952D02*
X207390476Y-137930952D01*
X207428571Y-137911904D01*
X207447619Y-137892857D01*
X207485714Y-137835714D01*
X207504761Y-137759523D01*
X207504761Y-137607142D01*
X207485714Y-137569047D01*
X207466666Y-137550000D01*
X207428571Y-137530952D01*
X207352380Y-137530952D01*
X207314285Y-137550000D01*
X207295238Y-137569047D01*
X207276190Y-137607142D01*
X207276190Y-137702380D01*
X207295238Y-137740476D01*
X207314285Y-137759523D01*
X207352380Y-137778571D01*
X207428571Y-137778571D01*
X207466666Y-137759523D01*
X207485714Y-137740476D01*
X207504761Y-137702380D01*
D10*
X159278571Y-141861904D02*
X159278571Y-141061904D01*
X159469047Y-141061904D01*
X159583333Y-141100000D01*
X159659523Y-141176190D01*
X159697619Y-141252380D01*
X159735714Y-141404761D01*
X159735714Y-141519047D01*
X159697619Y-141671428D01*
X159659523Y-141747619D01*
X159583333Y-141823809D01*
X159469047Y-141861904D01*
X159278571Y-141861904D01*
X160459523Y-141061904D02*
X160078571Y-141061904D01*
X160040476Y-141442857D01*
X160078571Y-141404761D01*
X160154761Y-141366666D01*
X160345238Y-141366666D01*
X160421428Y-141404761D01*
X160459523Y-141442857D01*
X160497619Y-141519047D01*
X160497619Y-141709523D01*
X160459523Y-141785714D01*
X160421428Y-141823809D01*
X160345238Y-141861904D01*
X160154761Y-141861904D01*
X160078571Y-141823809D01*
X160040476Y-141785714D01*
X161183333Y-141061904D02*
X161030952Y-141061904D01*
X160954761Y-141100000D01*
X160916666Y-141138095D01*
X160840476Y-141252380D01*
X160802380Y-141404761D01*
X160802380Y-141709523D01*
X160840476Y-141785714D01*
X160878571Y-141823809D01*
X160954761Y-141861904D01*
X161107142Y-141861904D01*
X161183333Y-141823809D01*
X161221428Y-141785714D01*
X161259523Y-141709523D01*
X161259523Y-141519047D01*
X161221428Y-141442857D01*
X161183333Y-141404761D01*
X161107142Y-141366666D01*
X160954761Y-141366666D01*
X160878571Y-141404761D01*
X160840476Y-141442857D01*
X160802380Y-141519047D01*
D11*
X144492857Y-96392857D02*
X144473809Y-96411904D01*
X144416666Y-96430952D01*
X144378571Y-96430952D01*
X144321428Y-96411904D01*
X144283333Y-96373809D01*
X144264285Y-96335714D01*
X144245238Y-96259523D01*
X144245238Y-96202380D01*
X144264285Y-96126190D01*
X144283333Y-96088095D01*
X144321428Y-96050000D01*
X144378571Y-96030952D01*
X144416666Y-96030952D01*
X144473809Y-96050000D01*
X144492857Y-96069047D01*
X144626190Y-96030952D02*
X144873809Y-96030952D01*
X144740476Y-96183333D01*
X144797619Y-96183333D01*
X144835714Y-96202380D01*
X144854761Y-96221428D01*
X144873809Y-96259523D01*
X144873809Y-96354761D01*
X144854761Y-96392857D01*
X144835714Y-96411904D01*
X144797619Y-96430952D01*
X144683333Y-96430952D01*
X144645238Y-96411904D01*
X144626190Y-96392857D01*
X145216666Y-96030952D02*
X145140476Y-96030952D01*
X145102380Y-96050000D01*
X145083333Y-96069047D01*
X145045238Y-96126190D01*
X145026190Y-96202380D01*
X145026190Y-96354761D01*
X145045238Y-96392857D01*
X145064285Y-96411904D01*
X145102380Y-96430952D01*
X145178571Y-96430952D01*
X145216666Y-96411904D01*
X145235714Y-96392857D01*
X145254761Y-96354761D01*
X145254761Y-96259523D01*
X145235714Y-96221428D01*
X145216666Y-96202380D01*
X145178571Y-96183333D01*
X145102380Y-96183333D01*
X145064285Y-96202380D01*
X145045238Y-96221428D01*
X145026190Y-96259523D01*
D10*
X237778571Y-42861904D02*
X237778571Y-42061904D01*
X237969047Y-42061904D01*
X238083333Y-42100000D01*
X238159523Y-42176190D01*
X238197619Y-42252380D01*
X238235714Y-42404761D01*
X238235714Y-42519047D01*
X238197619Y-42671428D01*
X238159523Y-42747619D01*
X238083333Y-42823809D01*
X237969047Y-42861904D01*
X237778571Y-42861904D01*
X238997619Y-42861904D02*
X238540476Y-42861904D01*
X238769047Y-42861904D02*
X238769047Y-42061904D01*
X238692857Y-42176190D01*
X238616666Y-42252380D01*
X238540476Y-42290476D01*
X239302380Y-42138095D02*
X239340476Y-42100000D01*
X239416666Y-42061904D01*
X239607142Y-42061904D01*
X239683333Y-42100000D01*
X239721428Y-42138095D01*
X239759523Y-42214285D01*
X239759523Y-42290476D01*
X239721428Y-42404761D01*
X239264285Y-42861904D01*
X239759523Y-42861904D01*
X116278571Y-141861904D02*
X116278571Y-141061904D01*
X116469047Y-141061904D01*
X116583333Y-141100000D01*
X116659523Y-141176190D01*
X116697619Y-141252380D01*
X116735714Y-141404761D01*
X116735714Y-141519047D01*
X116697619Y-141671428D01*
X116659523Y-141747619D01*
X116583333Y-141823809D01*
X116469047Y-141861904D01*
X116278571Y-141861904D01*
X117459523Y-141061904D02*
X117078571Y-141061904D01*
X117040476Y-141442857D01*
X117078571Y-141404761D01*
X117154761Y-141366666D01*
X117345238Y-141366666D01*
X117421428Y-141404761D01*
X117459523Y-141442857D01*
X117497619Y-141519047D01*
X117497619Y-141709523D01*
X117459523Y-141785714D01*
X117421428Y-141823809D01*
X117345238Y-141861904D01*
X117154761Y-141861904D01*
X117078571Y-141823809D01*
X117040476Y-141785714D01*
X118183333Y-141328571D02*
X118183333Y-141861904D01*
X117992857Y-141023809D02*
X117802380Y-141595238D01*
X118297619Y-141595238D01*
X61409523Y-42861904D02*
X61409523Y-42061904D01*
X61600000Y-42061904D01*
X61714285Y-42100000D01*
X61790476Y-42176190D01*
X61828571Y-42252380D01*
X61866666Y-42404761D01*
X61866666Y-42519047D01*
X61828571Y-42671428D01*
X61790476Y-42747619D01*
X61714285Y-42823809D01*
X61600000Y-42861904D01*
X61409523Y-42861904D01*
X62628571Y-42861904D02*
X62171428Y-42861904D01*
X62400000Y-42861904D02*
X62400000Y-42061904D01*
X62323809Y-42176190D01*
X62247619Y-42252380D01*
X62171428Y-42290476D01*
D11*
X61933333Y-38892857D02*
X61914285Y-38911904D01*
X61857142Y-38930952D01*
X61819047Y-38930952D01*
X61761904Y-38911904D01*
X61723809Y-38873809D01*
X61704761Y-38835714D01*
X61685714Y-38759523D01*
X61685714Y-38702380D01*
X61704761Y-38626190D01*
X61723809Y-38588095D01*
X61761904Y-38550000D01*
X61819047Y-38530952D01*
X61857142Y-38530952D01*
X61914285Y-38550000D01*
X61933333Y-38569047D01*
X62314285Y-38930952D02*
X62085714Y-38930952D01*
X62200000Y-38930952D02*
X62200000Y-38530952D01*
X62161904Y-38588095D01*
X62123809Y-38626190D01*
X62085714Y-38645238D01*
X117492857Y-96392857D02*
X117473809Y-96411904D01*
X117416666Y-96430952D01*
X117378571Y-96430952D01*
X117321428Y-96411904D01*
X117283333Y-96373809D01*
X117264285Y-96335714D01*
X117245238Y-96259523D01*
X117245238Y-96202380D01*
X117264285Y-96126190D01*
X117283333Y-96088095D01*
X117321428Y-96050000D01*
X117378571Y-96030952D01*
X117416666Y-96030952D01*
X117473809Y-96050000D01*
X117492857Y-96069047D01*
X117626190Y-96030952D02*
X117873809Y-96030952D01*
X117740476Y-96183333D01*
X117797619Y-96183333D01*
X117835714Y-96202380D01*
X117854761Y-96221428D01*
X117873809Y-96259523D01*
X117873809Y-96354761D01*
X117854761Y-96392857D01*
X117835714Y-96411904D01*
X117797619Y-96430952D01*
X117683333Y-96430952D01*
X117645238Y-96411904D01*
X117626190Y-96392857D01*
X118235714Y-96030952D02*
X118045238Y-96030952D01*
X118026190Y-96221428D01*
X118045238Y-96202380D01*
X118083333Y-96183333D01*
X118178571Y-96183333D01*
X118216666Y-96202380D01*
X118235714Y-96221428D01*
X118254761Y-96259523D01*
X118254761Y-96354761D01*
X118235714Y-96392857D01*
X118216666Y-96411904D01*
X118178571Y-96430952D01*
X118083333Y-96430952D01*
X118045238Y-96411904D01*
X118026190Y-96392857D01*
X106742857Y-80392857D02*
X106723809Y-80411904D01*
X106666666Y-80430952D01*
X106628571Y-80430952D01*
X106571428Y-80411904D01*
X106533333Y-80373809D01*
X106514285Y-80335714D01*
X106495238Y-80259523D01*
X106495238Y-80202380D01*
X106514285Y-80126190D01*
X106533333Y-80088095D01*
X106571428Y-80050000D01*
X106628571Y-80030952D01*
X106666666Y-80030952D01*
X106723809Y-80050000D01*
X106742857Y-80069047D01*
X106895238Y-80069047D02*
X106914285Y-80050000D01*
X106952380Y-80030952D01*
X107047619Y-80030952D01*
X107085714Y-80050000D01*
X107104761Y-80069047D01*
X107123809Y-80107142D01*
X107123809Y-80145238D01*
X107104761Y-80202380D01*
X106876190Y-80430952D01*
X107123809Y-80430952D01*
X107466666Y-80030952D02*
X107390476Y-80030952D01*
X107352380Y-80050000D01*
X107333333Y-80069047D01*
X107295238Y-80126190D01*
X107276190Y-80202380D01*
X107276190Y-80354761D01*
X107295238Y-80392857D01*
X107314285Y-80411904D01*
X107352380Y-80430952D01*
X107428571Y-80430952D01*
X107466666Y-80411904D01*
X107485714Y-80392857D01*
X107504761Y-80354761D01*
X107504761Y-80259523D01*
X107485714Y-80221428D01*
X107466666Y-80202380D01*
X107428571Y-80183333D01*
X107352380Y-80183333D01*
X107314285Y-80202380D01*
X107295238Y-80221428D01*
X107276190Y-80259523D01*
D10*
X143778571Y-119861904D02*
X143778571Y-119061904D01*
X143969047Y-119061904D01*
X144083333Y-119100000D01*
X144159523Y-119176190D01*
X144197619Y-119252380D01*
X144235714Y-119404761D01*
X144235714Y-119519047D01*
X144197619Y-119671428D01*
X144159523Y-119747619D01*
X144083333Y-119823809D01*
X143969047Y-119861904D01*
X143778571Y-119861904D01*
X144921428Y-119328571D02*
X144921428Y-119861904D01*
X144730952Y-119023809D02*
X144540476Y-119595238D01*
X145035714Y-119595238D01*
X145683333Y-119061904D02*
X145530952Y-119061904D01*
X145454761Y-119100000D01*
X145416666Y-119138095D01*
X145340476Y-119252380D01*
X145302380Y-119404761D01*
X145302380Y-119709523D01*
X145340476Y-119785714D01*
X145378571Y-119823809D01*
X145454761Y-119861904D01*
X145607142Y-119861904D01*
X145683333Y-119823809D01*
X145721428Y-119785714D01*
X145759523Y-119709523D01*
X145759523Y-119519047D01*
X145721428Y-119442857D01*
X145683333Y-119404761D01*
X145607142Y-119366666D01*
X145454761Y-119366666D01*
X145378571Y-119404761D01*
X145340476Y-119442857D01*
X145302380Y-119519047D01*
X220778571Y-100361904D02*
X220778571Y-99561904D01*
X220969047Y-99561904D01*
X221083333Y-99600000D01*
X221159523Y-99676190D01*
X221197619Y-99752380D01*
X221235714Y-99904761D01*
X221235714Y-100019047D01*
X221197619Y-100171428D01*
X221159523Y-100247619D01*
X221083333Y-100323809D01*
X220969047Y-100361904D01*
X220778571Y-100361904D01*
X221921428Y-99828571D02*
X221921428Y-100361904D01*
X221730952Y-99523809D02*
X221540476Y-100095238D01*
X222035714Y-100095238D01*
X222492857Y-99561904D02*
X222569047Y-99561904D01*
X222645238Y-99600000D01*
X222683333Y-99638095D01*
X222721428Y-99714285D01*
X222759523Y-99866666D01*
X222759523Y-100057142D01*
X222721428Y-100209523D01*
X222683333Y-100285714D01*
X222645238Y-100323809D01*
X222569047Y-100361904D01*
X222492857Y-100361904D01*
X222416666Y-100323809D01*
X222378571Y-100285714D01*
X222340476Y-100209523D01*
X222302380Y-100057142D01*
X222302380Y-99866666D01*
X222340476Y-99714285D01*
X222378571Y-99638095D01*
X222416666Y-99600000D01*
X222492857Y-99561904D01*
X193028571Y-100361904D02*
X193028571Y-99561904D01*
X193219047Y-99561904D01*
X193333333Y-99600000D01*
X193409523Y-99676190D01*
X193447619Y-99752380D01*
X193485714Y-99904761D01*
X193485714Y-100019047D01*
X193447619Y-100171428D01*
X193409523Y-100247619D01*
X193333333Y-100323809D01*
X193219047Y-100361904D01*
X193028571Y-100361904D01*
X193752380Y-99561904D02*
X194247619Y-99561904D01*
X193980952Y-99866666D01*
X194095238Y-99866666D01*
X194171428Y-99904761D01*
X194209523Y-99942857D01*
X194247619Y-100019047D01*
X194247619Y-100209523D01*
X194209523Y-100285714D01*
X194171428Y-100323809D01*
X194095238Y-100361904D01*
X193866666Y-100361904D01*
X193790476Y-100323809D01*
X193752380Y-100285714D01*
X194628571Y-100361904D02*
X194780952Y-100361904D01*
X194857142Y-100323809D01*
X194895238Y-100285714D01*
X194971428Y-100171428D01*
X195009523Y-100019047D01*
X195009523Y-99714285D01*
X194971428Y-99638095D01*
X194933333Y-99600000D01*
X194857142Y-99561904D01*
X194704761Y-99561904D01*
X194628571Y-99600000D01*
X194590476Y-99638095D01*
X194552380Y-99714285D01*
X194552380Y-99904761D01*
X194590476Y-99980952D01*
X194628571Y-100019047D01*
X194704761Y-100057142D01*
X194857142Y-100057142D01*
X194933333Y-100019047D01*
X194971428Y-99980952D01*
X195009523Y-99904761D01*
D11*
X221492857Y-96392857D02*
X221473809Y-96411904D01*
X221416666Y-96430952D01*
X221378571Y-96430952D01*
X221321428Y-96411904D01*
X221283333Y-96373809D01*
X221264285Y-96335714D01*
X221245238Y-96259523D01*
X221245238Y-96202380D01*
X221264285Y-96126190D01*
X221283333Y-96088095D01*
X221321428Y-96050000D01*
X221378571Y-96030952D01*
X221416666Y-96030952D01*
X221473809Y-96050000D01*
X221492857Y-96069047D01*
X221835714Y-96164285D02*
X221835714Y-96430952D01*
X221740476Y-96011904D02*
X221645238Y-96297619D01*
X221892857Y-96297619D01*
X222121428Y-96030952D02*
X222159523Y-96030952D01*
X222197619Y-96050000D01*
X222216666Y-96069047D01*
X222235714Y-96107142D01*
X222254761Y-96183333D01*
X222254761Y-96278571D01*
X222235714Y-96354761D01*
X222216666Y-96392857D01*
X222197619Y-96411904D01*
X222159523Y-96430952D01*
X222121428Y-96430952D01*
X222083333Y-96411904D01*
X222064285Y-96392857D01*
X222045238Y-96354761D01*
X222026190Y-96278571D01*
X222026190Y-96183333D01*
X222045238Y-96107142D01*
X222064285Y-96069047D01*
X222083333Y-96050000D01*
X222121428Y-96030952D01*
D10*
X70528571Y-119861904D02*
X70528571Y-119061904D01*
X70719047Y-119061904D01*
X70833333Y-119100000D01*
X70909523Y-119176190D01*
X70947619Y-119252380D01*
X70985714Y-119404761D01*
X70985714Y-119519047D01*
X70947619Y-119671428D01*
X70909523Y-119747619D01*
X70833333Y-119823809D01*
X70719047Y-119861904D01*
X70528571Y-119861904D01*
X71671428Y-119328571D02*
X71671428Y-119861904D01*
X71480952Y-119023809D02*
X71290476Y-119595238D01*
X71785714Y-119595238D01*
X72014285Y-119061904D02*
X72509523Y-119061904D01*
X72242857Y-119366666D01*
X72357142Y-119366666D01*
X72433333Y-119404761D01*
X72471428Y-119442857D01*
X72509523Y-119519047D01*
X72509523Y-119709523D01*
X72471428Y-119785714D01*
X72433333Y-119823809D01*
X72357142Y-119861904D01*
X72128571Y-119861904D01*
X72052380Y-119823809D01*
X72014285Y-119785714D01*
D11*
X66992857Y-103142857D02*
X66973809Y-103161904D01*
X66916666Y-103180952D01*
X66878571Y-103180952D01*
X66821428Y-103161904D01*
X66783333Y-103123809D01*
X66764285Y-103085714D01*
X66745238Y-103009523D01*
X66745238Y-102952380D01*
X66764285Y-102876190D01*
X66783333Y-102838095D01*
X66821428Y-102800000D01*
X66878571Y-102780952D01*
X66916666Y-102780952D01*
X66973809Y-102800000D01*
X66992857Y-102819047D01*
X67335714Y-102914285D02*
X67335714Y-103180952D01*
X67240476Y-102761904D02*
X67145238Y-103047619D01*
X67392857Y-103047619D01*
X67754761Y-103180952D02*
X67526190Y-103180952D01*
X67640476Y-103180952D02*
X67640476Y-102780952D01*
X67602380Y-102838095D01*
X67564285Y-102876190D01*
X67526190Y-102895238D01*
D10*
X128028571Y-62861904D02*
X128028571Y-62061904D01*
X128219047Y-62061904D01*
X128333333Y-62100000D01*
X128409523Y-62176190D01*
X128447619Y-62252380D01*
X128485714Y-62404761D01*
X128485714Y-62519047D01*
X128447619Y-62671428D01*
X128409523Y-62747619D01*
X128333333Y-62823809D01*
X128219047Y-62861904D01*
X128028571Y-62861904D01*
X129247619Y-62861904D02*
X128790476Y-62861904D01*
X129019047Y-62861904D02*
X129019047Y-62061904D01*
X128942857Y-62176190D01*
X128866666Y-62252380D01*
X128790476Y-62290476D01*
X129514285Y-62061904D02*
X130047619Y-62061904D01*
X129704761Y-62861904D01*
X159278571Y-119861904D02*
X159278571Y-119061904D01*
X159469047Y-119061904D01*
X159583333Y-119100000D01*
X159659523Y-119176190D01*
X159697619Y-119252380D01*
X159735714Y-119404761D01*
X159735714Y-119519047D01*
X159697619Y-119671428D01*
X159659523Y-119747619D01*
X159583333Y-119823809D01*
X159469047Y-119861904D01*
X159278571Y-119861904D01*
X160421428Y-119328571D02*
X160421428Y-119861904D01*
X160230952Y-119023809D02*
X160040476Y-119595238D01*
X160535714Y-119595238D01*
X160764285Y-119061904D02*
X161297619Y-119061904D01*
X160954761Y-119861904D01*
D11*
X159992857Y-115892857D02*
X159973809Y-115911904D01*
X159916666Y-115930952D01*
X159878571Y-115930952D01*
X159821428Y-115911904D01*
X159783333Y-115873809D01*
X159764285Y-115835714D01*
X159745238Y-115759523D01*
X159745238Y-115702380D01*
X159764285Y-115626190D01*
X159783333Y-115588095D01*
X159821428Y-115550000D01*
X159878571Y-115530952D01*
X159916666Y-115530952D01*
X159973809Y-115550000D01*
X159992857Y-115569047D01*
X160335714Y-115664285D02*
X160335714Y-115930952D01*
X160240476Y-115511904D02*
X160145238Y-115797619D01*
X160392857Y-115797619D01*
X160507142Y-115530952D02*
X160773809Y-115530952D01*
X160602380Y-115930952D01*
D10*
X93909523Y-42861904D02*
X93909523Y-42061904D01*
X94100000Y-42061904D01*
X94214285Y-42100000D01*
X94290476Y-42176190D01*
X94328571Y-42252380D01*
X94366666Y-42404761D01*
X94366666Y-42519047D01*
X94328571Y-42671428D01*
X94290476Y-42747619D01*
X94214285Y-42823809D01*
X94100000Y-42861904D01*
X93909523Y-42861904D01*
X94633333Y-42061904D02*
X95128571Y-42061904D01*
X94861904Y-42366666D01*
X94976190Y-42366666D01*
X95052380Y-42404761D01*
X95090476Y-42442857D01*
X95128571Y-42519047D01*
X95128571Y-42709523D01*
X95090476Y-42785714D01*
X95052380Y-42823809D01*
X94976190Y-42861904D01*
X94747619Y-42861904D01*
X94671428Y-42823809D01*
X94633333Y-42785714D01*
D11*
X206492857Y-80392857D02*
X206473809Y-80411904D01*
X206416666Y-80430952D01*
X206378571Y-80430952D01*
X206321428Y-80411904D01*
X206283333Y-80373809D01*
X206264285Y-80335714D01*
X206245238Y-80259523D01*
X206245238Y-80202380D01*
X206264285Y-80126190D01*
X206283333Y-80088095D01*
X206321428Y-80050000D01*
X206378571Y-80030952D01*
X206416666Y-80030952D01*
X206473809Y-80050000D01*
X206492857Y-80069047D01*
X206626190Y-80030952D02*
X206873809Y-80030952D01*
X206740476Y-80183333D01*
X206797619Y-80183333D01*
X206835714Y-80202380D01*
X206854761Y-80221428D01*
X206873809Y-80259523D01*
X206873809Y-80354761D01*
X206854761Y-80392857D01*
X206835714Y-80411904D01*
X206797619Y-80430952D01*
X206683333Y-80430952D01*
X206645238Y-80411904D01*
X206626190Y-80392857D01*
X207254761Y-80430952D02*
X207026190Y-80430952D01*
X207140476Y-80430952D02*
X207140476Y-80030952D01*
X207102380Y-80088095D01*
X207064285Y-80126190D01*
X207026190Y-80145238D01*
X128742857Y-58892857D02*
X128723809Y-58911904D01*
X128666666Y-58930952D01*
X128628571Y-58930952D01*
X128571428Y-58911904D01*
X128533333Y-58873809D01*
X128514285Y-58835714D01*
X128495238Y-58759523D01*
X128495238Y-58702380D01*
X128514285Y-58626190D01*
X128533333Y-58588095D01*
X128571428Y-58550000D01*
X128628571Y-58530952D01*
X128666666Y-58530952D01*
X128723809Y-58550000D01*
X128742857Y-58569047D01*
X129123809Y-58930952D02*
X128895238Y-58930952D01*
X129009523Y-58930952D02*
X129009523Y-58530952D01*
X128971428Y-58588095D01*
X128933333Y-58626190D01*
X128895238Y-58645238D01*
X129257142Y-58530952D02*
X129523809Y-58530952D01*
X129352380Y-58930952D01*
D10*
X78778571Y-100361904D02*
X78778571Y-99561904D01*
X78969047Y-99561904D01*
X79083333Y-99600000D01*
X79159523Y-99676190D01*
X79197619Y-99752380D01*
X79235714Y-99904761D01*
X79235714Y-100019047D01*
X79197619Y-100171428D01*
X79159523Y-100247619D01*
X79083333Y-100323809D01*
X78969047Y-100361904D01*
X78778571Y-100361904D01*
X79502380Y-99561904D02*
X79997619Y-99561904D01*
X79730952Y-99866666D01*
X79845238Y-99866666D01*
X79921428Y-99904761D01*
X79959523Y-99942857D01*
X79997619Y-100019047D01*
X79997619Y-100209523D01*
X79959523Y-100285714D01*
X79921428Y-100323809D01*
X79845238Y-100361904D01*
X79616666Y-100361904D01*
X79540476Y-100323809D01*
X79502380Y-100285714D01*
X80683333Y-99828571D02*
X80683333Y-100361904D01*
X80492857Y-99523809D02*
X80302380Y-100095238D01*
X80797619Y-100095238D01*
X205778571Y-62861904D02*
X205778571Y-62061904D01*
X205969047Y-62061904D01*
X206083333Y-62100000D01*
X206159523Y-62176190D01*
X206197619Y-62252380D01*
X206235714Y-62404761D01*
X206235714Y-62519047D01*
X206197619Y-62671428D01*
X206159523Y-62747619D01*
X206083333Y-62823809D01*
X205969047Y-62861904D01*
X205778571Y-62861904D01*
X206540476Y-62138095D02*
X206578571Y-62100000D01*
X206654761Y-62061904D01*
X206845238Y-62061904D01*
X206921428Y-62100000D01*
X206959523Y-62138095D01*
X206997619Y-62214285D01*
X206997619Y-62290476D01*
X206959523Y-62404761D01*
X206502380Y-62861904D01*
X206997619Y-62861904D01*
X207759523Y-62861904D02*
X207302380Y-62861904D01*
X207530952Y-62861904D02*
X207530952Y-62061904D01*
X207454761Y-62176190D01*
X207378571Y-62252380D01*
X207302380Y-62290476D01*
D11*
X113992857Y-115892857D02*
X113973809Y-115911904D01*
X113916666Y-115930952D01*
X113878571Y-115930952D01*
X113821428Y-115911904D01*
X113783333Y-115873809D01*
X113764285Y-115835714D01*
X113745238Y-115759523D01*
X113745238Y-115702380D01*
X113764285Y-115626190D01*
X113783333Y-115588095D01*
X113821428Y-115550000D01*
X113878571Y-115530952D01*
X113916666Y-115530952D01*
X113973809Y-115550000D01*
X113992857Y-115569047D01*
X114335714Y-115664285D02*
X114335714Y-115930952D01*
X114240476Y-115511904D02*
X114145238Y-115797619D01*
X114392857Y-115797619D01*
X114735714Y-115530952D02*
X114545238Y-115530952D01*
X114526190Y-115721428D01*
X114545238Y-115702380D01*
X114583333Y-115683333D01*
X114678571Y-115683333D01*
X114716666Y-115702380D01*
X114735714Y-115721428D01*
X114754761Y-115759523D01*
X114754761Y-115854761D01*
X114735714Y-115892857D01*
X114716666Y-115911904D01*
X114678571Y-115930952D01*
X114583333Y-115930952D01*
X114545238Y-115911904D01*
X114526190Y-115892857D01*
X151492857Y-80392857D02*
X151473809Y-80411904D01*
X151416666Y-80430952D01*
X151378571Y-80430952D01*
X151321428Y-80411904D01*
X151283333Y-80373809D01*
X151264285Y-80335714D01*
X151245238Y-80259523D01*
X151245238Y-80202380D01*
X151264285Y-80126190D01*
X151283333Y-80088095D01*
X151321428Y-80050000D01*
X151378571Y-80030952D01*
X151416666Y-80030952D01*
X151473809Y-80050000D01*
X151492857Y-80069047D01*
X151645238Y-80069047D02*
X151664285Y-80050000D01*
X151702380Y-80030952D01*
X151797619Y-80030952D01*
X151835714Y-80050000D01*
X151854761Y-80069047D01*
X151873809Y-80107142D01*
X151873809Y-80145238D01*
X151854761Y-80202380D01*
X151626190Y-80430952D01*
X151873809Y-80430952D01*
X152102380Y-80202380D02*
X152064285Y-80183333D01*
X152045238Y-80164285D01*
X152026190Y-80126190D01*
X152026190Y-80107142D01*
X152045238Y-80069047D01*
X152064285Y-80050000D01*
X152102380Y-80030952D01*
X152178571Y-80030952D01*
X152216666Y-80050000D01*
X152235714Y-80069047D01*
X152254761Y-80107142D01*
X152254761Y-80126190D01*
X152235714Y-80164285D01*
X152216666Y-80183333D01*
X152178571Y-80202380D01*
X152102380Y-80202380D01*
X152064285Y-80221428D01*
X152045238Y-80240476D01*
X152026190Y-80278571D01*
X152026190Y-80354761D01*
X152045238Y-80392857D01*
X152064285Y-80411904D01*
X152102380Y-80430952D01*
X152178571Y-80430952D01*
X152216666Y-80411904D01*
X152235714Y-80392857D01*
X152254761Y-80354761D01*
X152254761Y-80278571D01*
X152235714Y-80240476D01*
X152216666Y-80221428D01*
X152178571Y-80202380D01*
D10*
X178528571Y-62861904D02*
X178528571Y-62061904D01*
X178719047Y-62061904D01*
X178833333Y-62100000D01*
X178909523Y-62176190D01*
X178947619Y-62252380D01*
X178985714Y-62404761D01*
X178985714Y-62519047D01*
X178947619Y-62671428D01*
X178909523Y-62747619D01*
X178833333Y-62823809D01*
X178719047Y-62861904D01*
X178528571Y-62861904D01*
X179290476Y-62138095D02*
X179328571Y-62100000D01*
X179404761Y-62061904D01*
X179595238Y-62061904D01*
X179671428Y-62100000D01*
X179709523Y-62138095D01*
X179747619Y-62214285D01*
X179747619Y-62290476D01*
X179709523Y-62404761D01*
X179252380Y-62861904D01*
X179747619Y-62861904D01*
X180242857Y-62061904D02*
X180319047Y-62061904D01*
X180395238Y-62100000D01*
X180433333Y-62138095D01*
X180471428Y-62214285D01*
X180509523Y-62366666D01*
X180509523Y-62557142D01*
X180471428Y-62709523D01*
X180433333Y-62785714D01*
X180395238Y-62823809D01*
X180319047Y-62861904D01*
X180242857Y-62861904D01*
X180166666Y-62823809D01*
X180128571Y-62785714D01*
X180090476Y-62709523D01*
X180052380Y-62557142D01*
X180052380Y-62366666D01*
X180090476Y-62214285D01*
X180128571Y-62138095D01*
X180166666Y-62100000D01*
X180242857Y-62061904D01*
D11*
X176992857Y-137892857D02*
X176973809Y-137911904D01*
X176916666Y-137930952D01*
X176878571Y-137930952D01*
X176821428Y-137911904D01*
X176783333Y-137873809D01*
X176764285Y-137835714D01*
X176745238Y-137759523D01*
X176745238Y-137702380D01*
X176764285Y-137626190D01*
X176783333Y-137588095D01*
X176821428Y-137550000D01*
X176878571Y-137530952D01*
X176916666Y-137530952D01*
X176973809Y-137550000D01*
X176992857Y-137569047D01*
X177354761Y-137530952D02*
X177164285Y-137530952D01*
X177145238Y-137721428D01*
X177164285Y-137702380D01*
X177202380Y-137683333D01*
X177297619Y-137683333D01*
X177335714Y-137702380D01*
X177354761Y-137721428D01*
X177373809Y-137759523D01*
X177373809Y-137854761D01*
X177354761Y-137892857D01*
X177335714Y-137911904D01*
X177297619Y-137930952D01*
X177202380Y-137930952D01*
X177164285Y-137911904D01*
X177145238Y-137892857D01*
X177507142Y-137530952D02*
X177773809Y-137530952D01*
X177602380Y-137930952D01*
X77933333Y-38892857D02*
X77914285Y-38911904D01*
X77857142Y-38930952D01*
X77819047Y-38930952D01*
X77761904Y-38911904D01*
X77723809Y-38873809D01*
X77704761Y-38835714D01*
X77685714Y-38759523D01*
X77685714Y-38702380D01*
X77704761Y-38626190D01*
X77723809Y-38588095D01*
X77761904Y-38550000D01*
X77819047Y-38530952D01*
X77857142Y-38530952D01*
X77914285Y-38550000D01*
X77933333Y-38569047D01*
X78085714Y-38569047D02*
X78104761Y-38550000D01*
X78142857Y-38530952D01*
X78238095Y-38530952D01*
X78276190Y-38550000D01*
X78295238Y-38569047D01*
X78314285Y-38607142D01*
X78314285Y-38645238D01*
X78295238Y-38702380D01*
X78066666Y-38930952D01*
X78314285Y-38930952D01*
D10*
X106409523Y-42861904D02*
X106409523Y-42061904D01*
X106600000Y-42061904D01*
X106714285Y-42100000D01*
X106790476Y-42176190D01*
X106828571Y-42252380D01*
X106866666Y-42404761D01*
X106866666Y-42519047D01*
X106828571Y-42671428D01*
X106790476Y-42747619D01*
X106714285Y-42823809D01*
X106600000Y-42861904D01*
X106409523Y-42861904D01*
X107552380Y-42328571D02*
X107552380Y-42861904D01*
X107361904Y-42023809D02*
X107171428Y-42595238D01*
X107666666Y-42595238D01*
D11*
X233742857Y-137892857D02*
X233723809Y-137911904D01*
X233666666Y-137930952D01*
X233628571Y-137930952D01*
X233571428Y-137911904D01*
X233533333Y-137873809D01*
X233514285Y-137835714D01*
X233495238Y-137759523D01*
X233495238Y-137702380D01*
X233514285Y-137626190D01*
X233533333Y-137588095D01*
X233571428Y-137550000D01*
X233628571Y-137530952D01*
X233666666Y-137530952D01*
X233723809Y-137550000D01*
X233742857Y-137569047D01*
X234085714Y-137530952D02*
X234009523Y-137530952D01*
X233971428Y-137550000D01*
X233952380Y-137569047D01*
X233914285Y-137626190D01*
X233895238Y-137702380D01*
X233895238Y-137854761D01*
X233914285Y-137892857D01*
X233933333Y-137911904D01*
X233971428Y-137930952D01*
X234047619Y-137930952D01*
X234085714Y-137911904D01*
X234104761Y-137892857D01*
X234123809Y-137854761D01*
X234123809Y-137759523D01*
X234104761Y-137721428D01*
X234085714Y-137702380D01*
X234047619Y-137683333D01*
X233971428Y-137683333D01*
X233933333Y-137702380D01*
X233914285Y-137721428D01*
X233895238Y-137759523D01*
X234504761Y-137930952D02*
X234276190Y-137930952D01*
X234390476Y-137930952D02*
X234390476Y-137530952D01*
X234352380Y-137588095D01*
X234314285Y-137626190D01*
X234276190Y-137645238D01*
D10*
X120409523Y-42861904D02*
X120409523Y-42061904D01*
X120600000Y-42061904D01*
X120714285Y-42100000D01*
X120790476Y-42176190D01*
X120828571Y-42252380D01*
X120866666Y-42404761D01*
X120866666Y-42519047D01*
X120828571Y-42671428D01*
X120790476Y-42747619D01*
X120714285Y-42823809D01*
X120600000Y-42861904D01*
X120409523Y-42861904D01*
X121590476Y-42061904D02*
X121209523Y-42061904D01*
X121171428Y-42442857D01*
X121209523Y-42404761D01*
X121285714Y-42366666D01*
X121476190Y-42366666D01*
X121552380Y-42404761D01*
X121590476Y-42442857D01*
X121628571Y-42519047D01*
X121628571Y-42709523D01*
X121590476Y-42785714D01*
X121552380Y-42823809D01*
X121476190Y-42861904D01*
X121285714Y-42861904D01*
X121209523Y-42823809D01*
X121171428Y-42785714D01*
D11*
X193742857Y-96392857D02*
X193723809Y-96411904D01*
X193666666Y-96430952D01*
X193628571Y-96430952D01*
X193571428Y-96411904D01*
X193533333Y-96373809D01*
X193514285Y-96335714D01*
X193495238Y-96259523D01*
X193495238Y-96202380D01*
X193514285Y-96126190D01*
X193533333Y-96088095D01*
X193571428Y-96050000D01*
X193628571Y-96030952D01*
X193666666Y-96030952D01*
X193723809Y-96050000D01*
X193742857Y-96069047D01*
X193876190Y-96030952D02*
X194123809Y-96030952D01*
X193990476Y-96183333D01*
X194047619Y-96183333D01*
X194085714Y-96202380D01*
X194104761Y-96221428D01*
X194123809Y-96259523D01*
X194123809Y-96354761D01*
X194104761Y-96392857D01*
X194085714Y-96411904D01*
X194047619Y-96430952D01*
X193933333Y-96430952D01*
X193895238Y-96411904D01*
X193876190Y-96392857D01*
X194314285Y-96430952D02*
X194390476Y-96430952D01*
X194428571Y-96411904D01*
X194447619Y-96392857D01*
X194485714Y-96335714D01*
X194504761Y-96259523D01*
X194504761Y-96107142D01*
X194485714Y-96069047D01*
X194466666Y-96050000D01*
X194428571Y-96030952D01*
X194352380Y-96030952D01*
X194314285Y-96050000D01*
X194295238Y-96069047D01*
X194276190Y-96107142D01*
X194276190Y-96202380D01*
X194295238Y-96240476D01*
X194314285Y-96259523D01*
X194352380Y-96278571D01*
X194428571Y-96278571D01*
X194466666Y-96259523D01*
X194485714Y-96240476D01*
X194504761Y-96202380D01*
D10*
X93528571Y-62861904D02*
X93528571Y-62061904D01*
X93719047Y-62061904D01*
X93833333Y-62100000D01*
X93909523Y-62176190D01*
X93947619Y-62252380D01*
X93985714Y-62404761D01*
X93985714Y-62519047D01*
X93947619Y-62671428D01*
X93909523Y-62747619D01*
X93833333Y-62823809D01*
X93719047Y-62861904D01*
X93528571Y-62861904D01*
X94747619Y-62861904D02*
X94290476Y-62861904D01*
X94519047Y-62861904D02*
X94519047Y-62061904D01*
X94442857Y-62176190D01*
X94366666Y-62252380D01*
X94290476Y-62290476D01*
X95471428Y-62061904D02*
X95090476Y-62061904D01*
X95052380Y-62442857D01*
X95090476Y-62404761D01*
X95166666Y-62366666D01*
X95357142Y-62366666D01*
X95433333Y-62404761D01*
X95471428Y-62442857D01*
X95509523Y-62519047D01*
X95509523Y-62709523D01*
X95471428Y-62785714D01*
X95433333Y-62823809D01*
X95357142Y-62861904D01*
X95166666Y-62861904D01*
X95090476Y-62823809D01*
X95052380Y-62785714D01*
D11*
X206492857Y-38892857D02*
X206473809Y-38911904D01*
X206416666Y-38930952D01*
X206378571Y-38930952D01*
X206321428Y-38911904D01*
X206283333Y-38873809D01*
X206264285Y-38835714D01*
X206245238Y-38759523D01*
X206245238Y-38702380D01*
X206264285Y-38626190D01*
X206283333Y-38588095D01*
X206321428Y-38550000D01*
X206378571Y-38530952D01*
X206416666Y-38530952D01*
X206473809Y-38550000D01*
X206492857Y-38569047D01*
X206873809Y-38930952D02*
X206645238Y-38930952D01*
X206759523Y-38930952D02*
X206759523Y-38530952D01*
X206721428Y-38588095D01*
X206683333Y-38626190D01*
X206645238Y-38645238D01*
X207121428Y-38530952D02*
X207159523Y-38530952D01*
X207197619Y-38550000D01*
X207216666Y-38569047D01*
X207235714Y-38607142D01*
X207254761Y-38683333D01*
X207254761Y-38778571D01*
X207235714Y-38854761D01*
X207216666Y-38892857D01*
X207197619Y-38911904D01*
X207159523Y-38930952D01*
X207121428Y-38930952D01*
X207083333Y-38911904D01*
X207064285Y-38892857D01*
X207045238Y-38854761D01*
X207026190Y-38778571D01*
X207026190Y-38683333D01*
X207045238Y-38607142D01*
X207064285Y-38569047D01*
X207083333Y-38550000D01*
X207121428Y-38530952D01*
X221492857Y-115892857D02*
X221473809Y-115911904D01*
X221416666Y-115930952D01*
X221378571Y-115930952D01*
X221321428Y-115911904D01*
X221283333Y-115873809D01*
X221264285Y-115835714D01*
X221245238Y-115759523D01*
X221245238Y-115702380D01*
X221264285Y-115626190D01*
X221283333Y-115588095D01*
X221321428Y-115550000D01*
X221378571Y-115530952D01*
X221416666Y-115530952D01*
X221473809Y-115550000D01*
X221492857Y-115569047D01*
X221854761Y-115530952D02*
X221664285Y-115530952D01*
X221645238Y-115721428D01*
X221664285Y-115702380D01*
X221702380Y-115683333D01*
X221797619Y-115683333D01*
X221835714Y-115702380D01*
X221854761Y-115721428D01*
X221873809Y-115759523D01*
X221873809Y-115854761D01*
X221854761Y-115892857D01*
X221835714Y-115911904D01*
X221797619Y-115930952D01*
X221702380Y-115930952D01*
X221664285Y-115911904D01*
X221645238Y-115892857D01*
X222121428Y-115530952D02*
X222159523Y-115530952D01*
X222197619Y-115550000D01*
X222216666Y-115569047D01*
X222235714Y-115607142D01*
X222254761Y-115683333D01*
X222254761Y-115778571D01*
X222235714Y-115854761D01*
X222216666Y-115892857D01*
X222197619Y-115911904D01*
X222159523Y-115930952D01*
X222121428Y-115930952D01*
X222083333Y-115911904D01*
X222064285Y-115892857D01*
X222045238Y-115854761D01*
X222026190Y-115778571D01*
X222026190Y-115683333D01*
X222045238Y-115607142D01*
X222064285Y-115569047D01*
X222083333Y-115550000D01*
X222121428Y-115530952D01*
X151683333Y-38892857D02*
X151664285Y-38911904D01*
X151607142Y-38930952D01*
X151569047Y-38930952D01*
X151511904Y-38911904D01*
X151473809Y-38873809D01*
X151454761Y-38835714D01*
X151435714Y-38759523D01*
X151435714Y-38702380D01*
X151454761Y-38626190D01*
X151473809Y-38588095D01*
X151511904Y-38550000D01*
X151569047Y-38530952D01*
X151607142Y-38530952D01*
X151664285Y-38550000D01*
X151683333Y-38569047D01*
X151816666Y-38530952D02*
X152083333Y-38530952D01*
X151911904Y-38930952D01*
D10*
X230028571Y-62861904D02*
X230028571Y-62061904D01*
X230219047Y-62061904D01*
X230333333Y-62100000D01*
X230409523Y-62176190D01*
X230447619Y-62252380D01*
X230485714Y-62404761D01*
X230485714Y-62519047D01*
X230447619Y-62671428D01*
X230409523Y-62747619D01*
X230333333Y-62823809D01*
X230219047Y-62861904D01*
X230028571Y-62861904D01*
X230790476Y-62138095D02*
X230828571Y-62100000D01*
X230904761Y-62061904D01*
X231095238Y-62061904D01*
X231171428Y-62100000D01*
X231209523Y-62138095D01*
X231247619Y-62214285D01*
X231247619Y-62290476D01*
X231209523Y-62404761D01*
X230752380Y-62861904D01*
X231247619Y-62861904D01*
X231552380Y-62138095D02*
X231590476Y-62100000D01*
X231666666Y-62061904D01*
X231857142Y-62061904D01*
X231933333Y-62100000D01*
X231971428Y-62138095D01*
X232009523Y-62214285D01*
X232009523Y-62290476D01*
X231971428Y-62404761D01*
X231514285Y-62861904D01*
X232009523Y-62861904D01*
D11*
X94242857Y-80392857D02*
X94223809Y-80411904D01*
X94166666Y-80430952D01*
X94128571Y-80430952D01*
X94071428Y-80411904D01*
X94033333Y-80373809D01*
X94014285Y-80335714D01*
X93995238Y-80259523D01*
X93995238Y-80202380D01*
X94014285Y-80126190D01*
X94033333Y-80088095D01*
X94071428Y-80050000D01*
X94128571Y-80030952D01*
X94166666Y-80030952D01*
X94223809Y-80050000D01*
X94242857Y-80069047D01*
X94395238Y-80069047D02*
X94414285Y-80050000D01*
X94452380Y-80030952D01*
X94547619Y-80030952D01*
X94585714Y-80050000D01*
X94604761Y-80069047D01*
X94623809Y-80107142D01*
X94623809Y-80145238D01*
X94604761Y-80202380D01*
X94376190Y-80430952D01*
X94623809Y-80430952D01*
X94985714Y-80030952D02*
X94795238Y-80030952D01*
X94776190Y-80221428D01*
X94795238Y-80202380D01*
X94833333Y-80183333D01*
X94928571Y-80183333D01*
X94966666Y-80202380D01*
X94985714Y-80221428D01*
X95004761Y-80259523D01*
X95004761Y-80354761D01*
X94985714Y-80392857D01*
X94966666Y-80411904D01*
X94928571Y-80430952D01*
X94833333Y-80430952D01*
X94795238Y-80411904D01*
X94776190Y-80392857D01*
X120933333Y-38892857D02*
X120914285Y-38911904D01*
X120857142Y-38930952D01*
X120819047Y-38930952D01*
X120761904Y-38911904D01*
X120723809Y-38873809D01*
X120704761Y-38835714D01*
X120685714Y-38759523D01*
X120685714Y-38702380D01*
X120704761Y-38626190D01*
X120723809Y-38588095D01*
X120761904Y-38550000D01*
X120819047Y-38530952D01*
X120857142Y-38530952D01*
X120914285Y-38550000D01*
X120933333Y-38569047D01*
X121295238Y-38530952D02*
X121104761Y-38530952D01*
X121085714Y-38721428D01*
X121104761Y-38702380D01*
X121142857Y-38683333D01*
X121238095Y-38683333D01*
X121276190Y-38702380D01*
X121295238Y-38721428D01*
X121314285Y-38759523D01*
X121314285Y-38854761D01*
X121295238Y-38892857D01*
X121276190Y-38911904D01*
X121238095Y-38930952D01*
X121142857Y-38930952D01*
X121104761Y-38911904D01*
X121085714Y-38892857D01*
X116992857Y-137892857D02*
X116973809Y-137911904D01*
X116916666Y-137930952D01*
X116878571Y-137930952D01*
X116821428Y-137911904D01*
X116783333Y-137873809D01*
X116764285Y-137835714D01*
X116745238Y-137759523D01*
X116745238Y-137702380D01*
X116764285Y-137626190D01*
X116783333Y-137588095D01*
X116821428Y-137550000D01*
X116878571Y-137530952D01*
X116916666Y-137530952D01*
X116973809Y-137550000D01*
X116992857Y-137569047D01*
X117354761Y-137530952D02*
X117164285Y-137530952D01*
X117145238Y-137721428D01*
X117164285Y-137702380D01*
X117202380Y-137683333D01*
X117297619Y-137683333D01*
X117335714Y-137702380D01*
X117354761Y-137721428D01*
X117373809Y-137759523D01*
X117373809Y-137854761D01*
X117354761Y-137892857D01*
X117335714Y-137911904D01*
X117297619Y-137930952D01*
X117202380Y-137930952D01*
X117164285Y-137911904D01*
X117145238Y-137892857D01*
X117716666Y-137664285D02*
X117716666Y-137930952D01*
X117621428Y-137511904D02*
X117526190Y-137797619D01*
X117773809Y-137797619D01*
X164433333Y-38892857D02*
X164414285Y-38911904D01*
X164357142Y-38930952D01*
X164319047Y-38930952D01*
X164261904Y-38911904D01*
X164223809Y-38873809D01*
X164204761Y-38835714D01*
X164185714Y-38759523D01*
X164185714Y-38702380D01*
X164204761Y-38626190D01*
X164223809Y-38588095D01*
X164261904Y-38550000D01*
X164319047Y-38530952D01*
X164357142Y-38530952D01*
X164414285Y-38550000D01*
X164433333Y-38569047D01*
X164661904Y-38702380D02*
X164623809Y-38683333D01*
X164604761Y-38664285D01*
X164585714Y-38626190D01*
X164585714Y-38607142D01*
X164604761Y-38569047D01*
X164623809Y-38550000D01*
X164661904Y-38530952D01*
X164738095Y-38530952D01*
X164776190Y-38550000D01*
X164795238Y-38569047D01*
X164814285Y-38607142D01*
X164814285Y-38626190D01*
X164795238Y-38664285D01*
X164776190Y-38683333D01*
X164738095Y-38702380D01*
X164661904Y-38702380D01*
X164623809Y-38721428D01*
X164604761Y-38740476D01*
X164585714Y-38778571D01*
X164585714Y-38854761D01*
X164604761Y-38892857D01*
X164623809Y-38911904D01*
X164661904Y-38930952D01*
X164738095Y-38930952D01*
X164776190Y-38911904D01*
X164795238Y-38892857D01*
X164814285Y-38854761D01*
X164814285Y-38778571D01*
X164795238Y-38740476D01*
X164776190Y-38721428D01*
X164738095Y-38702380D01*
D10*
X128028571Y-84361904D02*
X128028571Y-83561904D01*
X128219047Y-83561904D01*
X128333333Y-83600000D01*
X128409523Y-83676190D01*
X128447619Y-83752380D01*
X128485714Y-83904761D01*
X128485714Y-84019047D01*
X128447619Y-84171428D01*
X128409523Y-84247619D01*
X128333333Y-84323809D01*
X128219047Y-84361904D01*
X128028571Y-84361904D01*
X128790476Y-83638095D02*
X128828571Y-83600000D01*
X128904761Y-83561904D01*
X129095238Y-83561904D01*
X129171428Y-83600000D01*
X129209523Y-83638095D01*
X129247619Y-83714285D01*
X129247619Y-83790476D01*
X129209523Y-83904761D01*
X128752380Y-84361904D01*
X129247619Y-84361904D01*
X129514285Y-83561904D02*
X130047619Y-83561904D01*
X129704761Y-84361904D01*
X193028571Y-119861904D02*
X193028571Y-119061904D01*
X193219047Y-119061904D01*
X193333333Y-119100000D01*
X193409523Y-119176190D01*
X193447619Y-119252380D01*
X193485714Y-119404761D01*
X193485714Y-119519047D01*
X193447619Y-119671428D01*
X193409523Y-119747619D01*
X193333333Y-119823809D01*
X193219047Y-119861904D01*
X193028571Y-119861904D01*
X194171428Y-119328571D02*
X194171428Y-119861904D01*
X193980952Y-119023809D02*
X193790476Y-119595238D01*
X194285714Y-119595238D01*
X194628571Y-119861904D02*
X194780952Y-119861904D01*
X194857142Y-119823809D01*
X194895238Y-119785714D01*
X194971428Y-119671428D01*
X195009523Y-119519047D01*
X195009523Y-119214285D01*
X194971428Y-119138095D01*
X194933333Y-119100000D01*
X194857142Y-119061904D01*
X194704761Y-119061904D01*
X194628571Y-119100000D01*
X194590476Y-119138095D01*
X194552380Y-119214285D01*
X194552380Y-119404761D01*
X194590476Y-119480952D01*
X194628571Y-119519047D01*
X194704761Y-119557142D01*
X194857142Y-119557142D01*
X194933333Y-119519047D01*
X194971428Y-119480952D01*
X195009523Y-119404761D01*
D11*
X77742857Y-58892857D02*
X77723809Y-58911904D01*
X77666666Y-58930952D01*
X77628571Y-58930952D01*
X77571428Y-58911904D01*
X77533333Y-58873809D01*
X77514285Y-58835714D01*
X77495238Y-58759523D01*
X77495238Y-58702380D01*
X77514285Y-58626190D01*
X77533333Y-58588095D01*
X77571428Y-58550000D01*
X77628571Y-58530952D01*
X77666666Y-58530952D01*
X77723809Y-58550000D01*
X77742857Y-58569047D01*
X78123809Y-58930952D02*
X77895238Y-58930952D01*
X78009523Y-58930952D02*
X78009523Y-58530952D01*
X77971428Y-58588095D01*
X77933333Y-58626190D01*
X77895238Y-58645238D01*
X78466666Y-58664285D02*
X78466666Y-58930952D01*
X78371428Y-58511904D02*
X78276190Y-58797619D01*
X78523809Y-58797619D01*
D10*
X163909523Y-42861904D02*
X163909523Y-42061904D01*
X164100000Y-42061904D01*
X164214285Y-42100000D01*
X164290476Y-42176190D01*
X164328571Y-42252380D01*
X164366666Y-42404761D01*
X164366666Y-42519047D01*
X164328571Y-42671428D01*
X164290476Y-42747619D01*
X164214285Y-42823809D01*
X164100000Y-42861904D01*
X163909523Y-42861904D01*
X164823809Y-42404761D02*
X164747619Y-42366666D01*
X164709523Y-42328571D01*
X164671428Y-42252380D01*
X164671428Y-42214285D01*
X164709523Y-42138095D01*
X164747619Y-42100000D01*
X164823809Y-42061904D01*
X164976190Y-42061904D01*
X165052380Y-42100000D01*
X165090476Y-42138095D01*
X165128571Y-42214285D01*
X165128571Y-42252380D01*
X165090476Y-42328571D01*
X165052380Y-42366666D01*
X164976190Y-42404761D01*
X164823809Y-42404761D01*
X164747619Y-42442857D01*
X164709523Y-42480952D01*
X164671428Y-42557142D01*
X164671428Y-42709523D01*
X164709523Y-42785714D01*
X164747619Y-42823809D01*
X164823809Y-42861904D01*
X164976190Y-42861904D01*
X165052380Y-42823809D01*
X165090476Y-42785714D01*
X165128571Y-42709523D01*
X165128571Y-42557142D01*
X165090476Y-42480952D01*
X165052380Y-42442857D01*
X164976190Y-42404761D01*
D11*
X193742857Y-115892857D02*
X193723809Y-115911904D01*
X193666666Y-115930952D01*
X193628571Y-115930952D01*
X193571428Y-115911904D01*
X193533333Y-115873809D01*
X193514285Y-115835714D01*
X193495238Y-115759523D01*
X193495238Y-115702380D01*
X193514285Y-115626190D01*
X193533333Y-115588095D01*
X193571428Y-115550000D01*
X193628571Y-115530952D01*
X193666666Y-115530952D01*
X193723809Y-115550000D01*
X193742857Y-115569047D01*
X194085714Y-115664285D02*
X194085714Y-115930952D01*
X193990476Y-115511904D02*
X193895238Y-115797619D01*
X194142857Y-115797619D01*
X194314285Y-115930952D02*
X194390476Y-115930952D01*
X194428571Y-115911904D01*
X194447619Y-115892857D01*
X194485714Y-115835714D01*
X194504761Y-115759523D01*
X194504761Y-115607142D01*
X194485714Y-115569047D01*
X194466666Y-115550000D01*
X194428571Y-115530952D01*
X194352380Y-115530952D01*
X194314285Y-115550000D01*
X194295238Y-115569047D01*
X194276190Y-115607142D01*
X194276190Y-115702380D01*
X194295238Y-115740476D01*
X194314285Y-115759523D01*
X194352380Y-115778571D01*
X194428571Y-115778571D01*
X194466666Y-115759523D01*
X194485714Y-115740476D01*
X194504761Y-115702380D01*
X193742857Y-137892857D02*
X193723809Y-137911904D01*
X193666666Y-137930952D01*
X193628571Y-137930952D01*
X193571428Y-137911904D01*
X193533333Y-137873809D01*
X193514285Y-137835714D01*
X193495238Y-137759523D01*
X193495238Y-137702380D01*
X193514285Y-137626190D01*
X193533333Y-137588095D01*
X193571428Y-137550000D01*
X193628571Y-137530952D01*
X193666666Y-137530952D01*
X193723809Y-137550000D01*
X193742857Y-137569047D01*
X194104761Y-137530952D02*
X193914285Y-137530952D01*
X193895238Y-137721428D01*
X193914285Y-137702380D01*
X193952380Y-137683333D01*
X194047619Y-137683333D01*
X194085714Y-137702380D01*
X194104761Y-137721428D01*
X194123809Y-137759523D01*
X194123809Y-137854761D01*
X194104761Y-137892857D01*
X194085714Y-137911904D01*
X194047619Y-137930952D01*
X193952380Y-137930952D01*
X193914285Y-137911904D01*
X193895238Y-137892857D01*
X194352380Y-137702380D02*
X194314285Y-137683333D01*
X194295238Y-137664285D01*
X194276190Y-137626190D01*
X194276190Y-137607142D01*
X194295238Y-137569047D01*
X194314285Y-137550000D01*
X194352380Y-137530952D01*
X194428571Y-137530952D01*
X194466666Y-137550000D01*
X194485714Y-137569047D01*
X194504761Y-137607142D01*
X194504761Y-137626190D01*
X194485714Y-137664285D01*
X194466666Y-137683333D01*
X194428571Y-137702380D01*
X194352380Y-137702380D01*
X194314285Y-137721428D01*
X194295238Y-137740476D01*
X194276190Y-137778571D01*
X194276190Y-137854761D01*
X194295238Y-137892857D01*
X194314285Y-137911904D01*
X194352380Y-137930952D01*
X194428571Y-137930952D01*
X194466666Y-137911904D01*
X194485714Y-137892857D01*
X194504761Y-137854761D01*
X194504761Y-137778571D01*
X194485714Y-137740476D01*
X194466666Y-137721428D01*
X194428571Y-137702380D01*
D10*
X206028571Y-141861904D02*
X206028571Y-141061904D01*
X206219047Y-141061904D01*
X206333333Y-141100000D01*
X206409523Y-141176190D01*
X206447619Y-141252380D01*
X206485714Y-141404761D01*
X206485714Y-141519047D01*
X206447619Y-141671428D01*
X206409523Y-141747619D01*
X206333333Y-141823809D01*
X206219047Y-141861904D01*
X206028571Y-141861904D01*
X207209523Y-141061904D02*
X206828571Y-141061904D01*
X206790476Y-141442857D01*
X206828571Y-141404761D01*
X206904761Y-141366666D01*
X207095238Y-141366666D01*
X207171428Y-141404761D01*
X207209523Y-141442857D01*
X207247619Y-141519047D01*
X207247619Y-141709523D01*
X207209523Y-141785714D01*
X207171428Y-141823809D01*
X207095238Y-141861904D01*
X206904761Y-141861904D01*
X206828571Y-141823809D01*
X206790476Y-141785714D01*
X207628571Y-141861904D02*
X207780952Y-141861904D01*
X207857142Y-141823809D01*
X207895238Y-141785714D01*
X207971428Y-141671428D01*
X208009523Y-141519047D01*
X208009523Y-141214285D01*
X207971428Y-141138095D01*
X207933333Y-141100000D01*
X207857142Y-141061904D01*
X207704761Y-141061904D01*
X207628571Y-141100000D01*
X207590476Y-141138095D01*
X207552380Y-141214285D01*
X207552380Y-141404761D01*
X207590476Y-141480952D01*
X207628571Y-141519047D01*
X207704761Y-141557142D01*
X207857142Y-141557142D01*
X207933333Y-141519047D01*
X207971428Y-141480952D01*
X208009523Y-141404761D01*
D11*
X161742857Y-58892857D02*
X161723809Y-58911904D01*
X161666666Y-58930952D01*
X161628571Y-58930952D01*
X161571428Y-58911904D01*
X161533333Y-58873809D01*
X161514285Y-58835714D01*
X161495238Y-58759523D01*
X161495238Y-58702380D01*
X161514285Y-58626190D01*
X161533333Y-58588095D01*
X161571428Y-58550000D01*
X161628571Y-58530952D01*
X161666666Y-58530952D01*
X161723809Y-58550000D01*
X161742857Y-58569047D01*
X162123809Y-58930952D02*
X161895238Y-58930952D01*
X162009523Y-58930952D02*
X162009523Y-58530952D01*
X161971428Y-58588095D01*
X161933333Y-58626190D01*
X161895238Y-58645238D01*
X162314285Y-58930952D02*
X162390476Y-58930952D01*
X162428571Y-58911904D01*
X162447619Y-58892857D01*
X162485714Y-58835714D01*
X162504761Y-58759523D01*
X162504761Y-58607142D01*
X162485714Y-58569047D01*
X162466666Y-58550000D01*
X162428571Y-58530952D01*
X162352380Y-58530952D01*
X162314285Y-58550000D01*
X162295238Y-58569047D01*
X162276190Y-58607142D01*
X162276190Y-58702380D01*
X162295238Y-58740476D01*
X162314285Y-58759523D01*
X162352380Y-58778571D01*
X162428571Y-58778571D01*
X162466666Y-58759523D01*
X162485714Y-58740476D01*
X162504761Y-58702380D01*
X60242857Y-58892857D02*
X60223809Y-58911904D01*
X60166666Y-58930952D01*
X60128571Y-58930952D01*
X60071428Y-58911904D01*
X60033333Y-58873809D01*
X60014285Y-58835714D01*
X59995238Y-58759523D01*
X59995238Y-58702380D01*
X60014285Y-58626190D01*
X60033333Y-58588095D01*
X60071428Y-58550000D01*
X60128571Y-58530952D01*
X60166666Y-58530952D01*
X60223809Y-58550000D01*
X60242857Y-58569047D01*
X60623809Y-58930952D02*
X60395238Y-58930952D01*
X60509523Y-58930952D02*
X60509523Y-58530952D01*
X60471428Y-58588095D01*
X60433333Y-58626190D01*
X60395238Y-58645238D01*
X60757142Y-58530952D02*
X61004761Y-58530952D01*
X60871428Y-58683333D01*
X60928571Y-58683333D01*
X60966666Y-58702380D01*
X60985714Y-58721428D01*
X61004761Y-58759523D01*
X61004761Y-58854761D01*
X60985714Y-58892857D01*
X60966666Y-58911904D01*
X60928571Y-58930952D01*
X60814285Y-58930952D01*
X60776190Y-58911904D01*
X60757142Y-58892857D01*
D10*
X159278571Y-100361904D02*
X159278571Y-99561904D01*
X159469047Y-99561904D01*
X159583333Y-99600000D01*
X159659523Y-99676190D01*
X159697619Y-99752380D01*
X159735714Y-99904761D01*
X159735714Y-100019047D01*
X159697619Y-100171428D01*
X159659523Y-100247619D01*
X159583333Y-100323809D01*
X159469047Y-100361904D01*
X159278571Y-100361904D01*
X160002380Y-99561904D02*
X160497619Y-99561904D01*
X160230952Y-99866666D01*
X160345238Y-99866666D01*
X160421428Y-99904761D01*
X160459523Y-99942857D01*
X160497619Y-100019047D01*
X160497619Y-100209523D01*
X160459523Y-100285714D01*
X160421428Y-100323809D01*
X160345238Y-100361904D01*
X160116666Y-100361904D01*
X160040476Y-100323809D01*
X160002380Y-100285714D01*
X160764285Y-99561904D02*
X161297619Y-99561904D01*
X160954761Y-100361904D01*
X220778571Y-141861904D02*
X220778571Y-141061904D01*
X220969047Y-141061904D01*
X221083333Y-141100000D01*
X221159523Y-141176190D01*
X221197619Y-141252380D01*
X221235714Y-141404761D01*
X221235714Y-141519047D01*
X221197619Y-141671428D01*
X221159523Y-141747619D01*
X221083333Y-141823809D01*
X220969047Y-141861904D01*
X220778571Y-141861904D01*
X221921428Y-141061904D02*
X221769047Y-141061904D01*
X221692857Y-141100000D01*
X221654761Y-141138095D01*
X221578571Y-141252380D01*
X221540476Y-141404761D01*
X221540476Y-141709523D01*
X221578571Y-141785714D01*
X221616666Y-141823809D01*
X221692857Y-141861904D01*
X221845238Y-141861904D01*
X221921428Y-141823809D01*
X221959523Y-141785714D01*
X221997619Y-141709523D01*
X221997619Y-141519047D01*
X221959523Y-141442857D01*
X221921428Y-141404761D01*
X221845238Y-141366666D01*
X221692857Y-141366666D01*
X221616666Y-141404761D01*
X221578571Y-141442857D01*
X221540476Y-141519047D01*
X222492857Y-141061904D02*
X222569047Y-141061904D01*
X222645238Y-141100000D01*
X222683333Y-141138095D01*
X222721428Y-141214285D01*
X222759523Y-141366666D01*
X222759523Y-141557142D01*
X222721428Y-141709523D01*
X222683333Y-141785714D01*
X222645238Y-141823809D01*
X222569047Y-141861904D01*
X222492857Y-141861904D01*
X222416666Y-141823809D01*
X222378571Y-141785714D01*
X222340476Y-141709523D01*
X222302380Y-141557142D01*
X222302380Y-141366666D01*
X222340476Y-141214285D01*
X222378571Y-141138095D01*
X222416666Y-141100000D01*
X222492857Y-141061904D01*
X178528571Y-84361904D02*
X178528571Y-83561904D01*
X178719047Y-83561904D01*
X178833333Y-83600000D01*
X178909523Y-83676190D01*
X178947619Y-83752380D01*
X178985714Y-83904761D01*
X178985714Y-84019047D01*
X178947619Y-84171428D01*
X178909523Y-84247619D01*
X178833333Y-84323809D01*
X178719047Y-84361904D01*
X178528571Y-84361904D01*
X179290476Y-83638095D02*
X179328571Y-83600000D01*
X179404761Y-83561904D01*
X179595238Y-83561904D01*
X179671428Y-83600000D01*
X179709523Y-83638095D01*
X179747619Y-83714285D01*
X179747619Y-83790476D01*
X179709523Y-83904761D01*
X179252380Y-84361904D01*
X179747619Y-84361904D01*
X180128571Y-84361904D02*
X180280952Y-84361904D01*
X180357142Y-84323809D01*
X180395238Y-84285714D01*
X180471428Y-84171428D01*
X180509523Y-84019047D01*
X180509523Y-83714285D01*
X180471428Y-83638095D01*
X180433333Y-83600000D01*
X180357142Y-83561904D01*
X180204761Y-83561904D01*
X180128571Y-83600000D01*
X180090476Y-83638095D01*
X180052380Y-83714285D01*
X180052380Y-83904761D01*
X180090476Y-83980952D01*
X180128571Y-84019047D01*
X180204761Y-84057142D01*
X180357142Y-84057142D01*
X180433333Y-84019047D01*
X180471428Y-83980952D01*
X180509523Y-83904761D01*
X193028571Y-141861904D02*
X193028571Y-141061904D01*
X193219047Y-141061904D01*
X193333333Y-141100000D01*
X193409523Y-141176190D01*
X193447619Y-141252380D01*
X193485714Y-141404761D01*
X193485714Y-141519047D01*
X193447619Y-141671428D01*
X193409523Y-141747619D01*
X193333333Y-141823809D01*
X193219047Y-141861904D01*
X193028571Y-141861904D01*
X194209523Y-141061904D02*
X193828571Y-141061904D01*
X193790476Y-141442857D01*
X193828571Y-141404761D01*
X193904761Y-141366666D01*
X194095238Y-141366666D01*
X194171428Y-141404761D01*
X194209523Y-141442857D01*
X194247619Y-141519047D01*
X194247619Y-141709523D01*
X194209523Y-141785714D01*
X194171428Y-141823809D01*
X194095238Y-141861904D01*
X193904761Y-141861904D01*
X193828571Y-141823809D01*
X193790476Y-141785714D01*
X194704761Y-141404761D02*
X194628571Y-141366666D01*
X194590476Y-141328571D01*
X194552380Y-141252380D01*
X194552380Y-141214285D01*
X194590476Y-141138095D01*
X194628571Y-141100000D01*
X194704761Y-141061904D01*
X194857142Y-141061904D01*
X194933333Y-141100000D01*
X194971428Y-141138095D01*
X195009523Y-141214285D01*
X195009523Y-141252380D01*
X194971428Y-141328571D01*
X194933333Y-141366666D01*
X194857142Y-141404761D01*
X194704761Y-141404761D01*
X194628571Y-141442857D01*
X194590476Y-141480952D01*
X194552380Y-141557142D01*
X194552380Y-141709523D01*
X194590476Y-141785714D01*
X194628571Y-141823809D01*
X194704761Y-141861904D01*
X194857142Y-141861904D01*
X194933333Y-141823809D01*
X194971428Y-141785714D01*
X195009523Y-141709523D01*
X195009523Y-141557142D01*
X194971428Y-141480952D01*
X194933333Y-141442857D01*
X194857142Y-141404761D01*
D11*
X179242857Y-80392857D02*
X179223809Y-80411904D01*
X179166666Y-80430952D01*
X179128571Y-80430952D01*
X179071428Y-80411904D01*
X179033333Y-80373809D01*
X179014285Y-80335714D01*
X178995238Y-80259523D01*
X178995238Y-80202380D01*
X179014285Y-80126190D01*
X179033333Y-80088095D01*
X179071428Y-80050000D01*
X179128571Y-80030952D01*
X179166666Y-80030952D01*
X179223809Y-80050000D01*
X179242857Y-80069047D01*
X179395238Y-80069047D02*
X179414285Y-80050000D01*
X179452380Y-80030952D01*
X179547619Y-80030952D01*
X179585714Y-80050000D01*
X179604761Y-80069047D01*
X179623809Y-80107142D01*
X179623809Y-80145238D01*
X179604761Y-80202380D01*
X179376190Y-80430952D01*
X179623809Y-80430952D01*
X179814285Y-80430952D02*
X179890476Y-80430952D01*
X179928571Y-80411904D01*
X179947619Y-80392857D01*
X179985714Y-80335714D01*
X180004761Y-80259523D01*
X180004761Y-80107142D01*
X179985714Y-80069047D01*
X179966666Y-80050000D01*
X179928571Y-80030952D01*
X179852380Y-80030952D01*
X179814285Y-80050000D01*
X179795238Y-80069047D01*
X179776190Y-80107142D01*
X179776190Y-80202380D01*
X179795238Y-80240476D01*
X179814285Y-80259523D01*
X179852380Y-80278571D01*
X179928571Y-80278571D01*
X179966666Y-80259523D01*
X179985714Y-80240476D01*
X180004761Y-80202380D01*
D10*
X221528571Y-84361904D02*
X221528571Y-83561904D01*
X221719047Y-83561904D01*
X221833333Y-83600000D01*
X221909523Y-83676190D01*
X221947619Y-83752380D01*
X221985714Y-83904761D01*
X221985714Y-84019047D01*
X221947619Y-84171428D01*
X221909523Y-84247619D01*
X221833333Y-84323809D01*
X221719047Y-84361904D01*
X221528571Y-84361904D01*
X222252380Y-83561904D02*
X222747619Y-83561904D01*
X222480952Y-83866666D01*
X222595238Y-83866666D01*
X222671428Y-83904761D01*
X222709523Y-83942857D01*
X222747619Y-84019047D01*
X222747619Y-84209523D01*
X222709523Y-84285714D01*
X222671428Y-84323809D01*
X222595238Y-84361904D01*
X222366666Y-84361904D01*
X222290476Y-84323809D01*
X222252380Y-84285714D01*
X223052380Y-83638095D02*
X223090476Y-83600000D01*
X223166666Y-83561904D01*
X223357142Y-83561904D01*
X223433333Y-83600000D01*
X223471428Y-83638095D01*
X223509523Y-83714285D01*
X223509523Y-83790476D01*
X223471428Y-83904761D01*
X223014285Y-84361904D01*
X223509523Y-84361904D01*
D11*
X60242857Y-80392857D02*
X60223809Y-80411904D01*
X60166666Y-80430952D01*
X60128571Y-80430952D01*
X60071428Y-80411904D01*
X60033333Y-80373809D01*
X60014285Y-80335714D01*
X59995238Y-80259523D01*
X59995238Y-80202380D01*
X60014285Y-80126190D01*
X60033333Y-80088095D01*
X60071428Y-80050000D01*
X60128571Y-80030952D01*
X60166666Y-80030952D01*
X60223809Y-80050000D01*
X60242857Y-80069047D01*
X60395238Y-80069047D02*
X60414285Y-80050000D01*
X60452380Y-80030952D01*
X60547619Y-80030952D01*
X60585714Y-80050000D01*
X60604761Y-80069047D01*
X60623809Y-80107142D01*
X60623809Y-80145238D01*
X60604761Y-80202380D01*
X60376190Y-80430952D01*
X60623809Y-80430952D01*
X60757142Y-80030952D02*
X61004761Y-80030952D01*
X60871428Y-80183333D01*
X60928571Y-80183333D01*
X60966666Y-80202380D01*
X60985714Y-80221428D01*
X61004761Y-80259523D01*
X61004761Y-80354761D01*
X60985714Y-80392857D01*
X60966666Y-80411904D01*
X60928571Y-80430952D01*
X60814285Y-80430952D01*
X60776190Y-80411904D01*
X60757142Y-80392857D01*
D10*
X161028571Y-62861904D02*
X161028571Y-62061904D01*
X161219047Y-62061904D01*
X161333333Y-62100000D01*
X161409523Y-62176190D01*
X161447619Y-62252380D01*
X161485714Y-62404761D01*
X161485714Y-62519047D01*
X161447619Y-62671428D01*
X161409523Y-62747619D01*
X161333333Y-62823809D01*
X161219047Y-62861904D01*
X161028571Y-62861904D01*
X162247619Y-62861904D02*
X161790476Y-62861904D01*
X162019047Y-62861904D02*
X162019047Y-62061904D01*
X161942857Y-62176190D01*
X161866666Y-62252380D01*
X161790476Y-62290476D01*
X162628571Y-62861904D02*
X162780952Y-62861904D01*
X162857142Y-62823809D01*
X162895238Y-62785714D01*
X162971428Y-62671428D01*
X163009523Y-62519047D01*
X163009523Y-62214285D01*
X162971428Y-62138095D01*
X162933333Y-62100000D01*
X162857142Y-62061904D01*
X162704761Y-62061904D01*
X162628571Y-62100000D01*
X162590476Y-62138095D01*
X162552380Y-62214285D01*
X162552380Y-62404761D01*
X162590476Y-62480952D01*
X162628571Y-62519047D01*
X162704761Y-62557142D01*
X162857142Y-62557142D01*
X162933333Y-62519047D01*
X162971428Y-62480952D01*
X163009523Y-62404761D01*
X237778571Y-84361904D02*
X237778571Y-83561904D01*
X237969047Y-83561904D01*
X238083333Y-83600000D01*
X238159523Y-83676190D01*
X238197619Y-83752380D01*
X238235714Y-83904761D01*
X238235714Y-84019047D01*
X238197619Y-84171428D01*
X238159523Y-84247619D01*
X238083333Y-84323809D01*
X237969047Y-84361904D01*
X237778571Y-84361904D01*
X238502380Y-83561904D02*
X238997619Y-83561904D01*
X238730952Y-83866666D01*
X238845238Y-83866666D01*
X238921428Y-83904761D01*
X238959523Y-83942857D01*
X238997619Y-84019047D01*
X238997619Y-84209523D01*
X238959523Y-84285714D01*
X238921428Y-84323809D01*
X238845238Y-84361904D01*
X238616666Y-84361904D01*
X238540476Y-84323809D01*
X238502380Y-84285714D01*
X239264285Y-83561904D02*
X239759523Y-83561904D01*
X239492857Y-83866666D01*
X239607142Y-83866666D01*
X239683333Y-83904761D01*
X239721428Y-83942857D01*
X239759523Y-84019047D01*
X239759523Y-84209523D01*
X239721428Y-84285714D01*
X239683333Y-84323809D01*
X239607142Y-84361904D01*
X239378571Y-84361904D01*
X239302380Y-84323809D01*
X239264285Y-84285714D01*
X143778571Y-100361904D02*
X143778571Y-99561904D01*
X143969047Y-99561904D01*
X144083333Y-99600000D01*
X144159523Y-99676190D01*
X144197619Y-99752380D01*
X144235714Y-99904761D01*
X144235714Y-100019047D01*
X144197619Y-100171428D01*
X144159523Y-100247619D01*
X144083333Y-100323809D01*
X143969047Y-100361904D01*
X143778571Y-100361904D01*
X144502380Y-99561904D02*
X144997619Y-99561904D01*
X144730952Y-99866666D01*
X144845238Y-99866666D01*
X144921428Y-99904761D01*
X144959523Y-99942857D01*
X144997619Y-100019047D01*
X144997619Y-100209523D01*
X144959523Y-100285714D01*
X144921428Y-100323809D01*
X144845238Y-100361904D01*
X144616666Y-100361904D01*
X144540476Y-100323809D01*
X144502380Y-100285714D01*
X145683333Y-99561904D02*
X145530952Y-99561904D01*
X145454761Y-99600000D01*
X145416666Y-99638095D01*
X145340476Y-99752380D01*
X145302380Y-99904761D01*
X145302380Y-100209523D01*
X145340476Y-100285714D01*
X145378571Y-100323809D01*
X145454761Y-100361904D01*
X145607142Y-100361904D01*
X145683333Y-100323809D01*
X145721428Y-100285714D01*
X145759523Y-100209523D01*
X145759523Y-100019047D01*
X145721428Y-99942857D01*
X145683333Y-99904761D01*
X145607142Y-99866666D01*
X145454761Y-99866666D01*
X145378571Y-99904761D01*
X145340476Y-99942857D01*
X145302380Y-100019047D01*
D11*
X79492857Y-96392857D02*
X79473809Y-96411904D01*
X79416666Y-96430952D01*
X79378571Y-96430952D01*
X79321428Y-96411904D01*
X79283333Y-96373809D01*
X79264285Y-96335714D01*
X79245238Y-96259523D01*
X79245238Y-96202380D01*
X79264285Y-96126190D01*
X79283333Y-96088095D01*
X79321428Y-96050000D01*
X79378571Y-96030952D01*
X79416666Y-96030952D01*
X79473809Y-96050000D01*
X79492857Y-96069047D01*
X79626190Y-96030952D02*
X79873809Y-96030952D01*
X79740476Y-96183333D01*
X79797619Y-96183333D01*
X79835714Y-96202380D01*
X79854761Y-96221428D01*
X79873809Y-96259523D01*
X79873809Y-96354761D01*
X79854761Y-96392857D01*
X79835714Y-96411904D01*
X79797619Y-96430952D01*
X79683333Y-96430952D01*
X79645238Y-96411904D01*
X79626190Y-96392857D01*
X80216666Y-96164285D02*
X80216666Y-96430952D01*
X80121428Y-96011904D02*
X80026190Y-96297619D01*
X80273809Y-96297619D01*
X238492857Y-80392857D02*
X238473809Y-80411904D01*
X238416666Y-80430952D01*
X238378571Y-80430952D01*
X238321428Y-80411904D01*
X238283333Y-80373809D01*
X238264285Y-80335714D01*
X238245238Y-80259523D01*
X238245238Y-80202380D01*
X238264285Y-80126190D01*
X238283333Y-80088095D01*
X238321428Y-80050000D01*
X238378571Y-80030952D01*
X238416666Y-80030952D01*
X238473809Y-80050000D01*
X238492857Y-80069047D01*
X238626190Y-80030952D02*
X238873809Y-80030952D01*
X238740476Y-80183333D01*
X238797619Y-80183333D01*
X238835714Y-80202380D01*
X238854761Y-80221428D01*
X238873809Y-80259523D01*
X238873809Y-80354761D01*
X238854761Y-80392857D01*
X238835714Y-80411904D01*
X238797619Y-80430952D01*
X238683333Y-80430952D01*
X238645238Y-80411904D01*
X238626190Y-80392857D01*
X239007142Y-80030952D02*
X239254761Y-80030952D01*
X239121428Y-80183333D01*
X239178571Y-80183333D01*
X239216666Y-80202380D01*
X239235714Y-80221428D01*
X239254761Y-80259523D01*
X239254761Y-80354761D01*
X239235714Y-80392857D01*
X239216666Y-80411904D01*
X239178571Y-80430952D01*
X239064285Y-80430952D01*
X239026190Y-80411904D01*
X239007142Y-80392857D01*
D10*
X66278571Y-107111904D02*
X66278571Y-106311904D01*
X66469047Y-106311904D01*
X66583333Y-106350000D01*
X66659523Y-106426190D01*
X66697619Y-106502380D01*
X66735714Y-106654761D01*
X66735714Y-106769047D01*
X66697619Y-106921428D01*
X66659523Y-106997619D01*
X66583333Y-107073809D01*
X66469047Y-107111904D01*
X66278571Y-107111904D01*
X67421428Y-106578571D02*
X67421428Y-107111904D01*
X67230952Y-106273809D02*
X67040476Y-106845238D01*
X67535714Y-106845238D01*
X68259523Y-107111904D02*
X67802380Y-107111904D01*
X68030952Y-107111904D02*
X68030952Y-106311904D01*
X67954761Y-106426190D01*
X67878571Y-106502380D01*
X67802380Y-106540476D01*
D11*
X221492857Y-137892857D02*
X221473809Y-137911904D01*
X221416666Y-137930952D01*
X221378571Y-137930952D01*
X221321428Y-137911904D01*
X221283333Y-137873809D01*
X221264285Y-137835714D01*
X221245238Y-137759523D01*
X221245238Y-137702380D01*
X221264285Y-137626190D01*
X221283333Y-137588095D01*
X221321428Y-137550000D01*
X221378571Y-137530952D01*
X221416666Y-137530952D01*
X221473809Y-137550000D01*
X221492857Y-137569047D01*
X221835714Y-137530952D02*
X221759523Y-137530952D01*
X221721428Y-137550000D01*
X221702380Y-137569047D01*
X221664285Y-137626190D01*
X221645238Y-137702380D01*
X221645238Y-137854761D01*
X221664285Y-137892857D01*
X221683333Y-137911904D01*
X221721428Y-137930952D01*
X221797619Y-137930952D01*
X221835714Y-137911904D01*
X221854761Y-137892857D01*
X221873809Y-137854761D01*
X221873809Y-137759523D01*
X221854761Y-137721428D01*
X221835714Y-137702380D01*
X221797619Y-137683333D01*
X221721428Y-137683333D01*
X221683333Y-137702380D01*
X221664285Y-137721428D01*
X221645238Y-137759523D01*
X222121428Y-137530952D02*
X222159523Y-137530952D01*
X222197619Y-137550000D01*
X222216666Y-137569047D01*
X222235714Y-137607142D01*
X222254761Y-137683333D01*
X222254761Y-137778571D01*
X222235714Y-137854761D01*
X222216666Y-137892857D01*
X222197619Y-137911904D01*
X222159523Y-137930952D01*
X222121428Y-137930952D01*
X222083333Y-137911904D01*
X222064285Y-137892857D01*
X222045238Y-137854761D01*
X222026190Y-137778571D01*
X222026190Y-137683333D01*
X222045238Y-137607142D01*
X222064285Y-137569047D01*
X222083333Y-137550000D01*
X222121428Y-137530952D01*
D10*
X205778571Y-42861904D02*
X205778571Y-42061904D01*
X205969047Y-42061904D01*
X206083333Y-42100000D01*
X206159523Y-42176190D01*
X206197619Y-42252380D01*
X206235714Y-42404761D01*
X206235714Y-42519047D01*
X206197619Y-42671428D01*
X206159523Y-42747619D01*
X206083333Y-42823809D01*
X205969047Y-42861904D01*
X205778571Y-42861904D01*
X206997619Y-42861904D02*
X206540476Y-42861904D01*
X206769047Y-42861904D02*
X206769047Y-42061904D01*
X206692857Y-42176190D01*
X206616666Y-42252380D01*
X206540476Y-42290476D01*
X207492857Y-42061904D02*
X207569047Y-42061904D01*
X207645238Y-42100000D01*
X207683333Y-42138095D01*
X207721428Y-42214285D01*
X207759523Y-42366666D01*
X207759523Y-42557142D01*
X207721428Y-42709523D01*
X207683333Y-42785714D01*
X207645238Y-42823809D01*
X207569047Y-42861904D01*
X207492857Y-42861904D01*
X207416666Y-42823809D01*
X207378571Y-42785714D01*
X207340476Y-42709523D01*
X207302380Y-42557142D01*
X207302380Y-42366666D01*
X207340476Y-42214285D01*
X207378571Y-42138095D01*
X207416666Y-42100000D01*
X207492857Y-42061904D01*
X176278571Y-141861904D02*
X176278571Y-141061904D01*
X176469047Y-141061904D01*
X176583333Y-141100000D01*
X176659523Y-141176190D01*
X176697619Y-141252380D01*
X176735714Y-141404761D01*
X176735714Y-141519047D01*
X176697619Y-141671428D01*
X176659523Y-141747619D01*
X176583333Y-141823809D01*
X176469047Y-141861904D01*
X176278571Y-141861904D01*
X177459523Y-141061904D02*
X177078571Y-141061904D01*
X177040476Y-141442857D01*
X177078571Y-141404761D01*
X177154761Y-141366666D01*
X177345238Y-141366666D01*
X177421428Y-141404761D01*
X177459523Y-141442857D01*
X177497619Y-141519047D01*
X177497619Y-141709523D01*
X177459523Y-141785714D01*
X177421428Y-141823809D01*
X177345238Y-141861904D01*
X177154761Y-141861904D01*
X177078571Y-141823809D01*
X177040476Y-141785714D01*
X177764285Y-141061904D02*
X178297619Y-141061904D01*
X177954761Y-141861904D01*
D11*
X144492857Y-115892857D02*
X144473809Y-115911904D01*
X144416666Y-115930952D01*
X144378571Y-115930952D01*
X144321428Y-115911904D01*
X144283333Y-115873809D01*
X144264285Y-115835714D01*
X144245238Y-115759523D01*
X144245238Y-115702380D01*
X144264285Y-115626190D01*
X144283333Y-115588095D01*
X144321428Y-115550000D01*
X144378571Y-115530952D01*
X144416666Y-115530952D01*
X144473809Y-115550000D01*
X144492857Y-115569047D01*
X144835714Y-115664285D02*
X144835714Y-115930952D01*
X144740476Y-115511904D02*
X144645238Y-115797619D01*
X144892857Y-115797619D01*
X145216666Y-115530952D02*
X145140476Y-115530952D01*
X145102380Y-115550000D01*
X145083333Y-115569047D01*
X145045238Y-115626190D01*
X145026190Y-115702380D01*
X145026190Y-115854761D01*
X145045238Y-115892857D01*
X145064285Y-115911904D01*
X145102380Y-115930952D01*
X145178571Y-115930952D01*
X145216666Y-115911904D01*
X145235714Y-115892857D01*
X145254761Y-115854761D01*
X145254761Y-115759523D01*
X145235714Y-115721428D01*
X145216666Y-115702380D01*
X145178571Y-115683333D01*
X145102380Y-115683333D01*
X145064285Y-115702380D01*
X145045238Y-115721428D01*
X145026190Y-115759523D01*
D10*
X81278571Y-141861904D02*
X81278571Y-141061904D01*
X81469047Y-141061904D01*
X81583333Y-141100000D01*
X81659523Y-141176190D01*
X81697619Y-141252380D01*
X81735714Y-141404761D01*
X81735714Y-141519047D01*
X81697619Y-141671428D01*
X81659523Y-141747619D01*
X81583333Y-141823809D01*
X81469047Y-141861904D01*
X81278571Y-141861904D01*
X82459523Y-141061904D02*
X82078571Y-141061904D01*
X82040476Y-141442857D01*
X82078571Y-141404761D01*
X82154761Y-141366666D01*
X82345238Y-141366666D01*
X82421428Y-141404761D01*
X82459523Y-141442857D01*
X82497619Y-141519047D01*
X82497619Y-141709523D01*
X82459523Y-141785714D01*
X82421428Y-141823809D01*
X82345238Y-141861904D01*
X82154761Y-141861904D01*
X82078571Y-141823809D01*
X82040476Y-141785714D01*
X82764285Y-141061904D02*
X83259523Y-141061904D01*
X82992857Y-141366666D01*
X83107142Y-141366666D01*
X83183333Y-141404761D01*
X83221428Y-141442857D01*
X83259523Y-141519047D01*
X83259523Y-141709523D01*
X83221428Y-141785714D01*
X83183333Y-141823809D01*
X83107142Y-141861904D01*
X82878571Y-141861904D01*
X82802380Y-141823809D01*
X82764285Y-141785714D01*
D11*
X191742857Y-80392857D02*
X191723809Y-80411904D01*
X191666666Y-80430952D01*
X191628571Y-80430952D01*
X191571428Y-80411904D01*
X191533333Y-80373809D01*
X191514285Y-80335714D01*
X191495238Y-80259523D01*
X191495238Y-80202380D01*
X191514285Y-80126190D01*
X191533333Y-80088095D01*
X191571428Y-80050000D01*
X191628571Y-80030952D01*
X191666666Y-80030952D01*
X191723809Y-80050000D01*
X191742857Y-80069047D01*
X191876190Y-80030952D02*
X192123809Y-80030952D01*
X191990476Y-80183333D01*
X192047619Y-80183333D01*
X192085714Y-80202380D01*
X192104761Y-80221428D01*
X192123809Y-80259523D01*
X192123809Y-80354761D01*
X192104761Y-80392857D01*
X192085714Y-80411904D01*
X192047619Y-80430952D01*
X191933333Y-80430952D01*
X191895238Y-80411904D01*
X191876190Y-80392857D01*
X192371428Y-80030952D02*
X192409523Y-80030952D01*
X192447619Y-80050000D01*
X192466666Y-80069047D01*
X192485714Y-80107142D01*
X192504761Y-80183333D01*
X192504761Y-80278571D01*
X192485714Y-80354761D01*
X192466666Y-80392857D01*
X192447619Y-80411904D01*
X192409523Y-80430952D01*
X192371428Y-80430952D01*
X192333333Y-80411904D01*
X192314285Y-80392857D01*
X192295238Y-80354761D01*
X192276190Y-80278571D01*
X192276190Y-80183333D01*
X192295238Y-80107142D01*
X192314285Y-80069047D01*
X192333333Y-80050000D01*
X192371428Y-80030952D01*
X238492857Y-38892857D02*
X238473809Y-38911904D01*
X238416666Y-38930952D01*
X238378571Y-38930952D01*
X238321428Y-38911904D01*
X238283333Y-38873809D01*
X238264285Y-38835714D01*
X238245238Y-38759523D01*
X238245238Y-38702380D01*
X238264285Y-38626190D01*
X238283333Y-38588095D01*
X238321428Y-38550000D01*
X238378571Y-38530952D01*
X238416666Y-38530952D01*
X238473809Y-38550000D01*
X238492857Y-38569047D01*
X238873809Y-38930952D02*
X238645238Y-38930952D01*
X238759523Y-38930952D02*
X238759523Y-38530952D01*
X238721428Y-38588095D01*
X238683333Y-38626190D01*
X238645238Y-38645238D01*
X239026190Y-38569047D02*
X239045238Y-38550000D01*
X239083333Y-38530952D01*
X239178571Y-38530952D01*
X239216666Y-38550000D01*
X239235714Y-38569047D01*
X239254761Y-38607142D01*
X239254761Y-38645238D01*
X239235714Y-38702380D01*
X239007142Y-38930952D01*
X239254761Y-38930952D01*
D10*
X222028571Y-42861904D02*
X222028571Y-42061904D01*
X222219047Y-42061904D01*
X222333333Y-42100000D01*
X222409523Y-42176190D01*
X222447619Y-42252380D01*
X222485714Y-42404761D01*
X222485714Y-42519047D01*
X222447619Y-42671428D01*
X222409523Y-42747619D01*
X222333333Y-42823809D01*
X222219047Y-42861904D01*
X222028571Y-42861904D01*
X223247619Y-42861904D02*
X222790476Y-42861904D01*
X223019047Y-42861904D02*
X223019047Y-42061904D01*
X222942857Y-42176190D01*
X222866666Y-42252380D01*
X222790476Y-42290476D01*
X224009523Y-42861904D02*
X223552380Y-42861904D01*
X223780952Y-42861904D02*
X223780952Y-42061904D01*
X223704761Y-42176190D01*
X223628571Y-42252380D01*
X223552380Y-42290476D01*
X176278571Y-100361904D02*
X176278571Y-99561904D01*
X176469047Y-99561904D01*
X176583333Y-99600000D01*
X176659523Y-99676190D01*
X176697619Y-99752380D01*
X176735714Y-99904761D01*
X176735714Y-100019047D01*
X176697619Y-100171428D01*
X176659523Y-100247619D01*
X176583333Y-100323809D01*
X176469047Y-100361904D01*
X176278571Y-100361904D01*
X177002380Y-99561904D02*
X177497619Y-99561904D01*
X177230952Y-99866666D01*
X177345238Y-99866666D01*
X177421428Y-99904761D01*
X177459523Y-99942857D01*
X177497619Y-100019047D01*
X177497619Y-100209523D01*
X177459523Y-100285714D01*
X177421428Y-100323809D01*
X177345238Y-100361904D01*
X177116666Y-100361904D01*
X177040476Y-100323809D01*
X177002380Y-100285714D01*
X177954761Y-99904761D02*
X177878571Y-99866666D01*
X177840476Y-99828571D01*
X177802380Y-99752380D01*
X177802380Y-99714285D01*
X177840476Y-99638095D01*
X177878571Y-99600000D01*
X177954761Y-99561904D01*
X178107142Y-99561904D01*
X178183333Y-99600000D01*
X178221428Y-99638095D01*
X178259523Y-99714285D01*
X178259523Y-99752380D01*
X178221428Y-99828571D01*
X178183333Y-99866666D01*
X178107142Y-99904761D01*
X177954761Y-99904761D01*
X177878571Y-99942857D01*
X177840476Y-99980952D01*
X177802380Y-100057142D01*
X177802380Y-100209523D01*
X177840476Y-100285714D01*
X177878571Y-100323809D01*
X177954761Y-100361904D01*
X178107142Y-100361904D01*
X178183333Y-100323809D01*
X178221428Y-100285714D01*
X178259523Y-100209523D01*
X178259523Y-100057142D01*
X178221428Y-99980952D01*
X178183333Y-99942857D01*
X178107142Y-99904761D01*
D11*
X179433333Y-38892857D02*
X179414285Y-38911904D01*
X179357142Y-38930952D01*
X179319047Y-38930952D01*
X179261904Y-38911904D01*
X179223809Y-38873809D01*
X179204761Y-38835714D01*
X179185714Y-38759523D01*
X179185714Y-38702380D01*
X179204761Y-38626190D01*
X179223809Y-38588095D01*
X179261904Y-38550000D01*
X179319047Y-38530952D01*
X179357142Y-38530952D01*
X179414285Y-38550000D01*
X179433333Y-38569047D01*
X179623809Y-38930952D02*
X179700000Y-38930952D01*
X179738095Y-38911904D01*
X179757142Y-38892857D01*
X179795238Y-38835714D01*
X179814285Y-38759523D01*
X179814285Y-38607142D01*
X179795238Y-38569047D01*
X179776190Y-38550000D01*
X179738095Y-38530952D01*
X179661904Y-38530952D01*
X179623809Y-38550000D01*
X179604761Y-38569047D01*
X179585714Y-38607142D01*
X179585714Y-38702380D01*
X179604761Y-38740476D01*
X179623809Y-38759523D01*
X179661904Y-38778571D01*
X179738095Y-38778571D01*
X179776190Y-38759523D01*
X179795238Y-38740476D01*
X179814285Y-38702380D01*
D10*
X93528571Y-84361904D02*
X93528571Y-83561904D01*
X93719047Y-83561904D01*
X93833333Y-83600000D01*
X93909523Y-83676190D01*
X93947619Y-83752380D01*
X93985714Y-83904761D01*
X93985714Y-84019047D01*
X93947619Y-84171428D01*
X93909523Y-84247619D01*
X93833333Y-84323809D01*
X93719047Y-84361904D01*
X93528571Y-84361904D01*
X94290476Y-83638095D02*
X94328571Y-83600000D01*
X94404761Y-83561904D01*
X94595238Y-83561904D01*
X94671428Y-83600000D01*
X94709523Y-83638095D01*
X94747619Y-83714285D01*
X94747619Y-83790476D01*
X94709523Y-83904761D01*
X94252380Y-84361904D01*
X94747619Y-84361904D01*
X95471428Y-83561904D02*
X95090476Y-83561904D01*
X95052380Y-83942857D01*
X95090476Y-83904761D01*
X95166666Y-83866666D01*
X95357142Y-83866666D01*
X95433333Y-83904761D01*
X95471428Y-83942857D01*
X95509523Y-84019047D01*
X95509523Y-84209523D01*
X95471428Y-84285714D01*
X95433333Y-84323809D01*
X95357142Y-84361904D01*
X95166666Y-84361904D01*
X95090476Y-84323809D01*
X95052380Y-84285714D01*
D12*
X85250000Y-121000000D02*
X84250000Y-122000000D01*
X80250000Y-122000000D02*
X85250000Y-122000000D01*
X80250000Y-117000000D02*
X80250000Y-122000000D01*
X85250000Y-122000000D02*
X85250000Y-117000000D01*
X85250000Y-117000000D02*
X80250000Y-117000000D01*
X84750000Y-119500000D02*
G75*
G03*
X84750000Y-119500000I-2000000J0D01*
G01*
X128450000Y-126850000D02*
X130050000Y-126850000D01*
X130050000Y-127650000D02*
X128450000Y-127650000D01*
X128450000Y-127650000D02*
X128450000Y-126850000D01*
X130050000Y-126850000D02*
X130050000Y-127650000D01*
X83550000Y-116150000D02*
X81950000Y-116150000D01*
X81950000Y-116150000D02*
X81950000Y-115350000D01*
X81950000Y-115350000D02*
X83550000Y-115350000D01*
X83550000Y-115350000D02*
X83550000Y-116150000D01*
X230200000Y-58350000D02*
X231800000Y-58350000D01*
X230200000Y-59150000D02*
X230200000Y-58350000D01*
X231800000Y-58350000D02*
X231800000Y-59150000D01*
X231800000Y-59150000D02*
X230200000Y-59150000D01*
X149250000Y-86500000D02*
X154250000Y-86500000D01*
X154250000Y-81500000D02*
X149250000Y-81500000D01*
X154250000Y-86500000D02*
X154250000Y-81500000D01*
X154250000Y-85500000D02*
X153250000Y-86500000D01*
X149250000Y-81500000D02*
X149250000Y-86500000D01*
X153750000Y-84000000D02*
G75*
G03*
X153750000Y-84000000I-2000000J0D01*
G01*
X109500000Y-81500000D02*
X104500000Y-81500000D01*
X104500000Y-81500000D02*
X104500000Y-86500000D01*
X109500000Y-85500000D02*
X108500000Y-86500000D01*
X109500000Y-86500000D02*
X109500000Y-81500000D01*
X104500000Y-86500000D02*
X109500000Y-86500000D01*
X109000000Y-84000000D02*
G75*
G03*
X109000000Y-84000000I-2000000J0D01*
G01*
X69750000Y-138000000D02*
X69750000Y-133000000D01*
X69750000Y-137000000D02*
X68750000Y-138000000D01*
X64750000Y-138000000D02*
X69750000Y-138000000D01*
X64750000Y-133000000D02*
X64750000Y-138000000D01*
X69750000Y-133000000D02*
X64750000Y-133000000D01*
X69250000Y-135500000D02*
G75*
G03*
X69250000Y-135500000I-2000000J0D01*
G01*
X104450000Y-58350000D02*
X106050000Y-58350000D01*
X106050000Y-59150000D02*
X104450000Y-59150000D01*
X106050000Y-58350000D02*
X106050000Y-59150000D01*
X104450000Y-59150000D02*
X104450000Y-58350000D01*
X182000000Y-44000000D02*
X181000000Y-45000000D01*
X177000000Y-45000000D02*
X182000000Y-45000000D01*
X177000000Y-40000000D02*
X177000000Y-45000000D01*
X182000000Y-45000000D02*
X182000000Y-40000000D01*
X182000000Y-40000000D02*
X177000000Y-40000000D01*
X181500000Y-42500000D02*
G75*
G03*
X181500000Y-42500000I-2000000J0D01*
G01*
X93700000Y-59150000D02*
X93700000Y-58350000D01*
X95300000Y-58350000D02*
X95300000Y-59150000D01*
X95300000Y-59150000D02*
X93700000Y-59150000D01*
X93700000Y-58350000D02*
X95300000Y-58350000D01*
X83050000Y-137350000D02*
X83050000Y-138150000D01*
X83050000Y-138150000D02*
X81450000Y-138150000D01*
X81450000Y-138150000D02*
X81450000Y-137350000D01*
X81450000Y-137350000D02*
X83050000Y-137350000D01*
X131750000Y-111000000D02*
X131750000Y-106000000D01*
X131750000Y-110000000D02*
X130750000Y-111000000D01*
X126750000Y-106000000D02*
X126750000Y-111000000D01*
X126750000Y-111000000D02*
X131750000Y-111000000D01*
X131750000Y-106000000D02*
X126750000Y-106000000D01*
X131250000Y-108500000D02*
G75*
G03*
X131250000Y-108500000I-2000000J0D01*
G01*
X75500000Y-65000000D02*
X80500000Y-65000000D01*
X80500000Y-65000000D02*
X80500000Y-60000000D01*
X80500000Y-64000000D02*
X79500000Y-65000000D01*
X75500000Y-60000000D02*
X75500000Y-65000000D01*
X80500000Y-60000000D02*
X75500000Y-60000000D01*
X80000000Y-62500000D02*
G75*
G03*
X80000000Y-62500000I-2000000J0D01*
G01*
X178050000Y-95850000D02*
X178050000Y-96650000D01*
X176450000Y-96650000D02*
X176450000Y-95850000D01*
X176450000Y-95850000D02*
X178050000Y-95850000D01*
X178050000Y-96650000D02*
X176450000Y-96650000D01*
X154250000Y-40000000D02*
X149250000Y-40000000D01*
X154250000Y-45000000D02*
X154250000Y-40000000D01*
X154250000Y-44000000D02*
X153250000Y-45000000D01*
X149250000Y-45000000D02*
X154250000Y-45000000D01*
X149250000Y-40000000D02*
X149250000Y-45000000D01*
X153750000Y-42500000D02*
G75*
G03*
X153750000Y-42500000I-2000000J0D01*
G01*
X178050000Y-115350000D02*
X178050000Y-116150000D01*
X178050000Y-116150000D02*
X176450000Y-116150000D01*
X176450000Y-115350000D02*
X178050000Y-115350000D01*
X176450000Y-116150000D02*
X176450000Y-115350000D01*
X58000000Y-60000000D02*
X58000000Y-65000000D01*
X63000000Y-60000000D02*
X58000000Y-60000000D01*
X63000000Y-65000000D02*
X63000000Y-60000000D01*
X63000000Y-64000000D02*
X62000000Y-65000000D01*
X58000000Y-65000000D02*
X63000000Y-65000000D01*
X62500000Y-62500000D02*
G75*
G03*
X62500000Y-62500000I-2000000J0D01*
G01*
X147250000Y-144000000D02*
X147250000Y-139000000D01*
X147250000Y-139000000D02*
X142250000Y-139000000D01*
X142250000Y-139000000D02*
X142250000Y-144000000D01*
X147250000Y-143000000D02*
X146250000Y-144000000D01*
X142250000Y-144000000D02*
X147250000Y-144000000D01*
X146750000Y-141500000D02*
G75*
G03*
X146750000Y-141500000I-2000000J0D01*
G01*
X102750000Y-65000000D02*
X107750000Y-65000000D01*
X107750000Y-60000000D02*
X102750000Y-60000000D01*
X107750000Y-65000000D02*
X107750000Y-60000000D01*
X102750000Y-60000000D02*
X102750000Y-65000000D01*
X107750000Y-64000000D02*
X106750000Y-65000000D01*
X107250000Y-62500000D02*
G75*
G03*
X107250000Y-62500000I-2000000J0D01*
G01*
X209250000Y-81500000D02*
X204250000Y-81500000D01*
X204250000Y-81500000D02*
X204250000Y-86500000D01*
X209250000Y-86500000D02*
X209250000Y-81500000D01*
X204250000Y-86500000D02*
X209250000Y-86500000D01*
X209250000Y-85500000D02*
X208250000Y-86500000D01*
X208750000Y-84000000D02*
G75*
G03*
X208750000Y-84000000I-2000000J0D01*
G01*
X93700000Y-38350000D02*
X95300000Y-38350000D01*
X93700000Y-39150000D02*
X93700000Y-38350000D01*
X95300000Y-38350000D02*
X95300000Y-39150000D01*
X95300000Y-39150000D02*
X93700000Y-39150000D01*
X63000000Y-81500000D02*
X58000000Y-81500000D01*
X58000000Y-86500000D02*
X63000000Y-86500000D01*
X63000000Y-86500000D02*
X63000000Y-81500000D01*
X58000000Y-81500000D02*
X58000000Y-86500000D01*
X63000000Y-85500000D02*
X62000000Y-86500000D01*
X62500000Y-84000000D02*
G75*
G03*
X62500000Y-84000000I-2000000J0D01*
G01*
X128200000Y-80650000D02*
X128200000Y-79850000D01*
X129800000Y-80650000D02*
X128200000Y-80650000D01*
X128200000Y-79850000D02*
X129800000Y-79850000D01*
X129800000Y-79850000D02*
X129800000Y-80650000D01*
X107800000Y-39150000D02*
X106200000Y-39150000D01*
X107800000Y-38350000D02*
X107800000Y-39150000D01*
X106200000Y-39150000D02*
X106200000Y-38350000D01*
X106200000Y-38350000D02*
X107800000Y-38350000D01*
X150950000Y-58350000D02*
X152550000Y-58350000D01*
X152550000Y-58350000D02*
X152550000Y-59150000D01*
X152550000Y-59150000D02*
X150950000Y-59150000D01*
X150950000Y-59150000D02*
X150950000Y-58350000D01*
X159450000Y-137350000D02*
X161050000Y-137350000D01*
X159450000Y-138150000D02*
X159450000Y-137350000D01*
X161050000Y-138150000D02*
X159450000Y-138150000D01*
X161050000Y-137350000D02*
X161050000Y-138150000D01*
X222200000Y-39150000D02*
X222200000Y-38350000D01*
X222200000Y-38350000D02*
X223800000Y-38350000D01*
X223800000Y-38350000D02*
X223800000Y-39150000D01*
X223800000Y-39150000D02*
X222200000Y-39150000D01*
X223300000Y-80650000D02*
X221700000Y-80650000D01*
X221700000Y-79850000D02*
X223300000Y-79850000D01*
X221700000Y-80650000D02*
X221700000Y-79850000D01*
X223300000Y-79850000D02*
X223300000Y-80650000D01*
X75500000Y-45000000D02*
X80500000Y-45000000D01*
X80500000Y-40000000D02*
X75500000Y-40000000D01*
X75500000Y-40000000D02*
X75500000Y-45000000D01*
X80500000Y-44000000D02*
X79500000Y-45000000D01*
X80500000Y-45000000D02*
X80500000Y-40000000D01*
X80000000Y-42500000D02*
G75*
G03*
X80000000Y-42500000I-2000000J0D01*
G01*
X131750000Y-133500000D02*
X131750000Y-128500000D01*
X126750000Y-128500000D02*
X126750000Y-133500000D01*
X131750000Y-132500000D02*
X130750000Y-133500000D01*
X131750000Y-128500000D02*
X126750000Y-128500000D01*
X126750000Y-133500000D02*
X131750000Y-133500000D01*
X131250000Y-131000000D02*
G75*
G03*
X131250000Y-131000000I-2000000J0D01*
G01*
X128450000Y-104350000D02*
X130050000Y-104350000D01*
X128450000Y-105150000D02*
X128450000Y-104350000D01*
X130050000Y-104350000D02*
X130050000Y-105150000D01*
X130050000Y-105150000D02*
X128450000Y-105150000D01*
X138050000Y-38350000D02*
X138050000Y-39150000D01*
X136450000Y-38350000D02*
X138050000Y-38350000D01*
X136450000Y-39150000D02*
X136450000Y-38350000D01*
X138050000Y-39150000D02*
X136450000Y-39150000D01*
X149250000Y-65000000D02*
X154250000Y-65000000D01*
X154250000Y-65000000D02*
X154250000Y-60000000D01*
X154250000Y-64000000D02*
X153250000Y-65000000D01*
X149250000Y-60000000D02*
X149250000Y-65000000D01*
X154250000Y-60000000D02*
X149250000Y-60000000D01*
X153750000Y-62500000D02*
G75*
G03*
X153750000Y-62500000I-2000000J0D01*
G01*
X116750000Y-121000000D02*
X115750000Y-122000000D01*
X111750000Y-117000000D02*
X111750000Y-122000000D01*
X116750000Y-122000000D02*
X116750000Y-117000000D01*
X111750000Y-122000000D02*
X116750000Y-122000000D01*
X116750000Y-117000000D02*
X111750000Y-117000000D01*
X116250000Y-119500000D02*
G75*
G03*
X116250000Y-119500000I-2000000J0D01*
G01*
X236500000Y-144000000D02*
X236500000Y-139000000D01*
X231500000Y-139000000D02*
X231500000Y-144000000D01*
X236500000Y-143000000D02*
X235500000Y-144000000D01*
X231500000Y-144000000D02*
X236500000Y-144000000D01*
X236500000Y-139000000D02*
X231500000Y-139000000D01*
X236000000Y-141500000D02*
G75*
G03*
X236000000Y-141500000I-2000000J0D01*
G01*
X79500000Y-81500000D02*
X74500000Y-81500000D01*
X74500000Y-81500000D02*
X74500000Y-86500000D01*
X79500000Y-86500000D02*
X79500000Y-81500000D01*
X74500000Y-86500000D02*
X79500000Y-86500000D01*
X79500000Y-85500000D02*
X78500000Y-86500000D01*
X79000000Y-84000000D02*
G75*
G03*
X79000000Y-84000000I-2000000J0D01*
G01*
X219250000Y-117000000D02*
X219250000Y-122000000D01*
X224250000Y-117000000D02*
X219250000Y-117000000D01*
X224250000Y-121000000D02*
X223250000Y-122000000D01*
X219250000Y-122000000D02*
X224250000Y-122000000D01*
X224250000Y-122000000D02*
X224250000Y-117000000D01*
X223750000Y-119500000D02*
G75*
G03*
X223750000Y-119500000I-2000000J0D01*
G01*
X180300000Y-59150000D02*
X178700000Y-59150000D01*
X178700000Y-59150000D02*
X178700000Y-58350000D01*
X178700000Y-58350000D02*
X180300000Y-58350000D01*
X180300000Y-58350000D02*
X180300000Y-59150000D01*
X120250000Y-97500000D02*
X115250000Y-97500000D01*
X115250000Y-102500000D02*
X120250000Y-102500000D01*
X120250000Y-101500000D02*
X119250000Y-102500000D01*
X115250000Y-97500000D02*
X115250000Y-102500000D01*
X120250000Y-102500000D02*
X120250000Y-97500000D01*
X119750000Y-100000000D02*
G75*
G03*
X119750000Y-100000000I-2000000J0D01*
G01*
X139750000Y-40000000D02*
X134750000Y-40000000D01*
X139750000Y-45000000D02*
X139750000Y-40000000D01*
X134750000Y-40000000D02*
X134750000Y-45000000D01*
X139750000Y-44000000D02*
X138750000Y-45000000D01*
X134750000Y-45000000D02*
X139750000Y-45000000D01*
X139250000Y-42500000D02*
G75*
G03*
X139250000Y-42500000I-2000000J0D01*
G01*
X68050000Y-132150000D02*
X66450000Y-132150000D01*
X68050000Y-131350000D02*
X68050000Y-132150000D01*
X66450000Y-132150000D02*
X66450000Y-131350000D01*
X66450000Y-131350000D02*
X68050000Y-131350000D01*
X143950000Y-138150000D02*
X143950000Y-137350000D01*
X145550000Y-137350000D02*
X145550000Y-138150000D01*
X145550000Y-138150000D02*
X143950000Y-138150000D01*
X143950000Y-137350000D02*
X145550000Y-137350000D01*
X174750000Y-117000000D02*
X174750000Y-122000000D01*
X179750000Y-117000000D02*
X174750000Y-117000000D01*
X179750000Y-122000000D02*
X179750000Y-117000000D01*
X179750000Y-121000000D02*
X178750000Y-122000000D01*
X174750000Y-122000000D02*
X179750000Y-122000000D01*
X179250000Y-119500000D02*
G75*
G03*
X179250000Y-119500000I-2000000J0D01*
G01*
X159450000Y-95850000D02*
X161050000Y-95850000D01*
X159450000Y-96650000D02*
X159450000Y-95850000D01*
X161050000Y-96650000D02*
X159450000Y-96650000D01*
X161050000Y-95850000D02*
X161050000Y-96650000D01*
X76200000Y-80650000D02*
X76200000Y-79850000D01*
X77800000Y-80650000D02*
X76200000Y-80650000D01*
X76200000Y-79850000D02*
X77800000Y-79850000D01*
X77800000Y-79850000D02*
X77800000Y-80650000D01*
X207550000Y-59150000D02*
X205950000Y-59150000D01*
X205950000Y-59150000D02*
X205950000Y-58350000D01*
X207550000Y-58350000D02*
X207550000Y-59150000D01*
X205950000Y-58350000D02*
X207550000Y-58350000D01*
X189500000Y-81500000D02*
X189500000Y-86500000D01*
X194500000Y-81500000D02*
X189500000Y-81500000D01*
X189500000Y-86500000D02*
X194500000Y-86500000D01*
X194500000Y-86500000D02*
X194500000Y-81500000D01*
X194500000Y-85500000D02*
X193500000Y-86500000D01*
X194000000Y-84000000D02*
G75*
G03*
X194000000Y-84000000I-2000000J0D01*
G01*
X72300000Y-115350000D02*
X72300000Y-116150000D01*
X72300000Y-116150000D02*
X70700000Y-116150000D01*
X70700000Y-116150000D02*
X70700000Y-115350000D01*
X70700000Y-115350000D02*
X72300000Y-115350000D01*
X206200000Y-137350000D02*
X207800000Y-137350000D01*
X207800000Y-138150000D02*
X206200000Y-138150000D01*
X207800000Y-137350000D02*
X207800000Y-138150000D01*
X206200000Y-138150000D02*
X206200000Y-137350000D01*
X157750000Y-139000000D02*
X157750000Y-144000000D01*
X162750000Y-139000000D02*
X157750000Y-139000000D01*
X162750000Y-143000000D02*
X161750000Y-144000000D01*
X162750000Y-144000000D02*
X162750000Y-139000000D01*
X157750000Y-144000000D02*
X162750000Y-144000000D01*
X162250000Y-141500000D02*
G75*
G03*
X162250000Y-141500000I-2000000J0D01*
G01*
X145550000Y-95850000D02*
X145550000Y-96650000D01*
X145550000Y-96650000D02*
X143950000Y-96650000D01*
X143950000Y-95850000D02*
X145550000Y-95850000D01*
X143950000Y-96650000D02*
X143950000Y-95850000D01*
X241250000Y-45000000D02*
X241250000Y-40000000D01*
X236250000Y-40000000D02*
X236250000Y-45000000D01*
X241250000Y-40000000D02*
X236250000Y-40000000D01*
X236250000Y-45000000D02*
X241250000Y-45000000D01*
X241250000Y-44000000D02*
X240250000Y-45000000D01*
X240750000Y-42500000D02*
G75*
G03*
X240750000Y-42500000I-2000000J0D01*
G01*
X114750000Y-139000000D02*
X114750000Y-144000000D01*
X119750000Y-143000000D02*
X118750000Y-144000000D01*
X119750000Y-139000000D02*
X114750000Y-139000000D01*
X119750000Y-144000000D02*
X119750000Y-139000000D01*
X114750000Y-144000000D02*
X119750000Y-144000000D01*
X119250000Y-141500000D02*
G75*
G03*
X119250000Y-141500000I-2000000J0D01*
G01*
X64500000Y-45000000D02*
X64500000Y-40000000D01*
X64500000Y-44000000D02*
X63500000Y-45000000D01*
X64500000Y-40000000D02*
X59500000Y-40000000D01*
X59500000Y-45000000D02*
X64500000Y-45000000D01*
X59500000Y-40000000D02*
X59500000Y-45000000D01*
X64000000Y-42500000D02*
G75*
G03*
X64000000Y-42500000I-2000000J0D01*
G01*
X62800000Y-38350000D02*
X62800000Y-39150000D01*
X61200000Y-39150000D02*
X61200000Y-38350000D01*
X62800000Y-39150000D02*
X61200000Y-39150000D01*
X61200000Y-38350000D02*
X62800000Y-38350000D01*
X118550000Y-96650000D02*
X116950000Y-96650000D01*
X118550000Y-95850000D02*
X118550000Y-96650000D01*
X116950000Y-96650000D02*
X116950000Y-95850000D01*
X116950000Y-95850000D02*
X118550000Y-95850000D01*
X107800000Y-79850000D02*
X107800000Y-80650000D01*
X106200000Y-80650000D02*
X106200000Y-79850000D01*
X107800000Y-80650000D02*
X106200000Y-80650000D01*
X106200000Y-79850000D02*
X107800000Y-79850000D01*
X147250000Y-117000000D02*
X142250000Y-117000000D01*
X147250000Y-122000000D02*
X147250000Y-117000000D01*
X142250000Y-117000000D02*
X142250000Y-122000000D01*
X147250000Y-121000000D02*
X146250000Y-122000000D01*
X142250000Y-122000000D02*
X147250000Y-122000000D01*
X146750000Y-119500000D02*
G75*
G03*
X146750000Y-119500000I-2000000J0D01*
G01*
X219250000Y-97500000D02*
X219250000Y-102500000D01*
X224250000Y-97500000D02*
X219250000Y-97500000D01*
X224250000Y-101500000D02*
X223250000Y-102500000D01*
X219250000Y-102500000D02*
X224250000Y-102500000D01*
X224250000Y-102500000D02*
X224250000Y-97500000D01*
X223750000Y-100000000D02*
G75*
G03*
X223750000Y-100000000I-2000000J0D01*
G01*
X196500000Y-101500000D02*
X195500000Y-102500000D01*
X196500000Y-97500000D02*
X191500000Y-97500000D01*
X191500000Y-102500000D02*
X196500000Y-102500000D01*
X196500000Y-102500000D02*
X196500000Y-97500000D01*
X191500000Y-97500000D02*
X191500000Y-102500000D01*
X196000000Y-100000000D02*
G75*
G03*
X196000000Y-100000000I-2000000J0D01*
G01*
X220950000Y-96650000D02*
X220950000Y-95850000D01*
X222550000Y-95850000D02*
X222550000Y-96650000D01*
X222550000Y-96650000D02*
X220950000Y-96650000D01*
X220950000Y-95850000D02*
X222550000Y-95850000D01*
X74000000Y-122000000D02*
X74000000Y-117000000D01*
X74000000Y-117000000D02*
X69000000Y-117000000D01*
X69000000Y-122000000D02*
X74000000Y-122000000D01*
X74000000Y-121000000D02*
X73000000Y-122000000D01*
X69000000Y-117000000D02*
X69000000Y-122000000D01*
X73500000Y-119500000D02*
G75*
G03*
X73500000Y-119500000I-2000000J0D01*
G01*
X66450000Y-103400000D02*
X66450000Y-102600000D01*
X66450000Y-102600000D02*
X68050000Y-102600000D01*
X68050000Y-103400000D02*
X66450000Y-103400000D01*
X68050000Y-102600000D02*
X68050000Y-103400000D01*
X131500000Y-65000000D02*
X131500000Y-60000000D01*
X131500000Y-64000000D02*
X130500000Y-65000000D01*
X126500000Y-65000000D02*
X131500000Y-65000000D01*
X131500000Y-60000000D02*
X126500000Y-60000000D01*
X126500000Y-60000000D02*
X126500000Y-65000000D01*
X131000000Y-62500000D02*
G75*
G03*
X131000000Y-62500000I-2000000J0D01*
G01*
X157750000Y-117000000D02*
X157750000Y-122000000D01*
X157750000Y-122000000D02*
X162750000Y-122000000D01*
X162750000Y-121000000D02*
X161750000Y-122000000D01*
X162750000Y-117000000D02*
X157750000Y-117000000D01*
X162750000Y-122000000D02*
X162750000Y-117000000D01*
X162250000Y-119500000D02*
G75*
G03*
X162250000Y-119500000I-2000000J0D01*
G01*
X159450000Y-116150000D02*
X159450000Y-115350000D01*
X161050000Y-115350000D02*
X161050000Y-116150000D01*
X159450000Y-115350000D02*
X161050000Y-115350000D01*
X161050000Y-116150000D02*
X159450000Y-116150000D01*
X92000000Y-45000000D02*
X97000000Y-45000000D01*
X92000000Y-40000000D02*
X92000000Y-45000000D01*
X97000000Y-40000000D02*
X92000000Y-40000000D01*
X97000000Y-44000000D02*
X96000000Y-45000000D01*
X97000000Y-45000000D02*
X97000000Y-40000000D01*
X96500000Y-42500000D02*
G75*
G03*
X96500000Y-42500000I-2000000J0D01*
G01*
X205950000Y-80650000D02*
X205950000Y-79850000D01*
X205950000Y-79850000D02*
X207550000Y-79850000D01*
X207550000Y-79850000D02*
X207550000Y-80650000D01*
X207550000Y-80650000D02*
X205950000Y-80650000D01*
X129800000Y-58350000D02*
X129800000Y-59150000D01*
X128200000Y-59150000D02*
X128200000Y-58350000D01*
X128200000Y-58350000D02*
X129800000Y-58350000D01*
X129800000Y-59150000D02*
X128200000Y-59150000D01*
X82250000Y-101500000D02*
X81250000Y-102500000D01*
X77250000Y-102500000D02*
X82250000Y-102500000D01*
X77250000Y-97500000D02*
X77250000Y-102500000D01*
X82250000Y-97500000D02*
X77250000Y-97500000D01*
X82250000Y-102500000D02*
X82250000Y-97500000D01*
X81750000Y-100000000D02*
G75*
G03*
X81750000Y-100000000I-2000000J0D01*
G01*
X204250000Y-60000000D02*
X204250000Y-65000000D01*
X204250000Y-65000000D02*
X209250000Y-65000000D01*
X209250000Y-64000000D02*
X208250000Y-65000000D01*
X209250000Y-60000000D02*
X204250000Y-60000000D01*
X209250000Y-65000000D02*
X209250000Y-60000000D01*
X208750000Y-62500000D02*
G75*
G03*
X208750000Y-62500000I-2000000J0D01*
G01*
X115050000Y-115350000D02*
X115050000Y-116150000D01*
X115050000Y-116150000D02*
X113450000Y-116150000D01*
X113450000Y-116150000D02*
X113450000Y-115350000D01*
X113450000Y-115350000D02*
X115050000Y-115350000D01*
X152550000Y-80650000D02*
X150950000Y-80650000D01*
X150950000Y-80650000D02*
X150950000Y-79850000D01*
X152550000Y-79850000D02*
X152550000Y-80650000D01*
X150950000Y-79850000D02*
X152550000Y-79850000D01*
X177000000Y-60000000D02*
X177000000Y-65000000D01*
X182000000Y-60000000D02*
X177000000Y-60000000D01*
X177000000Y-65000000D02*
X182000000Y-65000000D01*
X182000000Y-65000000D02*
X182000000Y-60000000D01*
X182000000Y-64000000D02*
X181000000Y-65000000D01*
X181500000Y-62500000D02*
G75*
G03*
X181500000Y-62500000I-2000000J0D01*
G01*
X178050000Y-138150000D02*
X176450000Y-138150000D01*
X176450000Y-137350000D02*
X178050000Y-137350000D01*
X176450000Y-138150000D02*
X176450000Y-137350000D01*
X178050000Y-137350000D02*
X178050000Y-138150000D01*
X78800000Y-39150000D02*
X77200000Y-39150000D01*
X78800000Y-38350000D02*
X78800000Y-39150000D01*
X77200000Y-39150000D02*
X77200000Y-38350000D01*
X77200000Y-38350000D02*
X78800000Y-38350000D01*
X109500000Y-44000000D02*
X108500000Y-45000000D01*
X109500000Y-40000000D02*
X104500000Y-40000000D01*
X109500000Y-45000000D02*
X109500000Y-40000000D01*
X104500000Y-45000000D02*
X109500000Y-45000000D01*
X104500000Y-40000000D02*
X104500000Y-45000000D01*
X109000000Y-42500000D02*
G75*
G03*
X109000000Y-42500000I-2000000J0D01*
G01*
X234800000Y-137350000D02*
X234800000Y-138150000D01*
X234800000Y-138150000D02*
X233200000Y-138150000D01*
X233200000Y-137350000D02*
X234800000Y-137350000D01*
X233200000Y-138150000D02*
X233200000Y-137350000D01*
X123500000Y-44000000D02*
X122500000Y-45000000D01*
X123500000Y-45000000D02*
X123500000Y-40000000D01*
X118500000Y-40000000D02*
X118500000Y-45000000D01*
X123500000Y-40000000D02*
X118500000Y-40000000D01*
X118500000Y-45000000D02*
X123500000Y-45000000D01*
X123000000Y-42500000D02*
G75*
G03*
X123000000Y-42500000I-2000000J0D01*
G01*
X194800000Y-96650000D02*
X193200000Y-96650000D01*
X194800000Y-95850000D02*
X194800000Y-96650000D01*
X193200000Y-96650000D02*
X193200000Y-95850000D01*
X193200000Y-95850000D02*
X194800000Y-95850000D01*
X92000000Y-60000000D02*
X92000000Y-65000000D01*
X97000000Y-64000000D02*
X96000000Y-65000000D01*
X92000000Y-65000000D02*
X97000000Y-65000000D01*
X97000000Y-60000000D02*
X92000000Y-60000000D01*
X97000000Y-65000000D02*
X97000000Y-60000000D01*
X96500000Y-62500000D02*
G75*
G03*
X96500000Y-62500000I-2000000J0D01*
G01*
X205950000Y-39150000D02*
X205950000Y-38350000D01*
X207550000Y-38350000D02*
X207550000Y-39150000D01*
X205950000Y-38350000D02*
X207550000Y-38350000D01*
X207550000Y-39150000D02*
X205950000Y-39150000D01*
X220950000Y-116150000D02*
X220950000Y-115350000D01*
X222550000Y-116150000D02*
X220950000Y-116150000D01*
X222550000Y-115350000D02*
X222550000Y-116150000D01*
X220950000Y-115350000D02*
X222550000Y-115350000D01*
X152550000Y-39150000D02*
X150950000Y-39150000D01*
X150950000Y-38350000D02*
X152550000Y-38350000D01*
X152550000Y-38350000D02*
X152550000Y-39150000D01*
X150950000Y-39150000D02*
X150950000Y-38350000D01*
X233500000Y-60000000D02*
X228500000Y-60000000D01*
X228500000Y-65000000D02*
X233500000Y-65000000D01*
X228500000Y-60000000D02*
X228500000Y-65000000D01*
X233500000Y-64000000D02*
X232500000Y-65000000D01*
X233500000Y-65000000D02*
X233500000Y-60000000D01*
X233000000Y-62500000D02*
G75*
G03*
X233000000Y-62500000I-2000000J0D01*
G01*
X95300000Y-79850000D02*
X95300000Y-80650000D01*
X95300000Y-80650000D02*
X93700000Y-80650000D01*
X93700000Y-79850000D02*
X95300000Y-79850000D01*
X93700000Y-80650000D02*
X93700000Y-79850000D01*
X121800000Y-38350000D02*
X121800000Y-39150000D01*
X120200000Y-39150000D02*
X120200000Y-38350000D01*
X120200000Y-38350000D02*
X121800000Y-38350000D01*
X121800000Y-39150000D02*
X120200000Y-39150000D01*
X116450000Y-138150000D02*
X116450000Y-137350000D01*
X118050000Y-138150000D02*
X116450000Y-138150000D01*
X118050000Y-137350000D02*
X118050000Y-138150000D01*
X116450000Y-137350000D02*
X118050000Y-137350000D01*
X165300000Y-38350000D02*
X165300000Y-39150000D01*
X165300000Y-39150000D02*
X163700000Y-39150000D01*
X163700000Y-38350000D02*
X165300000Y-38350000D01*
X163700000Y-39150000D02*
X163700000Y-38350000D01*
X126500000Y-81500000D02*
X126500000Y-86500000D01*
X131500000Y-85500000D02*
X130500000Y-86500000D01*
X131500000Y-81500000D02*
X126500000Y-81500000D01*
X131500000Y-86500000D02*
X131500000Y-81500000D01*
X126500000Y-86500000D02*
X131500000Y-86500000D01*
X131000000Y-84000000D02*
G75*
G03*
X131000000Y-84000000I-2000000J0D01*
G01*
X191500000Y-117000000D02*
X191500000Y-122000000D01*
X196500000Y-117000000D02*
X191500000Y-117000000D01*
X196500000Y-121000000D02*
X195500000Y-122000000D01*
X196500000Y-122000000D02*
X196500000Y-117000000D01*
X191500000Y-122000000D02*
X196500000Y-122000000D01*
X196000000Y-119500000D02*
G75*
G03*
X196000000Y-119500000I-2000000J0D01*
G01*
X77200000Y-58350000D02*
X78800000Y-58350000D01*
X78800000Y-58350000D02*
X78800000Y-59150000D01*
X77200000Y-59150000D02*
X77200000Y-58350000D01*
X78800000Y-59150000D02*
X77200000Y-59150000D01*
X167000000Y-40000000D02*
X162000000Y-40000000D01*
X162000000Y-40000000D02*
X162000000Y-45000000D01*
X167000000Y-45000000D02*
X167000000Y-40000000D01*
X167000000Y-44000000D02*
X166000000Y-45000000D01*
X162000000Y-45000000D02*
X167000000Y-45000000D01*
X166500000Y-42500000D02*
G75*
G03*
X166500000Y-42500000I-2000000J0D01*
G01*
X193200000Y-116150000D02*
X193200000Y-115350000D01*
X194800000Y-115350000D02*
X194800000Y-116150000D01*
X193200000Y-115350000D02*
X194800000Y-115350000D01*
X194800000Y-116150000D02*
X193200000Y-116150000D01*
X193200000Y-138150000D02*
X193200000Y-137350000D01*
X194800000Y-138150000D02*
X193200000Y-138150000D01*
X193200000Y-137350000D02*
X194800000Y-137350000D01*
X194800000Y-137350000D02*
X194800000Y-138150000D01*
X204500000Y-139000000D02*
X204500000Y-144000000D01*
X209500000Y-143000000D02*
X208500000Y-144000000D01*
X209500000Y-144000000D02*
X209500000Y-139000000D01*
X209500000Y-139000000D02*
X204500000Y-139000000D01*
X204500000Y-144000000D02*
X209500000Y-144000000D01*
X209000000Y-141500000D02*
G75*
G03*
X209000000Y-141500000I-2000000J0D01*
G01*
X162800000Y-59150000D02*
X161200000Y-59150000D01*
X161200000Y-59150000D02*
X161200000Y-58350000D01*
X161200000Y-58350000D02*
X162800000Y-58350000D01*
X162800000Y-58350000D02*
X162800000Y-59150000D01*
X61300000Y-58350000D02*
X61300000Y-59150000D01*
X59700000Y-58350000D02*
X61300000Y-58350000D01*
X59700000Y-59150000D02*
X59700000Y-58350000D01*
X61300000Y-59150000D02*
X59700000Y-59150000D01*
X162750000Y-102500000D02*
X162750000Y-97500000D01*
X162750000Y-97500000D02*
X157750000Y-97500000D01*
X157750000Y-102500000D02*
X162750000Y-102500000D01*
X162750000Y-101500000D02*
X161750000Y-102500000D01*
X157750000Y-97500000D02*
X157750000Y-102500000D01*
X162250000Y-100000000D02*
G75*
G03*
X162250000Y-100000000I-2000000J0D01*
G01*
X219250000Y-139000000D02*
X219250000Y-144000000D01*
X219250000Y-144000000D02*
X224250000Y-144000000D01*
X224250000Y-139000000D02*
X219250000Y-139000000D01*
X224250000Y-143000000D02*
X223250000Y-144000000D01*
X224250000Y-144000000D02*
X224250000Y-139000000D01*
X223750000Y-141500000D02*
G75*
G03*
X223750000Y-141500000I-2000000J0D01*
G01*
X182000000Y-85500000D02*
X181000000Y-86500000D01*
X177000000Y-86500000D02*
X182000000Y-86500000D01*
X177000000Y-81500000D02*
X177000000Y-86500000D01*
X182000000Y-81500000D02*
X177000000Y-81500000D01*
X182000000Y-86500000D02*
X182000000Y-81500000D01*
X181500000Y-84000000D02*
G75*
G03*
X181500000Y-84000000I-2000000J0D01*
G01*
X196500000Y-143000000D02*
X195500000Y-144000000D01*
X191500000Y-144000000D02*
X196500000Y-144000000D01*
X191500000Y-139000000D02*
X191500000Y-144000000D01*
X196500000Y-144000000D02*
X196500000Y-139000000D01*
X196500000Y-139000000D02*
X191500000Y-139000000D01*
X196000000Y-141500000D02*
G75*
G03*
X196000000Y-141500000I-2000000J0D01*
G01*
X178700000Y-79850000D02*
X180300000Y-79850000D01*
X180300000Y-80650000D02*
X178700000Y-80650000D01*
X178700000Y-80650000D02*
X178700000Y-79850000D01*
X180300000Y-79850000D02*
X180300000Y-80650000D01*
X225000000Y-81500000D02*
X220000000Y-81500000D01*
X225000000Y-86500000D02*
X225000000Y-81500000D01*
X220000000Y-81500000D02*
X220000000Y-86500000D01*
X225000000Y-85500000D02*
X224000000Y-86500000D01*
X220000000Y-86500000D02*
X225000000Y-86500000D01*
X224500000Y-84000000D02*
G75*
G03*
X224500000Y-84000000I-2000000J0D01*
G01*
X61300000Y-79850000D02*
X61300000Y-80650000D01*
X61300000Y-80650000D02*
X59700000Y-80650000D01*
X59700000Y-79850000D02*
X61300000Y-79850000D01*
X59700000Y-80650000D02*
X59700000Y-79850000D01*
X159500000Y-60000000D02*
X159500000Y-65000000D01*
X164500000Y-64000000D02*
X163500000Y-65000000D01*
X164500000Y-60000000D02*
X159500000Y-60000000D01*
X164500000Y-65000000D02*
X164500000Y-60000000D01*
X159500000Y-65000000D02*
X164500000Y-65000000D01*
X164000000Y-62500000D02*
G75*
G03*
X164000000Y-62500000I-2000000J0D01*
G01*
X236250000Y-81500000D02*
X236250000Y-86500000D01*
X241250000Y-85500000D02*
X240250000Y-86500000D01*
X236250000Y-86500000D02*
X241250000Y-86500000D01*
X241250000Y-81500000D02*
X236250000Y-81500000D01*
X241250000Y-86500000D02*
X241250000Y-81500000D01*
X240750000Y-84000000D02*
G75*
G03*
X240750000Y-84000000I-2000000J0D01*
G01*
X147250000Y-97500000D02*
X142250000Y-97500000D01*
X142250000Y-97500000D02*
X142250000Y-102500000D01*
X147250000Y-102500000D02*
X147250000Y-97500000D01*
X142250000Y-102500000D02*
X147250000Y-102500000D01*
X147250000Y-101500000D02*
X146250000Y-102500000D01*
X146750000Y-100000000D02*
G75*
G03*
X146750000Y-100000000I-2000000J0D01*
G01*
X78950000Y-95850000D02*
X80550000Y-95850000D01*
X78950000Y-96650000D02*
X78950000Y-95850000D01*
X80550000Y-96650000D02*
X78950000Y-96650000D01*
X80550000Y-95850000D02*
X80550000Y-96650000D01*
X237950000Y-80650000D02*
X237950000Y-79850000D01*
X239550000Y-79850000D02*
X239550000Y-80650000D01*
X237950000Y-79850000D02*
X239550000Y-79850000D01*
X239550000Y-80650000D02*
X237950000Y-80650000D01*
X69750000Y-109250000D02*
X69750000Y-104250000D01*
X64750000Y-104250000D02*
X64750000Y-109250000D01*
X64750000Y-109250000D02*
X69750000Y-109250000D01*
X69750000Y-108250000D02*
X68750000Y-109250000D01*
X69750000Y-104250000D02*
X64750000Y-104250000D01*
X69250000Y-106750000D02*
G75*
G03*
X69250000Y-106750000I-2000000J0D01*
G01*
X220950000Y-137350000D02*
X222550000Y-137350000D01*
X222550000Y-138150000D02*
X220950000Y-138150000D01*
X222550000Y-137350000D02*
X222550000Y-138150000D01*
X220950000Y-138150000D02*
X220950000Y-137350000D01*
X204250000Y-40000000D02*
X204250000Y-45000000D01*
X204250000Y-45000000D02*
X209250000Y-45000000D01*
X209250000Y-44000000D02*
X208250000Y-45000000D01*
X209250000Y-40000000D02*
X204250000Y-40000000D01*
X209250000Y-45000000D02*
X209250000Y-40000000D01*
X208750000Y-42500000D02*
G75*
G03*
X208750000Y-42500000I-2000000J0D01*
G01*
X179750000Y-139000000D02*
X174750000Y-139000000D01*
X179750000Y-143000000D02*
X178750000Y-144000000D01*
X174750000Y-144000000D02*
X179750000Y-144000000D01*
X179750000Y-144000000D02*
X179750000Y-139000000D01*
X174750000Y-139000000D02*
X174750000Y-144000000D01*
X179250000Y-141500000D02*
G75*
G03*
X179250000Y-141500000I-2000000J0D01*
G01*
X145550000Y-116150000D02*
X143950000Y-116150000D01*
X143950000Y-115350000D02*
X145550000Y-115350000D01*
X145550000Y-115350000D02*
X145550000Y-116150000D01*
X143950000Y-116150000D02*
X143950000Y-115350000D01*
X79750000Y-139000000D02*
X79750000Y-144000000D01*
X84750000Y-143000000D02*
X83750000Y-144000000D01*
X84750000Y-139000000D02*
X79750000Y-139000000D01*
X79750000Y-144000000D02*
X84750000Y-144000000D01*
X84750000Y-144000000D02*
X84750000Y-139000000D01*
X84250000Y-141500000D02*
G75*
G03*
X84250000Y-141500000I-2000000J0D01*
G01*
X192800000Y-79850000D02*
X192800000Y-80650000D01*
X191200000Y-79850000D02*
X192800000Y-79850000D01*
X192800000Y-80650000D02*
X191200000Y-80650000D01*
X191200000Y-80650000D02*
X191200000Y-79850000D01*
X239550000Y-38350000D02*
X239550000Y-39150000D01*
X239550000Y-39150000D02*
X237950000Y-39150000D01*
X237950000Y-38350000D02*
X239550000Y-38350000D01*
X237950000Y-39150000D02*
X237950000Y-38350000D01*
X225500000Y-44000000D02*
X224500000Y-45000000D01*
X220500000Y-45000000D02*
X225500000Y-45000000D01*
X225500000Y-40000000D02*
X220500000Y-40000000D01*
X220500000Y-40000000D02*
X220500000Y-45000000D01*
X225500000Y-45000000D02*
X225500000Y-40000000D01*
X225000000Y-42500000D02*
G75*
G03*
X225000000Y-42500000I-2000000J0D01*
G01*
X174750000Y-102500000D02*
X179750000Y-102500000D01*
X179750000Y-97500000D02*
X174750000Y-97500000D01*
X179750000Y-102500000D02*
X179750000Y-97500000D01*
X174750000Y-97500000D02*
X174750000Y-102500000D01*
X179750000Y-101500000D02*
X178750000Y-102500000D01*
X179250000Y-100000000D02*
G75*
G03*
X179250000Y-100000000I-2000000J0D01*
G01*
X180300000Y-38350000D02*
X180300000Y-39150000D01*
X178700000Y-39150000D02*
X178700000Y-38350000D01*
X180300000Y-39150000D02*
X178700000Y-39150000D01*
X178700000Y-38350000D02*
X180300000Y-38350000D01*
X97000000Y-81500000D02*
X92000000Y-81500000D01*
X92000000Y-81500000D02*
X92000000Y-86500000D01*
X92000000Y-86500000D02*
X97000000Y-86500000D01*
X97000000Y-86500000D02*
X97000000Y-81500000D01*
X97000000Y-85500000D02*
X96000000Y-86500000D01*
X96500000Y-84000000D02*
G75*
G03*
X96500000Y-84000000I-2000000J0D01*
G01*
M02*
