M48
; DRILL file {KiCad (6.0.6)} date Thu Feb  2 00:20:56 2023
; FORMAT={-:-/ absolute / metric / decimal}
; #@! TF.CreationDate,2023-02-02T00:20:56-07:00
; #@! TF.GenerationSoftware,Kicad,Pcbnew,(6.0.6)
; #@! TF.FileFunction,Plated,1,4,PTH
FMAT,2
METRIC
; #@! TA.AperFunction,Plated,PTH,ViaDrill
T1C0.400
; #@! TA.AperFunction,Plated,PTH,ComponentDrill
T2C1.000
%
G90
G05
T1
X62.5Y-58.75
X62.5Y-80.25
X64.0Y-38.75
X64.5Y-64.0
X64.5Y-85.5
X66.0Y-44.0
X67.0Y-40.9
X69.25Y-103.0
X69.25Y-131.75
X71.25Y-108.25
X71.25Y-137.0
X73.5Y-115.75
X75.5Y-121.0
X79.0Y-80.25
X80.0Y-38.75
X80.0Y-58.75
X81.0Y-85.5
X81.75Y-96.25
X82.0Y-44.0
X82.0Y-64.0
X83.75Y-101.5
X84.25Y-137.75
X84.75Y-115.75
X86.25Y-143.0
X86.75Y-121.0
X87.7Y-38.2
X96.5Y-38.75
X96.5Y-58.75
X96.75Y-80.25
X98.5Y-44.0
X98.5Y-64.0
X98.5Y-85.5
X98.625Y-57.675
X98.775Y-79.175
X98.825Y-114.675
X98.9Y-129.4
X98.925Y-136.675
X99.2Y-104.9
X99.525Y-95.175
X107.25Y-58.75
X109.0Y-38.75
X109.25Y-64.0
X109.25Y-80.25
X111.0Y-44.0
X111.25Y-85.5
X116.25Y-115.75
X118.25Y-121.0
X119.25Y-137.75
X119.75Y-96.25
X121.25Y-143.0
X121.75Y-101.5
X123.0Y-38.75
X125.0Y-44.0
X131.0Y-58.75
X131.0Y-80.25
X131.25Y-104.75
X131.25Y-127.25
X133.0Y-64.0
X133.25Y-85.5
X133.25Y-110.0
X133.25Y-132.5
X139.25Y-38.75
X141.25Y-44.25
X146.75Y-96.25
X146.75Y-115.75
X146.75Y-137.75
X148.75Y-101.5
X148.75Y-121.0
X148.75Y-143.0
X153.75Y-38.75
X153.75Y-58.75
X153.75Y-80.25
X155.75Y-44.0
X155.75Y-64.0
X155.75Y-85.5
X159.0Y-38.2
X162.25Y-96.25
X162.25Y-115.75
X162.25Y-137.75
X163.7Y-79.0
X164.0Y-58.75
X164.075Y-136.675
X164.175Y-114.675
X164.25Y-101.5
X164.25Y-121.0
X164.25Y-143.0
X164.325Y-95.175
X165.475Y-57.675
X166.0Y-64.0
X166.5Y-38.75
X168.5Y-44.0
X179.25Y-96.25
X179.25Y-115.75
X179.25Y-137.75
X181.25Y-101.5
X181.25Y-121.0
X181.25Y-143.0
X181.5Y-38.75
X181.5Y-58.75
X181.5Y-80.25
X183.5Y-44.0
X183.5Y-64.0
X183.5Y-85.5
X194.0Y-80.25
X196.0Y-85.5
X196.0Y-96.25
X196.0Y-115.75
X196.0Y-137.75
X198.0Y-101.5
X198.0Y-121.0
X198.0Y-143.0
X208.75Y-38.75
X208.75Y-58.75
X208.75Y-80.25
X209.0Y-137.75
X210.75Y-44.0
X210.75Y-64.0
X210.75Y-85.5
X211.0Y-143.0
X213.2Y-95.2
X213.325Y-79.175
X213.8Y-114.7
X213.95Y-39.75
X214.075Y-57.675
X222.75Y-101.5
X222.75Y-121.0
X223.75Y-96.25
X223.75Y-115.75
X223.75Y-137.75
X224.5Y-80.25
X225.0Y-38.75
X225.75Y-143.0
X226.5Y-85.5
X227.0Y-44.0
X233.0Y-58.75
X234.75Y-139.0
X235.0Y-64.0
X235.0Y-143.0
X238.806Y-79.174
X239.5Y-85.5
X239.75Y-44.0
X240.75Y-38.75
T2
X101.2Y-48.4
X101.2Y-50.94
X101.2Y-53.48
X101.2Y-56.02
X215.56Y-133.3
X218.1Y-133.3
T0
M30
