%FSLAX45Y45*%
G04 Gerber Fmt 4.5, Leading zero omitted, Abs format (unit mm)*
G04 Created by KiCad (PCBNEW (6.0.6)) date 2023-02-02 00:20:57*
%MOMM*%
%LPD*%
G01*
G04 APERTURE LIST*
%TA.AperFunction,Profile*%
%ADD10C,0.100000*%
%TD*%
%ADD11C,0.200000*%
G04 APERTURE END LIST*
D10*
X22921112Y-8777189D02*
X24218912Y-8777189D01*
X24218912Y-8777180D02*
G75*
G03*
X24399220Y-8596803I-2J180310D01*
G01*
X5602012Y-8532221D02*
X6460512Y-9561193D01*
X6470890Y-9734339D02*
G75*
G03*
X6460461Y-9561193I-122670J79499D01*
G01*
X24336912Y-4160577D02*
X24336912Y-4363827D01*
X18234907Y-3732780D02*
G75*
G03*
X19926243Y-3759305I865603J1257860D01*
G01*
X22921112Y-8777179D02*
G75*
G03*
X22639519Y-9058781I-2J-281591D01*
G01*
X6345365Y-11765582D02*
G75*
G03*
X6611590Y-14423435I2353147J-1106555D01*
G01*
X23372712Y-14634177D02*
X7030812Y-14634177D01*
X6470931Y-9734343D02*
G75*
G03*
X6345429Y-11578585I1597381J-1035094D01*
G01*
X23840238Y-14085654D02*
G75*
G03*
X23787369Y-13950968I-190928J2774D01*
G01*
X6090712Y-3732787D02*
X18234912Y-3732787D01*
X22716312Y-12829977D02*
X23787412Y-13950967D01*
X23840212Y-14085657D02*
X23838912Y-14174707D01*
X19926312Y-3759307D02*
X23936812Y-3759307D01*
X5602012Y-8532221D02*
X5602012Y-4221547D01*
X24336948Y-4363804D02*
G75*
G03*
X24391097Y-8424470I2374264J-1999033D01*
G01*
X6345335Y-11765589D02*
G75*
G03*
X6345377Y-11578601I-198925J93539D01*
G01*
X24391012Y-8424477D02*
X24399212Y-8596803D01*
X22639612Y-12638587D02*
X22639612Y-9058781D01*
X22639574Y-12638587D02*
G75*
G03*
X22716308Y-12829975I277036J-3D01*
G01*
X6090712Y-3732785D02*
G75*
G03*
X5601950Y-4221547I0J-488762D01*
G01*
X23372712Y-14634180D02*
G75*
G03*
X23838921Y-14174698I-2J466260D01*
G01*
X6611551Y-14423431D02*
G75*
G03*
X7030812Y-14634183I419259J311652D01*
G01*
X24336878Y-4160577D02*
G75*
G03*
X23936757Y-3759313I-401268J-3D01*
G01*
D11*
X5854569Y-14949659D02*
X5854569Y-14749659D01*
X5902188Y-14749659D01*
X5930760Y-14759183D01*
X5949807Y-14778230D01*
X5959331Y-14797278D01*
X5968855Y-14835373D01*
X5968855Y-14863945D01*
X5959331Y-14902040D01*
X5949807Y-14921087D01*
X5930760Y-14940135D01*
X5902188Y-14949659D01*
X5854569Y-14949659D01*
X6054569Y-14949659D02*
X6054569Y-14816326D01*
X6054569Y-14854421D02*
X6064093Y-14835373D01*
X6073617Y-14825849D01*
X6092664Y-14816326D01*
X6111712Y-14816326D01*
X6178379Y-14949659D02*
X6178379Y-14816326D01*
X6178379Y-14749659D02*
X6168855Y-14759183D01*
X6178379Y-14768707D01*
X6187902Y-14759183D01*
X6178379Y-14749659D01*
X6178379Y-14768707D01*
X6302188Y-14949659D02*
X6283141Y-14940135D01*
X6273617Y-14921087D01*
X6273617Y-14749659D01*
X6406950Y-14949659D02*
X6387902Y-14940135D01*
X6378379Y-14921087D01*
X6378379Y-14749659D01*
X6635522Y-14949659D02*
X6635522Y-14749659D01*
X6702188Y-14892516D01*
X6768855Y-14749659D01*
X6768855Y-14949659D01*
X6949807Y-14949659D02*
X6949807Y-14844897D01*
X6940283Y-14825849D01*
X6921236Y-14816326D01*
X6883141Y-14816326D01*
X6864093Y-14825849D01*
X6949807Y-14940135D02*
X6930760Y-14949659D01*
X6883141Y-14949659D01*
X6864093Y-14940135D01*
X6854569Y-14921087D01*
X6854569Y-14902040D01*
X6864093Y-14882992D01*
X6883141Y-14873468D01*
X6930760Y-14873468D01*
X6949807Y-14863945D01*
X7045045Y-14816326D02*
X7045045Y-15016326D01*
X7045045Y-14825849D02*
X7064093Y-14816326D01*
X7102188Y-14816326D01*
X7121236Y-14825849D01*
X7130760Y-14835373D01*
X7140283Y-14854421D01*
X7140283Y-14911564D01*
X7130760Y-14930611D01*
X7121236Y-14940135D01*
X7102188Y-14949659D01*
X7064093Y-14949659D01*
X7045045Y-14940135D01*
X7225998Y-14930611D02*
X7235522Y-14940135D01*
X7225998Y-14949659D01*
X7216474Y-14940135D01*
X7225998Y-14930611D01*
X7225998Y-14949659D01*
X7225998Y-14825849D02*
X7235522Y-14835373D01*
X7225998Y-14844897D01*
X7216474Y-14835373D01*
X7225998Y-14825849D01*
X7225998Y-14844897D01*
M02*
