G04 #@! TF.GenerationSoftware,KiCad,Pcbnew,(6.0.6)*
G04 #@! TF.CreationDate,2023-02-02T00:20:53-07:00*
G04 #@! TF.ProjectId,Netflix and Chill LEDs,4e657466-6c69-4782-9061-6e6420436869,1*
G04 #@! TF.SameCoordinates,Original*
G04 #@! TF.FileFunction,Copper,L1,Top*
G04 #@! TF.FilePolarity,Positive*
%FSLAX46Y46*%
G04 Gerber Fmt 4.6, Leading zero omitted, Abs format (unit mm)*
G04 Created by KiCad (PCBNEW (6.0.6)) date 2023-02-02 00:20:53*
%MOMM*%
%LPD*%
G01*
G04 APERTURE LIST*
G04 Aperture macros list*
%AMRoundRect*
0 Rectangle with rounded corners*
0 $1 Rounding radius*
0 $2 $3 $4 $5 $6 $7 $8 $9 X,Y pos of 4 corners*
0 Add a 4 corners polygon primitive as box body*
4,1,4,$2,$3,$4,$5,$6,$7,$8,$9,$2,$3,0*
0 Add four circle primitives for the rounded corners*
1,1,$1+$1,$2,$3*
1,1,$1+$1,$4,$5*
1,1,$1+$1,$6,$7*
1,1,$1+$1,$8,$9*
0 Add four rect primitives between the rounded corners*
20,1,$1+$1,$2,$3,$4,$5,0*
20,1,$1+$1,$4,$5,$6,$7,0*
20,1,$1+$1,$6,$7,$8,$9,0*
20,1,$1+$1,$8,$9,$2,$3,0*%
G04 Aperture macros list end*
G04 #@! TA.AperFunction,SMDPad,CuDef*
%ADD10R,1.500000X1.000000*%
G04 #@! TD*
G04 #@! TA.AperFunction,SMDPad,CuDef*
%ADD11RoundRect,0.225000X0.225000X0.250000X-0.225000X0.250000X-0.225000X-0.250000X0.225000X-0.250000X0*%
G04 #@! TD*
G04 #@! TA.AperFunction,ComponentPad*
%ADD12C,1.700000*%
G04 #@! TD*
G04 #@! TA.AperFunction,ComponentPad*
%ADD13R,1.700000X1.700000*%
G04 #@! TD*
G04 #@! TA.AperFunction,ComponentPad*
%ADD14O,1.700000X1.700000*%
G04 #@! TD*
G04 #@! TA.AperFunction,ViaPad*
%ADD15C,0.800000*%
G04 #@! TD*
G04 #@! TA.AperFunction,Conductor*
%ADD16C,0.250000*%
G04 #@! TD*
G04 #@! TA.AperFunction,Conductor*
%ADD17C,0.400000*%
G04 #@! TD*
G04 APERTURE END LIST*
D10*
X80300000Y-117900000D03*
X80300000Y-121100000D03*
X85200000Y-121100000D03*
X85200000Y-117900000D03*
D11*
X130025000Y-127250000D03*
X128475000Y-127250000D03*
X83525000Y-115750000D03*
X81975000Y-115750000D03*
X231775000Y-58750000D03*
X230225000Y-58750000D03*
D10*
X149300000Y-82400000D03*
X149300000Y-85600000D03*
X154200000Y-85600000D03*
X154200000Y-82400000D03*
X104550000Y-82400000D03*
X104550000Y-85600000D03*
X109450000Y-85600000D03*
X109450000Y-82400000D03*
X64800000Y-133900000D03*
X64800000Y-137100000D03*
X69700000Y-137100000D03*
X69700000Y-133900000D03*
D11*
X106025000Y-58750000D03*
X104475000Y-58750000D03*
D10*
X177050000Y-40900000D03*
X177050000Y-44100000D03*
X181950000Y-44100000D03*
X181950000Y-40900000D03*
D11*
X95275000Y-58750000D03*
X93725000Y-58750000D03*
X83025000Y-137750000D03*
X81475000Y-137750000D03*
D10*
X126800000Y-106900000D03*
X126800000Y-110100000D03*
X131700000Y-110100000D03*
X131700000Y-106900000D03*
X75550000Y-60900000D03*
X75550000Y-64100000D03*
X80450000Y-64100000D03*
X80450000Y-60900000D03*
D11*
X178025000Y-96250000D03*
X176475000Y-96250000D03*
D10*
X149300000Y-40900000D03*
X149300000Y-44100000D03*
X154200000Y-44100000D03*
X154200000Y-40900000D03*
D11*
X178025000Y-115750000D03*
X176475000Y-115750000D03*
D10*
X58050000Y-60900000D03*
X58050000Y-64100000D03*
X62950000Y-64100000D03*
X62950000Y-60900000D03*
X142300000Y-139900000D03*
X142300000Y-143100000D03*
X147200000Y-143100000D03*
X147200000Y-139900000D03*
X102800000Y-60900000D03*
X102800000Y-64100000D03*
X107700000Y-64100000D03*
X107700000Y-60900000D03*
X204300000Y-82400000D03*
X204300000Y-85600000D03*
X209200000Y-85600000D03*
X209200000Y-82400000D03*
D11*
X95275000Y-38750000D03*
X93725000Y-38750000D03*
D10*
X58050000Y-82400000D03*
X58050000Y-85600000D03*
X62950000Y-85600000D03*
X62950000Y-82400000D03*
D11*
X129775000Y-80250000D03*
X128225000Y-80250000D03*
X107775000Y-38750000D03*
X106225000Y-38750000D03*
X152525000Y-58750000D03*
X150975000Y-58750000D03*
X161025000Y-137750000D03*
X159475000Y-137750000D03*
X223775000Y-38750000D03*
X222225000Y-38750000D03*
X223275000Y-80250000D03*
X221725000Y-80250000D03*
D10*
X75550000Y-40900000D03*
X75550000Y-44100000D03*
X80450000Y-44100000D03*
X80450000Y-40900000D03*
X126800000Y-129400000D03*
X126800000Y-132600000D03*
X131700000Y-132600000D03*
X131700000Y-129400000D03*
D11*
X130025000Y-104750000D03*
X128475000Y-104750000D03*
X138025000Y-38750000D03*
X136475000Y-38750000D03*
D10*
X149300000Y-60900000D03*
X149300000Y-64100000D03*
X154200000Y-64100000D03*
X154200000Y-60900000D03*
X111800000Y-117900000D03*
X111800000Y-121100000D03*
X116700000Y-121100000D03*
X116700000Y-117900000D03*
X231550000Y-139900000D03*
X231550000Y-143100000D03*
X236450000Y-143100000D03*
X236450000Y-139900000D03*
X74550000Y-82400000D03*
X74550000Y-85600000D03*
X79450000Y-85600000D03*
X79450000Y-82400000D03*
X219300000Y-117900000D03*
X219300000Y-121100000D03*
X224200000Y-121100000D03*
X224200000Y-117900000D03*
D11*
X180275000Y-58750000D03*
X178725000Y-58750000D03*
D10*
X115300000Y-98400000D03*
X115300000Y-101600000D03*
X120200000Y-101600000D03*
X120200000Y-98400000D03*
X134800000Y-40900000D03*
X134800000Y-44100000D03*
X139700000Y-44100000D03*
X139700000Y-40900000D03*
D11*
X68025000Y-131750000D03*
X66475000Y-131750000D03*
X145525000Y-137750000D03*
X143975000Y-137750000D03*
D10*
X174800000Y-117900000D03*
X174800000Y-121100000D03*
X179700000Y-121100000D03*
X179700000Y-117900000D03*
D11*
X161025000Y-96250000D03*
X159475000Y-96250000D03*
X77775000Y-80250000D03*
X76225000Y-80250000D03*
X207525000Y-58750000D03*
X205975000Y-58750000D03*
D10*
X189550000Y-82400000D03*
X189550000Y-85600000D03*
X194450000Y-85600000D03*
X194450000Y-82400000D03*
D11*
X72275000Y-115750000D03*
X70725000Y-115750000D03*
X207775000Y-137750000D03*
X206225000Y-137750000D03*
D10*
X157800000Y-139900000D03*
X157800000Y-143100000D03*
X162700000Y-143100000D03*
X162700000Y-139900000D03*
D11*
X145525000Y-96250000D03*
X143975000Y-96250000D03*
D10*
X236300000Y-40900000D03*
X236300000Y-44100000D03*
X241200000Y-44100000D03*
X241200000Y-40900000D03*
X114800000Y-139900000D03*
X114800000Y-143100000D03*
X119700000Y-143100000D03*
X119700000Y-139900000D03*
X59550000Y-40900000D03*
X59550000Y-44100000D03*
X64450000Y-44100000D03*
X64450000Y-40900000D03*
D11*
X62775000Y-38750000D03*
X61225000Y-38750000D03*
X118525000Y-96250000D03*
X116975000Y-96250000D03*
X107775000Y-80250000D03*
X106225000Y-80250000D03*
D10*
X142300000Y-117900000D03*
X142300000Y-121100000D03*
X147200000Y-121100000D03*
X147200000Y-117900000D03*
X219300000Y-98400000D03*
X219300000Y-101600000D03*
X224200000Y-101600000D03*
X224200000Y-98400000D03*
X191550000Y-98400000D03*
X191550000Y-101600000D03*
X196450000Y-101600000D03*
X196450000Y-98400000D03*
D11*
X222525000Y-96250000D03*
X220975000Y-96250000D03*
D10*
X69050000Y-117900000D03*
X69050000Y-121100000D03*
X73950000Y-121100000D03*
X73950000Y-117900000D03*
D11*
X68025000Y-103000000D03*
X66475000Y-103000000D03*
D10*
X126550000Y-60900000D03*
X126550000Y-64100000D03*
X131450000Y-64100000D03*
X131450000Y-60900000D03*
X157800000Y-117900000D03*
X157800000Y-121100000D03*
X162700000Y-121100000D03*
X162700000Y-117900000D03*
D11*
X161025000Y-115750000D03*
X159475000Y-115750000D03*
D10*
X92050000Y-40900000D03*
X92050000Y-44100000D03*
X96950000Y-44100000D03*
X96950000Y-40900000D03*
D11*
X207525000Y-80250000D03*
X205975000Y-80250000D03*
X129775000Y-58750000D03*
X128225000Y-58750000D03*
D10*
X77300000Y-98400000D03*
X77300000Y-101600000D03*
X82200000Y-101600000D03*
X82200000Y-98400000D03*
X204300000Y-60900000D03*
X204300000Y-64100000D03*
X209200000Y-64100000D03*
X209200000Y-60900000D03*
D11*
X115025000Y-115750000D03*
X113475000Y-115750000D03*
X152525000Y-80250000D03*
X150975000Y-80250000D03*
D10*
X177050000Y-60900000D03*
X177050000Y-64100000D03*
X181950000Y-64100000D03*
X181950000Y-60900000D03*
D11*
X178025000Y-137750000D03*
X176475000Y-137750000D03*
X78775000Y-38750000D03*
X77225000Y-38750000D03*
D10*
X104550000Y-40900000D03*
X104550000Y-44100000D03*
X109450000Y-44100000D03*
X109450000Y-40900000D03*
D11*
X234775000Y-137750000D03*
X233225000Y-137750000D03*
D10*
X118550000Y-40900000D03*
X118550000Y-44100000D03*
X123450000Y-44100000D03*
X123450000Y-40900000D03*
D11*
X194775000Y-96250000D03*
X193225000Y-96250000D03*
D10*
X92050000Y-60900000D03*
X92050000Y-64100000D03*
X96950000Y-64100000D03*
X96950000Y-60900000D03*
D11*
X207525000Y-38750000D03*
X205975000Y-38750000D03*
X222525000Y-115750000D03*
X220975000Y-115750000D03*
X152525000Y-38750000D03*
X150975000Y-38750000D03*
D10*
X228550000Y-60900000D03*
X228550000Y-64100000D03*
X233450000Y-64100000D03*
X233450000Y-60900000D03*
D11*
X95275000Y-80250000D03*
X93725000Y-80250000D03*
X121775000Y-38750000D03*
X120225000Y-38750000D03*
X118025000Y-137750000D03*
X116475000Y-137750000D03*
X165275000Y-38750000D03*
X163725000Y-38750000D03*
D10*
X126550000Y-82400000D03*
X126550000Y-85600000D03*
X131450000Y-85600000D03*
X131450000Y-82400000D03*
X191550000Y-117900000D03*
X191550000Y-121100000D03*
X196450000Y-121100000D03*
X196450000Y-117900000D03*
D11*
X78775000Y-58750000D03*
X77225000Y-58750000D03*
D10*
X162050000Y-40900000D03*
X162050000Y-44100000D03*
X166950000Y-44100000D03*
X166950000Y-40900000D03*
D11*
X194775000Y-115750000D03*
X193225000Y-115750000D03*
X194775000Y-137750000D03*
X193225000Y-137750000D03*
D10*
X204550000Y-139900000D03*
X204550000Y-143100000D03*
X209450000Y-143100000D03*
X209450000Y-139900000D03*
D11*
X162775000Y-58750000D03*
X161225000Y-58750000D03*
X61275000Y-58750000D03*
X59725000Y-58750000D03*
D10*
X157800000Y-98400000D03*
X157800000Y-101600000D03*
X162700000Y-101600000D03*
X162700000Y-98400000D03*
X219300000Y-139900000D03*
X219300000Y-143100000D03*
X224200000Y-143100000D03*
X224200000Y-139900000D03*
X177050000Y-82400000D03*
X177050000Y-85600000D03*
X181950000Y-85600000D03*
X181950000Y-82400000D03*
X191550000Y-139900000D03*
X191550000Y-143100000D03*
X196450000Y-143100000D03*
X196450000Y-139900000D03*
D11*
X180275000Y-80250000D03*
X178725000Y-80250000D03*
D10*
X220050000Y-82400000D03*
X220050000Y-85600000D03*
X224950000Y-85600000D03*
X224950000Y-82400000D03*
D11*
X61275000Y-80250000D03*
X59725000Y-80250000D03*
D10*
X159550000Y-60900000D03*
X159550000Y-64100000D03*
X164450000Y-64100000D03*
X164450000Y-60900000D03*
X236300000Y-82400000D03*
X236300000Y-85600000D03*
X241200000Y-85600000D03*
X241200000Y-82400000D03*
X142300000Y-98400000D03*
X142300000Y-101600000D03*
X147200000Y-101600000D03*
X147200000Y-98400000D03*
D11*
X80525000Y-96250000D03*
X78975000Y-96250000D03*
X239525000Y-80250000D03*
X237975000Y-80250000D03*
D10*
X64800000Y-105150000D03*
X64800000Y-108350000D03*
X69700000Y-108350000D03*
X69700000Y-105150000D03*
D11*
X222525000Y-137750000D03*
X220975000Y-137750000D03*
D10*
X204300000Y-40900000D03*
X204300000Y-44100000D03*
X209200000Y-44100000D03*
X209200000Y-40900000D03*
X174800000Y-139900000D03*
X174800000Y-143100000D03*
X179700000Y-143100000D03*
X179700000Y-139900000D03*
D11*
X145525000Y-115750000D03*
X143975000Y-115750000D03*
D10*
X79800000Y-139900000D03*
X79800000Y-143100000D03*
X84700000Y-143100000D03*
X84700000Y-139900000D03*
D11*
X192775000Y-80250000D03*
X191225000Y-80250000D03*
X239525000Y-38750000D03*
X237975000Y-38750000D03*
D10*
X220550000Y-40900000D03*
X220550000Y-44100000D03*
X225450000Y-44100000D03*
X225450000Y-40900000D03*
X174800000Y-98400000D03*
X174800000Y-101600000D03*
X179700000Y-101600000D03*
X179700000Y-98400000D03*
D11*
X180275000Y-38750000D03*
X178725000Y-38750000D03*
D10*
X92050000Y-82400000D03*
X92050000Y-85600000D03*
X96950000Y-85600000D03*
X96950000Y-82400000D03*
D12*
X101200000Y-48400000D03*
X101200000Y-50940000D03*
X101200000Y-53480000D03*
X101200000Y-56020000D03*
D13*
X218100000Y-133300000D03*
D14*
X215560000Y-133300000D03*
D15*
X67000000Y-40900000D03*
X181500000Y-58750000D03*
X225750000Y-143000000D03*
X96750000Y-80250000D03*
X211000000Y-143000000D03*
X84750000Y-115750000D03*
X119750000Y-96250000D03*
X155750000Y-64000000D03*
X164250000Y-101500000D03*
X107250000Y-58750000D03*
X238805853Y-79173837D03*
X96500000Y-38750000D03*
X109250000Y-64000000D03*
X208750000Y-38750000D03*
X109000000Y-38750000D03*
X83750000Y-101500000D03*
X210750000Y-44000000D03*
X209000000Y-137750000D03*
X141250000Y-44250000D03*
X226500000Y-85500000D03*
X225000000Y-38750000D03*
X227000000Y-44000000D03*
X69250000Y-131750000D03*
X80000000Y-38750000D03*
X81750000Y-96250000D03*
X81000000Y-85500000D03*
X86250000Y-143000000D03*
X234750000Y-139000000D03*
X196000000Y-96250000D03*
X139250000Y-38750000D03*
X181250000Y-101500000D03*
X181250000Y-121000000D03*
X224500000Y-80250000D03*
X223750000Y-96250000D03*
X146750000Y-96250000D03*
X210750000Y-85500000D03*
X239750000Y-44000000D03*
X111000000Y-44000000D03*
X183500000Y-44000000D03*
X121750000Y-101500000D03*
X146750000Y-137750000D03*
X223750000Y-115750000D03*
X131250000Y-104750000D03*
X233000000Y-58750000D03*
X198000000Y-121000000D03*
X98500000Y-85500000D03*
X96500000Y-58750000D03*
X162250000Y-137750000D03*
X133000000Y-64000000D03*
X62500000Y-80250000D03*
X133250000Y-132500000D03*
X208750000Y-58750000D03*
X179250000Y-115750000D03*
X198000000Y-101500000D03*
X116250000Y-115750000D03*
X210750000Y-64000000D03*
X82000000Y-44000000D03*
X133250000Y-110000000D03*
X71250000Y-137000000D03*
X73500000Y-115750000D03*
X123000000Y-38750000D03*
X131000000Y-58750000D03*
X162250000Y-115750000D03*
X131000000Y-80250000D03*
X181500000Y-38750000D03*
X179250000Y-137750000D03*
X69250000Y-103000000D03*
X164000000Y-58750000D03*
X98500000Y-64000000D03*
X84250000Y-137750000D03*
X194000000Y-80250000D03*
X223750000Y-137750000D03*
X121250000Y-143000000D03*
X164250000Y-121000000D03*
X109250000Y-80250000D03*
X64000000Y-38750000D03*
X179250000Y-96250000D03*
X164250000Y-143000000D03*
X80000000Y-58750000D03*
X181500000Y-80250000D03*
X168500000Y-44000000D03*
X133250000Y-85500000D03*
X71250000Y-108250000D03*
X222750000Y-101500000D03*
X208750000Y-80250000D03*
X98500000Y-44000000D03*
X64500000Y-64000000D03*
X75500000Y-121000000D03*
X235000000Y-143000000D03*
X79000000Y-80250000D03*
X62500000Y-58750000D03*
X235000000Y-64000000D03*
X131250000Y-127250000D03*
X181250000Y-143000000D03*
X148750000Y-143000000D03*
X222750000Y-121000000D03*
X148750000Y-101500000D03*
X153750000Y-58750000D03*
X146750000Y-115750000D03*
X196000000Y-115750000D03*
X111250000Y-85500000D03*
X162250000Y-96250000D03*
X166000000Y-64000000D03*
X183500000Y-85500000D03*
X118250000Y-121000000D03*
X166500000Y-38750000D03*
X148750000Y-121000000D03*
X125000000Y-44000000D03*
X119250000Y-137750000D03*
X66000000Y-44000000D03*
X198000000Y-143000000D03*
X196000000Y-85500000D03*
X239500000Y-85500000D03*
X155750000Y-85500000D03*
X64500000Y-85500000D03*
X153750000Y-38750000D03*
X155750000Y-44000000D03*
X240750000Y-38750000D03*
X153750000Y-80250000D03*
X86750000Y-121000000D03*
X82000000Y-64000000D03*
X183500000Y-64000000D03*
X196000000Y-137750000D03*
X98925000Y-136675000D03*
X164175000Y-114675000D03*
X213325000Y-79175000D03*
X87700000Y-38200000D03*
X159000000Y-38200000D03*
X164075000Y-136675000D03*
X213950000Y-39750000D03*
X213200000Y-95200000D03*
X98775000Y-79175000D03*
X99525000Y-95175000D03*
X98900000Y-129400000D03*
X163700000Y-79000000D03*
X98825000Y-114675000D03*
X214075000Y-57675000D03*
X99200000Y-104900000D03*
X98625000Y-57675000D03*
X164325000Y-95175000D03*
X165475000Y-57675000D03*
X213800000Y-114700000D03*
D16*
X64450000Y-40900000D02*
X67000000Y-40900000D01*
D17*
X121775000Y-38750000D02*
X123000000Y-38750000D01*
X180275000Y-80250000D02*
X181500000Y-80250000D01*
X81900000Y-44100000D02*
X82000000Y-44000000D01*
X130025000Y-104750000D02*
X131250000Y-104750000D01*
X222850000Y-101600000D02*
X222750000Y-101500000D01*
X178025000Y-115750000D02*
X179250000Y-115750000D01*
X98400000Y-44100000D02*
X98500000Y-44000000D01*
X124900000Y-44100000D02*
X125000000Y-44000000D01*
X194450000Y-85600000D02*
X195900000Y-85600000D01*
X79450000Y-85600000D02*
X80900000Y-85600000D01*
X96950000Y-44100000D02*
X98400000Y-44100000D01*
X226900000Y-44100000D02*
X225450000Y-44100000D01*
X98500000Y-64000000D02*
X98400000Y-64100000D01*
X210650000Y-64100000D02*
X210750000Y-64000000D01*
X209200000Y-64100000D02*
X210650000Y-64100000D01*
X119700000Y-143100000D02*
X121150000Y-143100000D01*
X129775000Y-58750000D02*
X131000000Y-58750000D01*
X181950000Y-44100000D02*
X183400000Y-44100000D01*
X133150000Y-132600000D02*
X133250000Y-132500000D01*
X239850000Y-44100000D02*
X239750000Y-44000000D01*
X181950000Y-85600000D02*
X183400000Y-85600000D01*
X239525000Y-38750000D02*
X240750000Y-38750000D01*
X166000000Y-64000000D02*
X165900000Y-64100000D01*
X154200000Y-85600000D02*
X155650000Y-85600000D01*
X130025000Y-127250000D02*
X131250000Y-127250000D01*
X129775000Y-80250000D02*
X131000000Y-80250000D01*
X195900000Y-85600000D02*
X196000000Y-85500000D01*
X152525000Y-58750000D02*
X153750000Y-58750000D01*
X78775000Y-38750000D02*
X80000000Y-38750000D01*
X85200000Y-121100000D02*
X86650000Y-121100000D01*
X148650000Y-101600000D02*
X148750000Y-101500000D01*
X111150000Y-85600000D02*
X111250000Y-85500000D01*
X162250000Y-96250000D02*
X161025000Y-96250000D01*
X222850000Y-121100000D02*
X222750000Y-121000000D01*
X239600000Y-85600000D02*
X239500000Y-85500000D01*
X118525000Y-96250000D02*
X119750000Y-96250000D01*
X77775000Y-80250000D02*
X79000000Y-80250000D01*
X235100000Y-143100000D02*
X235000000Y-143000000D01*
X86150000Y-143100000D02*
X86250000Y-143000000D01*
X227000000Y-44000000D02*
X226900000Y-44100000D01*
X222525000Y-96250000D02*
X223750000Y-96250000D01*
X225650000Y-143100000D02*
X225750000Y-143000000D01*
X224950000Y-85600000D02*
X226400000Y-85600000D01*
X148650000Y-143100000D02*
X148750000Y-143000000D01*
X121150000Y-143100000D02*
X121250000Y-143000000D01*
X86650000Y-121100000D02*
X86750000Y-121000000D01*
X209200000Y-85600000D02*
X210650000Y-85600000D01*
X197900000Y-121100000D02*
X198000000Y-121000000D01*
X226400000Y-85600000D02*
X226500000Y-85500000D01*
X179700000Y-121100000D02*
X181150000Y-121100000D01*
X234775000Y-138975000D02*
X234750000Y-139000000D01*
X223775000Y-38750000D02*
X225000000Y-38750000D01*
X196450000Y-143100000D02*
X197900000Y-143100000D01*
X95275000Y-80250000D02*
X96750000Y-80250000D01*
X181150000Y-143100000D02*
X181250000Y-143000000D01*
X116700000Y-121100000D02*
X118150000Y-121100000D01*
X80900000Y-85600000D02*
X81000000Y-85500000D01*
X145525000Y-137750000D02*
X146750000Y-137750000D01*
X69700000Y-137100000D02*
X71150000Y-137100000D01*
X118150000Y-121100000D02*
X118250000Y-121000000D01*
X109450000Y-44100000D02*
X110900000Y-44100000D01*
X207525000Y-58750000D02*
X208750000Y-58750000D01*
X164150000Y-143100000D02*
X164250000Y-143000000D01*
X241200000Y-85600000D02*
X239600000Y-85600000D01*
X224200000Y-143100000D02*
X225650000Y-143100000D01*
X161025000Y-137750000D02*
X162250000Y-137750000D01*
X61275000Y-58750000D02*
X62500000Y-58750000D01*
X147200000Y-143100000D02*
X148650000Y-143100000D01*
X165275000Y-38750000D02*
X166500000Y-38750000D01*
X194775000Y-96250000D02*
X196000000Y-96250000D01*
X109450000Y-85600000D02*
X111150000Y-85600000D01*
X152525000Y-80250000D02*
X153750000Y-80250000D01*
X133150000Y-85600000D02*
X133250000Y-85500000D01*
X164150000Y-101600000D02*
X164250000Y-101500000D01*
X179700000Y-101600000D02*
X181150000Y-101600000D01*
X233450000Y-64100000D02*
X234900000Y-64100000D01*
X131450000Y-64100000D02*
X132900000Y-64100000D01*
X83525000Y-115750000D02*
X84750000Y-115750000D01*
X83650000Y-101600000D02*
X83750000Y-101500000D01*
X194775000Y-137750000D02*
X196000000Y-137750000D01*
X95275000Y-58750000D02*
X96500000Y-58750000D01*
X141100000Y-44100000D02*
X141250000Y-44250000D01*
X224200000Y-121100000D02*
X222850000Y-121100000D01*
X192775000Y-80250000D02*
X194000000Y-80250000D01*
X73950000Y-121100000D02*
X75400000Y-121100000D01*
X62950000Y-85600000D02*
X64400000Y-85600000D01*
X209200000Y-44100000D02*
X210650000Y-44100000D01*
X223275000Y-80250000D02*
X224500000Y-80250000D01*
X115025000Y-115750000D02*
X116250000Y-115750000D01*
X123450000Y-44100000D02*
X124900000Y-44100000D01*
X224200000Y-101600000D02*
X222850000Y-101600000D01*
X107775000Y-38750000D02*
X109000000Y-38750000D01*
X207525000Y-38750000D02*
X208750000Y-38750000D01*
X107700000Y-64100000D02*
X109150000Y-64100000D01*
X68025000Y-131750000D02*
X69250000Y-131750000D01*
X210650000Y-85600000D02*
X210750000Y-85500000D01*
X64450000Y-44100000D02*
X65900000Y-44100000D01*
X207775000Y-137750000D02*
X209000000Y-137750000D01*
X118025000Y-137750000D02*
X119250000Y-137750000D01*
X145525000Y-96250000D02*
X146750000Y-96250000D01*
X180275000Y-58750000D02*
X181500000Y-58750000D01*
X155650000Y-85600000D02*
X155750000Y-85500000D01*
X133150000Y-110100000D02*
X133250000Y-110000000D01*
X152525000Y-38750000D02*
X153750000Y-38750000D01*
X161025000Y-115750000D02*
X162250000Y-115750000D01*
X197900000Y-143100000D02*
X198000000Y-143000000D01*
X234775000Y-137750000D02*
X234775000Y-138975000D01*
X181150000Y-121100000D02*
X181250000Y-121000000D01*
X164150000Y-121100000D02*
X164250000Y-121000000D01*
X222525000Y-115750000D02*
X223750000Y-115750000D01*
X239525000Y-79892984D02*
X238805853Y-79173837D01*
X98400000Y-64100000D02*
X96950000Y-64100000D01*
X179250000Y-96250000D02*
X178025000Y-96250000D01*
X80450000Y-44100000D02*
X81900000Y-44100000D01*
X75400000Y-121100000D02*
X75500000Y-121000000D01*
X147200000Y-101600000D02*
X148650000Y-101600000D01*
X145525000Y-115750000D02*
X146750000Y-115750000D01*
X183400000Y-64100000D02*
X183500000Y-64000000D01*
X197900000Y-101600000D02*
X198000000Y-101500000D01*
X68025000Y-103000000D02*
X69250000Y-103000000D01*
X162775000Y-58750000D02*
X164000000Y-58750000D01*
X107775000Y-80250000D02*
X109250000Y-80250000D01*
X83025000Y-137750000D02*
X84250000Y-137750000D01*
X69700000Y-108350000D02*
X71150000Y-108350000D01*
X61275000Y-80250000D02*
X62500000Y-80250000D01*
X95275000Y-38750000D02*
X96500000Y-38750000D01*
X121650000Y-101600000D02*
X121750000Y-101500000D01*
X210650000Y-44100000D02*
X210750000Y-44000000D01*
X222525000Y-137750000D02*
X223750000Y-137750000D01*
X131450000Y-85600000D02*
X133150000Y-85600000D01*
X154200000Y-64100000D02*
X155650000Y-64100000D01*
X183400000Y-85600000D02*
X183500000Y-85500000D01*
X236450000Y-143100000D02*
X235100000Y-143100000D01*
X98400000Y-85600000D02*
X98500000Y-85500000D01*
X154200000Y-44100000D02*
X155650000Y-44100000D01*
X196450000Y-121100000D02*
X197900000Y-121100000D01*
X179700000Y-143100000D02*
X181150000Y-143100000D01*
X110900000Y-44100000D02*
X111000000Y-44000000D01*
X132900000Y-64100000D02*
X133000000Y-64000000D01*
X72275000Y-115750000D02*
X73500000Y-115750000D01*
X78775000Y-58750000D02*
X80000000Y-58750000D01*
X168400000Y-44100000D02*
X168500000Y-44000000D01*
X155650000Y-44100000D02*
X155750000Y-44000000D01*
X183400000Y-44100000D02*
X183500000Y-44000000D01*
X65900000Y-44100000D02*
X66000000Y-44000000D01*
X194775000Y-115750000D02*
X196000000Y-115750000D01*
X81900000Y-64100000D02*
X82000000Y-64000000D01*
X231775000Y-58750000D02*
X233000000Y-58750000D01*
X239525000Y-80250000D02*
X239525000Y-79892984D01*
X71150000Y-108350000D02*
X71250000Y-108250000D01*
X207525000Y-80250000D02*
X208750000Y-80250000D01*
X62775000Y-38750000D02*
X64000000Y-38750000D01*
X178025000Y-137750000D02*
X179250000Y-137750000D01*
X196450000Y-101600000D02*
X197900000Y-101600000D01*
X181150000Y-101600000D02*
X181250000Y-101500000D01*
X211000000Y-143000000D02*
X210900000Y-143100000D01*
X210900000Y-143100000D02*
X209450000Y-143100000D01*
X241200000Y-44100000D02*
X239850000Y-44100000D01*
X82200000Y-101600000D02*
X83650000Y-101600000D01*
X64400000Y-64100000D02*
X64500000Y-64000000D01*
X139700000Y-44100000D02*
X141100000Y-44100000D01*
X106025000Y-58750000D02*
X107250000Y-58750000D01*
X96950000Y-85600000D02*
X98400000Y-85600000D01*
X147200000Y-121100000D02*
X148650000Y-121100000D01*
X181950000Y-64100000D02*
X183400000Y-64100000D01*
X162700000Y-121100000D02*
X164150000Y-121100000D01*
X120200000Y-101600000D02*
X121650000Y-101600000D01*
X64400000Y-85600000D02*
X64500000Y-85500000D01*
X62950000Y-64100000D02*
X64400000Y-64100000D01*
X155650000Y-64100000D02*
X155750000Y-64000000D01*
X148650000Y-121100000D02*
X148750000Y-121000000D01*
X109150000Y-64100000D02*
X109250000Y-64000000D01*
X80450000Y-64100000D02*
X81900000Y-64100000D01*
X71150000Y-137100000D02*
X71250000Y-137000000D01*
X131700000Y-132600000D02*
X133150000Y-132600000D01*
X162700000Y-143100000D02*
X164150000Y-143100000D01*
X234900000Y-64100000D02*
X235000000Y-64000000D01*
X166950000Y-44100000D02*
X168400000Y-44100000D01*
X180275000Y-38750000D02*
X181500000Y-38750000D01*
X80525000Y-96250000D02*
X81750000Y-96250000D01*
X165900000Y-64100000D02*
X164450000Y-64100000D01*
X84700000Y-143100000D02*
X86150000Y-143100000D01*
X138025000Y-38750000D02*
X139250000Y-38750000D01*
X162700000Y-101600000D02*
X164150000Y-101600000D01*
X131700000Y-110100000D02*
X133150000Y-110100000D01*
X113475000Y-115658274D02*
X114458274Y-114675000D01*
X189550000Y-81925000D02*
X191225000Y-80250000D01*
X185064214Y-40900000D02*
X204300000Y-40900000D01*
X142900000Y-114675000D02*
X143975000Y-115750000D01*
X106225000Y-38658274D02*
X107208274Y-37675000D01*
X60225000Y-60625000D02*
X61600000Y-62000000D01*
X176475000Y-96158274D02*
X177458274Y-95175000D01*
X208260786Y-39825000D02*
X208335786Y-39750000D01*
X70725000Y-115658274D02*
X71708274Y-114675000D01*
X104475000Y-58750000D02*
X104475000Y-59225000D01*
X69050000Y-117900000D02*
X69050000Y-117425000D01*
X233225000Y-137750000D02*
X232150000Y-136675000D01*
X71708274Y-114675000D02*
X80900000Y-114675000D01*
X58050000Y-60425000D02*
X59725000Y-58750000D01*
X193585786Y-79250000D02*
X193510786Y-79175000D01*
X192150000Y-114675000D02*
X177458274Y-114675000D01*
X127150000Y-57675000D02*
X128225000Y-58750000D01*
X61600000Y-62000000D02*
X74450000Y-62000000D01*
X160458274Y-114675000D02*
X175400000Y-114675000D01*
X93725000Y-38750000D02*
X93725000Y-39225000D01*
X115900000Y-95175000D02*
X116975000Y-96250000D01*
X74450000Y-62000000D02*
X75550000Y-60900000D01*
X179708274Y-39825000D02*
X180841726Y-39825000D01*
X193225000Y-115658274D02*
X193225000Y-115750000D01*
X206958274Y-57675000D02*
X229150000Y-57675000D01*
X157800000Y-117425000D02*
X159475000Y-115750000D01*
X143975000Y-96158274D02*
X144958274Y-95175000D01*
X178725000Y-59225000D02*
X177050000Y-60900000D01*
X205975000Y-39225000D02*
X204300000Y-40900000D01*
X129208274Y-57675000D02*
X149900000Y-57675000D01*
X205975000Y-80250000D02*
X205975000Y-80158274D01*
X159475000Y-96158274D02*
X160458274Y-95175000D01*
X64800000Y-105150000D02*
X66475000Y-103475000D01*
X136475000Y-38750000D02*
X136475000Y-39225000D01*
X194208274Y-136675000D02*
X205150000Y-136675000D01*
X183914214Y-39750000D02*
X185064214Y-40900000D01*
X159475000Y-137750000D02*
X159475000Y-138225000D01*
X219300000Y-117425000D02*
X220975000Y-115750000D01*
X93725000Y-58658274D02*
X94708274Y-57675000D01*
X175400000Y-114675000D02*
X176475000Y-115750000D01*
X75900000Y-136000000D02*
X79800000Y-139900000D01*
X142725000Y-136500000D02*
X143975000Y-137750000D01*
X116475000Y-137750000D02*
X116475000Y-137658274D01*
X221725000Y-80250000D02*
X221725000Y-80158274D01*
X174800000Y-139900000D02*
X174800000Y-139425000D01*
X221725000Y-80158274D02*
X222708274Y-79175000D01*
X163725000Y-38658274D02*
X164708274Y-37675000D01*
X160458274Y-95175000D02*
X175400000Y-95175000D01*
X223208274Y-39825000D02*
X224341726Y-39825000D01*
X230225000Y-59225000D02*
X228550000Y-60900000D01*
X108366726Y-37700000D02*
X119175000Y-37700000D01*
X177650000Y-37675000D02*
X178725000Y-38750000D01*
X162575000Y-37600000D02*
X163725000Y-38750000D01*
X164708274Y-37675000D02*
X177650000Y-37675000D01*
X205740000Y-80485000D02*
X205975000Y-80250000D01*
X180841726Y-39825000D02*
X180916726Y-39750000D01*
X77225000Y-38750000D02*
X77225000Y-39225000D01*
X206225000Y-137750000D02*
X206225000Y-138225000D01*
X135400000Y-37675000D02*
X136475000Y-38750000D01*
X78208274Y-57675000D02*
X92650000Y-57675000D01*
X205975000Y-58750000D02*
X205975000Y-58658274D01*
X222225000Y-38750000D02*
X222225000Y-39225000D01*
X66475000Y-131750000D02*
X66475000Y-132225000D01*
X77225000Y-58750000D02*
X77225000Y-58658274D01*
X219300000Y-117900000D02*
X219300000Y-117425000D01*
X120225000Y-38750000D02*
X120225000Y-38658274D01*
X178725000Y-58750000D02*
X178725000Y-59225000D01*
X159475000Y-138225000D02*
X157800000Y-139900000D01*
X70725000Y-115750000D02*
X70725000Y-115658274D01*
X80900000Y-114675000D02*
X81975000Y-115750000D01*
X194208274Y-95175000D02*
X213175000Y-95175000D01*
X236300000Y-82400000D02*
X236300000Y-81925000D01*
X77208274Y-79175000D02*
X92650000Y-79175000D01*
X193510786Y-79175000D02*
X192208274Y-79175000D01*
X150975000Y-38750000D02*
X150975000Y-39225000D01*
X193225000Y-137658274D02*
X194208274Y-136675000D01*
X206225000Y-138225000D02*
X204550000Y-139900000D01*
X149900000Y-57675000D02*
X150975000Y-58750000D01*
X94708274Y-79175000D02*
X98775000Y-79175000D01*
X178725000Y-38750000D02*
X178725000Y-39225000D01*
X208335786Y-39750000D02*
X219400000Y-39750000D01*
X176475000Y-137658274D02*
X177458274Y-136675000D01*
X104475000Y-58658274D02*
X105458274Y-57675000D01*
X92650000Y-79175000D02*
X93725000Y-80250000D01*
X94708274Y-37675000D02*
X95841726Y-37675000D01*
X106225000Y-80250000D02*
X105150000Y-79175000D01*
X206958274Y-39825000D02*
X208260786Y-39825000D01*
X78975000Y-96158274D02*
X79958274Y-95175000D01*
X136475000Y-38658274D02*
X137458274Y-37675000D01*
X87775000Y-38125000D02*
X87700000Y-38200000D01*
X237975000Y-39225000D02*
X236300000Y-40900000D01*
X77225000Y-39225000D02*
X75550000Y-40900000D01*
X149300000Y-82400000D02*
X150720000Y-80980000D01*
X143730000Y-96970000D02*
X143730000Y-96495000D01*
X116975000Y-96250000D02*
X116975000Y-96158274D01*
X205975000Y-59225000D02*
X204300000Y-60900000D01*
X93725000Y-38750000D02*
X93725000Y-38658274D01*
X80300000Y-117900000D02*
X80300000Y-117425000D01*
X205975000Y-38841726D02*
X206958274Y-39825000D01*
X150975000Y-39225000D02*
X149300000Y-40900000D01*
X92650000Y-37675000D02*
X93725000Y-38750000D01*
X176475000Y-115658274D02*
X176475000Y-115750000D01*
X106225000Y-38750000D02*
X106225000Y-38658274D01*
X128225000Y-80158274D02*
X129208274Y-79175000D01*
X115300000Y-98400000D02*
X115300000Y-98390000D01*
X81475000Y-137750000D02*
X81475000Y-137658274D01*
X61225000Y-38750000D02*
X61225000Y-38658274D01*
X233225000Y-137750000D02*
X233225000Y-138225000D01*
X58050000Y-82400000D02*
X58050000Y-81925000D01*
X159475000Y-137750000D02*
X159475000Y-137658274D01*
X206958274Y-79175000D02*
X220650000Y-79175000D01*
X191550000Y-117900000D02*
X191550000Y-117425000D01*
X95841726Y-37675000D02*
X95866726Y-37700000D01*
X180916726Y-39750000D02*
X183914214Y-39750000D01*
X75000000Y-105000000D02*
X124900000Y-105000000D01*
X103400000Y-57675000D02*
X98625000Y-57675000D01*
X82458274Y-136675000D02*
X115400000Y-136675000D01*
X177458274Y-95175000D02*
X192150000Y-95175000D01*
X204300000Y-82400000D02*
X205740000Y-80960000D01*
X222225000Y-39225000D02*
X220550000Y-40900000D01*
X192208274Y-79175000D02*
X191225000Y-80158274D01*
X175400000Y-95175000D02*
X176475000Y-96250000D01*
X120225000Y-38658274D02*
X121208274Y-37675000D01*
X143730000Y-96495000D02*
X143975000Y-96250000D01*
X79800000Y-139425000D02*
X81475000Y-137750000D01*
X236900000Y-79175000D02*
X237975000Y-80250000D01*
X150975000Y-38658274D02*
X152033274Y-37600000D01*
X237975000Y-38750000D02*
X237975000Y-39225000D01*
X77300000Y-97925000D02*
X78975000Y-96250000D01*
X159475000Y-137658274D02*
X160458274Y-136675000D01*
X143975000Y-137658274D02*
X144958274Y-136675000D01*
X61225000Y-38750000D02*
X61225000Y-39225000D01*
X178725000Y-58658274D02*
X179708274Y-57675000D01*
X205975000Y-38750000D02*
X205975000Y-38841726D01*
X178725000Y-80158274D02*
X179708274Y-79175000D01*
X220975000Y-137275000D02*
X220975000Y-137750000D01*
X150975000Y-80158274D02*
X152133274Y-79000000D01*
X206225000Y-137658274D02*
X207208274Y-136675000D01*
X105175000Y-37700000D02*
X106225000Y-38750000D01*
X113475000Y-115750000D02*
X113475000Y-115658274D01*
X120225000Y-39225000D02*
X118550000Y-40900000D01*
X116475000Y-137750000D02*
X116475000Y-138225000D01*
X87775000Y-37675000D02*
X87775000Y-38125000D01*
X150975000Y-58750000D02*
X150975000Y-59225000D01*
X105458274Y-57675000D02*
X127150000Y-57675000D01*
X81475000Y-137658274D02*
X82458274Y-136675000D01*
X106225000Y-80250000D02*
X106225000Y-80158274D01*
X150975000Y-80250000D02*
X150975000Y-80158274D01*
X157800000Y-117900000D02*
X157800000Y-117425000D01*
X92050000Y-82400000D02*
X93725000Y-80725000D01*
X142300000Y-117900000D02*
X142300000Y-117425000D01*
X114458274Y-114675000D02*
X142900000Y-114675000D01*
X192150000Y-136675000D02*
X193225000Y-137750000D01*
X191225000Y-80158274D02*
X191225000Y-80250000D01*
X137458274Y-37675000D02*
X149900000Y-37675000D01*
X58050000Y-60900000D02*
X58050000Y-60425000D01*
X78975000Y-96250000D02*
X78975000Y-96158274D01*
X116475000Y-137658274D02*
X117633274Y-136500000D01*
X158400000Y-114675000D02*
X159475000Y-115750000D01*
X213775000Y-135085000D02*
X215560000Y-133300000D01*
X219300000Y-97925000D02*
X220975000Y-96250000D01*
X82958274Y-114675000D02*
X98825000Y-114675000D01*
X221575000Y-136675000D02*
X220975000Y-137275000D01*
X160458274Y-136675000D02*
X175400000Y-136675000D01*
X74550000Y-82400000D02*
X74550000Y-81925000D01*
X93725000Y-80725000D02*
X93725000Y-80250000D01*
X149900000Y-37675000D02*
X150975000Y-38750000D01*
X160150000Y-57675000D02*
X161225000Y-58750000D01*
X193225000Y-96158274D02*
X194208274Y-95175000D01*
X142300000Y-117425000D02*
X143975000Y-115750000D01*
X119175000Y-37700000D02*
X120225000Y-38750000D01*
X128225000Y-58750000D02*
X128225000Y-58658274D01*
X74550000Y-81925000D02*
X76225000Y-80250000D01*
X93725000Y-58750000D02*
X93725000Y-58658274D01*
X60800000Y-83500000D02*
X59700000Y-82400000D01*
X190150000Y-79175000D02*
X191225000Y-80250000D01*
X128225000Y-58658274D02*
X129208274Y-57675000D01*
X66475000Y-131658274D02*
X68733274Y-129400000D01*
X59700000Y-82400000D02*
X58050000Y-82400000D01*
X163725000Y-38750000D02*
X163725000Y-39225000D01*
X213775000Y-136675000D02*
X219900000Y-136675000D01*
X174800000Y-139425000D02*
X176475000Y-137750000D01*
X59725000Y-58750000D02*
X59725000Y-58658274D01*
X207208274Y-136675000D02*
X213775000Y-136675000D01*
X221725000Y-80725000D02*
X221725000Y-80250000D01*
X111800000Y-117425000D02*
X113475000Y-115750000D01*
X129208274Y-79175000D02*
X149900000Y-79175000D01*
X175400000Y-136675000D02*
X176475000Y-137750000D01*
X159000000Y-37600000D02*
X159000000Y-38200000D01*
X143975000Y-96250000D02*
X143975000Y-96158274D01*
X93725000Y-58750000D02*
X93725000Y-59225000D01*
X205975000Y-58658274D02*
X206958274Y-57675000D01*
X161225000Y-58750000D02*
X161225000Y-59225000D01*
X219900000Y-95175000D02*
X220975000Y-96250000D01*
X193225000Y-137750000D02*
X193225000Y-138225000D01*
X121208274Y-37675000D02*
X135400000Y-37675000D01*
X80300000Y-117425000D02*
X81975000Y-115750000D01*
X159000000Y-37600000D02*
X162575000Y-37600000D01*
X195585786Y-114750000D02*
X195510786Y-114675000D01*
X220975000Y-138225000D02*
X219300000Y-139900000D01*
X64800000Y-133900000D02*
X66900000Y-136000000D01*
X176475000Y-96250000D02*
X176475000Y-96158274D01*
X117633274Y-136500000D02*
X142725000Y-136500000D01*
X128225000Y-58750000D02*
X128225000Y-59225000D01*
X220050000Y-82400000D02*
X221725000Y-80725000D01*
X206225000Y-137750000D02*
X206225000Y-137658274D01*
X178725000Y-39225000D02*
X177050000Y-40900000D01*
X174800000Y-98400000D02*
X176475000Y-96725000D01*
X195510786Y-114675000D02*
X194208274Y-114675000D01*
X143975000Y-137750000D02*
X143975000Y-137658274D01*
X105150000Y-79175000D02*
X98775000Y-79175000D01*
X81975000Y-115658274D02*
X82958274Y-114675000D01*
X66475000Y-131750000D02*
X66475000Y-131658274D01*
X222708274Y-79175000D02*
X236900000Y-79175000D01*
X77225000Y-38750000D02*
X77225000Y-38658274D01*
X178470000Y-80980000D02*
X178470000Y-80505000D01*
X178470000Y-80505000D02*
X178725000Y-80250000D01*
X219900000Y-136675000D02*
X220975000Y-137750000D01*
X205975000Y-80250000D02*
X204975000Y-79250000D01*
X115300000Y-98390000D02*
X116975000Y-96715000D01*
X151958274Y-57675000D02*
X160150000Y-57675000D01*
X104550000Y-82400000D02*
X106225000Y-80725000D01*
X159475000Y-96725000D02*
X159475000Y-96250000D01*
X93725000Y-80158274D02*
X94708274Y-79175000D01*
X128475000Y-127250000D02*
X128475000Y-127725000D01*
X193225000Y-96725000D02*
X193225000Y-96250000D01*
X193225000Y-137750000D02*
X193225000Y-137658274D01*
X126800000Y-106425000D02*
X128475000Y-104750000D01*
X229150000Y-57675000D02*
X230225000Y-58750000D01*
X79958274Y-95175000D02*
X115900000Y-95175000D01*
X224416726Y-39750000D02*
X235150000Y-39750000D01*
X66475000Y-103475000D02*
X66475000Y-103000000D01*
X193225000Y-138225000D02*
X191550000Y-139900000D01*
X143975000Y-137750000D02*
X143975000Y-138225000D01*
X104475000Y-59225000D02*
X102800000Y-60900000D01*
X178725000Y-38750000D02*
X178725000Y-38841726D01*
X177050000Y-82400000D02*
X178470000Y-80980000D01*
X124900000Y-105000000D02*
X126800000Y-106900000D01*
X205975000Y-58750000D02*
X205975000Y-59225000D01*
X159475000Y-96250000D02*
X159475000Y-96158274D01*
X150720000Y-80980000D02*
X150720000Y-80505000D01*
X104475000Y-58750000D02*
X104475000Y-58658274D01*
X150975000Y-58658274D02*
X151958274Y-57675000D01*
X213800000Y-114700000D02*
X213750000Y-114750000D01*
X79800000Y-139900000D02*
X79800000Y-139425000D01*
X77225000Y-58658274D02*
X78208274Y-57675000D01*
X193225000Y-96250000D02*
X193225000Y-96158274D01*
X236300000Y-81925000D02*
X237975000Y-80250000D01*
X93725000Y-59225000D02*
X92050000Y-60900000D01*
X235150000Y-39750000D02*
X236300000Y-40900000D01*
X61225000Y-39225000D02*
X59550000Y-40900000D01*
X77225000Y-58750000D02*
X77225000Y-59225000D01*
X71925000Y-101925000D02*
X75000000Y-105000000D01*
X111800000Y-117900000D02*
X111800000Y-117425000D01*
X194208274Y-114675000D02*
X193225000Y-115658274D01*
X127980000Y-80970000D02*
X127980000Y-80495000D01*
X115400000Y-136675000D02*
X116475000Y-137750000D01*
X76150000Y-37675000D02*
X77225000Y-38750000D01*
X106225000Y-80158274D02*
X107208274Y-79175000D01*
X150975000Y-38750000D02*
X150975000Y-38658274D01*
X128225000Y-59225000D02*
X126550000Y-60900000D01*
X220975000Y-115750000D02*
X219975000Y-114750000D01*
X159475000Y-115750000D02*
X159475000Y-115658274D01*
X66900000Y-136000000D02*
X75900000Y-136000000D01*
X163725000Y-38750000D02*
X163725000Y-38658274D01*
X62208274Y-37675000D02*
X76150000Y-37675000D01*
X174800000Y-117900000D02*
X174800000Y-117425000D01*
X116975000Y-96715000D02*
X116975000Y-96250000D01*
X176475000Y-96725000D02*
X176475000Y-96250000D01*
X144958274Y-136675000D02*
X158400000Y-136675000D01*
X68733274Y-129400000D02*
X126800000Y-129400000D01*
X150720000Y-80505000D02*
X150975000Y-80250000D01*
X106225000Y-39225000D02*
X104550000Y-40900000D01*
X87775000Y-37675000D02*
X92650000Y-37675000D01*
X219975000Y-114750000D02*
X213750000Y-114750000D01*
X93725000Y-80250000D02*
X93725000Y-80158274D01*
X205975000Y-38750000D02*
X205975000Y-39225000D01*
X120225000Y-38750000D02*
X120225000Y-39225000D01*
X104475000Y-58750000D02*
X103400000Y-57675000D01*
X98825000Y-114675000D02*
X112400000Y-114675000D01*
X233225000Y-138225000D02*
X231550000Y-139900000D01*
X58050000Y-81925000D02*
X59725000Y-80250000D01*
X81975000Y-115750000D02*
X81975000Y-115658274D01*
X230225000Y-58750000D02*
X230225000Y-59225000D01*
X205975000Y-80158274D02*
X206958274Y-79175000D01*
X69050000Y-117425000D02*
X70725000Y-115750000D01*
X93725000Y-39225000D02*
X92050000Y-40900000D01*
X143975000Y-138225000D02*
X142300000Y-139900000D01*
X178725000Y-80250000D02*
X178725000Y-80158274D01*
X66475000Y-102908274D02*
X67458274Y-101925000D01*
X189550000Y-82400000D02*
X189550000Y-81925000D01*
X142900000Y-95175000D02*
X143975000Y-96250000D01*
X179708274Y-79175000D02*
X190150000Y-79175000D01*
X213200000Y-95200000D02*
X213175000Y-95175000D01*
X150975000Y-59225000D02*
X149300000Y-60900000D01*
X108341726Y-37675000D02*
X108366726Y-37700000D01*
X60225000Y-59158274D02*
X60225000Y-60625000D01*
X66475000Y-132225000D02*
X64800000Y-133900000D01*
X232150000Y-136675000D02*
X221575000Y-136675000D01*
X67458274Y-101925000D02*
X71925000Y-101925000D01*
X143975000Y-115750000D02*
X143975000Y-115658274D01*
X220650000Y-79175000D02*
X221725000Y-80250000D01*
X116475000Y-138225000D02*
X114800000Y-139900000D01*
X213750000Y-114750000D02*
X195585786Y-114750000D01*
X162208274Y-57675000D02*
X177650000Y-57675000D01*
X205740000Y-80960000D02*
X205740000Y-80485000D01*
X177475000Y-79000000D02*
X178725000Y-80250000D01*
X176475000Y-137750000D02*
X176475000Y-137658274D01*
X219300000Y-98400000D02*
X219300000Y-97925000D01*
X204975000Y-79250000D02*
X193585786Y-79250000D01*
X158400000Y-95175000D02*
X159475000Y-96250000D01*
X77225000Y-59225000D02*
X75550000Y-60900000D01*
X127150000Y-79175000D02*
X128225000Y-80250000D01*
X192150000Y-95175000D02*
X193225000Y-96250000D01*
X149900000Y-79175000D02*
X150975000Y-80250000D01*
X126800000Y-106900000D02*
X126800000Y-106425000D01*
X179708274Y-57675000D02*
X204900000Y-57675000D01*
X161225000Y-59225000D02*
X159550000Y-60900000D01*
X159475000Y-115658274D02*
X160458274Y-114675000D01*
X157800000Y-98400000D02*
X159475000Y-96725000D01*
X128475000Y-127725000D02*
X126800000Y-129400000D01*
X205150000Y-136675000D02*
X206225000Y-137750000D01*
X152133274Y-79000000D02*
X177475000Y-79000000D01*
X76225000Y-80250000D02*
X76225000Y-80158274D01*
X127980000Y-80495000D02*
X128225000Y-80250000D01*
X106225000Y-80725000D02*
X106225000Y-80250000D01*
X224341726Y-39825000D02*
X224416726Y-39750000D01*
X178725000Y-38841726D02*
X179708274Y-39825000D01*
X191550000Y-98400000D02*
X193225000Y-96725000D01*
X61225000Y-38658274D02*
X62208274Y-37675000D01*
X143975000Y-115658274D02*
X144958274Y-114675000D01*
X144958274Y-95175000D02*
X158400000Y-95175000D01*
X158400000Y-136675000D02*
X159475000Y-137750000D01*
X77225000Y-38658274D02*
X78208274Y-37675000D01*
X78208274Y-37675000D02*
X87775000Y-37675000D01*
X72975000Y-83500000D02*
X60800000Y-83500000D01*
X163725000Y-39225000D02*
X162050000Y-40900000D01*
X95866726Y-37700000D02*
X105175000Y-37700000D01*
X128225000Y-80250000D02*
X128225000Y-80158274D01*
X66475000Y-103000000D02*
X66475000Y-102908274D01*
X177650000Y-57675000D02*
X178725000Y-58750000D01*
X178725000Y-58750000D02*
X178725000Y-58658274D01*
X219400000Y-39750000D02*
X220550000Y-40900000D01*
X107208274Y-79175000D02*
X127150000Y-79175000D01*
X152033274Y-37600000D02*
X159000000Y-37600000D01*
X161225000Y-58658274D02*
X162208274Y-57675000D01*
X136475000Y-39225000D02*
X134800000Y-40900000D01*
X116975000Y-96158274D02*
X117958274Y-95175000D01*
X191550000Y-117425000D02*
X193225000Y-115750000D01*
X77300000Y-98400000D02*
X77300000Y-97925000D01*
X136475000Y-38750000D02*
X136475000Y-38658274D01*
X93725000Y-38658274D02*
X94708274Y-37675000D01*
X222225000Y-38750000D02*
X222225000Y-38841726D01*
X222225000Y-38841726D02*
X223208274Y-39825000D01*
X150975000Y-58750000D02*
X150975000Y-58658274D01*
X76225000Y-80158274D02*
X77208274Y-79175000D01*
X177458274Y-114675000D02*
X176475000Y-115658274D01*
X174800000Y-117425000D02*
X176475000Y-115750000D01*
X213775000Y-136675000D02*
X213775000Y-135085000D01*
X92650000Y-57675000D02*
X93725000Y-58750000D01*
X220975000Y-137750000D02*
X220975000Y-138225000D01*
X106225000Y-38750000D02*
X106225000Y-39225000D01*
X204900000Y-57675000D02*
X205975000Y-58750000D01*
X107208274Y-37675000D02*
X108341726Y-37675000D01*
X117958274Y-95175000D02*
X142900000Y-95175000D01*
X142300000Y-98400000D02*
X143730000Y-96970000D01*
X161225000Y-58750000D02*
X161225000Y-58658274D01*
X177458274Y-136675000D02*
X192150000Y-136675000D01*
X76225000Y-80250000D02*
X72975000Y-83500000D01*
X126550000Y-82400000D02*
X127980000Y-80970000D01*
X193225000Y-115750000D02*
X192150000Y-114675000D01*
X144958274Y-114675000D02*
X158400000Y-114675000D01*
X112400000Y-114675000D02*
X113475000Y-115750000D01*
X94708274Y-57675000D02*
X98625000Y-57675000D01*
X59725000Y-58658274D02*
X60225000Y-59158274D01*
X213175000Y-95175000D02*
X219900000Y-95175000D01*
D16*
X79350000Y-42000000D02*
X80450000Y-40900000D01*
X61650000Y-42000000D02*
X79350000Y-42000000D01*
X59550000Y-44100000D02*
X61650000Y-42000000D01*
X94900000Y-40900000D02*
X96950000Y-40900000D01*
X75550000Y-44100000D02*
X76575000Y-43075000D01*
X92725000Y-43075000D02*
X94900000Y-40900000D01*
X76575000Y-43075000D02*
X92725000Y-43075000D01*
X96100000Y-42100000D02*
X94100000Y-44100000D01*
X108130000Y-42100000D02*
X96100000Y-42100000D01*
X109450000Y-40900000D02*
X109330000Y-40900000D01*
X94100000Y-44100000D02*
X92050000Y-44100000D01*
X109330000Y-40900000D02*
X108130000Y-42100000D01*
X121200000Y-40900000D02*
X119100000Y-43000000D01*
X119100000Y-43000000D02*
X105650000Y-43000000D01*
X105650000Y-43000000D02*
X104550000Y-44100000D01*
X123450000Y-40900000D02*
X121200000Y-40900000D01*
X139700000Y-40900000D02*
X139550000Y-40900000D01*
X120800000Y-44100000D02*
X118550000Y-44100000D01*
X139550000Y-40900000D02*
X138450000Y-42000000D01*
X138450000Y-42000000D02*
X122900000Y-42000000D01*
X122900000Y-42000000D02*
X120800000Y-44100000D01*
X149638604Y-43075000D02*
X135825000Y-43075000D01*
X135825000Y-43075000D02*
X134800000Y-44100000D01*
X151863604Y-40900000D02*
X149663604Y-43100000D01*
X154200000Y-40900000D02*
X151863604Y-40900000D01*
X149663604Y-43100000D02*
X149638604Y-43075000D01*
X153600000Y-42000000D02*
X151500000Y-44100000D01*
X151500000Y-44100000D02*
X149300000Y-44100000D01*
X166950000Y-40900000D02*
X166820000Y-40900000D01*
X165720000Y-42000000D02*
X153600000Y-42000000D01*
X166820000Y-40900000D02*
X165720000Y-42000000D01*
X177425000Y-43075000D02*
X163075000Y-43075000D01*
X179600000Y-40900000D02*
X177425000Y-43075000D01*
X163075000Y-43075000D02*
X162050000Y-44100000D01*
X181950000Y-40900000D02*
X179600000Y-40900000D01*
X208085000Y-41925000D02*
X181475000Y-41925000D01*
X181475000Y-41925000D02*
X179300000Y-44100000D01*
X179300000Y-44100000D02*
X177050000Y-44100000D01*
X209200000Y-40900000D02*
X209110000Y-40900000D01*
X209110000Y-40900000D02*
X208085000Y-41925000D01*
X220675000Y-43075000D02*
X205325000Y-43075000D01*
X222850000Y-40900000D02*
X220675000Y-43075000D01*
X205325000Y-43075000D02*
X204300000Y-44100000D01*
X225450000Y-40900000D02*
X222850000Y-40900000D01*
X63230000Y-60900000D02*
X77870000Y-46260000D01*
X236100000Y-44100000D02*
X236300000Y-44100000D01*
X62950000Y-60900000D02*
X63230000Y-60900000D01*
X233940000Y-46260000D02*
X236100000Y-44100000D01*
X77870000Y-46260000D02*
X233940000Y-46260000D01*
X222600000Y-44100000D02*
X224700000Y-42000000D01*
X220550000Y-44100000D02*
X222600000Y-44100000D01*
X241050000Y-40900000D02*
X241200000Y-40900000D01*
X239950000Y-42000000D02*
X241050000Y-40900000D01*
X224700000Y-42000000D02*
X239950000Y-42000000D01*
X58050000Y-64100000D02*
X58300000Y-64100000D01*
X58300000Y-64100000D02*
X59500000Y-62900000D01*
X59500000Y-62900000D02*
X75850000Y-62900000D01*
X75850000Y-62900000D02*
X77850000Y-60900000D01*
X77850000Y-60900000D02*
X80450000Y-60900000D01*
X96820000Y-60900000D02*
X96950000Y-60900000D01*
X75550000Y-64100000D02*
X77900000Y-64100000D01*
X80075000Y-61925000D02*
X95795000Y-61925000D01*
X77900000Y-64100000D02*
X80075000Y-61925000D01*
X95795000Y-61925000D02*
X96820000Y-60900000D01*
X95650000Y-63100000D02*
X95675000Y-63075000D01*
X98883148Y-63075000D02*
X98908148Y-63100000D01*
X93050000Y-63100000D02*
X95650000Y-63100000D01*
X98908148Y-63100000D02*
X102900000Y-63100000D01*
X102900000Y-63100000D02*
X105100000Y-60900000D01*
X95675000Y-63075000D02*
X98883148Y-63075000D01*
X92050000Y-64100000D02*
X93050000Y-63100000D01*
X105100000Y-60900000D02*
X107700000Y-60900000D01*
X105000000Y-64100000D02*
X107100000Y-62000000D01*
X102800000Y-64100000D02*
X105000000Y-64100000D01*
X107100000Y-62000000D02*
X129500000Y-62000000D01*
X129500000Y-62000000D02*
X130600000Y-60900000D01*
X130600000Y-60900000D02*
X131450000Y-60900000D01*
X127575000Y-63075000D02*
X149725000Y-63075000D01*
X149725000Y-63075000D02*
X151900000Y-60900000D01*
X126550000Y-64100000D02*
X127575000Y-63075000D01*
X151900000Y-60900000D02*
X154200000Y-60900000D01*
X149300000Y-64100000D02*
X151900000Y-64100000D01*
X164330000Y-60900000D02*
X164450000Y-60900000D01*
X163305000Y-61925000D02*
X164330000Y-60900000D01*
X154075000Y-61925000D02*
X163305000Y-61925000D01*
X151900000Y-64100000D02*
X154075000Y-61925000D01*
X159550000Y-64100000D02*
X160575000Y-63075000D01*
X179600000Y-60900000D02*
X181950000Y-60900000D01*
X177425000Y-63075000D02*
X179600000Y-60900000D01*
X160575000Y-63075000D02*
X177425000Y-63075000D01*
X177050000Y-64100000D02*
X179650000Y-64100000D01*
X209050000Y-60900000D02*
X209200000Y-60900000D01*
X179650000Y-64100000D02*
X181825000Y-61925000D01*
X208025000Y-61925000D02*
X209050000Y-60900000D01*
X181825000Y-61925000D02*
X208025000Y-61925000D01*
X205325000Y-63075000D02*
X229150000Y-63075000D01*
X231325000Y-60900000D02*
X233450000Y-60900000D01*
X204300000Y-64100000D02*
X205325000Y-63075000D01*
X229150000Y-63075000D02*
X231325000Y-60900000D01*
X77540000Y-68000000D02*
X63140000Y-82400000D01*
X228550000Y-64100000D02*
X224650000Y-68000000D01*
X224650000Y-68000000D02*
X77540000Y-68000000D01*
X63140000Y-82400000D02*
X62950000Y-82400000D01*
X74675000Y-84575000D02*
X59075000Y-84575000D01*
X76850000Y-82400000D02*
X74675000Y-84575000D01*
X59075000Y-84575000D02*
X58050000Y-85600000D01*
X79450000Y-82400000D02*
X76850000Y-82400000D01*
X76800000Y-85600000D02*
X74550000Y-85600000D01*
X96800000Y-82400000D02*
X95775000Y-83425000D01*
X78975000Y-83425000D02*
X76800000Y-85600000D01*
X96950000Y-82400000D02*
X96800000Y-82400000D01*
X95775000Y-83425000D02*
X78975000Y-83425000D01*
X92050000Y-85600000D02*
X93250000Y-84400000D01*
X107310000Y-82400000D02*
X109450000Y-82400000D01*
X93250000Y-84400000D02*
X105310000Y-84400000D01*
X105310000Y-84400000D02*
X107310000Y-82400000D01*
X104550000Y-85600000D02*
X107100000Y-85600000D01*
X107100000Y-85600000D02*
X109200000Y-83500000D01*
X131340000Y-82400000D02*
X131450000Y-82400000D01*
X109200000Y-83500000D02*
X130240000Y-83500000D01*
X130240000Y-83500000D02*
X131340000Y-82400000D01*
X149700000Y-84500000D02*
X151800000Y-82400000D01*
X126550000Y-85600000D02*
X127650000Y-84500000D01*
X127650000Y-84500000D02*
X149700000Y-84500000D01*
X151800000Y-82400000D02*
X154200000Y-82400000D01*
X153811396Y-83425000D02*
X180775000Y-83425000D01*
X181800000Y-82400000D02*
X181950000Y-82400000D01*
X149300000Y-85600000D02*
X151636396Y-85600000D01*
X180775000Y-83425000D02*
X181800000Y-82400000D01*
X151636396Y-85600000D02*
X153811396Y-83425000D01*
X191700000Y-82400000D02*
X194450000Y-82400000D01*
X178075000Y-84575000D02*
X189525000Y-84575000D01*
X177050000Y-85600000D02*
X178075000Y-84575000D01*
X189525000Y-84575000D02*
X191700000Y-82400000D01*
X191886396Y-85600000D02*
X194061396Y-83425000D01*
X209060000Y-82400000D02*
X209200000Y-82400000D01*
X189550000Y-85600000D02*
X191886396Y-85600000D01*
X194061396Y-83425000D02*
X208035000Y-83425000D01*
X208035000Y-83425000D02*
X209060000Y-82400000D01*
X224400000Y-83700000D02*
X239780000Y-83700000D01*
X220050000Y-85600000D02*
X222500000Y-85600000D01*
X241080000Y-82400000D02*
X241200000Y-82400000D01*
X239780000Y-83700000D02*
X241080000Y-82400000D01*
X222500000Y-85600000D02*
X224400000Y-83700000D01*
X205325000Y-84575000D02*
X220438604Y-84575000D01*
X222613604Y-82400000D02*
X224950000Y-82400000D01*
X204300000Y-85600000D02*
X205325000Y-84575000D01*
X220438604Y-84575000D02*
X222613604Y-82400000D01*
X74250000Y-98750000D02*
X75250000Y-99750000D01*
X228800000Y-85600000D02*
X225200000Y-89200000D01*
X225200000Y-89200000D02*
X81800000Y-89200000D01*
X81800000Y-89200000D02*
X74250000Y-96750000D01*
X79600000Y-98400000D02*
X82200000Y-98400000D01*
X75250000Y-99750000D02*
X78250000Y-99750000D01*
X74250000Y-96750000D02*
X74250000Y-98750000D01*
X236300000Y-85600000D02*
X228800000Y-85600000D01*
X78250000Y-99750000D02*
X79600000Y-98400000D01*
X118730000Y-99600000D02*
X119930000Y-98400000D01*
X77300000Y-101600000D02*
X79400000Y-101600000D01*
X81400000Y-99600000D02*
X118730000Y-99600000D01*
X79400000Y-101600000D02*
X81400000Y-99600000D01*
X119930000Y-98400000D02*
X120200000Y-98400000D01*
X122158148Y-100600000D02*
X142663604Y-100600000D01*
X115300000Y-101600000D02*
X116325000Y-100575000D01*
X116325000Y-100575000D02*
X122133148Y-100575000D01*
X142663604Y-100600000D02*
X144863604Y-98400000D01*
X122133148Y-100575000D02*
X122158148Y-100600000D01*
X144863604Y-98400000D02*
X147200000Y-98400000D01*
X142300000Y-101600000D02*
X144600000Y-101600000D01*
X144600000Y-101600000D02*
X146700000Y-99500000D01*
X161420000Y-99500000D02*
X162520000Y-98400000D01*
X146700000Y-99500000D02*
X161420000Y-99500000D01*
X162520000Y-98400000D02*
X162700000Y-98400000D01*
X177200000Y-98400000D02*
X179700000Y-98400000D01*
X158825000Y-100575000D02*
X175025000Y-100575000D01*
X157800000Y-101600000D02*
X158825000Y-100575000D01*
X175025000Y-100575000D02*
X177200000Y-98400000D01*
X179500000Y-99500000D02*
X195220000Y-99500000D01*
X177400000Y-101600000D02*
X179500000Y-99500000D01*
X196320000Y-98400000D02*
X196450000Y-98400000D01*
X174800000Y-101600000D02*
X177400000Y-101600000D01*
X195220000Y-99500000D02*
X196320000Y-98400000D01*
X192575000Y-100575000D02*
X219825000Y-100575000D01*
X219825000Y-100575000D02*
X222000000Y-98400000D01*
X222000000Y-98400000D02*
X224200000Y-98400000D01*
X191550000Y-101600000D02*
X192575000Y-100575000D01*
X71250000Y-105150000D02*
X74052881Y-107952881D01*
X74052881Y-107952881D02*
X128797119Y-107952881D01*
X69700000Y-105150000D02*
X71250000Y-105150000D01*
X131000000Y-105750000D02*
X211000000Y-105750000D01*
X211000000Y-105750000D02*
X215150000Y-101600000D01*
X215150000Y-101600000D02*
X219300000Y-101600000D01*
X128797119Y-107952881D02*
X131000000Y-105750000D01*
X66930000Y-110250000D02*
X122550000Y-110250000D01*
X64800000Y-108350000D02*
X65030000Y-108350000D01*
X65030000Y-108350000D02*
X66930000Y-110250000D01*
X122550000Y-110250000D02*
X123900000Y-108900000D01*
X131530000Y-106900000D02*
X131700000Y-106900000D01*
X129530000Y-108900000D02*
X131530000Y-106900000D01*
X123900000Y-108900000D02*
X129530000Y-108900000D01*
X72000000Y-112250000D02*
X67250000Y-117000000D01*
X67250000Y-118750000D02*
X67750000Y-119250000D01*
X125400000Y-110100000D02*
X123250000Y-112250000D01*
X70263604Y-119250000D02*
X71613604Y-117900000D01*
X67250000Y-117000000D02*
X67250000Y-118750000D01*
X67750000Y-119250000D02*
X70263604Y-119250000D01*
X126800000Y-110100000D02*
X125400000Y-110100000D01*
X123250000Y-112250000D02*
X72000000Y-112250000D01*
X71613604Y-117900000D02*
X73950000Y-117900000D01*
X73700000Y-119000000D02*
X84100000Y-119000000D01*
X71600000Y-121100000D02*
X73700000Y-119000000D01*
X69050000Y-121100000D02*
X71600000Y-121100000D01*
X84100000Y-119000000D02*
X85200000Y-117900000D01*
X112188604Y-120075000D02*
X114363604Y-117900000D01*
X81325000Y-120075000D02*
X112188604Y-120075000D01*
X114363604Y-117900000D02*
X116700000Y-117900000D01*
X80300000Y-121100000D02*
X81325000Y-120075000D01*
X146000000Y-119100000D02*
X147200000Y-117900000D01*
X111800000Y-121100000D02*
X114400000Y-121100000D01*
X116400000Y-119100000D02*
X146000000Y-119100000D01*
X114400000Y-121100000D02*
X116400000Y-119100000D01*
X160300000Y-117900000D02*
X162700000Y-117900000D01*
X142300000Y-121100000D02*
X143400000Y-120000000D01*
X158200000Y-120000000D02*
X160300000Y-117900000D01*
X143400000Y-120000000D02*
X158200000Y-120000000D01*
X157800000Y-121100000D02*
X160200000Y-121100000D01*
X160200000Y-121100000D02*
X162200000Y-119100000D01*
X162200000Y-119100000D02*
X178500000Y-119100000D01*
X178500000Y-119100000D02*
X179700000Y-117900000D01*
X191600000Y-120075000D02*
X193775000Y-117900000D01*
X174800000Y-121100000D02*
X175825000Y-120075000D01*
X193775000Y-117900000D02*
X196450000Y-117900000D01*
X175825000Y-120075000D02*
X191600000Y-120075000D01*
X222850000Y-119250000D02*
X224200000Y-117900000D01*
X196000000Y-119250000D02*
X222850000Y-119250000D01*
X194150000Y-121100000D02*
X196000000Y-119250000D01*
X191550000Y-121100000D02*
X194150000Y-121100000D01*
X131700000Y-129400000D02*
X136300000Y-124800000D01*
X136300000Y-124800000D02*
X215600000Y-124800000D01*
X215600000Y-124800000D02*
X219300000Y-121100000D01*
X125500000Y-133900000D02*
X126800000Y-132600000D01*
X69700000Y-133900000D02*
X125500000Y-133900000D01*
X64800000Y-137100000D02*
X64920000Y-137100000D01*
X82350000Y-139900000D02*
X84700000Y-139900000D01*
X80750000Y-141500000D02*
X82350000Y-139900000D01*
X64920000Y-137100000D02*
X69320000Y-141500000D01*
X69320000Y-141500000D02*
X80750000Y-141500000D01*
X118600000Y-141000000D02*
X119700000Y-139900000D01*
X82200000Y-143100000D02*
X84300000Y-141000000D01*
X84300000Y-141000000D02*
X118600000Y-141000000D01*
X79800000Y-143100000D02*
X82200000Y-143100000D01*
X114800000Y-143100000D02*
X115825000Y-142075000D01*
X115825000Y-142075000D02*
X142625000Y-142075000D01*
X142625000Y-142075000D02*
X144800000Y-139900000D01*
X144800000Y-139900000D02*
X147200000Y-139900000D01*
X142300000Y-143100000D02*
X144636396Y-143100000D01*
X144636396Y-143100000D02*
X146636396Y-141100000D01*
X146636396Y-141100000D02*
X161500000Y-141100000D01*
X161500000Y-141100000D02*
X162700000Y-139900000D01*
X158050000Y-143100000D02*
X159150000Y-142000000D01*
X159150000Y-142000000D02*
X175300000Y-142000000D01*
X157800000Y-143100000D02*
X158050000Y-143100000D01*
X175300000Y-142000000D02*
X177400000Y-139900000D01*
X177400000Y-139900000D02*
X179700000Y-139900000D01*
X194830000Y-141250000D02*
X196180000Y-139900000D01*
X177200000Y-143100000D02*
X179050000Y-141250000D01*
X196180000Y-139900000D02*
X196450000Y-139900000D01*
X174800000Y-143100000D02*
X177200000Y-143100000D01*
X179050000Y-141250000D02*
X194830000Y-141250000D01*
X191550000Y-143100000D02*
X192575000Y-142075000D01*
X204825000Y-142075000D02*
X207000000Y-139900000D01*
X207000000Y-139900000D02*
X209450000Y-139900000D01*
X192575000Y-142075000D02*
X204825000Y-142075000D01*
X224080000Y-139900000D02*
X224200000Y-139900000D01*
X209250000Y-141000000D02*
X222980000Y-141000000D01*
X204550000Y-143100000D02*
X207150000Y-143100000D01*
X222980000Y-141000000D02*
X224080000Y-139900000D01*
X207150000Y-143100000D02*
X209250000Y-141000000D01*
X232100000Y-141900000D02*
X234075000Y-139925000D01*
X219300000Y-143100000D02*
X220500000Y-141900000D01*
X236425000Y-139925000D02*
X236450000Y-139900000D01*
X220500000Y-141900000D02*
X232100000Y-141900000D01*
X234075000Y-139925000D02*
X236425000Y-139925000D01*
M02*
