G04 #@! TF.GenerationSoftware,KiCad,Pcbnew,(6.0.6)*
G04 #@! TF.CreationDate,2023-02-02T00:20:53-07:00*
G04 #@! TF.ProjectId,Netflix and Chill LEDs,4e657466-6c69-4782-9061-6e6420436869,1*
G04 #@! TF.SameCoordinates,Original*
G04 #@! TF.FileFunction,Copper,L3,Inr*
G04 #@! TF.FilePolarity,Positive*
%FSLAX46Y46*%
G04 Gerber Fmt 4.6, Leading zero omitted, Abs format (unit mm)*
G04 Created by KiCad (PCBNEW (6.0.6)) date 2023-02-02 00:20:53*
%MOMM*%
%LPD*%
G01*
G04 APERTURE LIST*
G04 #@! TA.AperFunction,ComponentPad*
%ADD10C,1.700000*%
G04 #@! TD*
G04 #@! TA.AperFunction,ComponentPad*
%ADD11R,1.700000X1.700000*%
G04 #@! TD*
G04 #@! TA.AperFunction,ComponentPad*
%ADD12O,1.700000X1.700000*%
G04 #@! TD*
G04 #@! TA.AperFunction,ViaPad*
%ADD13C,0.800000*%
G04 #@! TD*
G04 APERTURE END LIST*
D10*
X101200000Y-48400000D03*
X101200000Y-50940000D03*
X101200000Y-53480000D03*
X101200000Y-56020000D03*
D11*
X218100000Y-133300000D03*
D12*
X215560000Y-133300000D03*
D13*
X67000000Y-40900000D03*
X181500000Y-58750000D03*
X225750000Y-143000000D03*
X96750000Y-80250000D03*
X211000000Y-143000000D03*
X84750000Y-115750000D03*
X119750000Y-96250000D03*
X155750000Y-64000000D03*
X164250000Y-101500000D03*
X107250000Y-58750000D03*
X238805853Y-79173837D03*
X96500000Y-38750000D03*
X109250000Y-64000000D03*
X208750000Y-38750000D03*
X109000000Y-38750000D03*
X83750000Y-101500000D03*
X210750000Y-44000000D03*
X209000000Y-137750000D03*
X141250000Y-44250000D03*
X226500000Y-85500000D03*
X225000000Y-38750000D03*
X227000000Y-44000000D03*
X69250000Y-131750000D03*
X80000000Y-38750000D03*
X81750000Y-96250000D03*
X81000000Y-85500000D03*
X86250000Y-143000000D03*
X234750000Y-139000000D03*
X196000000Y-96250000D03*
X139250000Y-38750000D03*
X181250000Y-101500000D03*
X181250000Y-121000000D03*
X224500000Y-80250000D03*
X223750000Y-96250000D03*
X146750000Y-96250000D03*
X210750000Y-85500000D03*
X239750000Y-44000000D03*
X111000000Y-44000000D03*
X183500000Y-44000000D03*
X121750000Y-101500000D03*
X146750000Y-137750000D03*
X223750000Y-115750000D03*
X131250000Y-104750000D03*
X233000000Y-58750000D03*
X198000000Y-121000000D03*
X98500000Y-85500000D03*
X96500000Y-58750000D03*
X162250000Y-137750000D03*
X133000000Y-64000000D03*
X62500000Y-80250000D03*
X133250000Y-132500000D03*
X208750000Y-58750000D03*
X179250000Y-115750000D03*
X198000000Y-101500000D03*
X116250000Y-115750000D03*
X210750000Y-64000000D03*
X82000000Y-44000000D03*
X133250000Y-110000000D03*
X71250000Y-137000000D03*
X73500000Y-115750000D03*
X123000000Y-38750000D03*
X131000000Y-58750000D03*
X162250000Y-115750000D03*
X131000000Y-80250000D03*
X181500000Y-38750000D03*
X179250000Y-137750000D03*
X69250000Y-103000000D03*
X164000000Y-58750000D03*
X98500000Y-64000000D03*
X84250000Y-137750000D03*
X194000000Y-80250000D03*
X223750000Y-137750000D03*
X121250000Y-143000000D03*
X164250000Y-121000000D03*
X109250000Y-80250000D03*
X64000000Y-38750000D03*
X179250000Y-96250000D03*
X164250000Y-143000000D03*
X80000000Y-58750000D03*
X181500000Y-80250000D03*
X168500000Y-44000000D03*
X133250000Y-85500000D03*
X71250000Y-108250000D03*
X222750000Y-101500000D03*
X208750000Y-80250000D03*
X98500000Y-44000000D03*
X64500000Y-64000000D03*
X75500000Y-121000000D03*
X235000000Y-143000000D03*
X79000000Y-80250000D03*
X62500000Y-58750000D03*
X235000000Y-64000000D03*
X131250000Y-127250000D03*
X181250000Y-143000000D03*
X148750000Y-143000000D03*
X222750000Y-121000000D03*
X148750000Y-101500000D03*
X153750000Y-58750000D03*
X146750000Y-115750000D03*
X196000000Y-115750000D03*
X111250000Y-85500000D03*
X162250000Y-96250000D03*
X166000000Y-64000000D03*
X183500000Y-85500000D03*
X118250000Y-121000000D03*
X166500000Y-38750000D03*
X148750000Y-121000000D03*
X125000000Y-44000000D03*
X119250000Y-137750000D03*
X66000000Y-44000000D03*
X198000000Y-143000000D03*
X196000000Y-85500000D03*
X239500000Y-85500000D03*
X155750000Y-85500000D03*
X64500000Y-85500000D03*
X153750000Y-38750000D03*
X155750000Y-44000000D03*
X240750000Y-38750000D03*
X153750000Y-80250000D03*
X86750000Y-121000000D03*
X82000000Y-64000000D03*
X183500000Y-64000000D03*
X196000000Y-137750000D03*
X98925000Y-136675000D03*
X164175000Y-114675000D03*
X213325000Y-79175000D03*
X87700000Y-38200000D03*
X159000000Y-38200000D03*
X164075000Y-136675000D03*
X213950000Y-39750000D03*
X213200000Y-95200000D03*
X98775000Y-79175000D03*
X99525000Y-95175000D03*
X98900000Y-129400000D03*
X163700000Y-79000000D03*
X98825000Y-114675000D03*
X214075000Y-57675000D03*
X99200000Y-104900000D03*
X98625000Y-57675000D03*
X164325000Y-95175000D03*
X165475000Y-57675000D03*
X213800000Y-114700000D03*
G04 #@! TA.AperFunction,Conductor*
G36*
X86757595Y-37856370D02*
G01*
X86804088Y-37910026D01*
X86814192Y-37980300D01*
X86809308Y-38001300D01*
X86806458Y-38010072D01*
X86786496Y-38200000D01*
X86787186Y-38206565D01*
X86804494Y-38371238D01*
X86806458Y-38389928D01*
X86865473Y-38571556D01*
X86960960Y-38736944D01*
X86965378Y-38741851D01*
X86965379Y-38741852D01*
X87056338Y-38842872D01*
X87088747Y-38878866D01*
X87144287Y-38919218D01*
X87226930Y-38979262D01*
X87243248Y-38991118D01*
X87249276Y-38993802D01*
X87249278Y-38993803D01*
X87291704Y-39012692D01*
X87417712Y-39068794D01*
X87511112Y-39088647D01*
X87598056Y-39107128D01*
X87598061Y-39107128D01*
X87604513Y-39108500D01*
X87795487Y-39108500D01*
X87801939Y-39107128D01*
X87801944Y-39107128D01*
X87888888Y-39088647D01*
X87982288Y-39068794D01*
X88108296Y-39012692D01*
X88150722Y-38993803D01*
X88150724Y-38993802D01*
X88156752Y-38991118D01*
X88173071Y-38979262D01*
X88255713Y-38919218D01*
X88311253Y-38878866D01*
X88343662Y-38842872D01*
X88434621Y-38741852D01*
X88434622Y-38741851D01*
X88439040Y-38736944D01*
X88534527Y-38571556D01*
X88593542Y-38389928D01*
X88595507Y-38371238D01*
X88612814Y-38206565D01*
X88613504Y-38200000D01*
X88593542Y-38010072D01*
X88590693Y-38001304D01*
X88590649Y-37999783D01*
X88590129Y-37997334D01*
X88590577Y-37997239D01*
X88588665Y-37930338D01*
X88625327Y-37869540D01*
X88689039Y-37838214D01*
X88710526Y-37836368D01*
X157989474Y-37836368D01*
X158057595Y-37856370D01*
X158104088Y-37910026D01*
X158114192Y-37980300D01*
X158109308Y-38001300D01*
X158106458Y-38010072D01*
X158086496Y-38200000D01*
X158087186Y-38206565D01*
X158104494Y-38371238D01*
X158106458Y-38389928D01*
X158165473Y-38571556D01*
X158260960Y-38736944D01*
X158265378Y-38741851D01*
X158265379Y-38741852D01*
X158356338Y-38842872D01*
X158388747Y-38878866D01*
X158444287Y-38919218D01*
X158526930Y-38979262D01*
X158543248Y-38991118D01*
X158549276Y-38993802D01*
X158549278Y-38993803D01*
X158591704Y-39012692D01*
X158717712Y-39068794D01*
X158811112Y-39088647D01*
X158898056Y-39107128D01*
X158898061Y-39107128D01*
X158904513Y-39108500D01*
X159095487Y-39108500D01*
X159101939Y-39107128D01*
X159101944Y-39107128D01*
X159188888Y-39088647D01*
X159282288Y-39068794D01*
X159408296Y-39012692D01*
X159450722Y-38993803D01*
X159450724Y-38993802D01*
X159456752Y-38991118D01*
X159473071Y-38979262D01*
X159555713Y-38919218D01*
X159611253Y-38878866D01*
X159643662Y-38842872D01*
X159734621Y-38741852D01*
X159734622Y-38741851D01*
X159739040Y-38736944D01*
X159834527Y-38571556D01*
X159893542Y-38389928D01*
X159895507Y-38371238D01*
X159912814Y-38206565D01*
X159913504Y-38200000D01*
X159893542Y-38010072D01*
X159890693Y-38001304D01*
X159890649Y-37999783D01*
X159890129Y-37997334D01*
X159890577Y-37997239D01*
X159888665Y-37930338D01*
X159925327Y-37869540D01*
X159989039Y-37838214D01*
X160010526Y-37836368D01*
X182152016Y-37836368D01*
X182220882Y-37856853D01*
X182704603Y-38172578D01*
X182705922Y-38173350D01*
X182705929Y-38173354D01*
X182928962Y-38303838D01*
X183370955Y-38562424D01*
X183372305Y-38563127D01*
X183372313Y-38563132D01*
X183982636Y-38881206D01*
X184055574Y-38919218D01*
X184056974Y-38919863D01*
X184056987Y-38919869D01*
X184755408Y-39241455D01*
X184756822Y-39242106D01*
X184758244Y-39242678D01*
X184758262Y-39242686D01*
X185471603Y-39529747D01*
X185471611Y-39529750D01*
X185473020Y-39530317D01*
X186202455Y-39783159D01*
X186943382Y-40000028D01*
X187694028Y-40180406D01*
X187695523Y-40180689D01*
X187695529Y-40180690D01*
X188451077Y-40323573D01*
X188451095Y-40323576D01*
X188452597Y-40323860D01*
X188454144Y-40324075D01*
X188454145Y-40324075D01*
X189215744Y-40429836D01*
X189215752Y-40429837D01*
X189217272Y-40430048D01*
X189218786Y-40430183D01*
X189218793Y-40430184D01*
X189984709Y-40498580D01*
X189984728Y-40498581D01*
X189986226Y-40498715D01*
X189987757Y-40498777D01*
X189987765Y-40498777D01*
X190417870Y-40516051D01*
X190757618Y-40529697D01*
X190759133Y-40529684D01*
X190759152Y-40529684D01*
X191133096Y-40526400D01*
X191529602Y-40522919D01*
X192300331Y-40478399D01*
X192301883Y-40478233D01*
X192301894Y-40478232D01*
X192735524Y-40431822D01*
X193067961Y-40396242D01*
X193243130Y-40368774D01*
X193829145Y-40276882D01*
X193829160Y-40276879D01*
X193830654Y-40276645D01*
X193832149Y-40276335D01*
X193832160Y-40276333D01*
X194585070Y-40120210D01*
X194585087Y-40120206D01*
X194586587Y-40119895D01*
X195195305Y-39962268D01*
X195332468Y-39926750D01*
X195332477Y-39926747D01*
X195333950Y-39926366D01*
X195604483Y-39841997D01*
X195899477Y-39750000D01*
X213036496Y-39750000D01*
X213037186Y-39756565D01*
X213055033Y-39926366D01*
X213056458Y-39939928D01*
X213115473Y-40121556D01*
X213210960Y-40286944D01*
X213338747Y-40428866D01*
X213349352Y-40436571D01*
X213477511Y-40529684D01*
X213493248Y-40541118D01*
X213499276Y-40543802D01*
X213499278Y-40543803D01*
X213661681Y-40616109D01*
X213667712Y-40618794D01*
X213737124Y-40633548D01*
X213848056Y-40657128D01*
X213848061Y-40657128D01*
X213854513Y-40658500D01*
X214045487Y-40658500D01*
X214051939Y-40657128D01*
X214051944Y-40657128D01*
X214162876Y-40633548D01*
X214232288Y-40618794D01*
X214238319Y-40616109D01*
X214400722Y-40543803D01*
X214400724Y-40543802D01*
X214406752Y-40541118D01*
X214422490Y-40529684D01*
X214550648Y-40436571D01*
X214561253Y-40428866D01*
X214689040Y-40286944D01*
X214784527Y-40121556D01*
X214843542Y-39939928D01*
X214844968Y-39926366D01*
X214862814Y-39756565D01*
X214863504Y-39750000D01*
X214845770Y-39581266D01*
X214844232Y-39566635D01*
X214844232Y-39566633D01*
X214843542Y-39560072D01*
X214784527Y-39378444D01*
X214689040Y-39213056D01*
X214613811Y-39129505D01*
X214565675Y-39076045D01*
X214565674Y-39076044D01*
X214561253Y-39071134D01*
X214406752Y-38958882D01*
X214400724Y-38956198D01*
X214400722Y-38956197D01*
X214238319Y-38883891D01*
X214238318Y-38883891D01*
X214232288Y-38881206D01*
X214138888Y-38861353D01*
X214051944Y-38842872D01*
X214051939Y-38842872D01*
X214045487Y-38841500D01*
X213854513Y-38841500D01*
X213848061Y-38842872D01*
X213848056Y-38842872D01*
X213761113Y-38861353D01*
X213667712Y-38881206D01*
X213661682Y-38883891D01*
X213661681Y-38883891D01*
X213499278Y-38956197D01*
X213499276Y-38956198D01*
X213493248Y-38958882D01*
X213338747Y-39071134D01*
X213334326Y-39076044D01*
X213334325Y-39076045D01*
X213286190Y-39129505D01*
X213210960Y-39213056D01*
X213115473Y-39378444D01*
X213056458Y-39560072D01*
X213055768Y-39566633D01*
X213055768Y-39566635D01*
X213054230Y-39581266D01*
X213036496Y-39750000D01*
X195899477Y-39750000D01*
X196069492Y-39696979D01*
X196069508Y-39696974D01*
X196070956Y-39696522D01*
X196795839Y-39430912D01*
X197197187Y-39261156D01*
X197505468Y-39130764D01*
X197505477Y-39130760D01*
X197506867Y-39130172D01*
X197508237Y-39129512D01*
X197508252Y-39129505D01*
X198070894Y-38858365D01*
X198202338Y-38795021D01*
X198411986Y-38681037D01*
X198879227Y-38427002D01*
X198879245Y-38426992D01*
X198880587Y-38426262D01*
X198881906Y-38425459D01*
X198881918Y-38425452D01*
X199383683Y-38119947D01*
X199449209Y-38101568D01*
X239316883Y-38101568D01*
X239336623Y-38103124D01*
X239359828Y-38106805D01*
X239368735Y-38105666D01*
X239368736Y-38105666D01*
X239373321Y-38105080D01*
X239379199Y-38104328D01*
X239401711Y-38103479D01*
X239528595Y-38110065D01*
X239702748Y-38119105D01*
X239715026Y-38120348D01*
X239869622Y-38143689D01*
X240042221Y-38169748D01*
X240054304Y-38172183D01*
X240269985Y-38226761D01*
X240375109Y-38253363D01*
X240386912Y-38256974D01*
X240698205Y-38369141D01*
X240709598Y-38373888D01*
X240756536Y-38396206D01*
X240958569Y-38492268D01*
X241008451Y-38515986D01*
X241019321Y-38521824D01*
X241302818Y-38692469D01*
X241313057Y-38699336D01*
X241578521Y-38896916D01*
X241588041Y-38904754D01*
X241832895Y-39127353D01*
X241841605Y-39136088D01*
X242063497Y-39381567D01*
X242071315Y-39391118D01*
X242100757Y-39430912D01*
X242196318Y-39560072D01*
X242268124Y-39657126D01*
X242274966Y-39667391D01*
X242292662Y-39696979D01*
X242444804Y-39951378D01*
X242450613Y-39962268D01*
X242591856Y-40261519D01*
X242596571Y-40272925D01*
X242597984Y-40276882D01*
X242692345Y-40541118D01*
X242707854Y-40584549D01*
X242711430Y-40596362D01*
X242791689Y-40917374D01*
X242794093Y-40929480D01*
X242842562Y-41256812D01*
X242843769Y-41269087D01*
X242857762Y-41554394D01*
X242858172Y-41562752D01*
X242856823Y-41588307D01*
X242855081Y-41599496D01*
X242856245Y-41608397D01*
X242856245Y-41608401D01*
X242859558Y-41633732D01*
X242860622Y-41650070D01*
X242860622Y-43405762D01*
X242840620Y-43473883D01*
X242832405Y-43485226D01*
X242285385Y-44158347D01*
X242285370Y-44158367D01*
X242284694Y-44159198D01*
X241622570Y-45034484D01*
X240991289Y-45932270D01*
X240990684Y-45933198D01*
X240392200Y-46850573D01*
X240392186Y-46850595D01*
X240391616Y-46851469D01*
X239824275Y-47790969D01*
X239823726Y-47791954D01*
X239327185Y-48682834D01*
X239289954Y-48749632D01*
X239280133Y-48768790D01*
X238804504Y-49696638D01*
X238789299Y-49726299D01*
X238322915Y-50719789D01*
X237891368Y-51728898D01*
X237890983Y-51729893D01*
X237890980Y-51729900D01*
X237651798Y-52347800D01*
X237495179Y-52752406D01*
X237134828Y-53789075D01*
X237134515Y-53790089D01*
X237134510Y-53790103D01*
X236929342Y-54453938D01*
X236810750Y-54837650D01*
X236810471Y-54838677D01*
X236810469Y-54838685D01*
X236550338Y-55797361D01*
X236523339Y-55896861D01*
X236397840Y-56432425D01*
X236288439Y-56899292D01*
X236272941Y-56965428D01*
X236272723Y-56966528D01*
X236272722Y-56966534D01*
X236060214Y-58040271D01*
X236059860Y-58042058D01*
X235884353Y-59125447D01*
X235746633Y-60214285D01*
X235646866Y-61307254D01*
X235585174Y-62403032D01*
X235561631Y-63500292D01*
X235576265Y-64597708D01*
X235629059Y-65693950D01*
X235719948Y-66787693D01*
X235848824Y-67877613D01*
X236015529Y-68962392D01*
X236219862Y-70040716D01*
X236461577Y-71111280D01*
X236740379Y-72172790D01*
X236740684Y-72173805D01*
X236740691Y-72173831D01*
X237055625Y-73222936D01*
X237055933Y-73223962D01*
X237407856Y-74263522D01*
X237408235Y-74264525D01*
X237408241Y-74264542D01*
X237795332Y-75289181D01*
X237795722Y-75290213D01*
X237796135Y-75291201D01*
X237796145Y-75291226D01*
X238121346Y-76069066D01*
X238219062Y-76302792D01*
X238677364Y-77300036D01*
X238677842Y-77300987D01*
X239163612Y-78267872D01*
X239170074Y-78280735D01*
X239696594Y-79243705D01*
X240256288Y-80187780D01*
X240848479Y-81111817D01*
X241472450Y-82014699D01*
X242127446Y-82895332D01*
X242812674Y-83752652D01*
X242966870Y-83932381D01*
X243382631Y-84416989D01*
X243411806Y-84481714D01*
X243412860Y-84493043D01*
X243481155Y-85928278D01*
X243479902Y-85951764D01*
X243479886Y-85953077D01*
X243478509Y-85961945D01*
X243479676Y-85970842D01*
X243480353Y-85976001D01*
X243481038Y-86002230D01*
X243468606Y-86160903D01*
X243465520Y-86180433D01*
X243449549Y-86247051D01*
X243422772Y-86358743D01*
X243416669Y-86377544D01*
X243346546Y-86546970D01*
X243337576Y-86564586D01*
X243241804Y-86720956D01*
X243230184Y-86736957D01*
X243111139Y-86876400D01*
X243097158Y-86890387D01*
X242957751Y-87009494D01*
X242941761Y-87021115D01*
X242785429Y-87116946D01*
X242767809Y-87125926D01*
X242598422Y-87196109D01*
X242579618Y-87202221D01*
X242401317Y-87245040D01*
X242381793Y-87248133D01*
X242229758Y-87260102D01*
X242213239Y-87259474D01*
X242213236Y-87259688D01*
X242204267Y-87259579D01*
X242195392Y-87258197D01*
X242163835Y-87262324D01*
X242147496Y-87263388D01*
X229264436Y-87263388D01*
X229243531Y-87261642D01*
X229228472Y-87259108D01*
X229228465Y-87259107D01*
X229223678Y-87258302D01*
X229217479Y-87258226D01*
X229215986Y-87258208D01*
X229215983Y-87258208D01*
X229211126Y-87258149D01*
X229206317Y-87258837D01*
X229201454Y-87259154D01*
X229201452Y-87259129D01*
X229199067Y-87259362D01*
X229122232Y-87263388D01*
X228866436Y-87276792D01*
X228866427Y-87276793D01*
X228863144Y-87276965D01*
X228859893Y-87277480D01*
X228859892Y-87277480D01*
X228522230Y-87330959D01*
X228522224Y-87330960D01*
X228518974Y-87331475D01*
X228182387Y-87421663D01*
X227977226Y-87500418D01*
X227860148Y-87545360D01*
X227860144Y-87545362D01*
X227857072Y-87546541D01*
X227546593Y-87704740D01*
X227254352Y-87894528D01*
X226983550Y-88113824D01*
X226981216Y-88116158D01*
X226739489Y-88357892D01*
X226739481Y-88357901D01*
X226737156Y-88360226D01*
X226517868Y-88631034D01*
X226328089Y-88923281D01*
X226169899Y-89233765D01*
X226045031Y-89559084D01*
X225954854Y-89895673D01*
X225900354Y-90239845D01*
X225900182Y-90243125D01*
X225900182Y-90243127D01*
X225883694Y-90557963D01*
X225882851Y-90565626D01*
X225882858Y-90565627D01*
X225882423Y-90570476D01*
X225881616Y-90575276D01*
X225881463Y-90587828D01*
X225882152Y-90592637D01*
X225882152Y-90592638D01*
X225886349Y-90621936D01*
X225887622Y-90639803D01*
X225887622Y-126330241D01*
X225885877Y-126351135D01*
X225882146Y-126373310D01*
X225881993Y-126385862D01*
X225882894Y-126392150D01*
X225883437Y-126395945D01*
X225884566Y-126407799D01*
X225898421Y-126698320D01*
X225942996Y-127007941D01*
X226016841Y-127311913D01*
X226119285Y-127607476D01*
X226249396Y-127891945D01*
X226405995Y-128162738D01*
X226587659Y-128417395D01*
X226751579Y-128606197D01*
X226768921Y-128626172D01*
X226778052Y-128638048D01*
X226783084Y-128645467D01*
X226786402Y-128649025D01*
X226788334Y-128651098D01*
X226788339Y-128651103D01*
X226791645Y-128654648D01*
X226813696Y-128671972D01*
X226826941Y-128683994D01*
X237381472Y-139730137D01*
X237470739Y-139823562D01*
X237483046Y-139838615D01*
X237492812Y-139852643D01*
X237492816Y-139852647D01*
X237497944Y-139860013D01*
X237504935Y-139865645D01*
X237504938Y-139865648D01*
X237510829Y-139870394D01*
X237528326Y-139887548D01*
X237617312Y-139993653D01*
X237626957Y-140006796D01*
X237715762Y-140145852D01*
X237723632Y-140160136D01*
X237793734Y-140309501D01*
X237799693Y-140324682D01*
X237849912Y-140481839D01*
X237853861Y-140497663D01*
X237883362Y-140660007D01*
X237885233Y-140676207D01*
X237891822Y-140807243D01*
X237890398Y-140831189D01*
X237890324Y-140833951D01*
X237888814Y-140842802D01*
X237889849Y-140851722D01*
X237889849Y-140851723D01*
X237892268Y-140872574D01*
X237893095Y-140888934D01*
X237881389Y-141690777D01*
X237879607Y-141710129D01*
X237877174Y-141724390D01*
X237875664Y-141733241D01*
X237877990Y-141753294D01*
X237878600Y-141775399D01*
X237858197Y-142113293D01*
X237856976Y-142124758D01*
X237801216Y-142489122D01*
X237798952Y-142500429D01*
X237710115Y-142858176D01*
X237706827Y-142869227D01*
X237585662Y-143217345D01*
X237581378Y-143228050D01*
X237428885Y-143563659D01*
X237423649Y-143573909D01*
X237241122Y-143894160D01*
X237234963Y-143903901D01*
X237191501Y-143966143D01*
X237023921Y-144206129D01*
X237016899Y-144215264D01*
X236991923Y-144244849D01*
X236779117Y-144496927D01*
X236771297Y-144505374D01*
X236508744Y-144764140D01*
X236500178Y-144771842D01*
X236215092Y-145005503D01*
X236205849Y-145012397D01*
X235900584Y-145219026D01*
X235890766Y-145225036D01*
X235567892Y-145402891D01*
X235557556Y-145407983D01*
X235219769Y-145555582D01*
X235209005Y-145559709D01*
X235192015Y-145565347D01*
X234859163Y-145675802D01*
X234848065Y-145678929D01*
X234489073Y-145762555D01*
X234477735Y-145764655D01*
X234112589Y-145815115D01*
X234101107Y-145816169D01*
X233998830Y-145820854D01*
X233770636Y-145831308D01*
X233745484Y-145829939D01*
X233742270Y-145829438D01*
X233742265Y-145829438D01*
X233733396Y-145828057D01*
X233724495Y-145829221D01*
X233724491Y-145829221D01*
X233701684Y-145832204D01*
X233685346Y-145833268D01*
X70357101Y-145833268D01*
X70337716Y-145831768D01*
X70323268Y-145829518D01*
X70323265Y-145829518D01*
X70314396Y-145828137D01*
X70305495Y-145829301D01*
X70305490Y-145829301D01*
X70293672Y-145830847D01*
X70272000Y-145831798D01*
X69914580Y-145816655D01*
X69903952Y-145815753D01*
X69881591Y-145812897D01*
X69518526Y-145766529D01*
X69508016Y-145764731D01*
X69128116Y-145683076D01*
X69117795Y-145680395D01*
X69102756Y-145675802D01*
X68746197Y-145566908D01*
X68736140Y-145563365D01*
X68727018Y-145559710D01*
X68375442Y-145418840D01*
X68365726Y-145414460D01*
X68018557Y-145239947D01*
X68009243Y-145234760D01*
X67983608Y-145219026D01*
X67678091Y-145031513D01*
X67669243Y-145025553D01*
X67356458Y-144795015D01*
X67348147Y-144788328D01*
X67320553Y-144764133D01*
X67291754Y-144738883D01*
X67055993Y-144532166D01*
X67048277Y-144524800D01*
X66778842Y-144244849D01*
X66771776Y-144236856D01*
X66552158Y-143966143D01*
X66538528Y-143945483D01*
X66536101Y-143940875D01*
X66536097Y-143940870D01*
X66531916Y-143932931D01*
X66513635Y-143914050D01*
X66501606Y-143899611D01*
X65954747Y-143133544D01*
X65952003Y-143129539D01*
X65415226Y-142312801D01*
X65412638Y-142308694D01*
X64907697Y-141471851D01*
X64905270Y-141467647D01*
X64432950Y-140611995D01*
X64430687Y-140607701D01*
X63991687Y-139734515D01*
X63989590Y-139730137D01*
X63584530Y-138840645D01*
X63582604Y-138836189D01*
X63212119Y-137931786D01*
X63210366Y-137927260D01*
X62874992Y-137009256D01*
X62873414Y-137004665D01*
X62767181Y-136675000D01*
X98011496Y-136675000D01*
X98031458Y-136864928D01*
X98090473Y-137046556D01*
X98185960Y-137211944D01*
X98313747Y-137353866D01*
X98468248Y-137466118D01*
X98474276Y-137468802D01*
X98474278Y-137468803D01*
X98636681Y-137541109D01*
X98642712Y-137543794D01*
X98736112Y-137563647D01*
X98823056Y-137582128D01*
X98823061Y-137582128D01*
X98829513Y-137583500D01*
X99020487Y-137583500D01*
X99026939Y-137582128D01*
X99026944Y-137582128D01*
X99113888Y-137563647D01*
X99207288Y-137543794D01*
X99213319Y-137541109D01*
X99375722Y-137468803D01*
X99375724Y-137468802D01*
X99381752Y-137466118D01*
X99536253Y-137353866D01*
X99664040Y-137211944D01*
X99759527Y-137046556D01*
X99818542Y-136864928D01*
X99838504Y-136675000D01*
X163161496Y-136675000D01*
X163181458Y-136864928D01*
X163240473Y-137046556D01*
X163335960Y-137211944D01*
X163463747Y-137353866D01*
X163618248Y-137466118D01*
X163624276Y-137468802D01*
X163624278Y-137468803D01*
X163786681Y-137541109D01*
X163792712Y-137543794D01*
X163886112Y-137563647D01*
X163973056Y-137582128D01*
X163973061Y-137582128D01*
X163979513Y-137583500D01*
X164170487Y-137583500D01*
X164176939Y-137582128D01*
X164176944Y-137582128D01*
X164263888Y-137563647D01*
X164357288Y-137543794D01*
X164363319Y-137541109D01*
X164525722Y-137468803D01*
X164525724Y-137468802D01*
X164531752Y-137466118D01*
X164686253Y-137353866D01*
X164814040Y-137211944D01*
X164909527Y-137046556D01*
X164968542Y-136864928D01*
X164988504Y-136675000D01*
X164968542Y-136485072D01*
X164909527Y-136303444D01*
X164814040Y-136138056D01*
X164686253Y-135996134D01*
X164531752Y-135883882D01*
X164525724Y-135881198D01*
X164525722Y-135881197D01*
X164363319Y-135808891D01*
X164363318Y-135808891D01*
X164357288Y-135806206D01*
X164263888Y-135786353D01*
X164176944Y-135767872D01*
X164176939Y-135767872D01*
X164170487Y-135766500D01*
X163979513Y-135766500D01*
X163973061Y-135767872D01*
X163973056Y-135767872D01*
X163886112Y-135786353D01*
X163792712Y-135806206D01*
X163786682Y-135808891D01*
X163786681Y-135808891D01*
X163624278Y-135881197D01*
X163624276Y-135881198D01*
X163618248Y-135883882D01*
X163463747Y-135996134D01*
X163335960Y-136138056D01*
X163240473Y-136303444D01*
X163181458Y-136485072D01*
X163161496Y-136675000D01*
X99838504Y-136675000D01*
X99818542Y-136485072D01*
X99759527Y-136303444D01*
X99664040Y-136138056D01*
X99536253Y-135996134D01*
X99381752Y-135883882D01*
X99375724Y-135881198D01*
X99375722Y-135881197D01*
X99213319Y-135808891D01*
X99213318Y-135808891D01*
X99207288Y-135806206D01*
X99113888Y-135786353D01*
X99026944Y-135767872D01*
X99026939Y-135767872D01*
X99020487Y-135766500D01*
X98829513Y-135766500D01*
X98823061Y-135767872D01*
X98823056Y-135767872D01*
X98736112Y-135786353D01*
X98642712Y-135806206D01*
X98636682Y-135808891D01*
X98636681Y-135808891D01*
X98474278Y-135881197D01*
X98474276Y-135881198D01*
X98468248Y-135883882D01*
X98313747Y-135996134D01*
X98185960Y-136138056D01*
X98090473Y-136303444D01*
X98031458Y-136485072D01*
X98011496Y-136675000D01*
X62767181Y-136675000D01*
X62573647Y-136074419D01*
X62572247Y-136069771D01*
X62308527Y-135128641D01*
X62307308Y-135123942D01*
X62080047Y-134173403D01*
X62079009Y-134168661D01*
X61899781Y-133266695D01*
X214197251Y-133266695D01*
X214210110Y-133489715D01*
X214211247Y-133494761D01*
X214211248Y-133494767D01*
X214225606Y-133558475D01*
X214259222Y-133707639D01*
X214343266Y-133914616D01*
X214459987Y-134105088D01*
X214606250Y-134273938D01*
X214778126Y-134416632D01*
X214971000Y-134529338D01*
X215179692Y-134609030D01*
X215184760Y-134610061D01*
X215184763Y-134610062D01*
X215292017Y-134631883D01*
X215398597Y-134653567D01*
X215403772Y-134653757D01*
X215403774Y-134653757D01*
X215616673Y-134661564D01*
X215616677Y-134661564D01*
X215621837Y-134661753D01*
X215626957Y-134661097D01*
X215626959Y-134661097D01*
X215838288Y-134634025D01*
X215838289Y-134634025D01*
X215843416Y-134633368D01*
X215848366Y-134631883D01*
X216052429Y-134570661D01*
X216052434Y-134570659D01*
X216057384Y-134569174D01*
X216257994Y-134470896D01*
X216439860Y-134341173D01*
X216507331Y-134273938D01*
X216548479Y-134232933D01*
X216610851Y-134199017D01*
X216681658Y-134204205D01*
X216738419Y-134246851D01*
X216755401Y-134277954D01*
X216796676Y-134388054D01*
X216805214Y-134403649D01*
X216881715Y-134505724D01*
X216894276Y-134518285D01*
X216996351Y-134594786D01*
X217011946Y-134603324D01*
X217132394Y-134648478D01*
X217147649Y-134652105D01*
X217198514Y-134657631D01*
X217205328Y-134658000D01*
X217827885Y-134658000D01*
X217843124Y-134653525D01*
X217844329Y-134652135D01*
X217846000Y-134644452D01*
X217846000Y-134639884D01*
X218354000Y-134639884D01*
X218358475Y-134655123D01*
X218359865Y-134656328D01*
X218367548Y-134657999D01*
X218994669Y-134657999D01*
X219001490Y-134657629D01*
X219052352Y-134652105D01*
X219067604Y-134648479D01*
X219188054Y-134603324D01*
X219203649Y-134594786D01*
X219305724Y-134518285D01*
X219318285Y-134505724D01*
X219394786Y-134403649D01*
X219403324Y-134388054D01*
X219448478Y-134267606D01*
X219452105Y-134252351D01*
X219457631Y-134201486D01*
X219458000Y-134194672D01*
X219458000Y-133572115D01*
X219453525Y-133556876D01*
X219452135Y-133555671D01*
X219444452Y-133554000D01*
X218372115Y-133554000D01*
X218356876Y-133558475D01*
X218355671Y-133559865D01*
X218354000Y-133567548D01*
X218354000Y-134639884D01*
X217846000Y-134639884D01*
X217846000Y-133027885D01*
X218354000Y-133027885D01*
X218358475Y-133043124D01*
X218359865Y-133044329D01*
X218367548Y-133046000D01*
X219439884Y-133046000D01*
X219455123Y-133041525D01*
X219456328Y-133040135D01*
X219457999Y-133032452D01*
X219457999Y-132405331D01*
X219457629Y-132398510D01*
X219452105Y-132347648D01*
X219448479Y-132332396D01*
X219403324Y-132211946D01*
X219394786Y-132196351D01*
X219318285Y-132094276D01*
X219305724Y-132081715D01*
X219203649Y-132005214D01*
X219188054Y-131996676D01*
X219067606Y-131951522D01*
X219052351Y-131947895D01*
X219001486Y-131942369D01*
X218994672Y-131942000D01*
X218372115Y-131942000D01*
X218356876Y-131946475D01*
X218355671Y-131947865D01*
X218354000Y-131955548D01*
X218354000Y-133027885D01*
X217846000Y-133027885D01*
X217846000Y-131960116D01*
X217841525Y-131944877D01*
X217840135Y-131943672D01*
X217832452Y-131942001D01*
X217205331Y-131942001D01*
X217198510Y-131942371D01*
X217147648Y-131947895D01*
X217132396Y-131951521D01*
X217011946Y-131996676D01*
X216996351Y-132005214D01*
X216894276Y-132081715D01*
X216881715Y-132094276D01*
X216805214Y-132196351D01*
X216796676Y-132211946D01*
X216755297Y-132322322D01*
X216712655Y-132379087D01*
X216646093Y-132403786D01*
X216576744Y-132388578D01*
X216544121Y-132362891D01*
X216493151Y-132306876D01*
X216493148Y-132306873D01*
X216489670Y-132303051D01*
X216485619Y-132299852D01*
X216485615Y-132299848D01*
X216318414Y-132167800D01*
X216318410Y-132167798D01*
X216314359Y-132164598D01*
X216118789Y-132056638D01*
X216113920Y-132054914D01*
X216113916Y-132054912D01*
X215913087Y-131983795D01*
X215913083Y-131983794D01*
X215908212Y-131982069D01*
X215903119Y-131981162D01*
X215903116Y-131981161D01*
X215693373Y-131943800D01*
X215693367Y-131943799D01*
X215688284Y-131942894D01*
X215614452Y-131941992D01*
X215470081Y-131940228D01*
X215470079Y-131940228D01*
X215464911Y-131940165D01*
X215244091Y-131973955D01*
X215031756Y-132043357D01*
X214833607Y-132146507D01*
X214829474Y-132149610D01*
X214829471Y-132149612D01*
X214709076Y-132240007D01*
X214654965Y-132280635D01*
X214500629Y-132442138D01*
X214374743Y-132626680D01*
X214280688Y-132829305D01*
X214220989Y-133044570D01*
X214197251Y-133266695D01*
X61899781Y-133266695D01*
X61888522Y-133210035D01*
X61887668Y-133205257D01*
X61734248Y-132240007D01*
X61733579Y-132235199D01*
X61617456Y-131264785D01*
X61616972Y-131259955D01*
X61538314Y-130285780D01*
X61538016Y-130280935D01*
X61516324Y-129765271D01*
X61500959Y-129400000D01*
X97986496Y-129400000D01*
X98006458Y-129589928D01*
X98065473Y-129771556D01*
X98160960Y-129936944D01*
X98288747Y-130078866D01*
X98443248Y-130191118D01*
X98449276Y-130193802D01*
X98449278Y-130193803D01*
X98611681Y-130266109D01*
X98617712Y-130268794D01*
X98711112Y-130288647D01*
X98798056Y-130307128D01*
X98798061Y-130307128D01*
X98804513Y-130308500D01*
X98995487Y-130308500D01*
X99001939Y-130307128D01*
X99001944Y-130307128D01*
X99088888Y-130288647D01*
X99182288Y-130268794D01*
X99188319Y-130266109D01*
X99350722Y-130193803D01*
X99350724Y-130193802D01*
X99356752Y-130191118D01*
X99511253Y-130078866D01*
X99639040Y-129936944D01*
X99734527Y-129771556D01*
X99793542Y-129589928D01*
X99813504Y-129400000D01*
X99793542Y-129210072D01*
X99734527Y-129028444D01*
X99639040Y-128863056D01*
X99511253Y-128721134D01*
X99396902Y-128638053D01*
X99362094Y-128612763D01*
X99362093Y-128612762D01*
X99356752Y-128608882D01*
X99350724Y-128606198D01*
X99350722Y-128606197D01*
X99188319Y-128533891D01*
X99188318Y-128533891D01*
X99182288Y-128531206D01*
X99088887Y-128511353D01*
X99001944Y-128492872D01*
X99001939Y-128492872D01*
X98995487Y-128491500D01*
X98804513Y-128491500D01*
X98798061Y-128492872D01*
X98798056Y-128492872D01*
X98711113Y-128511353D01*
X98617712Y-128531206D01*
X98611682Y-128533891D01*
X98611681Y-128533891D01*
X98449278Y-128606197D01*
X98449276Y-128606198D01*
X98443248Y-128608882D01*
X98437907Y-128612762D01*
X98437906Y-128612763D01*
X98403098Y-128638053D01*
X98288747Y-128721134D01*
X98160960Y-128863056D01*
X98065473Y-129028444D01*
X98006458Y-129210072D01*
X97986496Y-129400000D01*
X61500959Y-129400000D01*
X61496937Y-129304392D01*
X61496828Y-129299562D01*
X61493396Y-128322239D01*
X61493472Y-128317386D01*
X61527689Y-127340600D01*
X61527953Y-127335753D01*
X61599763Y-126361081D01*
X61600212Y-126356247D01*
X61709521Y-125384991D01*
X61710157Y-125380179D01*
X61856792Y-124413883D01*
X61857613Y-124409099D01*
X62041353Y-123449195D01*
X62042357Y-123444445D01*
X62262947Y-122492283D01*
X62264134Y-122487576D01*
X62521227Y-121544653D01*
X62522588Y-121540013D01*
X62654830Y-121119542D01*
X62815823Y-120607652D01*
X62817369Y-120603050D01*
X63146279Y-119682730D01*
X63148000Y-119678191D01*
X63512131Y-118771186D01*
X63514026Y-118766717D01*
X63705759Y-118337716D01*
X63893892Y-117916770D01*
X63905379Y-117896392D01*
X63909961Y-117889784D01*
X63909962Y-117889783D01*
X63912739Y-117885777D01*
X63914637Y-117881865D01*
X63915832Y-117880096D01*
X63916483Y-117878061D01*
X63918219Y-117874483D01*
X63919644Y-117869833D01*
X63919647Y-117869825D01*
X63920249Y-117867859D01*
X63923927Y-117857492D01*
X64027592Y-117601395D01*
X64028891Y-117598186D01*
X64109640Y-117311775D01*
X64158508Y-117018239D01*
X64174909Y-116721115D01*
X64158643Y-116423983D01*
X64109907Y-116130425D01*
X64072838Y-115998711D01*
X64030227Y-115847309D01*
X64030226Y-115847305D01*
X64029289Y-115843977D01*
X63934094Y-115608500D01*
X63930581Y-115599809D01*
X63926044Y-115586488D01*
X63925206Y-115583490D01*
X63925203Y-115583482D01*
X63923964Y-115579045D01*
X63923082Y-115577106D01*
X63921928Y-115573162D01*
X63919711Y-115569696D01*
X63918766Y-115567619D01*
X63908744Y-115552366D01*
X63898846Y-115534212D01*
X63605126Y-114871206D01*
X63584886Y-114825519D01*
X63582750Y-114820397D01*
X63525864Y-114675000D01*
X97911496Y-114675000D01*
X97912186Y-114681565D01*
X97927317Y-114825524D01*
X97931458Y-114864928D01*
X97990473Y-115046556D01*
X98085960Y-115211944D01*
X98090378Y-115216851D01*
X98090379Y-115216852D01*
X98108470Y-115236944D01*
X98213747Y-115353866D01*
X98368248Y-115466118D01*
X98374276Y-115468802D01*
X98374278Y-115468803D01*
X98521190Y-115534212D01*
X98542712Y-115543794D01*
X98635722Y-115563564D01*
X98723056Y-115582128D01*
X98723061Y-115582128D01*
X98729513Y-115583500D01*
X98920487Y-115583500D01*
X98926939Y-115582128D01*
X98926944Y-115582128D01*
X99014278Y-115563564D01*
X99107288Y-115543794D01*
X99128810Y-115534212D01*
X99275722Y-115468803D01*
X99275724Y-115468802D01*
X99281752Y-115466118D01*
X99436253Y-115353866D01*
X99541530Y-115236944D01*
X99559621Y-115216852D01*
X99559622Y-115216851D01*
X99564040Y-115211944D01*
X99659527Y-115046556D01*
X99718542Y-114864928D01*
X99722684Y-114825524D01*
X99737814Y-114681565D01*
X99738504Y-114675000D01*
X163261496Y-114675000D01*
X163262186Y-114681565D01*
X163277317Y-114825524D01*
X163281458Y-114864928D01*
X163340473Y-115046556D01*
X163435960Y-115211944D01*
X163440378Y-115216851D01*
X163440379Y-115216852D01*
X163458470Y-115236944D01*
X163563747Y-115353866D01*
X163718248Y-115466118D01*
X163724276Y-115468802D01*
X163724278Y-115468803D01*
X163871190Y-115534212D01*
X163892712Y-115543794D01*
X163985722Y-115563564D01*
X164073056Y-115582128D01*
X164073061Y-115582128D01*
X164079513Y-115583500D01*
X164270487Y-115583500D01*
X164276939Y-115582128D01*
X164276944Y-115582128D01*
X164364278Y-115563564D01*
X164457288Y-115543794D01*
X164478810Y-115534212D01*
X164625722Y-115468803D01*
X164625724Y-115468802D01*
X164631752Y-115466118D01*
X164786253Y-115353866D01*
X164891530Y-115236944D01*
X164909621Y-115216852D01*
X164909622Y-115216851D01*
X164914040Y-115211944D01*
X165009527Y-115046556D01*
X165068542Y-114864928D01*
X165072684Y-114825524D01*
X165085876Y-114700000D01*
X212886496Y-114700000D01*
X212887186Y-114706565D01*
X212903141Y-114858365D01*
X212906458Y-114889928D01*
X212965473Y-115071556D01*
X213060960Y-115236944D01*
X213188747Y-115378866D01*
X213287843Y-115450864D01*
X213308839Y-115466118D01*
X213343248Y-115491118D01*
X213349276Y-115493802D01*
X213349278Y-115493803D01*
X213464642Y-115545166D01*
X213517712Y-115568794D01*
X213611113Y-115588647D01*
X213698056Y-115607128D01*
X213698061Y-115607128D01*
X213704513Y-115608500D01*
X213895487Y-115608500D01*
X213901939Y-115607128D01*
X213901944Y-115607128D01*
X213988887Y-115588647D01*
X214082288Y-115568794D01*
X214135358Y-115545166D01*
X214250722Y-115493803D01*
X214250724Y-115493802D01*
X214256752Y-115491118D01*
X214291162Y-115466118D01*
X214312157Y-115450864D01*
X214411253Y-115378866D01*
X214539040Y-115236944D01*
X214634527Y-115071556D01*
X214693542Y-114889928D01*
X214696860Y-114858365D01*
X214712814Y-114706565D01*
X214713504Y-114700000D01*
X214693542Y-114510072D01*
X214634527Y-114328444D01*
X214539040Y-114163056D01*
X214521679Y-114143774D01*
X214415675Y-114026045D01*
X214415674Y-114026044D01*
X214411253Y-114021134D01*
X214256752Y-113908882D01*
X214250724Y-113906198D01*
X214250722Y-113906197D01*
X214088319Y-113833891D01*
X214088318Y-113833891D01*
X214082288Y-113831206D01*
X213977305Y-113808891D01*
X213901944Y-113792872D01*
X213901939Y-113792872D01*
X213895487Y-113791500D01*
X213704513Y-113791500D01*
X213698061Y-113792872D01*
X213698056Y-113792872D01*
X213622695Y-113808891D01*
X213517712Y-113831206D01*
X213511682Y-113833891D01*
X213511681Y-113833891D01*
X213349278Y-113906197D01*
X213349276Y-113906198D01*
X213343248Y-113908882D01*
X213188747Y-114021134D01*
X213184326Y-114026044D01*
X213184325Y-114026045D01*
X213078322Y-114143774D01*
X213060960Y-114163056D01*
X212965473Y-114328444D01*
X212906458Y-114510072D01*
X212886496Y-114700000D01*
X165085876Y-114700000D01*
X165087814Y-114681565D01*
X165088504Y-114675000D01*
X165087814Y-114668435D01*
X165069232Y-114491635D01*
X165069232Y-114491633D01*
X165068542Y-114485072D01*
X165009527Y-114303444D01*
X164914040Y-114138056D01*
X164786253Y-113996134D01*
X164671503Y-113912763D01*
X164637094Y-113887763D01*
X164637093Y-113887762D01*
X164631752Y-113883882D01*
X164625724Y-113881198D01*
X164625722Y-113881197D01*
X164463319Y-113808891D01*
X164463318Y-113808891D01*
X164457288Y-113806206D01*
X164363888Y-113786353D01*
X164276944Y-113767872D01*
X164276939Y-113767872D01*
X164270487Y-113766500D01*
X164079513Y-113766500D01*
X164073061Y-113767872D01*
X164073056Y-113767872D01*
X163986112Y-113786353D01*
X163892712Y-113806206D01*
X163886682Y-113808891D01*
X163886681Y-113808891D01*
X163724278Y-113881197D01*
X163724276Y-113881198D01*
X163718248Y-113883882D01*
X163712907Y-113887762D01*
X163712906Y-113887763D01*
X163678497Y-113912763D01*
X163563747Y-113996134D01*
X163435960Y-114138056D01*
X163340473Y-114303444D01*
X163281458Y-114485072D01*
X163280768Y-114491633D01*
X163280768Y-114491635D01*
X163262186Y-114668435D01*
X163261496Y-114675000D01*
X99738504Y-114675000D01*
X99737814Y-114668435D01*
X99719232Y-114491635D01*
X99719232Y-114491633D01*
X99718542Y-114485072D01*
X99659527Y-114303444D01*
X99564040Y-114138056D01*
X99436253Y-113996134D01*
X99321503Y-113912763D01*
X99287094Y-113887763D01*
X99287093Y-113887762D01*
X99281752Y-113883882D01*
X99275724Y-113881198D01*
X99275722Y-113881197D01*
X99113319Y-113808891D01*
X99113318Y-113808891D01*
X99107288Y-113806206D01*
X99013888Y-113786353D01*
X98926944Y-113767872D01*
X98926939Y-113767872D01*
X98920487Y-113766500D01*
X98729513Y-113766500D01*
X98723061Y-113767872D01*
X98723056Y-113767872D01*
X98636112Y-113786353D01*
X98542712Y-113806206D01*
X98536682Y-113808891D01*
X98536681Y-113808891D01*
X98374278Y-113881197D01*
X98374276Y-113881198D01*
X98368248Y-113883882D01*
X98362907Y-113887762D01*
X98362906Y-113887763D01*
X98328497Y-113912763D01*
X98213747Y-113996134D01*
X98085960Y-114138056D01*
X97990473Y-114303444D01*
X97931458Y-114485072D01*
X97930768Y-114491633D01*
X97930768Y-114491635D01*
X97912186Y-114668435D01*
X97911496Y-114675000D01*
X63525864Y-114675000D01*
X63463904Y-114516635D01*
X63287192Y-114064975D01*
X63285284Y-114059761D01*
X63023326Y-113292098D01*
X63021648Y-113286803D01*
X62793765Y-112508294D01*
X62792323Y-112502930D01*
X62598983Y-111715176D01*
X62597778Y-111709754D01*
X62439342Y-110914223D01*
X62438377Y-110908752D01*
X62392929Y-110613038D01*
X62315154Y-110106987D01*
X62314433Y-110101488D01*
X62226669Y-109295093D01*
X62226191Y-109289571D01*
X62174054Y-108480104D01*
X62173819Y-108474554D01*
X62157409Y-107663562D01*
X62157419Y-107658007D01*
X62176770Y-106847082D01*
X62177025Y-106841534D01*
X62232096Y-106032258D01*
X62232595Y-106026725D01*
X62257147Y-105808500D01*
X62323281Y-105220665D01*
X62324023Y-105215161D01*
X62373631Y-104900000D01*
X98286496Y-104900000D01*
X98287186Y-104906565D01*
X98305553Y-105081313D01*
X98306458Y-105089928D01*
X98365473Y-105271556D01*
X98460960Y-105436944D01*
X98588747Y-105578866D01*
X98743248Y-105691118D01*
X98749276Y-105693802D01*
X98749278Y-105693803D01*
X98911681Y-105766109D01*
X98917712Y-105768794D01*
X99011112Y-105788647D01*
X99098056Y-105807128D01*
X99098061Y-105807128D01*
X99104513Y-105808500D01*
X99295487Y-105808500D01*
X99301939Y-105807128D01*
X99301944Y-105807128D01*
X99388887Y-105788647D01*
X99482288Y-105768794D01*
X99488319Y-105766109D01*
X99650722Y-105693803D01*
X99650724Y-105693802D01*
X99656752Y-105691118D01*
X99811253Y-105578866D01*
X99939040Y-105436944D01*
X100034527Y-105271556D01*
X100093542Y-105089928D01*
X100094448Y-105081313D01*
X100112814Y-104906565D01*
X100113504Y-104900000D01*
X100093542Y-104710072D01*
X100034527Y-104528444D01*
X99939040Y-104363056D01*
X99811253Y-104221134D01*
X99656752Y-104108882D01*
X99650724Y-104106198D01*
X99650722Y-104106197D01*
X99488319Y-104033891D01*
X99488318Y-104033891D01*
X99482288Y-104031206D01*
X99388888Y-104011353D01*
X99301944Y-103992872D01*
X99301939Y-103992872D01*
X99295487Y-103991500D01*
X99104513Y-103991500D01*
X99098061Y-103992872D01*
X99098056Y-103992872D01*
X99011112Y-104011353D01*
X98917712Y-104031206D01*
X98911682Y-104033891D01*
X98911681Y-104033891D01*
X98749278Y-104106197D01*
X98749276Y-104106198D01*
X98743248Y-104108882D01*
X98588747Y-104221134D01*
X98460960Y-104363056D01*
X98365473Y-104528444D01*
X98306458Y-104710072D01*
X98286496Y-104900000D01*
X62373631Y-104900000D01*
X62450154Y-104413845D01*
X62451139Y-104408379D01*
X62612452Y-103613459D01*
X62613676Y-103608040D01*
X62809880Y-102820954D01*
X62811342Y-102815596D01*
X63042038Y-102037947D01*
X63043735Y-102032657D01*
X63308483Y-101265927D01*
X63310411Y-101260718D01*
X63608697Y-100506394D01*
X63610853Y-100501275D01*
X63942098Y-99760828D01*
X63944478Y-99755809D01*
X64308020Y-99030712D01*
X64310618Y-99025802D01*
X64575882Y-98550269D01*
X64705800Y-98317367D01*
X64708593Y-98312613D01*
X65110773Y-97660918D01*
X65125095Y-97641972D01*
X65129799Y-97636838D01*
X65129800Y-97636837D01*
X65133089Y-97633247D01*
X65135266Y-97629975D01*
X65136992Y-97628045D01*
X65138106Y-97625709D01*
X65140044Y-97622797D01*
X65144416Y-97613334D01*
X65148926Y-97604500D01*
X65259753Y-97407063D01*
X65259755Y-97407059D01*
X65261710Y-97403576D01*
X65355716Y-97171232D01*
X65419528Y-96928851D01*
X65452118Y-96680339D01*
X65452960Y-96429700D01*
X65422040Y-96180974D01*
X65403129Y-96107128D01*
X65360852Y-95942048D01*
X65359859Y-95938170D01*
X65267416Y-95705200D01*
X65265483Y-95701702D01*
X65265479Y-95701693D01*
X65182924Y-95552279D01*
X65146203Y-95485819D01*
X65019729Y-95313016D01*
X65012608Y-95302152D01*
X65009454Y-95296752D01*
X65009449Y-95296745D01*
X65006997Y-95292547D01*
X64999073Y-95282811D01*
X64995461Y-95279557D01*
X64995452Y-95279548D01*
X64980390Y-95265981D01*
X64967970Y-95253082D01*
X64902824Y-95175000D01*
X98611496Y-95175000D01*
X98612186Y-95181565D01*
X98623851Y-95292547D01*
X98631458Y-95364928D01*
X98690473Y-95546556D01*
X98785960Y-95711944D01*
X98790378Y-95716851D01*
X98790379Y-95716852D01*
X98808470Y-95736944D01*
X98913747Y-95853866D01*
X98953501Y-95882749D01*
X99051531Y-95953972D01*
X99068248Y-95966118D01*
X99074276Y-95968802D01*
X99074278Y-95968803D01*
X99236681Y-96041109D01*
X99242712Y-96043794D01*
X99336113Y-96063647D01*
X99423056Y-96082128D01*
X99423061Y-96082128D01*
X99429513Y-96083500D01*
X99620487Y-96083500D01*
X99626939Y-96082128D01*
X99626944Y-96082128D01*
X99713887Y-96063647D01*
X99807288Y-96043794D01*
X99813319Y-96041109D01*
X99975722Y-95968803D01*
X99975724Y-95968802D01*
X99981752Y-95966118D01*
X99998470Y-95953972D01*
X100096499Y-95882749D01*
X100136253Y-95853866D01*
X100241530Y-95736944D01*
X100259621Y-95716852D01*
X100259622Y-95716851D01*
X100264040Y-95711944D01*
X100359527Y-95546556D01*
X100418542Y-95364928D01*
X100426150Y-95292547D01*
X100437814Y-95181565D01*
X100438504Y-95175000D01*
X163411496Y-95175000D01*
X163412186Y-95181565D01*
X163423851Y-95292547D01*
X163431458Y-95364928D01*
X163490473Y-95546556D01*
X163585960Y-95711944D01*
X163590378Y-95716851D01*
X163590379Y-95716852D01*
X163608470Y-95736944D01*
X163713747Y-95853866D01*
X163753501Y-95882749D01*
X163851531Y-95953972D01*
X163868248Y-95966118D01*
X163874276Y-95968802D01*
X163874278Y-95968803D01*
X164036681Y-96041109D01*
X164042712Y-96043794D01*
X164136113Y-96063647D01*
X164223056Y-96082128D01*
X164223061Y-96082128D01*
X164229513Y-96083500D01*
X164420487Y-96083500D01*
X164426939Y-96082128D01*
X164426944Y-96082128D01*
X164513887Y-96063647D01*
X164607288Y-96043794D01*
X164613319Y-96041109D01*
X164775722Y-95968803D01*
X164775724Y-95968802D01*
X164781752Y-95966118D01*
X164798470Y-95953972D01*
X164896499Y-95882749D01*
X164936253Y-95853866D01*
X165041530Y-95736944D01*
X165059621Y-95716852D01*
X165059622Y-95716851D01*
X165064040Y-95711944D01*
X165159527Y-95546556D01*
X165218542Y-95364928D01*
X165226150Y-95292547D01*
X165235877Y-95200000D01*
X212286496Y-95200000D01*
X212287186Y-95206565D01*
X212303141Y-95358365D01*
X212306458Y-95389928D01*
X212365473Y-95571556D01*
X212460960Y-95736944D01*
X212588747Y-95878866D01*
X212624840Y-95905089D01*
X212708839Y-95966118D01*
X212743248Y-95991118D01*
X212749276Y-95993802D01*
X212749278Y-95993803D01*
X212864642Y-96045166D01*
X212917712Y-96068794D01*
X213011113Y-96088647D01*
X213098056Y-96107128D01*
X213098061Y-96107128D01*
X213104513Y-96108500D01*
X213295487Y-96108500D01*
X213301939Y-96107128D01*
X213301944Y-96107128D01*
X213388887Y-96088647D01*
X213482288Y-96068794D01*
X213535358Y-96045166D01*
X213650722Y-95993803D01*
X213650724Y-95993802D01*
X213656752Y-95991118D01*
X213691162Y-95966118D01*
X213775160Y-95905089D01*
X213811253Y-95878866D01*
X213939040Y-95736944D01*
X214034527Y-95571556D01*
X214093542Y-95389928D01*
X214096860Y-95358365D01*
X214112814Y-95206565D01*
X214113504Y-95200000D01*
X214093542Y-95010072D01*
X214034527Y-94828444D01*
X213939040Y-94663056D01*
X213921679Y-94643774D01*
X213815675Y-94526045D01*
X213815674Y-94526044D01*
X213811253Y-94521134D01*
X213656752Y-94408882D01*
X213650724Y-94406198D01*
X213650722Y-94406197D01*
X213488319Y-94333891D01*
X213488318Y-94333891D01*
X213482288Y-94331206D01*
X213377305Y-94308891D01*
X213301944Y-94292872D01*
X213301939Y-94292872D01*
X213295487Y-94291500D01*
X213104513Y-94291500D01*
X213098061Y-94292872D01*
X213098056Y-94292872D01*
X213022695Y-94308891D01*
X212917712Y-94331206D01*
X212911682Y-94333891D01*
X212911681Y-94333891D01*
X212749278Y-94406197D01*
X212749276Y-94406198D01*
X212743248Y-94408882D01*
X212588747Y-94521134D01*
X212584326Y-94526044D01*
X212584325Y-94526045D01*
X212478322Y-94643774D01*
X212460960Y-94663056D01*
X212365473Y-94828444D01*
X212306458Y-95010072D01*
X212286496Y-95200000D01*
X165235877Y-95200000D01*
X165237814Y-95181565D01*
X165238504Y-95175000D01*
X165237814Y-95168435D01*
X165219232Y-94991635D01*
X165219232Y-94991633D01*
X165218542Y-94985072D01*
X165159527Y-94803444D01*
X165064040Y-94638056D01*
X164936253Y-94496134D01*
X164821503Y-94412763D01*
X164787094Y-94387763D01*
X164787093Y-94387762D01*
X164781752Y-94383882D01*
X164775724Y-94381198D01*
X164775722Y-94381197D01*
X164613319Y-94308891D01*
X164613318Y-94308891D01*
X164607288Y-94306206D01*
X164513888Y-94286353D01*
X164426944Y-94267872D01*
X164426939Y-94267872D01*
X164420487Y-94266500D01*
X164229513Y-94266500D01*
X164223061Y-94267872D01*
X164223056Y-94267872D01*
X164136112Y-94286353D01*
X164042712Y-94306206D01*
X164036682Y-94308891D01*
X164036681Y-94308891D01*
X163874278Y-94381197D01*
X163874276Y-94381198D01*
X163868248Y-94383882D01*
X163862907Y-94387762D01*
X163862906Y-94387763D01*
X163828497Y-94412763D01*
X163713747Y-94496134D01*
X163585960Y-94638056D01*
X163490473Y-94803444D01*
X163431458Y-94985072D01*
X163430768Y-94991633D01*
X163430768Y-94991635D01*
X163412186Y-95168435D01*
X163411496Y-95175000D01*
X100438504Y-95175000D01*
X100437814Y-95168435D01*
X100419232Y-94991635D01*
X100419232Y-94991633D01*
X100418542Y-94985072D01*
X100359527Y-94803444D01*
X100264040Y-94638056D01*
X100136253Y-94496134D01*
X100021503Y-94412763D01*
X99987094Y-94387763D01*
X99987093Y-94387762D01*
X99981752Y-94383882D01*
X99975724Y-94381198D01*
X99975722Y-94381197D01*
X99813319Y-94308891D01*
X99813318Y-94308891D01*
X99807288Y-94306206D01*
X99713888Y-94286353D01*
X99626944Y-94267872D01*
X99626939Y-94267872D01*
X99620487Y-94266500D01*
X99429513Y-94266500D01*
X99423061Y-94267872D01*
X99423056Y-94267872D01*
X99336112Y-94286353D01*
X99242712Y-94306206D01*
X99236682Y-94308891D01*
X99236681Y-94308891D01*
X99074278Y-94381197D01*
X99074276Y-94381198D01*
X99068248Y-94383882D01*
X99062907Y-94387762D01*
X99062906Y-94387763D01*
X99028497Y-94412763D01*
X98913747Y-94496134D01*
X98785960Y-94638056D01*
X98690473Y-94803444D01*
X98631458Y-94985072D01*
X98630768Y-94991633D01*
X98630768Y-94991635D01*
X98612186Y-95168435D01*
X98611496Y-95175000D01*
X64902824Y-95175000D01*
X56557873Y-85172996D01*
X56529591Y-85107876D01*
X56528622Y-85092276D01*
X56528622Y-79175000D01*
X97861496Y-79175000D01*
X97881458Y-79364928D01*
X97940473Y-79546556D01*
X98035960Y-79711944D01*
X98040378Y-79716851D01*
X98040379Y-79716852D01*
X98109666Y-79793803D01*
X98163747Y-79853866D01*
X98318248Y-79966118D01*
X98324276Y-79968802D01*
X98324278Y-79968803D01*
X98486681Y-80041109D01*
X98492712Y-80043794D01*
X98586113Y-80063647D01*
X98673056Y-80082128D01*
X98673061Y-80082128D01*
X98679513Y-80083500D01*
X98870487Y-80083500D01*
X98876939Y-80082128D01*
X98876944Y-80082128D01*
X98963887Y-80063647D01*
X99057288Y-80043794D01*
X99063319Y-80041109D01*
X99225722Y-79968803D01*
X99225724Y-79968802D01*
X99231752Y-79966118D01*
X99386253Y-79853866D01*
X99440334Y-79793803D01*
X99509621Y-79716852D01*
X99509622Y-79716851D01*
X99514040Y-79711944D01*
X99609527Y-79546556D01*
X99668542Y-79364928D01*
X99688504Y-79175000D01*
X99670111Y-79000000D01*
X162786496Y-79000000D01*
X162806458Y-79189928D01*
X162865473Y-79371556D01*
X162960960Y-79536944D01*
X162965378Y-79541851D01*
X162965379Y-79541852D01*
X162974768Y-79552279D01*
X163088747Y-79678866D01*
X163243248Y-79791118D01*
X163249276Y-79793802D01*
X163249278Y-79793803D01*
X163384183Y-79853866D01*
X163417712Y-79868794D01*
X163511113Y-79888647D01*
X163598056Y-79907128D01*
X163598061Y-79907128D01*
X163604513Y-79908500D01*
X163795487Y-79908500D01*
X163801939Y-79907128D01*
X163801944Y-79907128D01*
X163888887Y-79888647D01*
X163982288Y-79868794D01*
X164015817Y-79853866D01*
X164150722Y-79793803D01*
X164150724Y-79793802D01*
X164156752Y-79791118D01*
X164311253Y-79678866D01*
X164425232Y-79552279D01*
X164434621Y-79541852D01*
X164434622Y-79541851D01*
X164439040Y-79536944D01*
X164534527Y-79371556D01*
X164593542Y-79189928D01*
X164595111Y-79175000D01*
X212411496Y-79175000D01*
X212431458Y-79364928D01*
X212490473Y-79546556D01*
X212585960Y-79711944D01*
X212590378Y-79716851D01*
X212590379Y-79716852D01*
X212659666Y-79793803D01*
X212713747Y-79853866D01*
X212868248Y-79966118D01*
X212874276Y-79968802D01*
X212874278Y-79968803D01*
X213036681Y-80041109D01*
X213042712Y-80043794D01*
X213136113Y-80063647D01*
X213223056Y-80082128D01*
X213223061Y-80082128D01*
X213229513Y-80083500D01*
X213420487Y-80083500D01*
X213426939Y-80082128D01*
X213426944Y-80082128D01*
X213513887Y-80063647D01*
X213607288Y-80043794D01*
X213613319Y-80041109D01*
X213775722Y-79968803D01*
X213775724Y-79968802D01*
X213781752Y-79966118D01*
X213936253Y-79853866D01*
X213990334Y-79793803D01*
X214059621Y-79716852D01*
X214059622Y-79716851D01*
X214064040Y-79711944D01*
X214159527Y-79546556D01*
X214218542Y-79364928D01*
X214238504Y-79175000D01*
X214218542Y-78985072D01*
X214159527Y-78803444D01*
X214064040Y-78638056D01*
X214055386Y-78628444D01*
X213940675Y-78501045D01*
X213940674Y-78501044D01*
X213936253Y-78496134D01*
X213781752Y-78383882D01*
X213775724Y-78381198D01*
X213775722Y-78381197D01*
X213613319Y-78308891D01*
X213613318Y-78308891D01*
X213607288Y-78306206D01*
X213513887Y-78286353D01*
X213426944Y-78267872D01*
X213426939Y-78267872D01*
X213420487Y-78266500D01*
X213229513Y-78266500D01*
X213223061Y-78267872D01*
X213223056Y-78267872D01*
X213136113Y-78286353D01*
X213042712Y-78306206D01*
X213036682Y-78308891D01*
X213036681Y-78308891D01*
X212874278Y-78381197D01*
X212874276Y-78381198D01*
X212868248Y-78383882D01*
X212713747Y-78496134D01*
X212709326Y-78501044D01*
X212709325Y-78501045D01*
X212594615Y-78628444D01*
X212585960Y-78638056D01*
X212490473Y-78803444D01*
X212431458Y-78985072D01*
X212411496Y-79175000D01*
X164595111Y-79175000D01*
X164613504Y-79000000D01*
X164593542Y-78810072D01*
X164534527Y-78628444D01*
X164439040Y-78463056D01*
X164367752Y-78383882D01*
X164315675Y-78326045D01*
X164315674Y-78326044D01*
X164311253Y-78321134D01*
X164156752Y-78208882D01*
X164150724Y-78206198D01*
X164150722Y-78206197D01*
X163988319Y-78133891D01*
X163988318Y-78133891D01*
X163982288Y-78131206D01*
X163888888Y-78111353D01*
X163801944Y-78092872D01*
X163801939Y-78092872D01*
X163795487Y-78091500D01*
X163604513Y-78091500D01*
X163598061Y-78092872D01*
X163598056Y-78092872D01*
X163511112Y-78111353D01*
X163417712Y-78131206D01*
X163411682Y-78133891D01*
X163411681Y-78133891D01*
X163249278Y-78206197D01*
X163249276Y-78206198D01*
X163243248Y-78208882D01*
X163088747Y-78321134D01*
X163084326Y-78326044D01*
X163084325Y-78326045D01*
X163032249Y-78383882D01*
X162960960Y-78463056D01*
X162865473Y-78628444D01*
X162806458Y-78810072D01*
X162786496Y-79000000D01*
X99670111Y-79000000D01*
X99668542Y-78985072D01*
X99609527Y-78803444D01*
X99514040Y-78638056D01*
X99505386Y-78628444D01*
X99390675Y-78501045D01*
X99390674Y-78501044D01*
X99386253Y-78496134D01*
X99231752Y-78383882D01*
X99225724Y-78381198D01*
X99225722Y-78381197D01*
X99063319Y-78308891D01*
X99063318Y-78308891D01*
X99057288Y-78306206D01*
X98963887Y-78286353D01*
X98876944Y-78267872D01*
X98876939Y-78267872D01*
X98870487Y-78266500D01*
X98679513Y-78266500D01*
X98673061Y-78267872D01*
X98673056Y-78267872D01*
X98586113Y-78286353D01*
X98492712Y-78306206D01*
X98486682Y-78308891D01*
X98486681Y-78308891D01*
X98324278Y-78381197D01*
X98324276Y-78381198D01*
X98318248Y-78383882D01*
X98163747Y-78496134D01*
X98159326Y-78501044D01*
X98159325Y-78501045D01*
X98044615Y-78628444D01*
X98035960Y-78638056D01*
X97940473Y-78803444D01*
X97881458Y-78985072D01*
X97861496Y-79175000D01*
X56528622Y-79175000D01*
X56528622Y-57675000D01*
X97711496Y-57675000D01*
X97731458Y-57864928D01*
X97790473Y-58046556D01*
X97885960Y-58211944D01*
X98013747Y-58353866D01*
X98168248Y-58466118D01*
X98174276Y-58468802D01*
X98174278Y-58468803D01*
X98336681Y-58541109D01*
X98342712Y-58543794D01*
X98436113Y-58563647D01*
X98523056Y-58582128D01*
X98523061Y-58582128D01*
X98529513Y-58583500D01*
X98720487Y-58583500D01*
X98726939Y-58582128D01*
X98726944Y-58582128D01*
X98813887Y-58563647D01*
X98907288Y-58543794D01*
X98913319Y-58541109D01*
X99075722Y-58468803D01*
X99075724Y-58468802D01*
X99081752Y-58466118D01*
X99236253Y-58353866D01*
X99364040Y-58211944D01*
X99459527Y-58046556D01*
X99518542Y-57864928D01*
X99538504Y-57675000D01*
X164561496Y-57675000D01*
X164581458Y-57864928D01*
X164640473Y-58046556D01*
X164735960Y-58211944D01*
X164863747Y-58353866D01*
X165018248Y-58466118D01*
X165024276Y-58468802D01*
X165024278Y-58468803D01*
X165186681Y-58541109D01*
X165192712Y-58543794D01*
X165286113Y-58563647D01*
X165373056Y-58582128D01*
X165373061Y-58582128D01*
X165379513Y-58583500D01*
X165570487Y-58583500D01*
X165576939Y-58582128D01*
X165576944Y-58582128D01*
X165663887Y-58563647D01*
X165757288Y-58543794D01*
X165763319Y-58541109D01*
X165925722Y-58468803D01*
X165925724Y-58468802D01*
X165931752Y-58466118D01*
X166086253Y-58353866D01*
X166214040Y-58211944D01*
X166309527Y-58046556D01*
X166368542Y-57864928D01*
X166388504Y-57675000D01*
X213161496Y-57675000D01*
X213181458Y-57864928D01*
X213240473Y-58046556D01*
X213335960Y-58211944D01*
X213463747Y-58353866D01*
X213618248Y-58466118D01*
X213624276Y-58468802D01*
X213624278Y-58468803D01*
X213786681Y-58541109D01*
X213792712Y-58543794D01*
X213886113Y-58563647D01*
X213973056Y-58582128D01*
X213973061Y-58582128D01*
X213979513Y-58583500D01*
X214170487Y-58583500D01*
X214176939Y-58582128D01*
X214176944Y-58582128D01*
X214263887Y-58563647D01*
X214357288Y-58543794D01*
X214363319Y-58541109D01*
X214525722Y-58468803D01*
X214525724Y-58468802D01*
X214531752Y-58466118D01*
X214686253Y-58353866D01*
X214814040Y-58211944D01*
X214909527Y-58046556D01*
X214968542Y-57864928D01*
X214988504Y-57675000D01*
X214987814Y-57668435D01*
X214969232Y-57491635D01*
X214969232Y-57491633D01*
X214968542Y-57485072D01*
X214909527Y-57303444D01*
X214899973Y-57286895D01*
X214817341Y-57143774D01*
X214814040Y-57138056D01*
X214686253Y-56996134D01*
X214531752Y-56883882D01*
X214525724Y-56881198D01*
X214525722Y-56881197D01*
X214363319Y-56808891D01*
X214363318Y-56808891D01*
X214357288Y-56806206D01*
X214263887Y-56786353D01*
X214176944Y-56767872D01*
X214176939Y-56767872D01*
X214170487Y-56766500D01*
X213979513Y-56766500D01*
X213973061Y-56767872D01*
X213973056Y-56767872D01*
X213886112Y-56786353D01*
X213792712Y-56806206D01*
X213786682Y-56808891D01*
X213786681Y-56808891D01*
X213624278Y-56881197D01*
X213624276Y-56881198D01*
X213618248Y-56883882D01*
X213463747Y-56996134D01*
X213335960Y-57138056D01*
X213332659Y-57143774D01*
X213250028Y-57286895D01*
X213240473Y-57303444D01*
X213181458Y-57485072D01*
X213180768Y-57491633D01*
X213180768Y-57491635D01*
X213162186Y-57668435D01*
X213161496Y-57675000D01*
X166388504Y-57675000D01*
X166387814Y-57668435D01*
X166369232Y-57491635D01*
X166369232Y-57491633D01*
X166368542Y-57485072D01*
X166309527Y-57303444D01*
X166299973Y-57286895D01*
X166217341Y-57143774D01*
X166214040Y-57138056D01*
X166086253Y-56996134D01*
X165931752Y-56883882D01*
X165925724Y-56881198D01*
X165925722Y-56881197D01*
X165763319Y-56808891D01*
X165763318Y-56808891D01*
X165757288Y-56806206D01*
X165663887Y-56786353D01*
X165576944Y-56767872D01*
X165576939Y-56767872D01*
X165570487Y-56766500D01*
X165379513Y-56766500D01*
X165373061Y-56767872D01*
X165373056Y-56767872D01*
X165286112Y-56786353D01*
X165192712Y-56806206D01*
X165186682Y-56808891D01*
X165186681Y-56808891D01*
X165024278Y-56881197D01*
X165024276Y-56881198D01*
X165018248Y-56883882D01*
X164863747Y-56996134D01*
X164735960Y-57138056D01*
X164732659Y-57143774D01*
X164650028Y-57286895D01*
X164640473Y-57303444D01*
X164581458Y-57485072D01*
X164580768Y-57491633D01*
X164580768Y-57491635D01*
X164562186Y-57668435D01*
X164561496Y-57675000D01*
X99538504Y-57675000D01*
X99537814Y-57668435D01*
X99519232Y-57491635D01*
X99519232Y-57491633D01*
X99518542Y-57485072D01*
X99459527Y-57303444D01*
X99449973Y-57286895D01*
X99367341Y-57143774D01*
X99364040Y-57138056D01*
X99236253Y-56996134D01*
X99081752Y-56883882D01*
X99075724Y-56881198D01*
X99075722Y-56881197D01*
X98913319Y-56808891D01*
X98913318Y-56808891D01*
X98907288Y-56806206D01*
X98813887Y-56786353D01*
X98726944Y-56767872D01*
X98726939Y-56767872D01*
X98720487Y-56766500D01*
X98529513Y-56766500D01*
X98523061Y-56767872D01*
X98523056Y-56767872D01*
X98436112Y-56786353D01*
X98342712Y-56806206D01*
X98336682Y-56808891D01*
X98336681Y-56808891D01*
X98174278Y-56881197D01*
X98174276Y-56881198D01*
X98168248Y-56883882D01*
X98013747Y-56996134D01*
X97885960Y-57138056D01*
X97882659Y-57143774D01*
X97800028Y-57286895D01*
X97790473Y-57303444D01*
X97731458Y-57485072D01*
X97730768Y-57491633D01*
X97730768Y-57491635D01*
X97712186Y-57668435D01*
X97711496Y-57675000D01*
X56528622Y-57675000D01*
X56528622Y-55986695D01*
X99837251Y-55986695D01*
X99837548Y-55991848D01*
X99837548Y-55991851D01*
X99843011Y-56086590D01*
X99850110Y-56209715D01*
X99851247Y-56214761D01*
X99851248Y-56214767D01*
X99871119Y-56302939D01*
X99899222Y-56427639D01*
X99983266Y-56634616D01*
X100099987Y-56825088D01*
X100246250Y-56993938D01*
X100418126Y-57136632D01*
X100611000Y-57249338D01*
X100819692Y-57329030D01*
X100824760Y-57330061D01*
X100824763Y-57330062D01*
X100932017Y-57351883D01*
X101038597Y-57373567D01*
X101043772Y-57373757D01*
X101043774Y-57373757D01*
X101256673Y-57381564D01*
X101256677Y-57381564D01*
X101261837Y-57381753D01*
X101266957Y-57381097D01*
X101266959Y-57381097D01*
X101478288Y-57354025D01*
X101478289Y-57354025D01*
X101483416Y-57353368D01*
X101488366Y-57351883D01*
X101692429Y-57290661D01*
X101692434Y-57290659D01*
X101697384Y-57289174D01*
X101897994Y-57190896D01*
X102079860Y-57061173D01*
X102140199Y-57001045D01*
X102234435Y-56907137D01*
X102238096Y-56903489D01*
X102297594Y-56820689D01*
X102365435Y-56726277D01*
X102368453Y-56722077D01*
X102467430Y-56521811D01*
X102532370Y-56308069D01*
X102561529Y-56086590D01*
X102563156Y-56020000D01*
X102544852Y-55797361D01*
X102490431Y-55580702D01*
X102401354Y-55375840D01*
X102280014Y-55188277D01*
X102129670Y-55023051D01*
X102125619Y-55019852D01*
X102125615Y-55019848D01*
X101958414Y-54887800D01*
X101958410Y-54887798D01*
X101954359Y-54884598D01*
X101913053Y-54861796D01*
X101863084Y-54811364D01*
X101848312Y-54741921D01*
X101873428Y-54675516D01*
X101900780Y-54648909D01*
X101944603Y-54617650D01*
X102079860Y-54521173D01*
X102238096Y-54363489D01*
X102297594Y-54280689D01*
X102365435Y-54186277D01*
X102368453Y-54182077D01*
X102467430Y-53981811D01*
X102532370Y-53768069D01*
X102561529Y-53546590D01*
X102563156Y-53480000D01*
X102544852Y-53257361D01*
X102490431Y-53040702D01*
X102401354Y-52835840D01*
X102280014Y-52648277D01*
X102129670Y-52483051D01*
X102125619Y-52479852D01*
X102125615Y-52479848D01*
X101958414Y-52347800D01*
X101958410Y-52347798D01*
X101954359Y-52344598D01*
X101913053Y-52321796D01*
X101863084Y-52271364D01*
X101848312Y-52201921D01*
X101873428Y-52135516D01*
X101900780Y-52108909D01*
X101944603Y-52077650D01*
X102079860Y-51981173D01*
X102238096Y-51823489D01*
X102297594Y-51740689D01*
X102365435Y-51646277D01*
X102368453Y-51642077D01*
X102467430Y-51441811D01*
X102532370Y-51228069D01*
X102561529Y-51006590D01*
X102563156Y-50940000D01*
X102544852Y-50717361D01*
X102490431Y-50500702D01*
X102401354Y-50295840D01*
X102280014Y-50108277D01*
X102129670Y-49943051D01*
X102125619Y-49939852D01*
X102125615Y-49939848D01*
X101958414Y-49807800D01*
X101958410Y-49807798D01*
X101954359Y-49804598D01*
X101912569Y-49781529D01*
X101862598Y-49731097D01*
X101847826Y-49661654D01*
X101872942Y-49595248D01*
X101900293Y-49568642D01*
X101949247Y-49533723D01*
X101957648Y-49523023D01*
X101950660Y-49509870D01*
X101212812Y-48772022D01*
X101198868Y-48764408D01*
X101197035Y-48764539D01*
X101190420Y-48768790D01*
X100446737Y-49512473D01*
X100439977Y-49524853D01*
X100445258Y-49531907D01*
X100491969Y-49559203D01*
X100540693Y-49610841D01*
X100553764Y-49680624D01*
X100527033Y-49746396D01*
X100486584Y-49779752D01*
X100473607Y-49786507D01*
X100469474Y-49789610D01*
X100469471Y-49789612D01*
X100445247Y-49807800D01*
X100294965Y-49920635D01*
X100140629Y-50082138D01*
X100014743Y-50266680D01*
X99920688Y-50469305D01*
X99860989Y-50684570D01*
X99837251Y-50906695D01*
X99837548Y-50911848D01*
X99837548Y-50911851D01*
X99843011Y-51006590D01*
X99850110Y-51129715D01*
X99851247Y-51134761D01*
X99851248Y-51134767D01*
X99871119Y-51222939D01*
X99899222Y-51347639D01*
X99983266Y-51554616D01*
X100099987Y-51745088D01*
X100246250Y-51913938D01*
X100418126Y-52056632D01*
X100488595Y-52097811D01*
X100491445Y-52099476D01*
X100540169Y-52151114D01*
X100553240Y-52220897D01*
X100526509Y-52286669D01*
X100486055Y-52320027D01*
X100473607Y-52326507D01*
X100469474Y-52329610D01*
X100469471Y-52329612D01*
X100445247Y-52347800D01*
X100294965Y-52460635D01*
X100140629Y-52622138D01*
X100014743Y-52806680D01*
X99920688Y-53009305D01*
X99860989Y-53224570D01*
X99837251Y-53446695D01*
X99837548Y-53451848D01*
X99837548Y-53451851D01*
X99843011Y-53546590D01*
X99850110Y-53669715D01*
X99851247Y-53674761D01*
X99851248Y-53674767D01*
X99871119Y-53762939D01*
X99899222Y-53887639D01*
X99983266Y-54094616D01*
X100099987Y-54285088D01*
X100246250Y-54453938D01*
X100418126Y-54596632D01*
X100488595Y-54637811D01*
X100491445Y-54639476D01*
X100540169Y-54691114D01*
X100553240Y-54760897D01*
X100526509Y-54826669D01*
X100486055Y-54860027D01*
X100473607Y-54866507D01*
X100469474Y-54869610D01*
X100469471Y-54869612D01*
X100445247Y-54887800D01*
X100294965Y-55000635D01*
X100140629Y-55162138D01*
X100014743Y-55346680D01*
X99920688Y-55549305D01*
X99860989Y-55764570D01*
X99837251Y-55986695D01*
X56528622Y-55986695D01*
X56528622Y-48371863D01*
X99838050Y-48371863D01*
X99850309Y-48584477D01*
X99851745Y-48594697D01*
X99898565Y-48802446D01*
X99901645Y-48812275D01*
X99981770Y-49009603D01*
X99986413Y-49018794D01*
X100066460Y-49149420D01*
X100076916Y-49158880D01*
X100085694Y-49155096D01*
X100827978Y-48412812D01*
X100834356Y-48401132D01*
X101564408Y-48401132D01*
X101564539Y-48402965D01*
X101568790Y-48409580D01*
X102310474Y-49151264D01*
X102322484Y-49157823D01*
X102334223Y-49148855D01*
X102365004Y-49106019D01*
X102370315Y-49097180D01*
X102464670Y-48906267D01*
X102468469Y-48896672D01*
X102530376Y-48692915D01*
X102532555Y-48682834D01*
X102560590Y-48469887D01*
X102561109Y-48463212D01*
X102562572Y-48403364D01*
X102562378Y-48396646D01*
X102544781Y-48182604D01*
X102543096Y-48172424D01*
X102491214Y-47965875D01*
X102487894Y-47956124D01*
X102402972Y-47760814D01*
X102398105Y-47751739D01*
X102333063Y-47651197D01*
X102322377Y-47641995D01*
X102312812Y-47646398D01*
X101572022Y-48387188D01*
X101564408Y-48401132D01*
X100834356Y-48401132D01*
X100835592Y-48398868D01*
X100835461Y-48397035D01*
X100831210Y-48390420D01*
X100089849Y-47649059D01*
X100078313Y-47642759D01*
X100066031Y-47652382D01*
X100018089Y-47722662D01*
X100013004Y-47731613D01*
X99923338Y-47924783D01*
X99919775Y-47934470D01*
X99862864Y-48139681D01*
X99860933Y-48149800D01*
X99838302Y-48361574D01*
X99838050Y-48371863D01*
X56528622Y-48371863D01*
X56528622Y-47276427D01*
X100441223Y-47276427D01*
X100447968Y-47288758D01*
X101187188Y-48027978D01*
X101201132Y-48035592D01*
X101202965Y-48035461D01*
X101209580Y-48031210D01*
X101953389Y-47287401D01*
X101960410Y-47274544D01*
X101953611Y-47265213D01*
X101949554Y-47262518D01*
X101763117Y-47159599D01*
X101753705Y-47155369D01*
X101552959Y-47084280D01*
X101542989Y-47081646D01*
X101333327Y-47044301D01*
X101323073Y-47043331D01*
X101110116Y-47040728D01*
X101099832Y-47041448D01*
X100889321Y-47073661D01*
X100879293Y-47076050D01*
X100676868Y-47142212D01*
X100667359Y-47146209D01*
X100478466Y-47244540D01*
X100469734Y-47250039D01*
X100449677Y-47265099D01*
X100441223Y-47276427D01*
X56528622Y-47276427D01*
X56528622Y-42260853D01*
X56530122Y-42241468D01*
X56531812Y-42230616D01*
X56531812Y-42230613D01*
X56533193Y-42221744D01*
X56530587Y-42201813D01*
X56529658Y-42179658D01*
X56546414Y-41817232D01*
X56547488Y-41805643D01*
X56601761Y-41416571D01*
X56603900Y-41405131D01*
X56676559Y-41096206D01*
X56693841Y-41022728D01*
X56697024Y-41011542D01*
X56734409Y-40900000D01*
X66086496Y-40900000D01*
X66106458Y-41089928D01*
X66165473Y-41271556D01*
X66260960Y-41436944D01*
X66388747Y-41578866D01*
X66543248Y-41691118D01*
X66549276Y-41693802D01*
X66549278Y-41693803D01*
X66711681Y-41766109D01*
X66717712Y-41768794D01*
X66811113Y-41788647D01*
X66898056Y-41807128D01*
X66898061Y-41807128D01*
X66904513Y-41808500D01*
X67095487Y-41808500D01*
X67101939Y-41807128D01*
X67101944Y-41807128D01*
X67188887Y-41788647D01*
X67282288Y-41768794D01*
X67288319Y-41766109D01*
X67450722Y-41693803D01*
X67450724Y-41693802D01*
X67456752Y-41691118D01*
X67611253Y-41578866D01*
X67739040Y-41436944D01*
X67834527Y-41271556D01*
X67893542Y-41089928D01*
X67913504Y-40900000D01*
X67893542Y-40710072D01*
X67834527Y-40528444D01*
X67739040Y-40363056D01*
X67703942Y-40324075D01*
X67615675Y-40226045D01*
X67615674Y-40226044D01*
X67611253Y-40221134D01*
X67456752Y-40108882D01*
X67450724Y-40106198D01*
X67450722Y-40106197D01*
X67288319Y-40033891D01*
X67288318Y-40033891D01*
X67282288Y-40031206D01*
X67188888Y-40011353D01*
X67101944Y-39992872D01*
X67101939Y-39992872D01*
X67095487Y-39991500D01*
X66904513Y-39991500D01*
X66898061Y-39992872D01*
X66898056Y-39992872D01*
X66811112Y-40011353D01*
X66717712Y-40031206D01*
X66711682Y-40033891D01*
X66711681Y-40033891D01*
X66549278Y-40106197D01*
X66549276Y-40106198D01*
X66543248Y-40108882D01*
X66388747Y-40221134D01*
X66384326Y-40226044D01*
X66384325Y-40226045D01*
X66296059Y-40324075D01*
X66260960Y-40363056D01*
X66165473Y-40528444D01*
X66106458Y-40710072D01*
X66086496Y-40900000D01*
X56734409Y-40900000D01*
X56821864Y-40639072D01*
X56826068Y-40628220D01*
X56984744Y-40268853D01*
X56989932Y-40258435D01*
X57133864Y-40000028D01*
X57181083Y-39915253D01*
X57187208Y-39905360D01*
X57409217Y-39581266D01*
X57416231Y-39571978D01*
X57667193Y-39269757D01*
X57675034Y-39261156D01*
X57952810Y-38983381D01*
X57961410Y-38975541D01*
X58263631Y-38724579D01*
X58272919Y-38717565D01*
X58597005Y-38495562D01*
X58606900Y-38489436D01*
X58950097Y-38298277D01*
X58960515Y-38293089D01*
X59231687Y-38173354D01*
X59319881Y-38134412D01*
X59330726Y-38130212D01*
X59703195Y-38005373D01*
X59714384Y-38002190D01*
X60096785Y-37912249D01*
X60108225Y-37910110D01*
X60497297Y-37855837D01*
X60508886Y-37854763D01*
X60863925Y-37838349D01*
X60889128Y-37839715D01*
X60891970Y-37840158D01*
X60891978Y-37840158D01*
X60900846Y-37841539D01*
X60909748Y-37840375D01*
X60909750Y-37840375D01*
X60926273Y-37838214D01*
X60932255Y-37837432D01*
X60948590Y-37836368D01*
X86689474Y-37836368D01*
X86757595Y-37856370D01*
G37*
G04 #@! TD.AperFunction*
M02*
