G04 #@! TF.GenerationSoftware,KiCad,Pcbnew,(6.0.6)*
G04 #@! TF.CreationDate,2023-02-02T00:20:54-07:00*
G04 #@! TF.ProjectId,Netflix and Chill LEDs,4e657466-6c69-4782-9061-6e6420436869,1*
G04 #@! TF.SameCoordinates,Original*
G04 #@! TF.FileFunction,Legend,Bot*
G04 #@! TF.FilePolarity,Positive*
%FSLAX46Y46*%
G04 Gerber Fmt 4.6, Leading zero omitted, Abs format (unit mm)*
G04 Created by KiCad (PCBNEW (6.0.6)) date 2023-02-02 00:20:54*
%MOMM*%
%LPD*%
G01*
G04 APERTURE LIST*
%ADD10C,0.150000*%
%ADD11C,0.050000*%
%ADD12C,0.120000*%
%ADD13C,1.700000*%
%ADD14R,1.700000X1.700000*%
%ADD15O,1.700000X1.700000*%
G04 APERTURE END LIST*
D10*
X88499904Y-52702380D02*
X88499904Y-53511904D01*
X88452285Y-53607142D01*
X88404666Y-53654761D01*
X88309428Y-53702380D01*
X88118952Y-53702380D01*
X88023714Y-53654761D01*
X87976095Y-53607142D01*
X87928476Y-53511904D01*
X87928476Y-52702380D01*
X86928476Y-53702380D02*
X87499904Y-53702380D01*
X87214190Y-53702380D02*
X87214190Y-52702380D01*
X87309428Y-52845238D01*
X87404666Y-52940476D01*
X87499904Y-52988095D01*
X92999904Y-52178380D02*
X92999904Y-51178380D01*
X92618952Y-51178380D01*
X92523714Y-51226000D01*
X92476095Y-51273619D01*
X92428476Y-51368857D01*
X92428476Y-51511714D01*
X92476095Y-51606952D01*
X92523714Y-51654571D01*
X92618952Y-51702190D01*
X92999904Y-51702190D01*
X91999904Y-52178380D02*
X91999904Y-51511714D01*
X91999904Y-51178380D02*
X92047523Y-51226000D01*
X91999904Y-51273619D01*
X91952285Y-51226000D01*
X91999904Y-51178380D01*
X91999904Y-51273619D01*
X91618952Y-52178380D02*
X91095142Y-51511714D01*
X91618952Y-51511714D02*
X91095142Y-52178380D01*
X90333238Y-52130761D02*
X90428476Y-52178380D01*
X90618952Y-52178380D01*
X90714190Y-52130761D01*
X90761809Y-52035523D01*
X90761809Y-51654571D01*
X90714190Y-51559333D01*
X90618952Y-51511714D01*
X90428476Y-51511714D01*
X90333238Y-51559333D01*
X90285619Y-51654571D01*
X90285619Y-51749809D01*
X90761809Y-51845047D01*
X89714190Y-52178380D02*
X89809428Y-52130761D01*
X89857047Y-52035523D01*
X89857047Y-51178380D01*
X88999904Y-51654571D02*
X88857047Y-51702190D01*
X88809428Y-51749809D01*
X88761809Y-51845047D01*
X88761809Y-51987904D01*
X88809428Y-52083142D01*
X88857047Y-52130761D01*
X88952285Y-52178380D01*
X89333238Y-52178380D01*
X89333238Y-51178380D01*
X88999904Y-51178380D01*
X88904666Y-51226000D01*
X88857047Y-51273619D01*
X88809428Y-51368857D01*
X88809428Y-51464095D01*
X88857047Y-51559333D01*
X88904666Y-51606952D01*
X88999904Y-51654571D01*
X89333238Y-51654571D01*
X88190380Y-52178380D02*
X88285619Y-52130761D01*
X88333238Y-52035523D01*
X88333238Y-51178380D01*
X87380857Y-52178380D02*
X87380857Y-51654571D01*
X87428476Y-51559333D01*
X87523714Y-51511714D01*
X87714190Y-51511714D01*
X87809428Y-51559333D01*
X87380857Y-52130761D02*
X87476095Y-52178380D01*
X87714190Y-52178380D01*
X87809428Y-52130761D01*
X87857047Y-52035523D01*
X87857047Y-51940285D01*
X87809428Y-51845047D01*
X87714190Y-51797428D01*
X87476095Y-51797428D01*
X87380857Y-51749809D01*
X86999904Y-51511714D02*
X86476095Y-51511714D01*
X86999904Y-52178380D01*
X86476095Y-52178380D01*
X85714190Y-52130761D02*
X85809428Y-52178380D01*
X85999904Y-52178380D01*
X86095142Y-52130761D01*
X86142761Y-52035523D01*
X86142761Y-51654571D01*
X86095142Y-51559333D01*
X85999904Y-51511714D01*
X85809428Y-51511714D01*
X85714190Y-51559333D01*
X85666571Y-51654571D01*
X85666571Y-51749809D01*
X86142761Y-51845047D01*
X85238000Y-52178380D02*
X85238000Y-51178380D01*
X84857047Y-51178380D01*
X84761809Y-51226000D01*
X84714190Y-51273619D01*
X84666571Y-51368857D01*
X84666571Y-51511714D01*
X84714190Y-51606952D01*
X84761809Y-51654571D01*
X84857047Y-51702190D01*
X85238000Y-51702190D01*
X84238000Y-52178380D02*
X84238000Y-51511714D01*
X84238000Y-51178380D02*
X84285619Y-51226000D01*
X84238000Y-51273619D01*
X84190380Y-51226000D01*
X84238000Y-51178380D01*
X84238000Y-51273619D01*
X83333238Y-52130761D02*
X83428476Y-52178380D01*
X83618952Y-52178380D01*
X83714190Y-52130761D01*
X83761809Y-52083142D01*
X83809428Y-51987904D01*
X83809428Y-51702190D01*
X83761809Y-51606952D01*
X83714190Y-51559333D01*
X83618952Y-51511714D01*
X83428476Y-51511714D01*
X83333238Y-51559333D01*
X82761809Y-52178380D02*
X82857047Y-52130761D01*
X82904666Y-52083142D01*
X82952285Y-51987904D01*
X82952285Y-51702190D01*
X82904666Y-51606952D01*
X82857047Y-51559333D01*
X82761809Y-51511714D01*
X82618952Y-51511714D01*
X82523714Y-51559333D01*
X82476095Y-51606952D01*
X82428476Y-51702190D01*
X82428476Y-51987904D01*
X82476095Y-52083142D01*
X82523714Y-52130761D01*
X82618952Y-52178380D01*
X82761809Y-52178380D01*
X103662738Y-55472380D02*
X104138928Y-55472380D01*
X104186547Y-55948571D01*
X104138928Y-55900952D01*
X104043690Y-55853333D01*
X103805595Y-55853333D01*
X103710357Y-55900952D01*
X103662738Y-55948571D01*
X103615119Y-56043809D01*
X103615119Y-56281904D01*
X103662738Y-56377142D01*
X103710357Y-56424761D01*
X103805595Y-56472380D01*
X104043690Y-56472380D01*
X104138928Y-56424761D01*
X104186547Y-56377142D01*
X103329404Y-55472380D02*
X102996071Y-56472380D01*
X102662738Y-55472380D01*
X104567500Y-53837142D02*
X104615119Y-53884761D01*
X104757976Y-53932380D01*
X104853214Y-53932380D01*
X104996071Y-53884761D01*
X105091309Y-53789523D01*
X105138928Y-53694285D01*
X105186547Y-53503809D01*
X105186547Y-53360952D01*
X105138928Y-53170476D01*
X105091309Y-53075238D01*
X104996071Y-52980000D01*
X104853214Y-52932380D01*
X104757976Y-52932380D01*
X104615119Y-52980000D01*
X104567500Y-53027619D01*
X103662738Y-53932380D02*
X104138928Y-53932380D01*
X104138928Y-52932380D01*
X103329404Y-53932380D02*
X103329404Y-52932380D01*
X102757976Y-53932380D02*
X103186547Y-53360952D01*
X102757976Y-52932380D02*
X103329404Y-53503809D01*
X105805595Y-51392380D02*
X105805595Y-50392380D01*
X105567500Y-50392380D01*
X105424642Y-50440000D01*
X105329404Y-50535238D01*
X105281785Y-50630476D01*
X105234166Y-50820952D01*
X105234166Y-50963809D01*
X105281785Y-51154285D01*
X105329404Y-51249523D01*
X105424642Y-51344761D01*
X105567500Y-51392380D01*
X105805595Y-51392380D01*
X104853214Y-51106666D02*
X104377023Y-51106666D01*
X104948452Y-51392380D02*
X104615119Y-50392380D01*
X104281785Y-51392380D01*
X104091309Y-50392380D02*
X103519880Y-50392380D01*
X103805595Y-51392380D02*
X103805595Y-50392380D01*
X103234166Y-51106666D02*
X102757976Y-51106666D01*
X103329404Y-51392380D02*
X102996071Y-50392380D01*
X102662738Y-51392380D01*
X104853214Y-47900000D02*
X104948452Y-47852380D01*
X105091309Y-47852380D01*
X105234166Y-47900000D01*
X105329404Y-47995238D01*
X105377023Y-48090476D01*
X105424642Y-48280952D01*
X105424642Y-48423809D01*
X105377023Y-48614285D01*
X105329404Y-48709523D01*
X105234166Y-48804761D01*
X105091309Y-48852380D01*
X104996071Y-48852380D01*
X104853214Y-48804761D01*
X104805595Y-48757142D01*
X104805595Y-48423809D01*
X104996071Y-48423809D01*
X104377023Y-48852380D02*
X104377023Y-47852380D01*
X103805595Y-48852380D01*
X103805595Y-47852380D01*
X103329404Y-48852380D02*
X103329404Y-47852380D01*
X103091309Y-47852380D01*
X102948452Y-47900000D01*
X102853214Y-47995238D01*
X102805595Y-48090476D01*
X102757976Y-48280952D01*
X102757976Y-48423809D01*
X102805595Y-48614285D01*
X102853214Y-48709523D01*
X102948452Y-48804761D01*
X103091309Y-48852380D01*
X103329404Y-48852380D01*
X218600000Y-130759904D02*
X218647619Y-130855142D01*
X218647619Y-130998000D01*
X218600000Y-131140857D01*
X218504761Y-131236095D01*
X218409523Y-131283714D01*
X218219047Y-131331333D01*
X218076190Y-131331333D01*
X217885714Y-131283714D01*
X217790476Y-131236095D01*
X217695238Y-131140857D01*
X217647619Y-130998000D01*
X217647619Y-130902761D01*
X217695238Y-130759904D01*
X217742857Y-130712285D01*
X218076190Y-130712285D01*
X218076190Y-130902761D01*
X217647619Y-130283714D02*
X218647619Y-130283714D01*
X217647619Y-129712285D01*
X218647619Y-129712285D01*
X217647619Y-129236095D02*
X218647619Y-129236095D01*
X218647619Y-128998000D01*
X218600000Y-128855142D01*
X218504761Y-128759904D01*
X218409523Y-128712285D01*
X218219047Y-128664666D01*
X218076190Y-128664666D01*
X217885714Y-128712285D01*
X217790476Y-128759904D01*
X217695238Y-128855142D01*
X217647619Y-128998000D01*
X217647619Y-129236095D01*
X216107619Y-130696476D02*
X216107619Y-131172666D01*
X215631428Y-131220285D01*
X215679047Y-131172666D01*
X215726666Y-131077428D01*
X215726666Y-130839333D01*
X215679047Y-130744095D01*
X215631428Y-130696476D01*
X215536190Y-130648857D01*
X215298095Y-130648857D01*
X215202857Y-130696476D01*
X215155238Y-130744095D01*
X215107619Y-130839333D01*
X215107619Y-131077428D01*
X215155238Y-131172666D01*
X215202857Y-131220285D01*
X216107619Y-130363142D02*
X215107619Y-130029809D01*
X216107619Y-129696476D01*
D11*
X67880000Y-46787000D02*
X101200000Y-46787000D01*
X67880000Y-57633000D02*
X67880000Y-46787000D01*
X101200000Y-57633000D02*
X67880000Y-57633000D01*
D12*
X219430000Y-134630000D02*
X219430000Y-133300000D01*
X216830000Y-134630000D02*
X214230000Y-134630000D01*
X218100000Y-134630000D02*
X219430000Y-134630000D01*
X216830000Y-134630000D02*
X216830000Y-131970000D01*
X214230000Y-134630000D02*
X214230000Y-131970000D01*
X216830000Y-131970000D02*
X214230000Y-131970000D01*
%LPC*%
D13*
X101200000Y-48400000D03*
X101200000Y-50940000D03*
X101200000Y-53480000D03*
X101200000Y-56020000D03*
D14*
X218100000Y-133300000D03*
D15*
X215560000Y-133300000D03*
M02*
